<svg xmlns="http://www.w3.org/2000/svg">
<defs>
<font id="KelvinAvec-Italique" horiz-adv-x="650" >
  <font-face 
    font-family="Kelvin Avec"
    font-weight="350"
    font-style="italic"
    font-stretch="normal"
    units-per-em="1000"
    panose-1="2 0 0 0 0 0 0 0 0 0"
    ascent="800"
    descent="-200"
    x-height="475"
    cap-height="705"
    bbox="-271 -291 1481 1139"
    underline-thickness="62"
    underline-position="-233"
    slope="-18"
    unicode-range="U+0020-FB04"
  />
<missing-glyph horiz-adv-x="589" 
d="M294 684l285 -164v-328l-285 -164l-284 164v328zM308 561v-75h8v34h36v8h-36v25h39v8h-47zM230 561v-8h23v-67h8v67h24v8h-55zM493 281q24 13 28.5 35t-6.5 40q-12 22 -33 25.5t-37 -6.5q-9 -5 -14.5 -12t-8.5 -15l-26 46l63 37l-8 14l-78 -45l47 -82l14 8q-1 9 3 18.5
t15 15.5q13 7 27 4t22 -16q7 -15 3 -29.5t-18 -22.5q-12 -7 -22.5 -6.5t-20.5 5.5l-5 -17q11 -4 25.5 -5t29.5 8zM127 259l89 51l-8 15l-68 -40l20 69q4 15 5 28.5t-6 26.5q-10 18 -30 22.5t-39 -5.5q-18 -10 -23.5 -30t4.5 -38t29.5 -23.5t35.5 4.5l4 3l-20 -70zM335 282
q26 16 25 45t-17 56q-16 28 -40.5 43t-50.5 0t-25.5 -44t16.5 -56q16 -28 40.5 -43.5t51.5 -0.5zM145 400q7 -12 3 -25.5t-16 -20.5q-13 -7 -26.5 -4t-20.5 16t-3 26t16 20q13 7 26.5 4t20.5 -16zM260 412q10 6 21 4t21 -10l-29 -92q-4 4 -7.5 9t-7.5 11q-14 25 -14.5 46.5
t16.5 31.5zM314 394q4 -4 7.5 -9t6.5 -11q14 -25 14.5 -46.5t-15.5 -31.5q-10 -5 -20.5 -3.5t-20.5 9.5zM293 130q16 0 28 12t12 29q0 16 -12 28t-28 12q-17 0 -28.5 -12t-11.5 -28q0 -17 11.5 -29t28.5 -12zM293 202q13 0 21.5 -9t8.5 -22t-8.5 -22.5t-21.5 -9.5t-22 9.5
t-9 22.5t9 22t22 9zM302 153h8l-9 13q4 1 6 4.5t2 7.5q0 5 -3.5 8.5t-9.5 3.5h-17v-37h8v12h7zM294 184q4 0 6 -2t2 -4q0 -4 -2 -5.5t-6 -1.5h-7v13h7z" />
    <glyph glyph-name="f_f" unicode="ff" horiz-adv-x="654" 
d="M145 -282q-68 0 -102 22t-34 50q0 4 0.5 7.5t1.5 6.5q-36 -40 -80.5 -63t-95.5 -23q-53 0 -79.5 16t-26.5 44q0 19 12.5 30.5t28.5 11.5q17 0 27 -10.5t19.5 -23t22.5 -23t37 -10.5q45 0 84.5 53.5t64.5 148.5l125 490h-99l10 30h97q38 137 115 206.5t179 69.5
q66 0 94.5 -22t28.5 -40q0 -5 -1 -9.5t-2 -8.5q39 40 87 60t103 20q66 0 94.5 -22t28.5 -40q0 -19 -13 -31t-32 -12q-16 0 -26 12t-20.5 26.5t-25.5 26.5t-42 12q-36 0 -72 -29.5t-55 -95.5l-36 -123h134l-10 -30h-132l-127 -439q-18 -62 -46 -115t-64 -91t-80 -60t-93 -22z
M289 598l-36 -123h215q15 55 37 99.5t49 77.5q-5 -3 -11 -4.5t-13 -1.5q-16 0 -26 12t-20.5 26.5t-25.5 26.5t-42 12q-36 0 -72 -29.5t-55 -95.5zM335 -45l125 490h-215l-127 -439q-16 -51 -38 -97t-50 -82q4 2 9.5 3.5t10.5 1.5q17 0 28.5 -13t24 -28.5t29 -28.5t42.5 -13
q54 0 95 55.5t66 150.5z" />
    <glyph glyph-name="fi" unicode="fi" horiz-adv-x="585" 
d="M-165 -282q-53 0 -79.5 16t-26.5 44q0 19 12.5 30.5t28.5 11.5q17 0 27 -10.5t19.5 -23t22.5 -23t37 -10.5q45 0 84.5 53.5t64.5 148.5l125 490h-99l10 30h97q38 137 111.5 206.5t158.5 69.5q43 0 73 -10.5t48.5 -25.5t27 -30t8.5 -24q0 -19 -13 -32t-32 -13
q-24 0 -33.5 17t-18.5 36.5t-24.5 36.5t-50.5 17q-34 0 -69.5 -29.5t-54.5 -95.5l-36 -123h294l-129 -397q-6 -19 1.5 -25t18.5 -6q21 0 48.5 27.5t55.5 84.5l13 -9q-31 -82 -75 -123t-99 -41q-37 0 -53.5 23t-4.5 59l122 377h-200l-127 -439q-18 -62 -46 -115t-64 -91
t-80 -60t-93 -22z" />
    <glyph glyph-name="fl" unicode="fl" horiz-adv-x="594" 
d="M-165 -282q-53 0 -79.5 16t-26.5 44q0 19 12.5 30.5t28.5 11.5q17 0 27 -10.5t19.5 -23t22.5 -23t37 -10.5q45 0 84.5 53.5t64.5 148.5l125 490h-99l10 30h97q38 137 115 206.5t179 69.5q38 0 63.5 -8.5t39.5 -19.5l92 32l-220 -677q-6 -19 1.5 -25t18.5 -6
q21 0 48.5 27.5t55.5 84.5l13 -9q-31 -82 -75 -123t-99 -41q-37 0 -53.5 23t-4.5 59l188 580q-13 4 -21.5 16t-18.5 25t-24.5 23.5t-39.5 10.5q-36 0 -72 -29.5t-55 -95.5l-36 -123h134l-10 -30h-132l-127 -439q-18 -62 -46 -115t-64 -91t-80 -60t-93 -22z" />
    <glyph glyph-name="f_f_i" unicode="ffi" horiz-adv-x="895" 
d="M145 -282q-68 0 -102 22t-34 50q0 4 0.5 7.5t1.5 6.5q-36 -40 -80.5 -63t-95.5 -23q-53 0 -79.5 16t-26.5 44q0 19 12.5 30.5t28.5 11.5q17 0 27 -10.5t19.5 -23t22.5 -23t37 -10.5q45 0 84.5 53.5t64.5 148.5l125 490h-99l10 30h97q38 137 115 206.5t179 69.5
q66 0 94.5 -22t28.5 -40q0 -4 -0.5 -7t-1.5 -6q36 37 78.5 56t86.5 19q43 0 73 -10.5t48.5 -25.5t27 -30t8.5 -24q0 -19 -13 -32t-32 -13q-24 0 -33.5 17t-18.5 36.5t-24.5 36.5t-50.5 17q-34 0 -69.5 -29.5t-54.5 -95.5l-36 -123h294l-129 -397q-6 -19 1.5 -25t18.5 -6
q21 0 48.5 27.5t55.5 84.5l13 -9q-31 -82 -75 -123t-99 -41q-37 0 -53.5 23t-4.5 59l122 377h-200l-127 -439q-18 -62 -46 -115t-64 -91t-80 -60t-93 -22zM289 598l-36 -123h215q15 54 36.5 98t46.5 77q-4 -1 -9.5 -2.5t-11.5 -1.5q-16 0 -26 12t-20.5 26.5t-25.5 26.5
t-42 12q-36 0 -72 -29.5t-55 -95.5zM335 -45l125 490h-215l-127 -439q-16 -51 -38 -97t-50 -82q4 2 9.5 3.5t10.5 1.5q16 0 28 -13t24.5 -28.5t29.5 -28.5t43 -13q49 0 91.5 52.5t68.5 153.5z" />
    <glyph glyph-name="f_f_l" unicode="ffl" horiz-adv-x="904" 
d="M145 -282q-68 0 -102 22t-34 50q0 4 0.5 7.5t1.5 6.5q-36 -40 -80.5 -63t-95.5 -23q-53 0 -79.5 16t-26.5 44q0 19 12.5 30.5t28.5 11.5q17 0 27 -10.5t19.5 -23t22.5 -23t37 -10.5q45 0 84.5 53.5t64.5 148.5l125 490h-99l10 30h97q38 137 115 206.5t179 69.5
q66 0 94.5 -22t28.5 -40q0 -5 -1 -9.5t-2 -8.5q39 40 87 60t103 20q38 0 64 -8.5t39 -19.5l92 32l-220 -677q-6 -19 1.5 -25t18.5 -6q21 0 48.5 27.5t55.5 84.5l13 -9q-31 -82 -75 -123t-99 -41q-37 0 -53.5 23t-4.5 59l189 579q-13 4 -22 16.5t-19 25.5t-24.5 23.5
t-39.5 10.5q-36 0 -72 -29.5t-55 -95.5l-36 -123h134l-10 -30h-132l-127 -439q-18 -62 -46 -115t-64 -91t-80 -60t-93 -22zM289 598l-36 -123h215q15 55 37 99.5t49 77.5q-5 -3 -11 -4.5t-13 -1.5q-16 0 -26 12t-20.5 26.5t-25.5 26.5t-42 12q-36 0 -72 -29.5t-55 -95.5z
M335 -45l125 490h-215l-127 -439q-16 -51 -38 -97t-50 -82q4 2 9.5 3.5t10.5 1.5q17 0 28.5 -13t24 -28.5t29 -28.5t42.5 -13q54 0 95 55.5t66 150.5z" />
    <glyph glyph-name=".notdef" horiz-adv-x="589" 
d="M294 684l285 -164v-328l-285 -164l-284 164v328zM308 561v-75h8v34h36v8h-36v25h39v8h-47zM230 561v-8h23v-67h8v67h24v8h-55zM493 281q24 13 28.5 35t-6.5 40q-12 22 -33 25.5t-37 -6.5q-9 -5 -14.5 -12t-8.5 -15l-26 46l63 37l-8 14l-78 -45l47 -82l14 8q-1 9 3 18.5
t15 15.5q13 7 27 4t22 -16q7 -15 3 -29.5t-18 -22.5q-12 -7 -22.5 -6.5t-20.5 5.5l-5 -17q11 -4 25.5 -5t29.5 8zM127 259l89 51l-8 15l-68 -40l20 69q4 15 5 28.5t-6 26.5q-10 18 -30 22.5t-39 -5.5q-18 -10 -23.5 -30t4.5 -38t29.5 -23.5t35.5 4.5l4 3l-20 -70zM335 282
q26 16 25 45t-17 56q-16 28 -40.5 43t-50.5 0t-25.5 -44t16.5 -56q16 -28 40.5 -43.5t51.5 -0.5zM145 400q7 -12 3 -25.5t-16 -20.5q-13 -7 -26.5 -4t-20.5 16t-3 26t16 20q13 7 26.5 4t20.5 -16zM260 412q10 6 21 4t21 -10l-29 -92q-4 4 -7.5 9t-7.5 11q-14 25 -14.5 46.5
t16.5 31.5zM314 394q4 -4 7.5 -9t6.5 -11q14 -25 14.5 -46.5t-15.5 -31.5q-10 -5 -20.5 -3.5t-20.5 9.5zM293 130q16 0 28 12t12 29q0 16 -12 28t-28 12q-17 0 -28.5 -12t-11.5 -28q0 -17 11.5 -29t28.5 -12zM293 202q13 0 21.5 -9t8.5 -22t-8.5 -22.5t-21.5 -9.5t-22 9.5
t-9 22.5t9 22t22 9zM302 153h8l-9 13q4 1 6 4.5t2 7.5q0 5 -3.5 8.5t-9.5 3.5h-17v-37h8v12h7zM294 184q4 0 6 -2t2 -4q0 -4 -2 -5.5t-6 -1.5h-7v13h7z" />
    <glyph glyph-name=".null" horiz-adv-x="0" 
 />
    <glyph glyph-name="nonmarkingreturn" horiz-adv-x="333" 
 />
    <glyph glyph-name="space" unicode=" " horiz-adv-x="224" 
 />
    <glyph glyph-name="exclam" unicode="!" horiz-adv-x="290" 
d="M137 310q19 129 34 211.5t25 130.5q13 63 33 81t39 18t30.5 -11.5t11.5 -30.5q0 -22 -12.5 -67t-31 -101.5t-41.5 -122t-44 -128.5l-25 -76h-33zM88 -14q-25 0 -41 17t-16 39q0 35 24.5 57.5t55.5 22.5q28 0 43.5 -17t15.5 -41q0 -33 -24 -55.5t-58 -22.5z" />
    <glyph glyph-name="quotedbl" unicode="&#x22;" horiz-adv-x="402" 
d="M157 665q0 52 24 69t47 17q24 0 36 -12.5t12 -30.5q0 -20 -13.5 -50.5t-39.5 -85.5l-39 -83h-27v176zM358 665q0 52 24 69t47 17q24 0 36 -12.5t12 -30.5q0 -20 -13.5 -50.5t-39.5 -85.5l-39 -83h-27v176z" />
    <glyph glyph-name="numbersign" unicode="#" horiz-adv-x="673" 
d="M88 268h120l40 150h-120l15 57h120l62 230h62l-62 -230h162l62 230h62l-62 -230h120l-15 -57h-120l-40 -150h120l-16 -57h-119l-57 -211h-62l57 211h-162l-57 -211h-62l57 211h-120zM270 268h162l40 150h-162z" />
    <glyph glyph-name="dollar" unicode="$" horiz-adv-x="670" 
d="M289 -14h-1l-17 -64h-40l18 65q-48 4 -98.5 16t-115.5 36l50 189h27l-1 -81q-1 -54 30.5 -86t117.5 -36l81 305l-62 31q-57 28 -86.5 58t-29.5 84q0 40 21.5 78.5t59 68t90 48.5t112.5 21l14 53h40l-14 -54q33 -1 70.5 -9t90.5 -22l-40 -197h-30v98q0 51 -29 70.5
t-73 21.5l-72 -270l84 -42q47 -24 74 -58.5t27 -84.5q0 -51 -25.5 -95t-66.5 -76t-95 -50t-111 -18zM324 449l43 -21l67 252q-37 -3 -70 -15t-58 -30.5t-39.5 -43t-14.5 -52.5q0 -31 16.5 -51t55.5 -39zM440 281l-64 32l-78 -289q37 1 72 15t61.5 37.5t43 55t16.5 68.5
q0 33 -14.5 51.5t-36.5 29.5z" />
    <glyph glyph-name="percent" unicode="%" horiz-adv-x="1031" 
d="M273 12l545 710l36 -26l-547 -712zM264 349q-56 0 -83 35t-27 93q0 37 15.5 79t42 77.5t61 59t72.5 23.5q50 0 80 -36t30 -88q0 -38 -15.5 -81t-41.5 -79t-61 -59.5t-73 -23.5zM261 369q26 0 50 29t42.5 71t29.5 90.5t11 86.5q0 23 -12.5 36.5t-34.5 13.5
q-28 0 -52 -31.5t-42 -75t-28.5 -90t-10.5 -76.5q0 -31 13.5 -42.5t33.5 -11.5zM762 -9q-56 0 -83 35t-27 93q0 37 15.5 79t42 77.5t61 59t72.5 23.5q50 0 80 -36t30 -88q0 -38 -15.5 -81t-41.5 -79t-61 -59.5t-73 -23.5zM759 11q26 0 50 29t42.5 71t29.5 90.5t11 86.5
q0 23 -12.5 36.5t-34.5 13.5q-28 0 -52 -31.5t-42 -75t-28.5 -90t-10.5 -76.5q0 -31 13.5 -42.5t33.5 -11.5z" />
    <glyph glyph-name="ampersand" unicode="&#x26;" horiz-adv-x="808" 
d="M207 -14q-40 0 -75 10.5t-61.5 30.5t-42 49.5t-15.5 67.5q0 50 26 110.5t65.5 112.5t87 87t90.5 35q26 0 48 -9t35 -29q39 46 57.5 87.5t18.5 78.5q0 26 -6.5 40t-13.5 22.5t-13.5 16t-6.5 20.5q0 17 12.5 27.5t27.5 10.5q28 0 47 -24.5t19 -60.5q0 -34 -18 -82
t-63 -108.5t-124 -133.5t-200 -157q-3 -51 25 -92t115 -41q49 0 105 19t109.5 62.5t102.5 116t84 178.5h-98q-16 0 -23.5 -8.5t-7.5 -18.5q0 -17 12.5 -25.5t12.5 -25.5q0 -16 -12 -27t-31 -11q-22 0 -37 16t-15 39q0 46 52 70.5t143 41.5l181 34q9 1 14.5 5t5.5 11
q0 9 -9 12.5t-20.5 7.5t-20.5 12t-9 25q0 15 11.5 27.5t30.5 12.5q22 0 39.5 -17.5t17.5 -48.5q0 -24 -13 -47.5t-34 -42t-47.5 -30.5t-53.5 -12h-65q-31 -115 -78 -199.5t-106 -139t-129 -80.5t-147 -26zM119 273q-4 -14 -8.5 -29.5t-6.5 -31.5q64 51 115.5 95.5t91.5 83.5
v6v6q0 27 -15 40t-33 13q-45 0 -80.5 -50t-63.5 -133z" />
    <glyph glyph-name="quotesingle" unicode="'" horiz-adv-x="201" 
d="M157 665q0 52 24 69t47 17q24 0 36 -12.5t12 -30.5q0 -20 -13.5 -50.5t-39.5 -85.5l-39 -83h-27v176z" />
    <glyph glyph-name="parenleft" unicode="(" horiz-adv-x="287" 
d="M187 -196q-50 86 -77 179t-27 202q0 169 77 314.5t220 264.5l10 -21q-112 -131 -170.5 -283.5t-58.5 -327.5q0 -87 13 -169.5t32 -143.5z" />
    <glyph glyph-name="parenright" unicode=")" horiz-adv-x="272" 
d="M115 764q50 -86 77 -179t27 -202q0 -169 -77 -314.5t-220 -264.5l-10 21q112 131 170.5 283.5t58.5 327.5q0 87 -13 169.5t-32 143.5z" />
    <glyph glyph-name="asterisk" unicode="*" horiz-adv-x="405" 
d="M257 385q-18 4 -24 18.5t-2 29.5q4 13 9.5 22.5t12 20t15 24t18.5 35.5q-22 -9 -36 -17.5t-24.5 -15.5t-20 -12.5t-22.5 -9.5q-15 -4 -29.5 2t-18.5 23q-4 18 5 30t24 16q25 7 47 3.5t69 1.5q-38 28 -59 35.5t-40 25.5q-11 10 -13 26t11 29t28 10.5t26 -13.5
q19 -20 26.5 -40.5t35.5 -58.5q5 48 1 69.5t3 47.5q4 15 16.5 24t29.5 5q18 -4 24 -18.5t2 -29.5q-4 -13 -9.5 -22.5t-12.5 -20t-15.5 -24.5t-18.5 -36q22 10 35.5 18.5t24 15.5t20.5 12.5t23 8.5q15 4 29.5 -2.5t18.5 -23.5t-5 -29.5t-24 -16.5q-26 -8 -47 -4t-67 0
q37 -27 57.5 -34t39.5 -26q10 -11 12.5 -26.5t-10.5 -28.5t-28.5 -11t-26.5 13q-19 19 -26 39.5t-34 58.5q-5 -47 -1 -68t-3 -47q-4 -16 -16.5 -24.5t-29.5 -4.5z" />
    <glyph glyph-name="plus" unicode="+" 
d="M298 252h-195l17 67h195l56 225h68l-56 -225h195l-17 -67h-195l-55 -223h-68z" />
    <glyph glyph-name="comma" unicode="," horiz-adv-x="285" 
d="M-19 -196q47 28 83 59.5t43 78.5q3 22 -6 37t-25 26q-21 15 -28.5 29t-7.5 30q0 26 19 43t41 17q37 0 62.5 -32t25.5 -79q0 -41 -17 -76.5t-45 -64t-64.5 -51t-75.5 -36.5z" />
    <glyph glyph-name="hyphen" unicode="-" horiz-adv-x="349" 
d="M46 281h270l-25 -77h-270z" />
    <glyph glyph-name="period" unicode="." horiz-adv-x="316" 
d="M91 -14q-25 0 -41 17t-16 39q0 35 24.5 57.5t55.5 22.5q28 0 43.5 -17t15.5 -41q0 -33 -24 -55.5t-58 -22.5z" />
    <glyph glyph-name="slash" unicode="/" horiz-adv-x="302" 
d="M-55 -102l437 874l42 -19l-437 -874z" />
    <glyph glyph-name="zero" unicode="0" horiz-adv-x="629" 
d="M271 -14q-93 0 -138.5 64.5t-45.5 180.5q0 74 28.5 159.5t76.5 158.5t110.5 121.5t130.5 48.5q84 0 134 -66.5t50 -171.5q0 -76 -28 -163.5t-75 -161t-110.5 -122t-132.5 -48.5zM266 19q51 0 99.5 58.5t85 144t59 183t22.5 174.5q0 49 -24.5 78t-69.5 29q-55 0 -104 -64
t-84.5 -152t-56.5 -182.5t-21 -154.5q0 -63 27 -88.5t67 -25.5z" />
    <glyph glyph-name="one" unicode="1" horiz-adv-x="488" 
d="M475 705l-189 -705h-97l159 591l-200 -92l-10 25l280 181h57z" />
    <glyph glyph-name="two" unicode="2" horiz-adv-x="588" 
d="M29 68l235 197q60 50 103 91t70 76.5t39.5 69t12.5 69.5q0 55 -30 84.5t-81 29.5q-16 0 -36.5 -6.5t-38 -21t-29.5 -39.5t-12 -61q0 -28 -17.5 -41t-37.5 -12q-19 1 -35.5 14t-16.5 37q0 34 22 64t55.5 52.5t74 35t77.5 12.5q47 0 84.5 -13.5t64 -36.5t40.5 -53.5
t14 -64.5q0 -30 -11.5 -59t-48 -68t-105 -94.5t-181.5 -138.5l-133 -98h367l-25 -93h-438z" />
    <glyph glyph-name="three" unicode="3" horiz-adv-x="581" 
d="M240 -12q-43 0 -80.5 10.5t-65 28t-43 42t-15.5 51.5q0 28 15 45t37 17q20 0 33.5 -14.5t26.5 -62.5t35 -67t64 -19q69 0 117 50t48 122q0 45 -19 74.5t-47 46.5t-61.5 23.5t-61.5 6.5l-1 14q62 14 114 33.5t89 45.5t58 59.5t21 76.5q0 48 -26 81t-83 33q-32 0 -54 -10.5
t-35 -26.5t-18.5 -35t-5.5 -37q0 -33 -17.5 -48.5t-40.5 -15.5q-19 0 -36 13.5t-17 38.5q0 30 19.5 58.5t52 49.5t74.5 34t86 13q42 0 79 -12.5t64 -34t42 -51t13 -64.5q-3 -54 -61.5 -105t-165.5 -79q66 -18 101 -59t35 -99q0 -53 -23.5 -95.5t-62 -71.5t-87 -44.5
t-97.5 -15.5z" />
    <glyph glyph-name="four" unicode="4" horiz-adv-x="671" 
d="M616 197h-149l-53 -197h-96l53 197h-323l20 76l438 432h97l-118 -440h149zM110 265h279l100 373z" />
    <glyph glyph-name="five" unicode="5" horiz-adv-x="572" 
d="M233 -14q-52 0 -90.5 13.5t-63.5 34t-37.5 45t-12.5 45.5q0 31 15 44.5t34 13.5q24 0 36 -18t17 -35q4 -12 9 -31t15.5 -37.5t29.5 -31.5t51 -13q40 0 74.5 20.5t59.5 52.5t39.5 71.5t14.5 77.5q0 79 -65 123.5t-219 40.5l129 303h315l-24 -89h-290l-63 -148
q10 1 20.5 1.5t23.5 0.5q50 0 99 -13.5t87 -40t62 -66.5t24 -93q0 -57 -24.5 -107t-65 -86t-93 -57t-107.5 -21z" />
    <glyph glyph-name="six" unicode="6" horiz-adv-x="617" 
d="M294 -14q-57 0 -99.5 21t-69.5 54t-40 74t-13 82q0 76 37.5 158t107 152t170 122t225.5 70l4 -27q-67 -15 -127 -44.5t-110 -69t-90 -89t-68 -103.5q39 35 80 52.5t90 17.5q28 0 59.5 -10t58 -32.5t44.5 -59t18 -89.5q0 -55 -26 -106t-66.5 -89t-89.5 -61t-95 -23z
M165 160q0 -69 32.5 -106.5t98.5 -37.5q34 0 65.5 19.5t56 53t39 79t14.5 96.5q0 36 -11 61.5t-28.5 41.5t-41 23.5t-47.5 7.5q-35 0 -72.5 -14t-72.5 -49q-16 -42 -24.5 -86t-8.5 -89z" />
    <glyph glyph-name="seven" unicode="7" horiz-adv-x="596" 
d="M194 -14q-28 0 -51.5 18t-22.5 43l96 114q87 103 175 215.5t175 239.5h-399l24 89h456l-11 -44q-55 -85 -111.5 -174t-112.5 -175.5t-111 -169.5t-107 -156z" />
    <glyph glyph-name="eight" unicode="8" horiz-adv-x="635" 
d="M269 -14q-99 0 -159.5 48.5t-60.5 123.5t59 134t170 83q-44 11 -75.5 45t-31.5 87q0 40 21.5 78t58 67.5t85.5 48t103 18.5q85 0 138.5 -44.5t53.5 -104.5q0 -74 -54.5 -127.5t-146.5 -76.5q55 -20 91.5 -58t36.5 -96q0 -48 -23.5 -89.5t-63.5 -72t-92.5 -47.5
t-109.5 -17zM362 394q29 0 60 12t55.5 35.5t40.5 58t16 79.5q0 51 -25.5 78t-74.5 27q-28 0 -58 -14t-53.5 -40t-39 -63t-15.5 -82q0 -43 26 -67t68 -24zM268 21q35 0 68.5 14.5t60 41t42.5 65t16 86.5q0 54 -28.5 86t-85.5 32q-35 0 -69 -14.5t-61 -41t-44 -64.5t-17 -84
q0 -52 30.5 -86.5t87.5 -34.5z" />
    <glyph glyph-name="nine" unicode="9" horiz-adv-x="616" 
d="M392 719q57 0 99.5 -21t69.5 -54t40 -74t13 -82q0 -76 -37.5 -158t-107 -152t-170 -122t-225.5 -70l-4 27q67 15 127 44.5t110 69t90 89t68 103.5q-39 -35 -80 -52.5t-90 -17.5q-28 0 -59.5 10t-58 32.5t-44.5 59t-18 89.5q0 55 26 106t66.5 89t89.5 61t95 23zM215 441
q0 -36 11 -61.5t28.5 -41.5t41 -23.5t47.5 -7.5q35 0 72.5 14t72.5 49q16 42 24.5 86t8.5 89q0 69 -32.5 106.5t-98.5 37.5q-34 0 -65.5 -19.5t-56 -53t-39 -79t-14.5 -96.5z" />
    <glyph glyph-name="colon" unicode=":" horiz-adv-x="327" 
d="M91 -14q-25 0 -41 17t-16 39q0 35 24.5 57.5t55.5 22.5q28 0 43.5 -17t15.5 -41q0 -33 -24 -55.5t-58 -22.5zM206 339q-25 0 -41 17t-16 39q0 35 24.5 57.5t55.5 22.5q28 0 43.5 -17t15.5 -41q0 -33 -24 -55.5t-58 -22.5z" />
    <glyph glyph-name="semicolon" unicode=";" horiz-adv-x="327" 
d="M-19 -196q47 28 83 59.5t43 78.5q3 22 -6 37t-25 26q-21 15 -28.5 29t-7.5 30q0 26 19 43t41 17q37 0 62.5 -32t25.5 -79q0 -41 -17 -76.5t-45 -64t-64.5 -51t-75.5 -36.5zM206 339q-25 0 -41 17t-16 39q0 35 24.5 57.5t55.5 22.5q28 0 43.5 -17t15.5 -41
q0 -33 -24 -55.5t-58 -22.5z" />
    <glyph glyph-name="less" unicode="&#x3c;" 
d="M72 286l568 288l-22 -84l-421 -213l304 -217l-17 -68z" />
    <glyph glyph-name="equal" unicode="=" 
d="M144 423h461l-17 -67h-461zM92 216h461l-16 -67h-461z" />
    <glyph glyph-name="greater" unicode="&#x3e;" 
d="M607 280l-568 -288l22 84l421 213l-304 217l17 68z" />
    <glyph glyph-name="question" unicode="?" horiz-adv-x="456" 
d="M239 214q-43 0 -76 27t-33 70q0 34 22.5 65.5t67.5 50.5l120 52q53 23 76 47.5t28 55.5q9 54 -22 95t-100 41q-20 0 -40.5 -5t-36.5 -14t-26.5 -22.5t-10.5 -31.5q0 -11 6 -19.5t12.5 -16.5t12.5 -18t6 -23q0 -19 -15 -33t-39 -14q-22 0 -40 21.5t-18 52.5q0 34 16 63
t43 49.5t63.5 32t77.5 11.5q48 0 87.5 -15t66.5 -40.5t39.5 -59t6.5 -70.5q-7 -49 -44 -87t-98 -65l-138 -61q-16 -7 -24.5 -18.5t-8.5 -27.5q0 -21 13.5 -34t33.5 -13q15 0 36.5 9t41.5 44l15 -9q-14 -48 -49.5 -69t-71.5 -21zM158 -14q-25 0 -41 17t-16 39q0 35 24.5 57.5
t55.5 22.5q28 0 43.5 -17t15.5 -41q0 -33 -24 -55.5t-58 -22.5z" />
    <glyph glyph-name="at" unicode="@" horiz-adv-x="1116" 
d="M425 -14q-47 0 -71 31.5t-24 74.5q0 59 38.5 128.5t91.5 129t111 99.5t97 40q33 0 46.5 -18.5t12.5 -50.5l18 55l96 14l-134 -411q-6 -19 1.5 -25t18.5 -6q54 0 108 30t96 79t68.5 112.5t26.5 130.5q0 69 -24.5 126t-69 97t-108.5 62t-143 22q-109 0 -210 -45t-178 -120
t-123.5 -174t-46.5 -207q0 -87 29.5 -158.5t82 -121.5t126.5 -77.5t161 -27.5q45 0 93 7.5t95.5 21.5t93.5 35.5t86 49.5l21 -39q-87 -57 -185.5 -88.5t-210.5 -31.5q-94 0 -174.5 31t-138.5 87.5t-91 135.5t-33 175q0 118 50 226t133 189t192.5 129t227.5 48
q88 0 160.5 -25.5t123 -71.5t78.5 -111t28 -144q0 -88 -33.5 -163.5t-88.5 -131t-128 -87t-151 -31.5q-37 0 -53.5 23t-4.5 59l41 126q-40 -67 -70.5 -108t-56 -63.5t-49.5 -29.5t-52 -7zM426 96q0 -20 8.5 -39t31.5 -19q10 0 24 4t37 23.5t57.5 60.5t83.5 115l39 118
q13 54 -2.5 76t-37.5 22q-33 0 -75 -39t-78.5 -94.5t-62 -118t-25.5 -109.5z" />
    <glyph glyph-name="A" unicode="A" horiz-adv-x="904" 
d="M-28 27l103 18l740 671h48l-179 -671l100 -18l-7 -27h-305l7 27l103 18l52 194h-287l-214 -194l100 -18l-7 -27h-261zM644 279l81 303l-334 -303h253z" />
    <glyph glyph-name="B" unicode="B" horiz-adv-x="756" 
d="M2 27l103 18l165 615l-100 18l7 27h333q93 0 152 -35t59 -107q0 -36 -18.5 -67t-49.5 -55.5t-72 -43t-87 -28.5q81 -10 126 -52t45 -100q0 -57 -32.5 -98t-85 -67.5t-118 -39t-131.5 -12.5h-303zM488 671h-112l-76 -283h125q41 0 76 15.5t60 41t39.5 58.5t14.5 67
q0 54 -33.5 77.5t-93.5 23.5zM428 348h-139l-84 -314h93q51 0 98.5 14.5t83.5 41.5t57.5 65.5t21.5 85.5q0 58 -36.5 82.5t-94.5 24.5z" />
    <glyph glyph-name="C" unicode="C" horiz-adv-x="772" 
d="M429 -14q-72 0 -134 15.5t-106 47t-69 79t-25 110.5q0 93 47 180t121 153.5t167 107t184 40.5q40 0 83.5 -9t81.5 -23l-40 -197h-30v85q0 57 -22.5 82t-82.5 25q-78 0 -151 -39.5t-128.5 -104.5t-89.5 -149t-34 -172q0 -42 17 -78t47.5 -61.5t73 -40t92.5 -14.5
q39 0 73 16t61 43.5t48.5 63.5t36.5 75h30l-55 -201q-47 -14 -101.5 -24t-94.5 -10z" />
    <glyph glyph-name="D" unicode="D" horiz-adv-x="823" 
d="M2 27l103 18l165 615l-100 18l7 27h310q68 0 125.5 -19.5t98 -54t63 -83t22.5 -106.5q0 -85 -42 -165t-117 -141t-180 -98.5t-229 -37.5h-233zM489 671h-113l-171 -637h45q94 0 174.5 35.5t139 94t91.5 136.5t33 162q0 91 -53 150t-146 59z" />
    <glyph glyph-name="E" unicode="E" horiz-adv-x="744" 
d="M2 27l103 18l165 615l-100 18l7 27h554l-40 -198h-27v72q0 26 -5 43.5t-24.5 28.5t-59 15.5t-108.5 4.5h-91l-77 -288h174l52 91h27l-59 -222h-26l-2 91h-177l-83 -309h139q110 0 169.5 19t92.5 88l34 71h27l-56 -212h-616z" />
    <glyph glyph-name="F" unicode="F" horiz-adv-x="736" 
d="M2 27l103 18l165 615l-100 18l7 27h573l-52 -198h-27l6 48q4 36 0.5 59t-26.5 35.5t-70 17t-128 4.5h-77l-77 -288h174l52 91h27l-63 -241h-26l2 110h-177l-80 -298l100 -18l-7 -27h-306z" />
    <glyph glyph-name="G" unicode="G" horiz-adv-x="827" 
d="M544 19q-22 -12 -57.5 -22.5t-80.5 -10.5q-67 0 -124 17.5t-98 50.5t-64.5 81.5t-23.5 108.5q0 99 52.5 186t129.5 151t167.5 101t165.5 37q44 0 88 -9t82 -23l-40 -197h-30v98q0 49 -26.5 71.5t-83.5 22.5q-73 0 -144.5 -39.5t-128 -104.5t-91.5 -150.5t-35 -176.5
q0 -39 16.5 -74t46.5 -60.5t74 -40.5t98 -15q25 0 48 6t45 16l58 218l-100 18l7 27h307l-7 -27l-103 -18l-79 -296z" />
    <glyph glyph-name="H" unicode="H" horiz-adv-x="887" 
d="M2 27l103 18l165 615l-100 18l7 27h306l-7 -27l-103 -18l-71 -264h361l71 264l-100 18l7 27h306l-7 -27l-103 -18l-165 -615l100 -18l-7 -27h-306l7 27l103 18l83 311h-361l-83 -311l100 -18l-7 -27h-306z" />
    <glyph glyph-name="I" unicode="I" horiz-adv-x="443" 
d="M12 27l103 18l165 615l-100 18l7 27h306l-7 -27l-103 -18l-165 -615l100 -18l-7 -27h-306z" />
    <glyph glyph-name="J" unicode="J" horiz-adv-x="392" 
d="M-60 -276q-40 0 -66.5 19.5t-26.5 44.5q0 19 11.5 30.5t28.5 11.5q19 0 28 -10t16 -22.5t16 -22.5t28 -10q22 0 34.5 13t22.5 53l221 829l-100 18l7 27h306l-7 -27l-103 -18l-175 -655q-39 -146 -101.5 -213.5t-139.5 -67.5z" />
    <glyph glyph-name="K" unicode="K" horiz-adv-x="925" 
d="M2 27l103 18l165 615l-100 18l7 27h306l-7 -27l-103 -18l-82 -306l423 306l-100 18l7 27h267l-7 -27l-103 -18l-309 -224l236 -391l100 -18l-7 -27h-318l7 27l103 18l-202 333l-113 -82l-67 -251l100 -18l-7 -27h-306z" />
    <glyph glyph-name="L" unicode="L" horiz-adv-x="744" 
d="M2 27l103 18l165 615l-100 18l7 27h306l-7 -27l-103 -18l-168 -626h165q66 0 106.5 6.5t65 19.5t38 33.5t26.5 47.5l34 71h27l-56 -212h-616z" />
    <glyph glyph-name="M" unicode="M" horiz-adv-x="1009" 
d="M295 603l-149 -558l100 -18l-7 -27h-243l7 27l103 18l164 615l-100 18l7 27h201l97 -558l389 558h205l-7 -27l-103 -18l-165 -615l100 -18l-7 -27h-306l7 27l103 18l151 561l-432 -620h-8z" />
    <glyph glyph-name="N" unicode="N" horiz-adv-x="842" 
d="M300 619l-155 -574l100 -18l-7 -27h-243l7 27l103 18l165 615l-100 18l7 27h192l262 -552l135 507l-100 18l7 27h243l-7 -27l-103 -18l-178 -674h-28z" />
    <glyph glyph-name="O" unicode="O" horiz-adv-x="867" 
d="M376 -14q-60 0 -111 21t-87.5 56.5t-57 83.5t-20.5 102q0 86 38 170.5t100.5 151t144 107.5t167.5 41q62 0 115.5 -19.5t92.5 -55t61 -86t22 -112.5q0 -82 -39.5 -164.5t-104 -148t-148.5 -106.5t-173 -41zM376 23q64 0 128.5 36.5t116 100.5t84 151t32.5 187
q0 35 -10.5 68t-33 59t-58.5 41.5t-86 15.5q-59 0 -120 -35.5t-110.5 -98.5t-81 -150t-31.5 -190q0 -36 9 -69.5t29 -59t52.5 -41t79.5 -15.5z" />
    <glyph glyph-name="P" unicode="P" horiz-adv-x="711" 
d="M2 27l103 18l165 615l-100 18l7 27h315q51 0 94 -10.5t74 -30t48.5 -49.5t17.5 -68q0 -58 -32 -103t-87.5 -75.5t-131.5 -47t-163 -18.5l-35 -1l-69 -257l100 -18l-7 -27h-306zM474 671h-98l-90 -336q181 7 257.5 69.5t76.5 154.5q0 64 -41.5 88t-104.5 24z" />
    <glyph glyph-name="Q" unicode="Q" horiz-adv-x="867" 
d="M635 -215q-143 2 -224.5 53t-101.5 155q-47 10 -85.5 34t-66 58t-42.5 76t-15 88q0 86 38 170.5t100.5 151t144 107.5t167.5 41q62 0 115.5 -19.5t92.5 -55t61 -86t22 -112.5q0 -74 -32.5 -149t-86.5 -137t-126 -107t-151 -60q1 -78 53.5 -122t142.5 -61zM376 23
q64 0 128.5 36.5t116 100.5t84 151t32.5 187q0 35 -10.5 68t-33 59t-58.5 41.5t-86 15.5q-59 0 -120 -35.5t-110.5 -98.5t-81 -150t-31.5 -190q0 -36 9 -69.5t29 -59t52.5 -41t79.5 -15.5z" />
    <glyph glyph-name="R" unicode="R" horiz-adv-x="798" 
d="M2 27l103 18l165 615l-100 18l7 27h307q107 0 165.5 -44.5t58.5 -108.5q0 -40 -18.5 -74.5t-51 -61t-76 -44.5t-92.5 -24q90 -16 109.5 -67t23 -107t20 -103.5t101.5 -57.5l-8 -27q-139 4 -177.5 57.5t-43.5 115t-11.5 113t-82.5 51.5h-118l-75 -278l100 -18l-7 -27h-306
zM460 671h-84l-83 -308h86q43 0 83 14t71 39.5t49.5 62t18.5 81.5q0 54 -34 82.5t-107 28.5z" />
    <glyph glyph-name="S" unicode="S" horiz-adv-x="705" 
d="M297 -14q-58 0 -116.5 12t-137.5 41l50 189h27l-1 -81q-1 -60 37 -91.5t143 -31.5q45 0 85.5 13.5t70 37t47 55.5t17.5 70q0 33 -14 51.5t-37 28.5l-182 81q-58 26 -87 57t-29 85q0 41 22.5 80.5t62.5 69.5t94 48t117 18q54 0 99.5 -7.5t108.5 -24.5l-40 -197h-30v98
q0 57 -38 75t-104 18q-40 0 -76.5 -11t-64.5 -30t-44.5 -45.5t-16.5 -55.5q0 -31 16 -51.5t56 -38.5l182 -82q49 -22 75 -57t26 -85q0 -51 -25.5 -95t-69 -76t-101.5 -50t-122 -18z" />
    <glyph glyph-name="T" unicode="T" horiz-adv-x="793" 
d="M201 27l103 18l167 627h-150q-41 0 -72.5 -25t-68.5 -106l-22 -48h-27l57 212h669l-57 -212h-27l7 87q4 52 -15 72t-57 20h-134l-167 -627l100 -18l-7 -27h-306z" />
    <glyph glyph-name="U" unicode="U" horiz-adv-x="843" 
d="M393 -14q-82 0 -134 24t-77.5 64t-27 95t14.5 116l101 375l-100 18l7 27h305l-7 -27l-103 -18l-102 -382q-14 -51 -11.5 -95t21.5 -76t54.5 -50.5t86.5 -18.5q37 0 73.5 13t67.5 39t56 66t39 93l111 411l-100 18l7 27h242l-7 -27l-103 -18l-110 -409
q-34 -128 -114.5 -196.5t-189.5 -68.5z" />
    <glyph glyph-name="V" unicode="V" horiz-adv-x="879" 
d="M270 660l-100 18l7 27h305l-7 -27l-103 -18l-143 -537l592 537l-100 18l7 27h261l-7 -27l-103 -18l-740 -671h-48z" />
    <glyph glyph-name="W" unicode="W" horiz-adv-x="1281" 
d="M270 660l-100 18l7 27h305l-7 -27l-103 -18l-143 -537l477 433l36 104l-100 18l7 27h308l-7 -27l-103 -18l-178 -516l554 516l-100 18l7 27h261l-7 -27l-103 -18l-722 -671h-48l169 490l-541 -490h-48z" />
    <glyph glyph-name="X" unicode="X" horiz-adv-x="880" 
d="M1 27l103 18l309 295l-163 320l-100 18l7 27h325l-7 -27l-103 -18l123 -241l252 241l-100 18l7 27h259l-7 -27l-103 -18l-290 -277l172 -338l100 -18l-7 -27h-325l7 27l103 18l-132 259l-271 -259l100 -18l-7 -27h-259z" />
    <glyph glyph-name="Y" unicode="Y" horiz-adv-x="858" 
d="M239 27l103 18l74 276l-146 339l-100 18l7 27h311l-7 -27l-103 -18l126 -292l265 292l-100 18l7 27h256l-7 -27l-103 -18l-303 -333l-74 -282l100 -18l-7 -27h-306z" />
    <glyph glyph-name="Z" unicode="Z" horiz-adv-x="813" 
d="M648 -9q-40 4 -117 6.5t-173 2.5h-305l12 49l608 622h-197q-51 0 -89.5 -3t-67 -13.5t-48.5 -30t-36 -53.5l-37 -79h-27l59 222q38 -4 106.5 -6.5t181.5 -2.5h295l-6 -39l-618 -632h215q110 0 163.5 25t79.5 81l34 73h27z" />
    <glyph glyph-name="bracketleft" unicode="[" horiz-adv-x="268" 
d="M217 751h192l-11 -44h-110l-212 -851h110l-11 -44h-191z" />
    <glyph glyph-name="backslash" unicode="\" horiz-adv-x="293" 
d="M13 800l44 7l179 -960l-44 -7z" />
    <glyph glyph-name="bracketright" unicode="]" horiz-adv-x="268" 
d="M80 -188h-192l11 44h110l212 851h-110l11 44h191z" />
    <glyph glyph-name="asciicircum" unicode="^" 
d="M440 608l203 -297h-79l-141 205l-261 -205h-106z" />
    <glyph glyph-name="underscore" unicode="_" horiz-adv-x="580" 
d="M-113 -109h580l-20 -62h-580z" />
    <glyph glyph-name="grave" unicode="`" horiz-adv-x="600" 
d="M374 761h117l-5 -208h-18z" />
    <glyph glyph-name="a" unicode="a" horiz-adv-x="549" 
d="M95 -14q-47 0 -71 31.5t-24 74.5q0 59 38.5 128.5t91.5 129t111 99.5t97 40q33 0 46.5 -18.5t12.5 -50.5l18 55l96 14l-134 -411q-6 -19 1.5 -25t18.5 -6q21 0 48.5 27.5t55.5 84.5l13 -9q-31 -82 -75 -123t-99 -41q-37 0 -53.5 23t-4.5 59l41 126q-40 -67 -70.5 -108
t-56 -63.5t-49.5 -29.5t-52 -7zM96 96q0 -20 8.5 -39t31.5 -19q10 0 24 4t37 23.5t57.5 60.5t83.5 115l39 118q13 54 -2.5 76t-37.5 22q-33 0 -75 -39t-78.5 -94.5t-62 -118t-25.5 -109.5z" />
    <glyph glyph-name="b" unicode="b" horiz-adv-x="499" 
d="M181 -14q-28 0 -48 11t-31 39l-102 -50l231 716l-112 13l1 8l219 32l-139 -432q48 100 86.5 133t86.5 33q15 0 35 -7.5t37.5 -23t29.5 -39.5t12 -57q0 -50 -29.5 -115.5t-74.5 -123t-99 -97.5t-103 -40zM350 456q-15 0 -29.5 -7t-35 -33.5t-50 -78t-75.5 -139.5l-43 -132
q10 -26 26.5 -36t42.5 -10q56 0 99.5 64.5t91.5 213.5q15 46 16 77t-5 48.5t-17 25t-21 7.5z" />
    <glyph glyph-name="c" unicode="c" horiz-adv-x="393" 
d="M143 -14q-54 0 -94 35t-40 102q0 61 28 126.5t70.5 118t93.5 87t97 34.5t75.5 -23t29.5 -61q0 -22 -13 -34.5t-29 -12.5q-25 0 -31 15.5t-8.5 33.5t-9.5 33.5t-33 15.5q-45 0 -81 -50t-63 -133q-21 -65 -25 -108t4 -68.5t25.5 -36t39.5 -10.5q40 0 78 31.5t68 97.5l15 -5
q-25 -95 -78 -141.5t-119 -46.5z" />
    <glyph glyph-name="d" unicode="d" horiz-adv-x="545" 
d="M95 -14q-47 0 -71 31.5t-24 74.5q0 59 38.5 128.5t91.5 129t111 99.5t97 40q33 0 46.5 -18.5t12.5 -51.5l92 283l-110 13l1 8l218 32l-220 -677q-6 -19 1.5 -25t18.5 -6q21 0 48.5 27.5t55.5 84.5l13 -9q-31 -82 -75 -123t-99 -41q-37 0 -53.5 23t-4.5 59l42 129
q-40 -68 -71 -109.5t-57 -64t-50 -30t-52 -7.5zM96 96q0 -20 8.5 -39t31.5 -19q10 0 24 4t37.5 23.5t58 61t84.5 116.5l37 116q13 54 -2.5 76t-37.5 22q-33 0 -75 -39t-78.5 -94.5t-62 -118t-25.5 -109.5z" />
    <glyph glyph-name="e" unicode="e" horiz-adv-x="408" 
d="M143 -14q-54 0 -94 35t-40 102q0 61 28 126.5t70.5 118t93.5 87t97 34.5q25 0 47 -7.5t36 -22.5t18 -38t-6 -53q-13 -43 -80 -86.5t-199 -87.5q-16 -82 6.5 -113t57.5 -31t74 27.5t73 101.5l15 -5q-25 -95 -78 -141.5t-119 -46.5zM135 273q-5 -16 -9 -30t-7 -27
q100 49 150.5 95.5t50.5 95.5q0 24 -11.5 36.5t-29.5 12.5q-45 0 -81 -50t-63 -133z" />
    <glyph glyph-name="f" unicode="f" horiz-adv-x="344" 
d="M-165 -282q-53 0 -79.5 16t-26.5 44q0 19 12.5 30.5t28.5 11.5q17 0 27 -10.5t19.5 -23t22.5 -23t37 -10.5q45 0 84.5 53.5t64.5 148.5l125 490h-99l10 30h97q38 137 115 206.5t179 69.5q66 0 94.5 -22t28.5 -40q0 -19 -13 -31t-32 -12q-16 0 -26 12t-20.5 26.5
t-25.5 26.5t-42 12q-36 0 -72 -29.5t-55 -95.5l-36 -123h134l-10 -30h-132l-127 -439q-18 -62 -46 -115t-64 -91t-80 -60t-93 -22z" />
    <glyph glyph-name="g" unicode="g" horiz-adv-x="595" 
d="M109 -278q-46 0 -81 11t-57.5 28.5t-33.5 40t-9 45.5q4 38 36.5 70t114.5 63q-49 4 -65.5 32t-3.5 61q10 25 50 47t107 26q-41 16 -59 50.5t-18 65.5q0 38 24.5 78.5t61.5 73.5t81 54t82 21q37 0 75.5 -18t55.5 -52q13 47 40 75.5t63 28.5q22 0 38.5 -13.5t16.5 -34.5
q0 -22 -14 -35.5t-31 -13.5q-16 0 -30 8.5t-29 8.5q-19 0 -30 -23.5t-14 -49.5q-1 -43 -21.5 -84t-55.5 -73.5t-84 -54t-106 -27.5q-44 -4 -70.5 -10.5t-40 -14t-17.5 -14t-4 -10.5q0 -8 5.5 -13t17.5 -5h164q76 0 117.5 -39.5t41.5 -93.5q0 -40 -25 -78t-68 -67
t-101.5 -46.5t-123.5 -17.5zM230 165q30 0 57 19.5t48 48.5t35.5 64.5t19.5 66.5q9 53 -9 75.5t-50 22.5q-38 0 -76 -33t-67 -127q-19 -60 -7 -98.5t49 -38.5zM12 -149q0 -34 29.5 -64.5t93.5 -30.5q46 0 85 13t67.5 34t44.5 48t16 56q0 26 -16 49t-61 23h-146
q-72 -38 -92.5 -71t-20.5 -57z" />
    <glyph glyph-name="h" unicode="h" horiz-adv-x="543" 
d="M513 150q-31 -82 -75 -123t-99 -41q-37 0 -53.5 23t-4.5 59l100 306q11 34 0.5 48t-30.5 14q-35 0 -81 -50.5t-97 -139.5l-80 -246h-92l228 702l-110 13l1 8l218 32l-148 -455q48 93 96.5 141t105.5 48q51 0 73.5 -34.5t6.5 -82.5l-96 -294q-6 -19 1.5 -25t18.5 -6
q21 0 48.5 27.5t55.5 84.5z" />
    <glyph glyph-name="i" unicode="i" horiz-adv-x="321" 
d="M278 589q-23 0 -36 14.5t-13 36.5q0 31 18.5 54.5t45.5 23.5q22 0 36.5 -13.5t14.5 -34.5q0 -32 -20 -56.5t-46 -24.5zM117 -14q-37 0 -53.5 23t-4.5 59l105 323q6 19 -0.5 30t-19.5 11q-6 0 -14.5 -3t-20 -14.5t-28.5 -35t-39 -64.5l-13 14q22 52 45 83.5t44.5 48.5
t40.5 22.5t35 5.5q39 0 58 -26t0 -83l-98 -302q-6 -19 1.5 -25t18.5 -6q21 0 48.5 27.5t55.5 84.5l13 -9q-31 -82 -75 -123t-99 -41z" />
    <glyph glyph-name="j" unicode="j" horiz-adv-x="288" 
d="M-115 -278q-38 0 -56 17.5t-18 36.5q0 16 10 28.5t29 12.5q12 0 23.5 -7.5t22.5 -16.5t22.5 -16.5t22.5 -7.5q10 0 18.5 8.5t15.5 32.5l190 581q6 19 -0.5 30t-19.5 11q-6 0 -14.5 -3t-20 -14.5t-28.5 -35t-39 -64.5l-13 14q22 52 45 83.5t44.5 48.5t40.5 22.5t35 5.5
q39 0 58 -26t0 -83q-27 -83 -54.5 -166t-54.5 -166q-30 -92 -64.5 -154.5t-69.5 -100.5t-67.5 -54.5t-57.5 -16.5zM282 585q-22 0 -34 15t-12 37q0 33 20.5 57t51.5 24q21 0 34 -15t13 -37q0 -33 -21.5 -57t-51.5 -24z" />
    <glyph glyph-name="k" unicode="k" horiz-adv-x="543" 
d="M343 -14q-38 0 -52 22t-10 54l15 135q4 40 -7.5 57.5t-36.5 17.5q-18 0 -36 -8t-46 -28l-77 -236h-92l228 702l-110 13l1 8l218 32l-150 -461q79 113 139 154t103 41q38 0 59.5 -18t21.5 -40q0 -24 -14.5 -37.5t-33.5 -13.5q-13 0 -22 7.5t-18.5 16t-20 16t-26.5 7.5
q-25 0 -61.5 -28.5t-111.5 -120.5q27 18 47.5 24t38.5 6q49 0 75.5 -32t19.5 -86l-12 -96q-4 -28 3.5 -37.5t20.5 -9.5q20 0 49 29t55 83l13 -9q-29 -81 -72.5 -122.5t-97.5 -41.5z" />
    <glyph glyph-name="l" unicode="l" horiz-adv-x="285" 
d="M81 -14q-37 0 -53.5 23t-4.5 59l206 634l-110 13l1 8l218 32l-220 -677q-6 -19 1.5 -25t18.5 -6q21 0 48.5 27.5t55.5 84.5l13 -9q-31 -82 -75 -123t-99 -41z" />
    <glyph glyph-name="m" unicode="m" horiz-adv-x="815" 
d="M164 391q6 19 -0.5 30t-19.5 11q-6 0 -14.5 -3t-20 -14.5t-28.5 -35t-39 -64.5l-13 14q22 52 45 83.5t44.5 48.5t40.5 22.5t35 5.5q39 0 58 -26t0 -83l-34 -105q49 110 94.5 162t105.5 52q51 0 73 -34.5t6 -82.5l-31 -94q49 108 94 159.5t105 51.5q51 0 73 -34.5t6 -82.5
l-96 -294q-6 -19 1.5 -25t18.5 -6q21 0 48.5 27.5t55.5 84.5l13 -9q-31 -82 -75 -123t-99 -41q-37 0 -53.5 23t-4.5 59l100 306q11 34 0.5 48t-30.5 14q-38 0 -81 -59.5t-100 -174.5l-66 -202h-91l121 374q11 34 0.5 48t-30.5 14q-38 0 -81.5 -60t-100.5 -176l-65 -200h-92z
" />
    <glyph glyph-name="n" unicode="n" horiz-adv-x="579" 
d="M375 -14q-37 0 -53.5 23t-4.5 59l100 306q11 34 0.5 48t-30.5 14q-38 0 -90 -63.5t-104 -173.5l-64 -199h-92l127 391q6 19 -0.5 30t-19.5 11q-6 0 -14.5 -3t-20 -14.5t-28.5 -35t-39 -64.5l-13 14q22 52 45 83.5t44.5 48.5t40.5 22.5t35 5.5q39 0 58 -26t0 -83l-33 -103
q46 104 98 158t112 54q51 0 73 -34.5t6 -82.5l-96 -294q-6 -19 1.5 -25t18.5 -6q21 0 48.5 27.5t55.5 84.5l13 -9q-31 -82 -75 -123t-99 -41z" />
    <glyph glyph-name="o" unicode="o" horiz-adv-x="458" 
d="M148 -14q-28 0 -58.5 12t-51 40t-26.5 74t16 113q16 50 48 98t70.5 84.5t81 59t80.5 22.5q28 0 58 -10.5t51 -33.5t28 -61t-11 -92q-15 -46 -46 -100t-70.5 -99.5t-84 -76t-85.5 -30.5zM152 19q29 0 55.5 23.5t49 61t41.5 85.5t35 97q17 53 19 86t-5.5 51.5t-21.5 25.5
t-29 7q-31 0 -57.5 -23.5t-48.5 -61t-40 -85t-34 -96.5q-30 -92 -17.5 -131.5t53.5 -39.5z" />
    <glyph glyph-name="p" unicode="p" horiz-adv-x="531" 
d="M213 -14q-25 0 -44 9t-31 32l-80 -246l123 -41v-8h-313v8l98 40l198 611q6 19 -0.5 30t-19.5 11q-6 0 -14.5 -3t-20 -14.5t-28.5 -35t-39 -64.5l-13 14q22 52 45 83.5t44.5 48.5t40.5 22.5t35 5.5q39 0 58 -26t0 -83l-16 -48q46 95 84 126t85 31q15 0 35 -7.5t37.5 -23
t29.5 -39.5t12 -57q0 -50 -29.5 -115.5t-74.5 -123t-99 -97.5t-103 -40zM382 456q-15 0 -29.5 -7t-34 -32.5t-49 -76t-74.5 -135.5l-45 -140q10 -25 26 -35t42 -10q56 0 99.5 64.5t91.5 213.5q15 46 16 77t-5 48.5t-17 25t-21 7.5z" />
    <glyph glyph-name="q" unicode="q" horiz-adv-x="483" 
d="M95 -14q-47 0 -71 31.5t-24 74.5q0 59 38.5 128.5t91.5 129t111 99.5t97 40q33 0 46.5 -18.5t12.5 -52.5l10 31l104 40l-232 -712l91 -37v-8h-313v8l133 45l134 411q-40 -68 -70.5 -109.5t-56.5 -63.5t-50 -29.5t-52 -7.5zM96 96q0 -20 8.5 -39t31.5 -19q10 0 24 4
t37 23.5t57.5 61t84.5 115.5l38 117q13 54 -2.5 76t-37.5 22q-33 0 -75 -39t-78.5 -94.5t-62 -118t-25.5 -109.5z" />
    <glyph glyph-name="r" unicode="r" horiz-adv-x="466" 
d="M164 391q6 19 -0.5 30t-19.5 11q-6 0 -14.5 -3t-20 -14.5t-28.5 -35t-39 -64.5l-13 14q22 52 45 83.5t44.5 48.5t40.5 22.5t35 5.5q39 0 58 -26t0 -83l-40 -124q26 68 52 113t51 71.5t49.5 37.5t47.5 11q31 0 50 -18t19 -40q0 -24 -14.5 -37.5t-32.5 -13.5q-14 0 -23.5 7
t-18 15t-17.5 15t-21 7q-10 0 -24.5 -10.5t-35.5 -40.5t-49.5 -84t-67.5 -140l-48 -149h-92z" />
    <glyph glyph-name="s" unicode="s" horiz-adv-x="371" 
d="M111 -14q-43 0 -71 11.5t-44.5 28t-23 34t-6.5 29.5q0 17 11.5 30.5t29.5 13.5q22 0 31 -16t15 -49q4 -22 17 -38t47 -16q37 0 62 24t25 63q0 22 -8.5 39t-28.5 44l-50 67q-29 39 -32.5 81.5t13.5 77t51.5 57t80.5 22.5q25 0 49 -6t43 -17.5t30.5 -27.5t11.5 -36
q0 -19 -12 -32t-32 -13t-29 16.5t-16.5 35.5t-19.5 35.5t-38 16.5q-31 0 -53 -19t-22 -48q0 -16 7 -33t33 -48l51 -61q19 -23 35.5 -50t16.5 -61q0 -35 -15.5 -64t-40.5 -49t-56 -31t-62 -11z" />
    <glyph glyph-name="t" unicode="t" horiz-adv-x="345" 
d="M94 -14q-40 0 -57.5 24.5t1.5 82.5l115 352h-93l10 30h93l28 86l111 60l-48 -146h122l-10 -30h-121l-120 -367q-5 -16 1 -23.5t19 -7.5q18 0 36.5 16t36 41t34 56t29.5 61l17 -11q-40 -116 -92 -170t-112 -54z" />
    <glyph glyph-name="u" unicode="u" horiz-adv-x="569" 
d="M149 -14q-51 0 -73 34.5t-6 82.5l94 288q6 19 -0.5 30t-19.5 11q-6 0 -14.5 -3t-20 -14.5t-28.5 -35t-39 -64.5l-13 14q22 52 45 83.5t44.5 48.5t40.5 22.5t35 5.5q39 0 58 -26t0 -83l-91 -279q-11 -34 -0.5 -48t30.5 -14q39 0 83 61.5t102 179.5l63 195h92l-129 -397
q-6 -19 1.5 -25t18.5 -6q21 0 48.5 27.5t55.5 84.5l13 -9q-31 -82 -75 -123t-99 -41q-37 0 -53.5 23t-4.5 59l45 139q-50 -113 -96 -167t-107 -54z" />
    <glyph glyph-name="v" unicode="v" horiz-adv-x="486" 
d="M52 0l1 1q13 21 20 36.5t13 31.5q38 106 53 170t15 113q0 46 -9 60t-17 14q-4 0 -9.5 -1.5t-14.5 -10.5t-22.5 -28.5t-34.5 -55.5l-14 12q34 90 68.5 118.5t66.5 28.5q34 0 53.5 -28t19.5 -91q0 -59 -14.5 -127t-59.5 -169q76 52 124.5 94.5t75 75.5t36 59t9.5 47
q0 24 -6 37t-13 22t-13 17.5t-6 23.5q0 13 12 26t35 13q25 0 42 -20t17 -63q0 -83 -95 -190.5t-302 -229.5l-30 14l-1 -1v1z" />
    <glyph glyph-name="w" unicode="w" horiz-adv-x="732" 
d="M52 0l1 1q13 21 20 36.5t13 31.5q38 106 53 170t15 113q0 46 -9 60t-17 14q-4 0 -9.5 -1.5t-14.5 -10.5t-22.5 -28.5t-34.5 -55.5l-14 12q34 90 68.5 118.5t66.5 28.5q34 0 53.5 -28t19.5 -91q0 -59 -14.5 -127t-59.5 -169q98 66 148.5 114t75.5 81q1 25 1.5 47t0.5 43
q0 47 -3 73.5t-6 42.5l83 14q6 -16 9.5 -48t3.5 -68q0 -67 -13.5 -144.5t-51.5 -158.5q78 53 126 95.5t73.5 76.5t34 60.5t8.5 47.5q0 24 -6 37t-13 22t-13 17.5t-6 23.5q0 13 12 26t35 13q25 0 42 -20t17 -63q0 -83 -90 -190.5t-297 -229.5l-30 14l-1 -1v1v0l1 1
q12 21 19.5 36.5t13.5 31.5q16 41 26 75.5t15 63.5q-44 -49 -116 -104t-183 -118l-30 14l-1 -1v1z" />
    <glyph glyph-name="x" unicode="x" horiz-adv-x="565" 
d="M15 -14q-28 0 -44.5 15.5t-16.5 39.5q0 23 15 41t36 18q16 0 22.5 -10t10 -22t7.5 -22t14 -10q24 0 70 46.5t101 125.5l-19 185q-1 16 -8 24.5t-20 8.5q-19 0 -47 -31.5t-58 -94.5l-12 12q12 33 28.5 65t37 57t43.5 40t48 15q26 0 46.5 -15.5t23.5 -40.5l14 -134
q69 101 126 145.5t103 44.5q26 0 41 -16t15 -35q0 -22 -14.5 -38.5t-32.5 -16.5q-15 0 -21 9t-10 19.5t-10 19.5t-21 9q-10 0 -24 -6.5t-34 -25t-48.5 -51.5t-66.5 -86l21 -193q1 -15 11 -22.5t26 -6.5q14 1 30.5 12.5t32.5 29t30 40t24 44.5l13 -12q-10 -29 -28 -60.5
t-41.5 -57.5t-51.5 -42.5t-58 -16.5q-33 0 -51.5 19t-21.5 50l-12 119q-26 -38 -54.5 -72.5t-56.5 -60t-55.5 -40.5t-52.5 -15z" />
    <glyph glyph-name="y" unicode="y" horiz-adv-x="503" 
d="M-36 -278q-48 0 -76 20t-28 45q0 22 13.5 36t32.5 14t29.5 -11.5t19 -25.5t19 -25.5t30.5 -11.5q45 0 86.5 44t91.5 135l-36 441q-2 23 -7.5 33t-15.5 10q-13 0 -33.5 -28t-44.5 -98l-14 12q12 53 29 87.5t35 54.5t35.5 27.5t30.5 7.5q27 0 46.5 -16.5t22.5 -51.5
l27 -333q43 90 85 182.5t104 204.5l117 14q-93 -107 -167 -228.5t-162 -289.5q-71 -135 -139 -192t-131 -57z" />
    <glyph glyph-name="z" unicode="z" horiz-adv-x="483" 
d="M-21 27l398 372h-227l-54 -95l-27 1l56 170h355l3 -24l-405 -378q15 7 32.5 10t38.5 3q29 0 57.5 -6.5t69.5 -6.5q42 0 72 22t41 82h6q6 -35 3.5 -69.5t-17 -61.5t-42.5 -43.5t-73 -16.5q-31 0 -52.5 7t-40 16t-36.5 16t-42 7q-33 0 -57.5 -10.5t-52.5 -35.5z" />
    <glyph glyph-name="braceleft" unicode="{" horiz-adv-x="294" 
d="M187 -198q-37 1 -63 18t-40.5 44t-17.5 62.5t7 73.5l23 89q26 101 9.5 144t-48.5 51l6 23q40 4 72 36.5t50 106.5l32 130q25 100 74 142.5t136 42.5l-5 -23q-18 -2 -35 -8.5t-32.5 -23.5t-29.5 -46.5t-25 -76.5l-33 -129q-21 -81 -55 -115.5t-83 -47.5q44 -18 56 -78.5
t-16 -155.5l-24 -106q-13 -57 3 -90.5t45 -39.5z" />
    <glyph glyph-name="bar" unicode="|" horiz-adv-x="358" 
d="M297 751h40l-273 -1019h-40z" />
    <glyph glyph-name="braceright" unicode="}" horiz-adv-x="293" 
d="M136 765q37 -1 63 -18t40.5 -44t17.5 -62.5t-7 -73.5l-23 -89q-26 -101 -9.5 -144t48.5 -51l-6 -23q-40 -4 -72 -36.5t-50 -106.5l-32 -130q-25 -100 -74 -142.5t-136 -42.5l5 23q18 2 35 8.5t32.5 23.5t29.5 46.5t25 76.5l33 129q21 81 55 115.5t83 47.5
q-44 18 -56 78.5t16 155.5l24 106q13 57 -3 90.5t-45 39.5z" />
    <glyph glyph-name="asciitilde" unicode="~" 
d="M100 274l12 12t33 27t51.5 27t67.5 12q30 0 50 -10.5t36.5 -23t34 -23t42.5 -10.5q27 0 51.5 11t43 23.5t29.5 23.5l11 11l19 -57l-11.5 -12.5t-33 -27t-52 -27t-67.5 -12.5q-30 0 -50 10.5t-37 23t-34.5 23t-42.5 10.5q-27 0 -51.5 -11t-43 -23.5t-29 -23.5l-10.5 -11z
" />
    <glyph glyph-name="nbspace" unicode="&#xa0;" horiz-adv-x="224" 
 />
    <glyph glyph-name="exclamdown" unicode="&#xa1;" horiz-adv-x="223" 
d="M169 489q25 0 41 -17t16 -39q0 -35 -24.5 -57.5t-55.5 -22.5q-28 0 -43.5 17t-15.5 41q0 33 24 55.5t58 22.5zM120 165q-19 -129 -34 -211.5t-25 -130.5q-13 -63 -33 -81t-39 -18t-30.5 11.5t-11.5 30.5q0 22 12.5 67t31 101.5t41.5 122t44 128.5l25 76h33z" />
    <glyph glyph-name="cent" unicode="&#xa2;" horiz-adv-x="393" 
d="M332 680h40l-22 -81q43 -2 70.5 -24.5t27.5 -59.5q0 -22 -13 -34.5t-29 -12.5q-23 0 -29.5 13t-9 29.5t-6 32t-20.5 20.5l-108 -403q37 4 73 35.5t64 93.5l15 -5q-22 -84 -67 -130.5t-102 -55.5l-26 -98h-40l26 96q-51 4 -86.5 39t-35.5 98q0 56 23.5 115t60 109.5
t82 87.5t89.5 49zM180 383q-35 -106 -25.5 -155.5t39.5 -62.5l106 397q-37 -12 -67 -59.5t-53 -119.5z" />
    <glyph glyph-name="sterling" unicode="&#xa3;" horiz-adv-x="670" 
d="M6 27q13 2 31 6t35.5 13t33 25.5t22.5 42.5l44 163h-101l13 39h98l18 68h-94l13 39h92l18 69q21 77 54.5 122.5t69.5 68.5t70 29.5t55 6.5q74 0 105.5 -22t31.5 -42q0 -25 -16 -35t-30 -10q-18 0 -28.5 12.5t-21.5 27t-26.5 27t-41.5 12.5q-31 0 -57 -30t-51 -123
l-30 -113h234l-13 -39h-232l-18 -68h227l-14 -39h-223l-28 -104q-13 -51 -37.5 -86.5t-75.5 -52.5h163q66 0 106.5 6.5t65 19.5t38 33.5t26.5 47.5l34 71h27l-56 -212h-538z" />
    <glyph glyph-name="currency" unicode="&#xa4;" horiz-adv-x="670" 
d="M187 214q-22 28 -33.5 63.5t-11.5 74.5q0 38 11.5 73t33.5 64l-72 73l47 48l72 -74q28 22 63.5 34t74.5 12h7q37 0 69.5 -12.5t60.5 -32.5l73 73l48 -48l-73 -73q21 -28 33 -63.5t12 -73.5t-11.5 -72t-34.5 -66l74 -72l-47 -47l-74 72q-28 -21 -63.5 -33t-73.5 -12
q-39 0 -74.5 11.5t-63.5 33.5l-71 -72l-48 48zM372 166q38 0 72 14.5t59 39.5t40 59.5t15 72.5t-15 72.5t-40 59.5t-59 39.5t-72 14.5t-72.5 -14.5t-59.5 -39.5t-39.5 -59.5t-14.5 -72.5t15 -72.5t40 -59.5t59 -39.5t72 -14.5z" />
    <glyph glyph-name="yen" unicode="&#xa5;" horiz-adv-x="670" 
d="M133 27l103 18l57 211h-180l13 39h177l18 68h-173l13 39h146l-129 258l-100 18l7 27h314l-7 -27l-103 -18l121 -243l238 243l-100 18l7 27h258l-7 -27l-103 -18l-253 -258h171l-13 -39h-185l-18 -68h180l-14 -39h-176l-56 -211l100 -18l-7 -27h-306z" />
    <glyph glyph-name="brokenbar" unicode="&#xa6;" horiz-adv-x="358" 
d="M297 751h40l-91 -340h-40zM115 72h40l-91 -340h-40z" />
    <glyph glyph-name="section" unicode="&#xa7;" horiz-adv-x="725" 
d="M227 -291q-58 0 -116.5 12t-137.5 41l50 189h27l-1 -81q-1 -60 37 -91.5t143 -31.5q45 0 85.5 13.5t70 37t47 55.5t17.5 70q0 33 -14 51.5t-37 28.5l-182 81q-58 26 -87 57t-29 85q0 64 52 120t136 81q-49 24 -74 53.5t-25 80.5q0 41 22.5 80.5t62.5 69.5t94 48t117 18
q54 0 99.5 -7.5t108.5 -24.5l-40 -197h-30v98q0 57 -38 75t-104 18q-40 0 -76.5 -11t-64.5 -30t-44.5 -45.5t-16.5 -55.5q0 -31 16 -51.5t56 -38.5l182 -82q49 -22 75 -57t26 -85q0 -69 -45 -123.5t-116 -84.5q35 -22 53.5 -53.5t18.5 -73.5q0 -51 -25.5 -95t-69 -76
t-101.5 -50t-122 -18zM262 172l157 -71q53 21 86 63t33 94q0 33 -14 51.5t-37 28.5l-140 62q-65 -10 -111 -48.5t-46 -89.5q0 -31 16 -51.5t56 -38.5z" />
    <glyph glyph-name="dieresis" unicode="&#xa8;" horiz-adv-x="600" 
d="M515 598q-17 0 -28 12t-11 31q0 27 18.5 45.5t43.5 18.5q17 0 28.5 -12t11.5 -29q0 -29 -19 -47.5t-44 -18.5zM331 598q-17 0 -28 12t-11 31q0 27 18.5 45.5t43.5 18.5q17 0 28.5 -12t11.5 -29q0 -29 -19 -47.5t-44 -18.5z" />
    <glyph glyph-name="copyright" unicode="&#xa9;" horiz-adv-x="857" 
d="M376 -14q-61 0 -111.5 20t-86 56.5t-55 87.5t-19.5 112q0 85 36 163.5t96.5 138.5t141.5 95.5t169 35.5q61 0 111.5 -20t86.5 -56.5t55.5 -87.5t19.5 -112q0 -85 -36 -164t-97 -138.5t-142 -95t-169 -35.5zM377 28q82 0 155 33.5t126.5 88.5t85 127.5t31.5 148.5
q0 50 -17 91.5t-47 71.5t-72.5 47t-92.5 17q-82 0 -155 -33t-126.5 -87.5t-84.5 -126.5t-31 -149q0 -49 16.5 -91.5t46.5 -72.5t72.5 -47.5t92.5 -17.5zM423 169q-67 0 -103.5 31.5t-36.5 80.5q0 40 21.5 79.5t56 70t79 49.5t90.5 19q35 0 59 -6.5t49 -19.5l-26 -96h-40
q5 40 -5 66t-48 26q-26 0 -52.5 -17.5t-47.5 -44.5t-34.5 -61t-13.5 -66q0 -36 17.5 -58.5t42.5 -22.5q40 0 68.5 26t50.5 69h40l-37 -96q-34 -17 -68.5 -23t-61.5 -6z" />
    <glyph glyph-name="ordfeminine" unicode="&#xaa;" horiz-adv-x="402" 
d="M148 277q-33 0 -50 22t-17 53q0 42 27 91.5t65 91.5t79 70.5t69 28.5q23 0 33 -13t9 -36l13 39l68 10l-95 -292q-4 -13 1 -17.5t13 -4.5q15 0 34.5 20t39.5 60l9 -6q-22 -59 -53 -88t-71 -29q-26 0 -37.5 16.5t-3.5 41.5l29 90q-28 -48 -49.5 -77t-40 -45t-35.5 -21
t-37 -5zM149 355q0 -14 6.5 -27.5t22.5 -13.5q7 0 17 3t26 16.5t40.5 43t59.5 81.5l28 84q9 39 -2 54t-27 15q-23 0 -53 -27.5t-56 -67t-44 -84t-18 -77.5z" />
    <glyph glyph-name="guillemetleft" unicode="&#xab;" horiz-adv-x="454" 
d="M207 239l226 190l24 -24l-166 -173l98 -165l-28 -21zM10 239l226 190l24 -24l-166 -173l98 -165l-28 -21z" />
    <glyph glyph-name="logicalnot" unicode="&#xac;" 
d="M115 423h510l-18 -67v0l-38 -140h-67l38 140h-443z" />
    <glyph glyph-name="softhyphen" unicode="&#xad;" horiz-adv-x="349" 
d="M46 281h270l-25 -77h-270z" />
    <glyph glyph-name="registered" unicode="&#xae;" horiz-adv-x="857" 
d="M376 -14q-61 0 -111.5 20t-86 56.5t-55 87.5t-19.5 112q0 85 36 163.5t96.5 138.5t141.5 95.5t169 35.5q61 0 111.5 -20t86.5 -56.5t55.5 -87.5t19.5 -112q0 -85 -36 -164t-97 -138.5t-142 -95t-169 -35.5zM377 28q82 0 155 33.5t126.5 88.5t85 127.5t31.5 148.5
q0 50 -17 91.5t-47 71.5t-72.5 47t-92.5 17q-82 0 -155 -33t-126.5 -87.5t-84.5 -126.5t-31 -149q0 -50 16.5 -92t46.5 -72.5t72.5 -47.5t92.5 -17zM604 163q-69 -6 -88.5 18.5t-24 55.5t-11.5 58.5t-51 27.5h-16l-33 -100q-4 -14 -4.5 -24.5t8.5 -11.5l27 -3l-5 -14h-156
l5 14l28 3q10 1 16 10.5t11 25.5l74 226q4 15 4.5 25t-9.5 11l-26 3l5 14h151q59 0 96 -18t37 -54q0 -37 -42.5 -62t-120.5 -31q55 -3 69.5 -26t16.5 -50.5t6 -52t38 -30.5zM461 353q42 0 72.5 21t30.5 52t-23.5 38.5t-41.5 7.5h-38l-39 -119h39z" />
    <glyph glyph-name="macron" unicode="&#xaf;" horiz-adv-x="600" 
d="M301 664h276l-14 -42h-276z" />
    <glyph glyph-name="degree" unicode="&#xb0;" horiz-adv-x="257" 
d="M214 516q-37 0 -65 27t-28 66q0 37 28 65t65 28q39 0 66 -28t27 -65q0 -39 -27 -66t-66 -27zM214 553q23 0 39.5 16.5t16.5 39.5t-16.5 39.5t-39.5 16.5t-39.5 -16.5t-16.5 -39.5t16.5 -39.5t39.5 -16.5z" />
    <glyph glyph-name="plusminus" unicode="&#xb1;" 
d="M288 252h-195l17 67h195l56 225h68l-56 -225h195l-17 -67h-195l-55 -223h-68zM49 67h456l-16 -67h-456z" />
    <glyph glyph-name="twosuperior" unicode="&#xb2;" horiz-adv-x="362" 
d="M130 502l117 93q72 57 92.5 87t20.5 62q0 26 -15.5 40t-40.5 14q-16 0 -37 -13.5t-21 -47.5q0 -21 -8.5 -29.5t-24.5 -8.5q-13 0 -22.5 9.5t-9.5 26.5q0 18 12 33t30.5 26t40.5 17.5t43 6.5q55 0 85 -29.5t30 -59.5q0 -13 -5.5 -27t-24 -34t-55 -47.5t-98.5 -66.5
l-62 -39h179l-13 -57h-222z" />
    <glyph glyph-name="threesuperior" unicode="&#xb3;" horiz-adv-x="375" 
d="M241 448q-17 0 -36.5 4t-35.5 11.5t-27 20t-11 30.5q0 14 9.5 23t22.5 9q11 0 18 -7t16 -32q5 -14 14.5 -26.5t28.5 -12.5q37 0 62 24.5t25 61.5q0 21 -9.5 34.5t-23.5 22t-30.5 11.5t-30.5 3l-1 7q62 14 101.5 39.5t39.5 66.5q0 24 -13 40t-39 16q-28 0 -44 -15.5
t-17 -36.5q-1 -22 -11.5 -31.5t-24.5 -9.5q-11 0 -21 8t-10 22q0 18 12.5 33.5t31.5 26.5t42 17t45 6q49 0 81 -24.5t32 -57.5q0 -28 -29 -52.5t-89 -37.5q36 -10 55.5 -30.5t19.5 -48.5q0 -44 -44 -80t-109 -35z" />
    <glyph glyph-name="acute" unicode="&#xb4;" horiz-adv-x="600" 
d="M425 761h127l-205 -207h-21z" />
    <glyph glyph-name="mu" unicode="&#xb5;" horiz-adv-x="541" 
d="M140 -13q-31 0 -53.5 22t-21.5 62q-15 -39 -26 -82.5t-11 -77.5t12.5 -53.5t27 -32.5t27 -25t12.5 -31q0 -16 -12.5 -26.5t-27.5 -10.5q-30 0 -47.5 27.5t-23 72t1.5 101.5t25 114l138 428h92l-121 -374q-11 -36 -0.5 -49t29.5 -13q44 0 87.5 60.5t97.5 176.5l64 199h92
l-129 -397q-6 -19 1.5 -25t18.5 -6q21 0 48.5 27.5t55.5 84.5l13 -9q-31 -82 -75 -123t-99 -41q-37 0 -53.5 23t-4.5 59l31 95q-40 -90 -81.5 -133t-87.5 -43z" />
    <glyph glyph-name="paragraph" unicode="&#xb6;" horiz-adv-x="654" 
d="M280 238q-88 0 -138.5 44t-50.5 120q0 56 25 106.5t67 89t98.5 61t119.5 22.5h275l-185 -681h-87l165 606h-101l-165 -606h-87z" />
    <glyph glyph-name="periodcentered" unicode="&#xb7;" horiz-adv-x="316" 
d="M166 218q-25 0 -41 17t-16 39q0 35 24.5 57.5t55.5 22.5q28 0 43.5 -17t15.5 -41q0 -33 -24 -55.5t-58 -22.5z" />
    <glyph glyph-name="cedilla" unicode="&#xb8;" horiz-adv-x="600" 
d="M32 -254q93 22 131 45.5t38 52.5q0 21 -23 35.5t-91 30.5l77 92h49l-65 -80q66 -14 96.5 -34.5t30.5 -51.5q0 -38 -57.5 -71t-182.5 -45z" />
    <glyph glyph-name="onesuperior" unicode="&#xb9;" horiz-adv-x="338" 
d="M380 811l-95 -353h-61l78 293l-94 -41l-5 13l135 88h42z" />
    <glyph glyph-name="ordmasculine" unicode="&#xba;" horiz-adv-x="347" 
d="M185 277q-19 0 -41 9t-36.5 28.5t-18.5 52.5t11 80q12 36 34.5 70t50 59.5t57.5 41.5t57 16q20 0 41.5 -7.5t36 -23.5t19.5 -43t-8 -66q-10 -32 -32 -70.5t-50 -70.5t-60 -54t-61 -22zM188 300q21 0 39.5 16.5t34.5 43.5t29.5 61t24.5 69q25 75 10.5 98t-36.5 23
t-40.5 -16.5t-34 -43.5t-29 -61t-24.5 -68q-21 -65 -12 -93.5t38 -28.5z" />
    <glyph glyph-name="guillemetright" unicode="&#xbb;" horiz-adv-x="454" 
d="M247 236l-226 -190l-24 24l166 173l-98 165l28 21zM444 236l-226 -190l-24 24l166 173l-98 165l28 21z" />
    <glyph glyph-name="onequarter" unicode="&#xbc;" horiz-adv-x="922" 
d="M194 12l545 710l36 -26l-547 -712zM347 711l-95 -353h-61l78 293l-94 -41l-5 13l135 88h42zM832 88h-66l-24 -88h-60l24 88h-158l6 36l222 223h59l-59 -219h66zM585 128h131l49 181z" />
    <glyph glyph-name="onehalf" unicode="&#xbd;" horiz-adv-x="898" 
d="M194 12l545 710l36 -26l-547 -712zM347 711l-95 -353h-61l78 293l-94 -41l-5 13l135 88h42zM547 44l117 93q72 57 92.5 87t20.5 62q0 26 -15.5 40t-40.5 14q-16 0 -37 -13.5t-21 -47.5q0 -21 -8.5 -29.5t-24.5 -8.5q-13 0 -22.5 9.5t-9.5 26.5q0 18 12 33t30.5 26
t40.5 17.5t43 6.5q55 0 85 -29.5t30 -59.5q0 -13 -5.5 -27t-24 -34t-55 -47.5t-98.5 -66.5l-62 -39h179l-13 -57h-222z" />
    <glyph glyph-name="threequarters" unicode="&#xbe;" horiz-adv-x="958" 
d="M230 12l545 710l36 -26l-547 -712zM238 348q-17 0 -36.5 4t-35.5 11.5t-27 20t-11 30.5q0 14 9.5 23t22.5 9q11 0 18 -7t16 -32q5 -14 14.5 -26.5t28.5 -12.5q37 0 62 24.5t25 61.5q0 21 -9.5 34.5t-23.5 22t-30.5 11.5t-30.5 3l-1 7q62 14 101.5 39.5t39.5 66.5
q0 24 -13 40t-39 16q-28 0 -44 -15.5t-17 -36.5q-1 -22 -11.5 -31.5t-24.5 -9.5q-11 0 -21 8t-10 22q0 18 12.5 33.5t31.5 26.5t42 17t45 6q49 0 81 -24.5t32 -57.5q0 -28 -29 -52.5t-89 -37.5q36 -10 55.5 -30.5t19.5 -48.5q0 -44 -44 -80t-109 -35zM868 88h-66l-24 -88
h-60l24 88h-158l6 36l222 223h59l-59 -219h66zM621 128h131l49 181z" />
    <glyph glyph-name="questiondown" unicode="&#xbf;" horiz-adv-x="456" 
d="M297 489q25 0 41 -17t16 -39q0 -35 -24.5 -57.5t-55.5 -22.5q-28 0 -43.5 17t-15.5 41q0 33 24 55.5t58 22.5zM216 261q43 0 76 -27t33 -70q0 -34 -22.5 -65.5t-67.5 -50.5l-120 -52q-53 -23 -76 -47.5t-28 -55.5q-9 -54 22 -95t100 -41q20 0 40.5 5t36.5 14t26.5 22.5
t10.5 31.5q0 11 -6 19.5t-12.5 16.5t-12.5 18t-6 23q0 19 15 33t39 14q22 0 40 -21.5t18 -52.5q0 -34 -16 -63t-43 -49.5t-63.5 -32t-77.5 -11.5q-48 0 -87.5 15t-66.5 40.5t-39.5 59t-6.5 70.5q7 49 44 87t98 65l138 61q16 7 24.5 18.5t8.5 27.5q0 21 -13.5 34t-33.5 13
q-15 0 -36.5 -9t-41.5 -44l-15 9q14 48 49.5 69t71.5 21z" />
    <glyph glyph-name="Agrave" unicode="&#xc0;" horiz-adv-x="904" 
d="M-28 27l103 18l740 671h48l-179 -671l100 -18l-7 -27h-305l7 27l103 18l52 194h-287l-214 -194l100 -18l-7 -27h-261zM644 279l81 303l-334 -303h253zM743 931h123l-5 -184h-29z" />
    <glyph glyph-name="Aacute" unicode="&#xc1;" horiz-adv-x="904" 
d="M-28 27l103 18l740 671h48l-179 -671l100 -18l-7 -27h-305l7 27l103 18l52 194h-287l-214 -194l100 -18l-7 -27h-261zM644 279l81 303l-334 -303h253zM830 754l85 177h137l-198 -189z" />
    <glyph glyph-name="Acircumflex" unicode="&#xc2;" horiz-adv-x="904" 
d="M-28 27l103 18l740 671h48l-179 -671l100 -18l-7 -27h-305l7 27l103 18l52 194h-287l-214 -194l100 -18l-7 -27h-261zM644 279l81 303l-334 -303h253zM676 764l171 145h60l109 -145l-19 -5l-128 84l-173 -84z" />
    <glyph glyph-name="Atilde" unicode="&#xc3;" horiz-adv-x="904" 
d="M-28 27l103 18l740 671h48l-179 -671l100 -18l-7 -27h-305l7 27l103 18l52 194h-287l-214 -194l100 -18l-7 -27h-261zM644 279l81 303l-334 -303h253zM711 758q13 74 47.5 102t71.5 28q24 0 41.5 -7t31.5 -15t26 -15t26 -7q19 0 40.5 12t34.5 52l12 -4
q-13 -74 -47.5 -102.5t-73.5 -28.5q-22 0 -38.5 6.5t-30.5 15t-26.5 15t-27.5 6.5q-17 0 -41 -13t-34 -50z" />
    <glyph glyph-name="Adieresis" unicode="&#xc4;" horiz-adv-x="904" 
d="M-28 27l103 18l740 671h48l-179 -671l100 -18l-7 -27h-305l7 27l103 18l52 194h-287l-214 -194l100 -18l-7 -27h-261zM644 279l81 303l-334 -303h253zM941 768q-17 0 -28 12t-11 31q0 27 18.5 45.5t43.5 18.5q17 0 28.5 -12t11.5 -29q0 -29 -19 -47.5t-44 -18.5zM757 768
q-17 0 -28 12t-11 31q0 27 18.5 45.5t43.5 18.5q17 0 28.5 -12t11.5 -29q0 -29 -19 -47.5t-44 -18.5z" />
    <glyph glyph-name="Aring" unicode="&#xc5;" horiz-adv-x="904" 
d="M-28 27l103 18l740 671h48l-179 -671l100 -18l-7 -27h-305l7 27l103 18l52 194h-287l-214 -194l100 -18l-7 -27h-261zM644 279l81 303l-334 -303h253zM870 727q-37 0 -65 27t-28 66q0 37 28 65t65 28q39 0 66 -28t27 -65q0 -39 -27 -66t-66 -27zM870 764q23 0 39.5 16.5
t16.5 39.5t-16.5 39.5t-39.5 16.5t-39.5 -16.5t-16.5 -39.5t16.5 -39.5t39.5 -16.5z" />
    <glyph glyph-name="AE" unicode="&#xc6;" horiz-adv-x="1230" 
d="M-28 27l103 18l729 660h413l-40 -198h-27v72q0 26 -5 43.5t-24.5 28.5t-59 15.5t-108.5 4.5h-91l-77 -288h174l52 91h27l-59 -222h-26l-2 91h-177l-83 -309h139q110 0 169.5 19t92.5 88l34 71h27l-56 -212h-616l7 27l103 18l52 194h-296l-214 -194l100 -18l-7 -27h-261z
M654 279l84 315l-347 -315h263z" />
    <glyph glyph-name="Ccedilla" unicode="&#xc7;" horiz-adv-x="772" 
d="M429 -14q-72 0 -134 15.5t-106 47t-69 79t-25 110.5q0 93 47 180t121 153.5t167 107t184 40.5q40 0 83.5 -9t81.5 -23l-40 -197h-30v85q0 57 -22.5 82t-82.5 25q-78 0 -151 -39.5t-128.5 -104.5t-89.5 -149t-34 -172q0 -42 17 -78t47.5 -61.5t73 -40t92.5 -14.5
q39 0 73 16t61 43.5t48.5 63.5t36.5 75h30l-55 -201q-47 -14 -101.5 -24t-94.5 -10zM276 -254q93 22 131 45.5t38 52.5q0 21 -23 35.5t-91 30.5l77 92h49l-65 -80q66 -14 96.5 -34.5t30.5 -51.5q0 -38 -57.5 -71t-182.5 -45z" />
    <glyph glyph-name="Egrave" unicode="&#xc8;" horiz-adv-x="744" 
d="M2 27l103 18l165 615l-100 18l7 27h554l-40 -198h-27v72q0 26 -5 43.5t-24.5 28.5t-59 15.5t-108.5 4.5h-91l-77 -288h174l52 91h27l-59 -222h-26l-2 91h-177l-83 -309h139q110 0 169.5 19t92.5 88l34 71h27l-56 -212h-616zM394 931h123l-5 -184h-29z" />
    <glyph glyph-name="Eacute" unicode="&#xc9;" horiz-adv-x="744" 
d="M2 27l103 18l165 615l-100 18l7 27h554l-40 -198h-27v72q0 26 -5 43.5t-24.5 28.5t-59 15.5t-108.5 4.5h-91l-77 -288h174l52 91h27l-59 -222h-26l-2 91h-177l-83 -309h139q110 0 169.5 19t92.5 88l34 71h27l-56 -212h-616zM481 754l85 177h137l-198 -189z" />
    <glyph glyph-name="Ecircumflex" unicode="&#xca;" horiz-adv-x="744" 
d="M2 27l103 18l165 615l-100 18l7 27h554l-40 -198h-27v72q0 26 -5 43.5t-24.5 28.5t-59 15.5t-108.5 4.5h-91l-77 -288h174l52 91h27l-59 -222h-26l-2 91h-177l-83 -309h139q110 0 169.5 19t92.5 88l34 71h27l-56 -212h-616zM327 764l171 145h60l109 -145l-19 -5l-128 84
l-173 -84z" />
    <glyph glyph-name="Edieresis" unicode="&#xcb;" horiz-adv-x="744" 
d="M2 27l103 18l165 615l-100 18l7 27h554l-40 -198h-27v72q0 26 -5 43.5t-24.5 28.5t-59 15.5t-108.5 4.5h-91l-77 -288h174l52 91h27l-59 -222h-26l-2 91h-177l-83 -309h139q110 0 169.5 19t92.5 88l34 71h27l-56 -212h-616zM592 768q-17 0 -28 12t-11 31q0 27 18.5 45.5
t43.5 18.5q17 0 28.5 -12t11.5 -29q0 -29 -19 -47.5t-44 -18.5zM408 768q-17 0 -28 12t-11 31q0 27 18.5 45.5t43.5 18.5q17 0 28.5 -12t11.5 -29q0 -29 -19 -47.5t-44 -18.5z" />
    <glyph glyph-name="Igrave" unicode="&#xcc;" horiz-adv-x="443" 
d="M12 27l103 18l165 615l-100 18l7 27h306l-7 -27l-103 -18l-165 -615l100 -18l-7 -27h-306zM250 931h123l-5 -184h-29z" />
    <glyph glyph-name="Iacute" unicode="&#xcd;" horiz-adv-x="443" 
d="M12 27l103 18l165 615l-100 18l7 27h306l-7 -27l-103 -18l-165 -615l100 -18l-7 -27h-306zM337 754l85 177h137l-198 -189z" />
    <glyph glyph-name="Icircumflex" unicode="&#xce;" horiz-adv-x="443" 
d="M12 27l103 18l165 615l-100 18l7 27h306l-7 -27l-103 -18l-165 -615l100 -18l-7 -27h-306zM183 764l171 145h60l109 -145l-19 -5l-128 84l-173 -84z" />
    <glyph glyph-name="Idieresis" unicode="&#xcf;" horiz-adv-x="443" 
d="M12 27l103 18l165 615l-100 18l7 27h306l-7 -27l-103 -18l-165 -615l100 -18l-7 -27h-306zM448 768q-17 0 -28 12t-11 31q0 27 18.5 45.5t43.5 18.5q17 0 28.5 -12t11.5 -29q0 -29 -19 -47.5t-44 -18.5zM264 768q-17 0 -28 12t-11 31q0 27 18.5 45.5t43.5 18.5
q17 0 28.5 -12t11.5 -29q0 -29 -19 -47.5t-44 -18.5z" />
    <glyph glyph-name="Eth" unicode="&#xd0;" horiz-adv-x="823" 
d="M2 27l103 18l76 284h-110l15 57h110l74 274l-100 18l7 27h310q68 0 125.5 -19.5t98 -54t63 -83t22.5 -106.5q0 -85 -42 -165t-117 -141t-180 -98.5t-229 -37.5h-233zM454 329h-170l-79 -295h45q94 0 174.5 35.5t139 94t91.5 136.5t33 162q0 91 -53 150t-146 59h-113
l-77 -285h170z" />
    <glyph glyph-name="Ntilde" unicode="&#xd1;" horiz-adv-x="842" 
d="M300 619l-155 -574l100 -18l-7 -27h-243l7 27l103 18l165 615l-100 18l7 27h192l262 -552l135 507l-100 18l7 27h243l-7 -27l-103 -18l-178 -674h-28zM443 758q13 74 47.5 102t71.5 28q24 0 41.5 -7t31.5 -15t26 -15t26 -7q19 0 40.5 12t34.5 52l12 -4
q-13 -74 -47.5 -102.5t-73.5 -28.5q-22 0 -38.5 6.5t-30.5 15t-26.5 15t-27.5 6.5q-17 0 -41 -13t-34 -50z" />
    <glyph glyph-name="Ograve" unicode="&#xd2;" horiz-adv-x="867" 
d="M376 -14q-60 0 -111 21t-87.5 56.5t-57 83.5t-20.5 102q0 86 38 170.5t100.5 151t144 107.5t167.5 41q62 0 115.5 -19.5t92.5 -55t61 -86t22 -112.5q0 -82 -39.5 -164.5t-104 -148t-148.5 -106.5t-173 -41zM376 23q64 0 128.5 36.5t116 100.5t84 151t32.5 187
q0 35 -10.5 68t-33 59t-58.5 41.5t-86 15.5q-59 0 -120 -35.5t-110.5 -98.5t-81 -150t-31.5 -190q0 -36 9 -69.5t29 -59t52.5 -41t79.5 -15.5zM496 931h123l-5 -184h-29z" />
    <glyph glyph-name="Oacute" unicode="&#xd3;" horiz-adv-x="867" 
d="M376 -14q-60 0 -111 21t-87.5 56.5t-57 83.5t-20.5 102q0 86 38 170.5t100.5 151t144 107.5t167.5 41q62 0 115.5 -19.5t92.5 -55t61 -86t22 -112.5q0 -82 -39.5 -164.5t-104 -148t-148.5 -106.5t-173 -41zM376 23q64 0 128.5 36.5t116 100.5t84 151t32.5 187
q0 35 -10.5 68t-33 59t-58.5 41.5t-86 15.5q-59 0 -120 -35.5t-110.5 -98.5t-81 -150t-31.5 -190q0 -36 9 -69.5t29 -59t52.5 -41t79.5 -15.5zM583 754l85 177h137l-198 -189z" />
    <glyph glyph-name="Ocircumflex" unicode="&#xd4;" horiz-adv-x="867" 
d="M376 -14q-60 0 -111 21t-87.5 56.5t-57 83.5t-20.5 102q0 86 38 170.5t100.5 151t144 107.5t167.5 41q62 0 115.5 -19.5t92.5 -55t61 -86t22 -112.5q0 -82 -39.5 -164.5t-104 -148t-148.5 -106.5t-173 -41zM376 23q64 0 128.5 36.5t116 100.5t84 151t32.5 187
q0 35 -10.5 68t-33 59t-58.5 41.5t-86 15.5q-59 0 -120 -35.5t-110.5 -98.5t-81 -150t-31.5 -190q0 -36 9 -69.5t29 -59t52.5 -41t79.5 -15.5zM429 764l171 145h60l109 -145l-19 -5l-128 84l-173 -84z" />
    <glyph glyph-name="Otilde" unicode="&#xd5;" horiz-adv-x="867" 
d="M376 -14q-60 0 -111 21t-87.5 56.5t-57 83.5t-20.5 102q0 86 38 170.5t100.5 151t144 107.5t167.5 41q62 0 115.5 -19.5t92.5 -55t61 -86t22 -112.5q0 -82 -39.5 -164.5t-104 -148t-148.5 -106.5t-173 -41zM376 23q64 0 128.5 36.5t116 100.5t84 151t32.5 187
q0 35 -10.5 68t-33 59t-58.5 41.5t-86 15.5q-59 0 -120 -35.5t-110.5 -98.5t-81 -150t-31.5 -190q0 -36 9 -69.5t29 -59t52.5 -41t79.5 -15.5zM464 758q13 74 47.5 102t71.5 28q24 0 41.5 -7t31.5 -15t26 -15t26 -7q19 0 40.5 12t34.5 52l12 -4q-13 -74 -47.5 -102.5
t-73.5 -28.5q-22 0 -38.5 6.5t-30.5 15t-26.5 15t-27.5 6.5q-17 0 -41 -13t-34 -50z" />
    <glyph glyph-name="Odieresis" unicode="&#xd6;" horiz-adv-x="867" 
d="M376 -14q-60 0 -111 21t-87.5 56.5t-57 83.5t-20.5 102q0 86 38 170.5t100.5 151t144 107.5t167.5 41q62 0 115.5 -19.5t92.5 -55t61 -86t22 -112.5q0 -82 -39.5 -164.5t-104 -148t-148.5 -106.5t-173 -41zM376 23q64 0 128.5 36.5t116 100.5t84 151t32.5 187
q0 35 -10.5 68t-33 59t-58.5 41.5t-86 15.5q-59 0 -120 -35.5t-110.5 -98.5t-81 -150t-31.5 -190q0 -36 9 -69.5t29 -59t52.5 -41t79.5 -15.5zM694 768q-17 0 -28 12t-11 31q0 27 18.5 45.5t43.5 18.5q17 0 28.5 -12t11.5 -29q0 -29 -19 -47.5t-44 -18.5zM510 768
q-17 0 -28 12t-11 31q0 27 18.5 45.5t43.5 18.5q17 0 28.5 -12t11.5 -29q0 -29 -19 -47.5t-44 -18.5z" />
    <glyph glyph-name="multiply" unicode="&#xd7;" 
d="M55 77l244 212l-136 209l54 42l134 -206l241 210l39 -48l-246 -214l136 -210l-53 -41l-135 206l-239 -208z" />
    <glyph glyph-name="Oslash" unicode="&#xd8;" horiz-adv-x="867" 
d="M181 -9l30 44q-51 36 -81 92t-30 122q0 86 38 170.5t100.5 151t144 107.5t167.5 41q31 0 61 -5t56 -15l32 46l37 -26l-27 -39q60 -34 96 -94.5t36 -139.5q0 -82 -39.5 -164.5t-104 -148t-148.5 -106.5t-173 -41q-34 0 -65.5 7t-59.5 20l-33 -48zM206 208q0 -36 9 -69
t28 -58l400 582q-19 9 -42.5 14t-51.5 5q-59 0 -120 -35.5t-110.5 -98.5t-81 -150t-31.5 -190zM376 23q64 0 128.5 36.5t116 100.5t84 151t32.5 187q0 40 -13.5 77t-43.5 63l-404 -589q19 -12 44 -19t56 -7z" />
    <glyph glyph-name="Ugrave" unicode="&#xd9;" horiz-adv-x="843" 
d="M393 -14q-82 0 -134 24t-77.5 64t-27 95t14.5 116l101 375l-100 18l7 27h305l-7 -27l-103 -18l-102 -382q-14 -51 -11.5 -95t21.5 -76t54.5 -50.5t86.5 -18.5q37 0 73.5 13t67.5 39t56 66t39 93l111 411l-100 18l7 27h242l-7 -27l-103 -18l-110 -409
q-34 -128 -114.5 -196.5t-189.5 -68.5zM486 931h123l-5 -184h-29z" />
    <glyph glyph-name="Uacute" unicode="&#xda;" horiz-adv-x="843" 
d="M393 -14q-82 0 -134 24t-77.5 64t-27 95t14.5 116l101 375l-100 18l7 27h305l-7 -27l-103 -18l-102 -382q-14 -51 -11.5 -95t21.5 -76t54.5 -50.5t86.5 -18.5q37 0 73.5 13t67.5 39t56 66t39 93l111 411l-100 18l7 27h242l-7 -27l-103 -18l-110 -409
q-34 -128 -114.5 -196.5t-189.5 -68.5zM573 754l85 177h137l-198 -189z" />
    <glyph glyph-name="Ucircumflex" unicode="&#xdb;" horiz-adv-x="843" 
d="M393 -14q-82 0 -134 24t-77.5 64t-27 95t14.5 116l101 375l-100 18l7 27h305l-7 -27l-103 -18l-102 -382q-14 -51 -11.5 -95t21.5 -76t54.5 -50.5t86.5 -18.5q37 0 73.5 13t67.5 39t56 66t39 93l111 411l-100 18l7 27h242l-7 -27l-103 -18l-110 -409
q-34 -128 -114.5 -196.5t-189.5 -68.5zM419 764l171 145h60l109 -145l-19 -5l-128 84l-173 -84z" />
    <glyph glyph-name="Udieresis" unicode="&#xdc;" horiz-adv-x="843" 
d="M393 -14q-82 0 -134 24t-77.5 64t-27 95t14.5 116l101 375l-100 18l7 27h305l-7 -27l-103 -18l-102 -382q-14 -51 -11.5 -95t21.5 -76t54.5 -50.5t86.5 -18.5q37 0 73.5 13t67.5 39t56 66t39 93l111 411l-100 18l7 27h242l-7 -27l-103 -18l-110 -409
q-34 -128 -114.5 -196.5t-189.5 -68.5zM684 768q-17 0 -28 12t-11 31q0 27 18.5 45.5t43.5 18.5q17 0 28.5 -12t11.5 -29q0 -29 -19 -47.5t-44 -18.5zM500 768q-17 0 -28 12t-11 31q0 27 18.5 45.5t43.5 18.5q17 0 28.5 -12t11.5 -29q0 -29 -19 -47.5t-44 -18.5z" />
    <glyph glyph-name="Yacute" unicode="&#xdd;" horiz-adv-x="858" 
d="M239 27l103 18l74 276l-146 339l-100 18l7 27h311l-7 -27l-103 -18l126 -292l265 292l-100 18l7 27h256l-7 -27l-103 -18l-303 -333l-74 -282l100 -18l-7 -27h-306zM566 754l85 177h137l-198 -189z" />
    <glyph glyph-name="Thorn" unicode="&#xde;" horiz-adv-x="719" 
d="M1 27l103 18l165 615l-100 18l7 27h306l-7 -27l-103 -18l-25 -95h107q51 0 94 -10.5t74 -30t48.5 -49.5t17.5 -68q0 -58 -32 -103t-87.5 -75.5t-131.5 -47t-163 -18.5l-36 -1l-31 -117l100 -18l-7 -27h-306zM436 531h-99l-90 -336q181 7 258 69.5t77 154.5q0 64 -41.5 88
t-104.5 24z" />
    <glyph glyph-name="germandbls" unicode="&#xdf;" horiz-adv-x="619" 
d="M-168 -282q-43 0 -73 14t-30 45q0 22 13.5 32.5t27.5 10.5q18 0 27.5 -10.5t19 -23t22.5 -23t36 -10.5q41 0 82 49t70 162l123 481h-97l10 30h95v1q16 65 46 116t67.5 86.5t80.5 54t86 18.5q58 0 89.5 -34t31.5 -77q0 -37 -17 -62.5t-37.5 -45.5t-37.5 -39.5t-17 -44.5
q0 -14 3 -25t21 -48l58 -123q12 -25 22 -51t10 -60q0 -35 -15.5 -64t-40.5 -49t-56.5 -31t-62.5 -11q-43 0 -72.5 11t-47.5 26.5t-26 32.5t-8 29q0 17 11.5 30.5t29.5 13.5q21 0 32.5 -18t21.5 -39.5t24 -39.5t41 -18q37 0 63.5 24t26.5 63q0 22 -2.5 38t-16.5 45l-69 140
q-19 40 -20.5 69.5t9.5 53.5t31.5 44.5t45.5 41.5q33 28 44 54.5t11 54.5q0 31 -19.5 56t-62.5 25q-51 0 -91 -34.5t-59 -99.5l-163 -568q-44 -154 -123.5 -228.5t-167.5 -74.5z" />
    <glyph glyph-name="agrave" unicode="&#xe0;" horiz-adv-x="549" 
d="M376 553h-18l-94 208h117zM95 -14q-47 0 -71 31.5t-24 74.5q0 59 38.5 128.5t91.5 129t111 99.5t97 40q33 0 46.5 -18.5t12.5 -50.5l18 55l96 14l-134 -411q-6 -19 1.5 -25t18.5 -6q21 0 48.5 27.5t55.5 84.5l13 -9q-31 -82 -75 -123t-99 -41q-37 0 -53.5 23t-4.5 59
l41 126q-40 -67 -70.5 -108t-56 -63.5t-49.5 -29.5t-52 -7zM96 96q0 -20 8.5 -39t31.5 -19q10 0 24 4t37 23.5t57.5 60.5t83.5 115l39 118q13 54 -2.5 76t-37.5 22q-33 0 -75 -39t-78.5 -94.5t-62 -118t-25.5 -109.5z" />
    <glyph glyph-name="aacute" unicode="&#xe1;" horiz-adv-x="549" 
d="M355 554h-21l99 207h127zM95 -14q-47 0 -71 31.5t-24 74.5q0 59 38.5 128.5t91.5 129t111 99.5t97 40q33 0 46.5 -18.5t12.5 -50.5l18 55l96 14l-134 -411q-6 -19 1.5 -25t18.5 -6q21 0 48.5 27.5t55.5 84.5l13 -9q-31 -82 -75 -123t-99 -41q-37 0 -53.5 23t-4.5 59
l41 126q-40 -67 -70.5 -108t-56 -63.5t-49.5 -29.5t-52 -7zM96 96q0 -20 8.5 -39t31.5 -19q10 0 24 4t37 23.5t57.5 60.5t83.5 115l39 118q13 54 -2.5 76t-37.5 22q-33 0 -75 -39t-78.5 -94.5t-62 -118t-25.5 -109.5z" />
    <glyph glyph-name="acircumflex" unicode="&#xe2;" horiz-adv-x="549" 
d="M456 739l79 -193l-18 -5l-105 122l-170 -122l-18 5l172 193h60zM95 -14q-47 0 -71 31.5t-24 74.5q0 59 38.5 128.5t91.5 129t111 99.5t97 40q33 0 46.5 -18.5t12.5 -50.5l18 55l96 14l-134 -411q-6 -19 1.5 -25t18.5 -6q21 0 48.5 27.5t55.5 84.5l13 -9q-31 -82 -75 -123
t-99 -41q-37 0 -53.5 23t-4.5 59l41 126q-40 -67 -70.5 -108t-56 -63.5t-49.5 -29.5t-52 -7zM96 96q0 -20 8.5 -39t31.5 -19q10 0 24 4t37 23.5t57.5 60.5t83.5 115l39 118q13 54 -2.5 76t-37.5 22q-33 0 -75 -39t-78.5 -94.5t-62 -118t-25.5 -109.5z" />
    <glyph glyph-name="atilde" unicode="&#xe3;" horiz-adv-x="549" 
d="M244 579q13 74 47.5 103t73.5 29q23 0 40 -7t31 -15t26 -15t26 -7q19 0 40.5 11.5t34.5 52.5l12 -4q-13 -75 -47.5 -104t-73.5 -29q-22 0 -38.5 6.5t-30.5 15t-26.5 15t-27.5 6.5q-17 0 -41 -13t-34 -50zM95 -14q-47 0 -71 31.5t-24 74.5q0 59 38.5 128.5t91.5 129
t111 99.5t97 40q33 0 46.5 -18.5t12.5 -50.5l18 55l96 14l-134 -411q-6 -19 1.5 -25t18.5 -6q21 0 48.5 27.5t55.5 84.5l13 -9q-31 -82 -75 -123t-99 -41q-37 0 -53.5 23t-4.5 59l41 126q-40 -67 -70.5 -108t-56 -63.5t-49.5 -29.5t-52 -7zM96 96q0 -20 8.5 -39t31.5 -19
q10 0 24 4t37 23.5t57.5 60.5t83.5 115l39 118q13 54 -2.5 76t-37.5 22q-33 0 -75 -39t-78.5 -94.5t-62 -118t-25.5 -109.5z" />
    <glyph glyph-name="adieresis" unicode="&#xe4;" horiz-adv-x="549" 
d="M489 598q-17 0 -28 12t-11 31q0 27 18.5 45.5t43.5 18.5q17 0 28.5 -12t11.5 -29q0 -29 -19 -47.5t-44 -18.5zM305 598q-17 0 -28 12t-11 31q0 27 18.5 45.5t43.5 18.5q17 0 28.5 -12t11.5 -29q0 -29 -19 -47.5t-44 -18.5zM95 -14q-47 0 -71 31.5t-24 74.5
q0 59 38.5 128.5t91.5 129t111 99.5t97 40q33 0 46.5 -18.5t12.5 -50.5l18 55l96 14l-134 -411q-6 -19 1.5 -25t18.5 -6q21 0 48.5 27.5t55.5 84.5l13 -9q-31 -82 -75 -123t-99 -41q-37 0 -53.5 23t-4.5 59l41 126q-40 -67 -70.5 -108t-56 -63.5t-49.5 -29.5t-52 -7zM96 96
q0 -20 8.5 -39t31.5 -19q10 0 24 4t37 23.5t57.5 60.5t83.5 115l39 118q13 54 -2.5 76t-37.5 22q-33 0 -75 -39t-78.5 -94.5t-62 -118t-25.5 -109.5z" />
    <glyph glyph-name="aring" unicode="&#xe5;" horiz-adv-x="549" 
d="M409 557q-37 0 -65 27t-28 66q0 37 28 65t65 28q39 0 66 -28t27 -65q0 -39 -27 -66t-66 -27zM409 594q23 0 39.5 16.5t16.5 39.5t-16.5 39.5t-39.5 16.5t-39.5 -16.5t-16.5 -39.5t16.5 -39.5t39.5 -16.5zM95 -14q-47 0 -71 31.5t-24 74.5q0 59 38.5 128.5t91.5 129
t111 99.5t97 40q33 0 46.5 -18.5t12.5 -50.5l18 55l96 14l-134 -411q-6 -19 1.5 -25t18.5 -6q21 0 48.5 27.5t55.5 84.5l13 -9q-31 -82 -75 -123t-99 -41q-37 0 -53.5 23t-4.5 59l41 126q-40 -67 -70.5 -108t-56 -63.5t-49.5 -29.5t-52 -7zM96 96q0 -20 8.5 -39t31.5 -19
q10 0 24 4t37 23.5t57.5 60.5t83.5 115l39 118q13 54 -2.5 76t-37.5 22q-33 0 -75 -39t-78.5 -94.5t-62 -118t-25.5 -109.5z" />
    <glyph glyph-name="ae" unicode="&#xe6;" horiz-adv-x="648" 
d="M103 -14q-44 0 -73 29t-29 71q0 49 28 83t69.5 54.5t90 27t89.5 0.5q6 16 14 31t17 30q21 40 23 68.5t-9 45.5t-31.5 25t-44.5 8q-31 0 -50 -18.5t-20 -49.5q-1 -28 -13 -42t-34 -15q-16 -1 -29.5 10.5t-13.5 36.5q0 24 15.5 44t39.5 34t53.5 22t55.5 8q49 0 84 -21
t39 -70q39 41 82 66t82 25q25 0 47 -7.5t36 -22.5t18 -38t-6 -53q-13 -43 -80 -86.5t-199 -87.5q-15 -82 7 -113t57 -31t74 27.5t73 101.5l15 -5q-25 -95 -78 -141.5t-119 -46.5q-37 0 -69 16.5t-49 49.5q-37 -31 -76 -48.5t-86 -17.5zM375 273q-5 -16 -9 -30t-7 -27
q100 49 150.5 95.5t50.5 95.5q0 24 -11.5 36.5t-29.5 12.5q-45 0 -81 -50t-63 -133zM96 98q0 -17 14.5 -33.5t38.5 -16.5q22 0 45.5 4.5t60.5 23.5q-3 10 -4.5 22t-1.5 25q0 25 5 50.5t13 50.5q-31 3 -61.5 -4.5t-55 -24t-39.5 -41t-15 -56.5z" />
    <glyph glyph-name="ccedilla" unicode="&#xe7;" horiz-adv-x="393" 
d="M143 -14q-54 0 -94 35t-40 102q0 61 28 126.5t70.5 118t93.5 87t97 34.5t75.5 -23t29.5 -61q0 -22 -13 -34.5t-29 -12.5q-25 0 -31 15.5t-8.5 33.5t-9.5 33.5t-33 15.5q-45 0 -81 -50t-63 -133q-21 -65 -25 -108t4 -68.5t25.5 -36t39.5 -10.5q40 0 78 31.5t68 97.5l15 -5
q-25 -95 -78 -141.5t-119 -46.5zM-34 -254q93 22 131 45.5t38 52.5q0 21 -23 35.5t-91 30.5l77 92h49l-65 -80q66 -14 96.5 -34.5t30.5 -51.5q0 -38 -57.5 -71t-182.5 -45z" />
    <glyph glyph-name="egrave" unicode="&#xe8;" horiz-adv-x="408" 
d="M143 -14q-54 0 -94 35t-40 102q0 61 28 126.5t70.5 118t93.5 87t97 34.5q25 0 47 -7.5t36 -22.5t18 -38t-6 -53q-13 -43 -80 -86.5t-199 -87.5q-16 -82 6.5 -113t57.5 -31t74 27.5t73 101.5l15 -5q-25 -95 -78 -141.5t-119 -46.5zM135 273q-5 -16 -9 -30t-7 -27
q100 49 150.5 95.5t50.5 95.5q0 24 -11.5 36.5t-29.5 12.5q-45 0 -81 -50t-63 -133zM191 761h117l-5 -208h-18z" />
    <glyph glyph-name="eacute" unicode="&#xe9;" horiz-adv-x="408" 
d="M143 -14q-54 0 -94 35t-40 102q0 61 28 126.5t70.5 118t93.5 87t97 34.5q25 0 47 -7.5t36 -22.5t18 -38t-6 -53q-13 -43 -80 -86.5t-199 -87.5q-16 -82 6.5 -113t57.5 -31t74 27.5t73 101.5l15 -5q-25 -95 -78 -141.5t-119 -46.5zM135 273q-5 -16 -9 -30t-7 -27
q100 49 150.5 95.5t50.5 95.5q0 24 -11.5 36.5t-29.5 12.5q-45 0 -81 -50t-63 -133zM360 761h127l-205 -207h-21z" />
    <glyph glyph-name="ecircumflex" unicode="&#xea;" horiz-adv-x="408" 
d="M143 -14q-54 0 -94 35t-40 102q0 61 28 126.5t70.5 118t93.5 87t97 34.5q25 0 47 -7.5t36 -22.5t18 -38t-6 -53q-13 -43 -80 -86.5t-199 -87.5q-16 -82 6.5 -113t57.5 -31t74 27.5t73 101.5l15 -5q-25 -95 -78 -141.5t-119 -46.5zM135 273q-5 -16 -9 -30t-7 -27
q100 49 150.5 95.5t50.5 95.5q0 24 -11.5 36.5t-29.5 12.5q-45 0 -81 -50t-63 -133zM151 546l172 193h60l79 -193l-18 -5l-105 122l-170 -122z" />
    <glyph glyph-name="edieresis" unicode="&#xeb;" horiz-adv-x="408" 
d="M143 -14q-54 0 -94 35t-40 102q0 61 28 126.5t70.5 118t93.5 87t97 34.5q25 0 47 -7.5t36 -22.5t18 -38t-6 -53q-13 -43 -80 -86.5t-199 -87.5q-16 -82 6.5 -113t57.5 -31t74 27.5t73 101.5l15 -5q-25 -95 -78 -141.5t-119 -46.5zM135 273q-5 -16 -9 -30t-7 -27
q100 49 150.5 95.5t50.5 95.5q0 24 -11.5 36.5t-29.5 12.5q-45 0 -81 -50t-63 -133zM416 598q-17 0 -28 12t-11 31q0 27 18.5 45.5t43.5 18.5q17 0 28.5 -12t11.5 -29q0 -29 -19 -47.5t-44 -18.5zM232 598q-17 0 -28 12t-11 31q0 27 18.5 45.5t43.5 18.5q17 0 28.5 -12
t11.5 -29q0 -29 -19 -47.5t-44 -18.5z" />
    <glyph glyph-name="igrave" unicode="&#xec;" horiz-adv-x="321" 
d="M117 -14q-37 0 -53.5 23t-4.5 59l105 323q6 19 -0.5 30t-19.5 11q-6 0 -14.5 -3t-20 -14.5t-28.5 -35t-39 -64.5l-13 14q22 52 45 83.5t44.5 48.5t40.5 22.5t35 5.5q39 0 58 -26t0 -83l-98 -302q-6 -19 1.5 -25t18.5 -6q21 0 48.5 27.5t55.5 84.5l13 -9q-31 -82 -75 -123
t-99 -41zM134 761h117l-5 -208h-18z" />
    <glyph glyph-name="iacute" unicode="&#xed;" horiz-adv-x="321" 
d="M117 -14q-37 0 -53.5 23t-4.5 59l105 323q6 19 -0.5 30t-19.5 11q-6 0 -14.5 -3t-20 -14.5t-28.5 -35t-39 -64.5l-13 14q22 52 45 83.5t44.5 48.5t40.5 22.5t35 5.5q39 0 58 -26t0 -83l-98 -302q-6 -19 1.5 -25t18.5 -6q21 0 48.5 27.5t55.5 84.5l13 -9q-31 -82 -75 -123
t-99 -41zM303 761h127l-205 -207h-21z" />
    <glyph glyph-name="icircumflex" unicode="&#xee;" horiz-adv-x="321" 
d="M117 -14q-37 0 -53.5 23t-4.5 59l105 323q6 19 -0.5 30t-19.5 11q-6 0 -14.5 -3t-20 -14.5t-28.5 -35t-39 -64.5l-13 14q22 52 45 83.5t44.5 48.5t40.5 22.5t35 5.5q39 0 58 -26t0 -83l-98 -302q-6 -19 1.5 -25t18.5 -6q21 0 48.5 27.5t55.5 84.5l13 -9q-31 -82 -75 -123
t-99 -41zM94 546l172 193h60l79 -193l-18 -5l-105 122l-170 -122z" />
    <glyph glyph-name="idieresis" unicode="&#xef;" horiz-adv-x="321" 
d="M117 -14q-37 0 -53.5 23t-4.5 59l105 323q6 19 -0.5 30t-19.5 11q-6 0 -14.5 -3t-20 -14.5t-28.5 -35t-39 -64.5l-13 14q22 52 45 83.5t44.5 48.5t40.5 22.5t35 5.5q39 0 58 -26t0 -83l-98 -302q-6 -19 1.5 -25t18.5 -6q21 0 48.5 27.5t55.5 84.5l13 -9q-31 -82 -75 -123
t-99 -41zM359 598q-17 0 -28 12t-11 31q0 27 18.5 45.5t43.5 18.5q17 0 28.5 -12t11.5 -29q0 -29 -19 -47.5t-44 -18.5zM175 598q-17 0 -28 12t-11 31q0 27 18.5 45.5t43.5 18.5q17 0 28.5 -12t11.5 -29q0 -29 -19 -47.5t-44 -18.5z" />
    <glyph glyph-name="eth" unicode="&#xf0;" horiz-adv-x="475" 
d="M206 -14q-44 0 -76.5 16t-53.5 43t-31 62t-10 72q0 60 20 116t53.5 99t79 69t95.5 26q22 0 41.5 -4.5t35.5 -11.5q-8 47 -26 86t-43 69l-113 -105l-28 32l111 103q-28 25 -63 41.5t-75 26.5l6 27q45 -5 88 -20.5t82 -40.5l66 61l26 -32l-58 -54q59 -49 96.5 -120.5
t37.5 -161.5q0 -88 -24.5 -162t-62 -126t-84 -81.5t-90.5 -29.5zM129 128q0 -44 14 -77t50 -33q26 0 55.5 24.5t54.5 67.5t42.5 103t21.5 130v2v2v0q-1 43 -16.5 76.5t-52.5 33.5q-28 0 -58.5 -27t-54.5 -71.5t-40 -104.5t-16 -126z" />
    <glyph glyph-name="ntilde" unicode="&#xf1;" horiz-adv-x="579" 
d="M375 -14q-37 0 -53.5 23t-4.5 59l100 306q11 34 0.5 48t-30.5 14q-38 0 -90 -63.5t-104 -173.5l-64 -199h-92l127 391q6 19 -0.5 30t-19.5 11q-6 0 -14.5 -3t-20 -14.5t-28.5 -35t-39 -64.5l-13 14q22 52 45 83.5t44.5 48.5t40.5 22.5t35 5.5q39 0 58 -26t0 -83l-33 -103
q46 104 98 158t112 54q51 0 73 -34.5t6 -82.5l-96 -294q-6 -19 1.5 -25t18.5 -6q21 0 48.5 27.5t55.5 84.5l13 -9q-31 -82 -75 -123t-99 -41zM259 579q13 74 47.5 103t73.5 29q23 0 40 -7t31 -15t26 -15t26 -7q19 0 40.5 11.5t34.5 52.5l12 -4q-13 -75 -47.5 -104t-73.5 -29
q-22 0 -38.5 6.5t-30.5 15t-26.5 15t-27.5 6.5q-17 0 -41 -13t-34 -50z" />
    <glyph glyph-name="ograve" unicode="&#xf2;" horiz-adv-x="458" 
d="M148 -14q-28 0 -58.5 12t-51 40t-26.5 74t16 113q16 50 48 98t70.5 84.5t81 59t80.5 22.5q28 0 58 -10.5t51 -33.5t28 -61t-11 -92q-15 -46 -46 -100t-70.5 -99.5t-84 -76t-85.5 -30.5zM152 19q29 0 55.5 23.5t49 61t41.5 85.5t35 97q17 53 19 86t-5.5 51.5t-21.5 25.5
t-29 7q-31 0 -57.5 -23.5t-48.5 -61t-40 -85t-34 -96.5q-30 -92 -17.5 -131.5t53.5 -39.5zM218 761h117l-5 -208h-18z" />
    <glyph glyph-name="oacute" unicode="&#xf3;" horiz-adv-x="458" 
d="M148 -14q-28 0 -58.5 12t-51 40t-26.5 74t16 113q16 50 48 98t70.5 84.5t81 59t80.5 22.5q28 0 58 -10.5t51 -33.5t28 -61t-11 -92q-15 -46 -46 -100t-70.5 -99.5t-84 -76t-85.5 -30.5zM152 19q29 0 55.5 23.5t49 61t41.5 85.5t35 97q17 53 19 86t-5.5 51.5t-21.5 25.5
t-29 7q-31 0 -57.5 -23.5t-48.5 -61t-40 -85t-34 -96.5q-30 -92 -17.5 -131.5t53.5 -39.5zM387 761h127l-205 -207h-21z" />
    <glyph glyph-name="ocircumflex" unicode="&#xf4;" horiz-adv-x="458" 
d="M148 -14q-28 0 -58.5 12t-51 40t-26.5 74t16 113q16 50 48 98t70.5 84.5t81 59t80.5 22.5q28 0 58 -10.5t51 -33.5t28 -61t-11 -92q-15 -46 -46 -100t-70.5 -99.5t-84 -76t-85.5 -30.5zM152 19q29 0 55.5 23.5t49 61t41.5 85.5t35 97q17 53 19 86t-5.5 51.5t-21.5 25.5
t-29 7q-31 0 -57.5 -23.5t-48.5 -61t-40 -85t-34 -96.5q-30 -92 -17.5 -131.5t53.5 -39.5zM178 546l172 193h60l79 -193l-18 -5l-105 122l-170 -122z" />
    <glyph glyph-name="otilde" unicode="&#xf5;" horiz-adv-x="458" 
d="M148 -14q-28 0 -58.5 12t-51 40t-26.5 74t16 113q16 50 48 98t70.5 84.5t81 59t80.5 22.5q28 0 58 -10.5t51 -33.5t28 -61t-11 -92q-15 -46 -46 -100t-70.5 -99.5t-84 -76t-85.5 -30.5zM152 19q29 0 55.5 23.5t49 61t41.5 85.5t35 97q17 53 19 86t-5.5 51.5t-21.5 25.5
t-29 7q-31 0 -57.5 -23.5t-48.5 -61t-40 -85t-34 -96.5q-30 -92 -17.5 -131.5t53.5 -39.5zM198 579q13 74 47.5 103t73.5 29q23 0 40 -7t31 -15t26 -15t26 -7q19 0 40.5 11.5t34.5 52.5l12 -4q-13 -75 -47.5 -104t-73.5 -29q-22 0 -38.5 6.5t-30.5 15t-26.5 15t-27.5 6.5
q-17 0 -41 -13t-34 -50z" />
    <glyph glyph-name="odieresis" unicode="&#xf6;" horiz-adv-x="458" 
d="M148 -14q-28 0 -58.5 12t-51 40t-26.5 74t16 113q16 50 48 98t70.5 84.5t81 59t80.5 22.5q28 0 58 -10.5t51 -33.5t28 -61t-11 -92q-15 -46 -46 -100t-70.5 -99.5t-84 -76t-85.5 -30.5zM152 19q29 0 55.5 23.5t49 61t41.5 85.5t35 97q17 53 19 86t-5.5 51.5t-21.5 25.5
t-29 7q-31 0 -57.5 -23.5t-48.5 -61t-40 -85t-34 -96.5q-30 -92 -17.5 -131.5t53.5 -39.5zM443 598q-17 0 -28 12t-11 31q0 27 18.5 45.5t43.5 18.5q17 0 28.5 -12t11.5 -29q0 -29 -19 -47.5t-44 -18.5zM259 598q-17 0 -28 12t-11 31q0 27 18.5 45.5t43.5 18.5
q17 0 28.5 -12t11.5 -29q0 -29 -19 -47.5t-44 -18.5z" />
    <glyph glyph-name="divide" unicode="&#xf7;" 
d="M120 319h456l-16 -67h-456zM277 31q-22 0 -34 15t-12 37q0 33 20.5 57t51.5 24q21 0 34 -15t13 -37q0 -33 -21.5 -57t-51.5 -24zM378 409q-22 0 -34 15t-12 37q0 33 20.5 57t51.5 24q21 0 34 -15t13 -37q0 -33 -21.5 -57t-51.5 -24z" />
    <glyph glyph-name="oslash" unicode="&#xf8;" horiz-adv-x="458" 
d="M45 -32l24 42q-35 24 -51.5 76t11.5 139q16 50 48 98t70.5 84.5t81 59t80.5 22.5q7 0 14.5 -0.5t14.5 -1.5l31 54l28 -18l-26 -46q21 -8 38 -23t27 -37.5t11 -53.5t-12 -71q-15 -46 -46 -100t-70.5 -99.5t-84 -76t-85.5 -30.5q-12 0 -25 2.5t-26 6.5l-25 -44zM117 190
q-14 -44 -18.5 -75.5t-0.5 -51.5l221 389q-5 2 -11 3t-11 1q-31 0 -57.5 -23.5t-48.5 -61t-40 -85t-34 -96.5zM153 19q29 0 55.5 23.5t49 61t41.5 85.5t35 97q19 57 20 92t-9 52l-228 -401q7 -5 16.5 -7.5t19.5 -2.5z" />
    <glyph glyph-name="ugrave" unicode="&#xf9;" horiz-adv-x="569" 
d="M149 -14q-51 0 -73 34.5t-6 82.5l94 288q6 19 -0.5 30t-19.5 11q-6 0 -14.5 -3t-20 -14.5t-28.5 -35t-39 -64.5l-13 14q22 52 45 83.5t44.5 48.5t40.5 22.5t35 5.5q39 0 58 -26t0 -83l-91 -279q-11 -34 -0.5 -48t30.5 -14q39 0 83 61.5t102 179.5l63 195h92l-129 -397
q-6 -19 1.5 -25t18.5 -6q21 0 48.5 27.5t55.5 84.5l13 -9q-31 -82 -75 -123t-99 -41q-37 0 -53.5 23t-4.5 59l45 139q-50 -113 -96 -167t-107 -54zM238 761h117l-5 -208h-18z" />
    <glyph glyph-name="uacute" unicode="&#xfa;" horiz-adv-x="569" 
d="M149 -14q-51 0 -73 34.5t-6 82.5l94 288q6 19 -0.5 30t-19.5 11q-6 0 -14.5 -3t-20 -14.5t-28.5 -35t-39 -64.5l-13 14q22 52 45 83.5t44.5 48.5t40.5 22.5t35 5.5q39 0 58 -26t0 -83l-91 -279q-11 -34 -0.5 -48t30.5 -14q39 0 83 61.5t102 179.5l63 195h92l-129 -397
q-6 -19 1.5 -25t18.5 -6q21 0 48.5 27.5t55.5 84.5l13 -9q-31 -82 -75 -123t-99 -41q-37 0 -53.5 23t-4.5 59l45 139q-50 -113 -96 -167t-107 -54zM407 761h127l-205 -207h-21z" />
    <glyph glyph-name="ucircumflex" unicode="&#xfb;" horiz-adv-x="569" 
d="M149 -14q-51 0 -73 34.5t-6 82.5l94 288q6 19 -0.5 30t-19.5 11q-6 0 -14.5 -3t-20 -14.5t-28.5 -35t-39 -64.5l-13 14q22 52 45 83.5t44.5 48.5t40.5 22.5t35 5.5q39 0 58 -26t0 -83l-91 -279q-11 -34 -0.5 -48t30.5 -14q39 0 83 61.5t102 179.5l63 195h92l-129 -397
q-6 -19 1.5 -25t18.5 -6q21 0 48.5 27.5t55.5 84.5l13 -9q-31 -82 -75 -123t-99 -41q-37 0 -53.5 23t-4.5 59l45 139q-50 -113 -96 -167t-107 -54zM198 546l172 193h60l79 -193l-18 -5l-105 122l-170 -122z" />
    <glyph glyph-name="udieresis" unicode="&#xfc;" horiz-adv-x="569" 
d="M149 -14q-51 0 -73 34.5t-6 82.5l94 288q6 19 -0.5 30t-19.5 11q-6 0 -14.5 -3t-20 -14.5t-28.5 -35t-39 -64.5l-13 14q22 52 45 83.5t44.5 48.5t40.5 22.5t35 5.5q39 0 58 -26t0 -83l-91 -279q-11 -34 -0.5 -48t30.5 -14q39 0 83 61.5t102 179.5l63 195h92l-129 -397
q-6 -19 1.5 -25t18.5 -6q21 0 48.5 27.5t55.5 84.5l13 -9q-31 -82 -75 -123t-99 -41q-37 0 -53.5 23t-4.5 59l45 139q-50 -113 -96 -167t-107 -54zM463 598q-17 0 -28 12t-11 31q0 27 18.5 45.5t43.5 18.5q17 0 28.5 -12t11.5 -29q0 -29 -19 -47.5t-44 -18.5zM279 598
q-17 0 -28 12t-11 31q0 27 18.5 45.5t43.5 18.5q17 0 28.5 -12t11.5 -29q0 -29 -19 -47.5t-44 -18.5z" />
    <glyph glyph-name="yacute" unicode="&#xfd;" horiz-adv-x="503" 
d="M-36 -278q-48 0 -76 20t-28 45q0 22 13.5 36t32.5 14t29.5 -11.5t19 -25.5t19 -25.5t30.5 -11.5q45 0 86.5 44t91.5 135l-36 441q-2 23 -7.5 33t-15.5 10q-13 0 -33.5 -28t-44.5 -98l-14 12q12 53 29 87.5t35 54.5t35.5 27.5t30.5 7.5q27 0 46.5 -16.5t22.5 -51.5
l27 -333q43 90 85 182.5t104 204.5l117 14q-93 -107 -167 -228.5t-162 -289.5q-71 -135 -139 -192t-131 -57zM410 761h127l-205 -207h-21z" />
    <glyph glyph-name="thorn" unicode="&#xfe;" horiz-adv-x="497" 
d="M-167 -260l98 40l298 922l-112 13l1 8l219 32l-140 -435q24 51 45.5 84t41.5 52t41.5 26t45.5 7q15 0 35 -7.5t37.5 -23t29.5 -39.5t12 -57q0 -50 -29.5 -115.5t-74.5 -123t-99 -97.5t-103 -40q-26 0 -45 9.5t-31 33.5l-80 -248l123 -41v-8h-313v8zM184 20
q56 0 99.5 64.5t91.5 213.5q15 46 16 77t-5 48.5t-17 25t-21 7.5q-15 0 -29.5 -7t-35 -33.5t-50.5 -78.5t-76 -141l-42 -129q10 -27 26 -37t43 -10z" />
    <glyph glyph-name="ydieresis" unicode="&#xff;" horiz-adv-x="503" 
d="M-36 -278q-48 0 -76 20t-28 45q0 22 13.5 36t32.5 14t29.5 -11.5t19 -25.5t19 -25.5t30.5 -11.5q45 0 86.5 44t91.5 135l-36 441q-2 23 -7.5 33t-15.5 10q-13 0 -33.5 -28t-44.5 -98l-14 12q12 53 29 87.5t35 54.5t35.5 27.5t30.5 7.5q27 0 46.5 -16.5t22.5 -51.5
l27 -333q43 90 85 182.5t104 204.5l117 14q-93 -107 -167 -228.5t-162 -289.5q-71 -135 -139 -192t-131 -57zM466 598q-17 0 -28 12t-11 31q0 27 18.5 45.5t43.5 18.5q17 0 28.5 -12t11.5 -29q0 -29 -19 -47.5t-44 -18.5zM282 598q-17 0 -28 12t-11 31q0 27 18.5 45.5
t43.5 18.5q17 0 28.5 -12t11.5 -29q0 -29 -19 -47.5t-44 -18.5z" />
    <glyph glyph-name="Amacron" unicode="&#x100;" horiz-adv-x="904" 
d="M-28 27l103 18l740 671h48l-179 -671l100 -18l-7 -27h-305l7 27l103 18l52 194h-287l-214 -194l100 -18l-7 -27h-261zM644 279l81 303l-334 -303h253zM738 840h276l-14 -45h-276z" />
    <glyph glyph-name="amacron" unicode="&#x101;" horiz-adv-x="549" 
d="M538 622h-276l14 42h276zM95 -14q-47 0 -71 31.5t-24 74.5q0 59 38.5 128.5t91.5 129t111 99.5t97 40q33 0 46.5 -18.5t12.5 -50.5l18 55l96 14l-134 -411q-6 -19 1.5 -25t18.5 -6q21 0 48.5 27.5t55.5 84.5l13 -9q-31 -82 -75 -123t-99 -41q-37 0 -53.5 23t-4.5 59
l41 126q-40 -67 -70.5 -108t-56 -63.5t-49.5 -29.5t-52 -7zM96 96q0 -20 8.5 -39t31.5 -19q10 0 24 4t37 23.5t57.5 60.5t83.5 115l39 118q13 54 -2.5 76t-37.5 22q-33 0 -75 -39t-78.5 -94.5t-62 -118t-25.5 -109.5z" />
    <glyph glyph-name="Abreve" unicode="&#x102;" horiz-adv-x="904" 
d="M-28 27l103 18l740 671h48l-179 -671l100 -18l-7 -27h-305l7 27l103 18l52 194h-287l-214 -194l100 -18l-7 -27h-261zM644 279l81 303l-334 -303h253zM852 756q-29 0 -52.5 11t-37 30t-15 46.5t13.5 60.5h19q-13 -46 13.5 -64t75.5 -18q39 0 80 19.5t70 62.5h19
q-17 -69 -68.5 -108.5t-117.5 -39.5z" />
    <glyph glyph-name="abreve" unicode="&#x103;" horiz-adv-x="549" 
d="M384 560q-72 0 -92 49.5t3 129.5h19q-10 -56 10.5 -79.5t70.5 -23.5q43 0 80.5 21.5t77.5 81.5h20q-28 -84 -78.5 -131.5t-110.5 -47.5zM95 -14q-47 0 -71 31.5t-24 74.5q0 59 38.5 128.5t91.5 129t111 99.5t97 40q33 0 46.5 -18.5t12.5 -50.5l18 55l96 14l-134 -411
q-6 -19 1.5 -25t18.5 -6q21 0 48.5 27.5t55.5 84.5l13 -9q-31 -82 -75 -123t-99 -41q-37 0 -53.5 23t-4.5 59l41 126q-40 -67 -70.5 -108t-56 -63.5t-49.5 -29.5t-52 -7zM96 96q0 -20 8.5 -39t31.5 -19q10 0 24 4t37 23.5t57.5 60.5t83.5 115l39 118q13 54 -2.5 76t-37.5 22
q-33 0 -75 -39t-78.5 -94.5t-62 -118t-25.5 -109.5z" />
    <glyph glyph-name="Aogonek" unicode="&#x104;" horiz-adv-x="904" 
d="M-28 27l103 18l740 671h48l-179 -671l100 -18l-7 -27h-305l7 27l103 18l52 194h-287l-214 -194l100 -18l-7 -27h-261zM644 279l81 303l-334 -303h253zM473 -282q-48 0 -72.5 23.5t-24.5 58.5q0 18 7.5 36.5t32 44t69.5 62t120 91.5l8 -9q-81 -76 -121.5 -129.5
t-40.5 -85.5q0 -21 11 -34t32 -13q19 0 39 11t40 32l10 -17q-19 -35 -48 -53t-62 -18z" />
    <glyph glyph-name="aogonek" unicode="&#x105;" horiz-adv-x="549" 
d="M95 -14q-47 0 -71 31.5t-24 74.5q0 59 38.5 128.5t91.5 129t111 99.5t97 40q33 0 46.5 -18.5t12.5 -50.5l18 55l96 14l-134 -411q-6 -19 1.5 -25t18.5 -6q21 0 48.5 27.5t55.5 84.5l13 -9q-16 -45 -37 -77.5t-45 -52.5q-78 -74 -117.5 -126.5t-39.5 -83.5q0 -21 11 -34
t32 -13q19 0 39 11t40 32l10 -17q-19 -35 -48 -53t-62 -18q-48 0 -72.5 23.5t-24.5 58.5q0 16 6 32.5t23.5 37t51 49.5t87.5 70l-14 -2t-14 -1q-37 0 -53.5 23t-4.5 59l41 126q-40 -67 -70.5 -108t-56 -63.5t-49.5 -29.5t-52 -7zM96 96q0 -20 8.5 -39t31.5 -19q10 0 24 4
t37 23.5t57.5 60.5t83.5 115l39 118q13 54 -2.5 76t-37.5 22q-33 0 -75 -39t-78.5 -94.5t-62 -118t-25.5 -109.5z" />
    <glyph glyph-name="Cacute" unicode="&#x106;" horiz-adv-x="772" 
d="M429 -14q-72 0 -134 15.5t-106 47t-69 79t-25 110.5q0 93 47 180t121 153.5t167 107t184 40.5q40 0 83.5 -9t81.5 -23l-40 -197h-30v85q0 57 -22.5 82t-82.5 25q-78 0 -151 -39.5t-128.5 -104.5t-89.5 -149t-34 -172q0 -42 17 -78t47.5 -61.5t73 -40t92.5 -14.5
q39 0 73 16t61 43.5t48.5 63.5t36.5 75h30l-55 -201q-47 -14 -101.5 -24t-94.5 -10zM608 754l85 177h137l-198 -189z" />
    <glyph glyph-name="cacute" unicode="&#x107;" horiz-adv-x="393" 
d="M143 -14q-54 0 -94 35t-40 102q0 61 28 126.5t70.5 118t93.5 87t97 34.5t75.5 -23t29.5 -61q0 -22 -13 -34.5t-29 -12.5q-25 0 -31 15.5t-8.5 33.5t-9.5 33.5t-33 15.5q-45 0 -81 -50t-63 -133q-21 -65 -25 -108t4 -68.5t25.5 -36t39.5 -10.5q40 0 78 31.5t68 97.5l15 -5
q-25 -95 -78 -141.5t-119 -46.5zM355 761h127l-205 -207h-21z" />
    <glyph glyph-name="Ccircumflex" unicode="&#x108;" horiz-adv-x="772" 
d="M429 -14q-72 0 -134 15.5t-106 47t-69 79t-25 110.5q0 93 47 180t121 153.5t167 107t184 40.5q40 0 83.5 -9t81.5 -23l-40 -197h-30v85q0 57 -22.5 82t-82.5 25q-78 0 -151 -39.5t-128.5 -104.5t-89.5 -149t-34 -172q0 -42 17 -78t47.5 -61.5t73 -40t92.5 -14.5
q39 0 73 16t61 43.5t48.5 63.5t36.5 75h30l-55 -201q-47 -14 -101.5 -24t-94.5 -10zM454 764l171 145h60l109 -145l-19 -5l-128 84l-173 -84z" />
    <glyph glyph-name="ccircumflex" unicode="&#x109;" horiz-adv-x="393" 
d="M143 -14q-54 0 -94 35t-40 102q0 61 28 126.5t70.5 118t93.5 87t97 34.5t75.5 -23t29.5 -61q0 -22 -13 -34.5t-29 -12.5q-25 0 -31 15.5t-8.5 33.5t-9.5 33.5t-33 15.5q-45 0 -81 -50t-63 -133q-21 -65 -25 -108t4 -68.5t25.5 -36t39.5 -10.5q40 0 78 31.5t68 97.5l15 -5
q-25 -95 -78 -141.5t-119 -46.5zM146 546l172 193h60l79 -193l-18 -5l-105 122l-170 -122z" />
    <glyph glyph-name="Cdotaccent" unicode="&#x10a;" horiz-adv-x="772" 
d="M429 -14q-72 0 -134 15.5t-106 47t-69 79t-25 110.5q0 93 47 180t121 153.5t167 107t184 40.5q40 0 83.5 -9t81.5 -23l-40 -197h-30v85q0 57 -22.5 82t-82.5 25q-78 0 -151 -39.5t-128.5 -104.5t-89.5 -149t-34 -172q0 -42 17 -78t47.5 -61.5t73 -40t92.5 -14.5
q39 0 73 16t61 43.5t48.5 63.5t36.5 75h30l-55 -201q-47 -14 -101.5 -24t-94.5 -10zM627 765q-22 0 -34 15t-12 37q0 33 20.5 57t51.5 24q21 0 34 -15t13 -37q0 -33 -21.5 -57t-51.5 -24z" />
    <glyph glyph-name="cdotaccent" unicode="&#x10b;" horiz-adv-x="393" 
d="M143 -14q-54 0 -94 35t-40 102q0 61 28 126.5t70.5 118t93.5 87t97 34.5t75.5 -23t29.5 -61q0 -22 -13 -34.5t-29 -12.5q-25 0 -31 15.5t-8.5 33.5t-9.5 33.5t-33 15.5q-45 0 -81 -50t-63 -133q-21 -65 -25 -108t4 -68.5t25.5 -36t39.5 -10.5q40 0 78 31.5t68 97.5l15 -5
q-25 -95 -78 -141.5t-119 -46.5zM318 585q-22 0 -34 15t-12 37q0 33 20.5 57t51.5 24q21 0 34 -15t13 -37q0 -33 -21.5 -57t-51.5 -24z" />
    <glyph glyph-name="Ccaron" unicode="&#x10c;" horiz-adv-x="772" 
d="M429 -14q-72 0 -134 15.5t-106 47t-69 79t-25 110.5q0 93 47 180t121 153.5t167 107t184 40.5q40 0 83.5 -9t81.5 -23l-40 -197h-30v85q0 57 -22.5 82t-82.5 25q-78 0 -151 -39.5t-128.5 -104.5t-89.5 -149t-34 -172q0 -42 17 -78t47.5 -61.5t73 -40t92.5 -14.5
q39 0 73 16t61 43.5t48.5 63.5t36.5 75h30l-55 -201q-47 -14 -101.5 -24t-94.5 -10zM824 914l-171 -145h-60l-109 145l19 5l128 -84l173 84z" />
    <glyph glyph-name="ccaron" unicode="&#x10d;" horiz-adv-x="393" 
d="M143 -14q-54 0 -94 35t-40 102q0 61 28 126.5t70.5 118t93.5 87t97 34.5t75.5 -23t29.5 -61q0 -22 -13 -34.5t-29 -12.5q-25 0 -31 15.5t-8.5 33.5t-9.5 33.5t-33 15.5q-45 0 -81 -50t-63 -133q-21 -65 -25 -108t4 -68.5t25.5 -36t39.5 -10.5q40 0 78 31.5t68 97.5l15 -5
q-25 -95 -78 -141.5t-119 -46.5zM498 738l-172 -193h-60l-79 193l18 5l105 -122l170 122z" />
    <glyph glyph-name="Dcaron" unicode="&#x10e;" horiz-adv-x="823" 
d="M2 27l103 18l165 615l-100 18l7 27h310q68 0 125.5 -19.5t98 -54t63 -83t22.5 -106.5q0 -85 -42 -165t-117 -141t-180 -98.5t-229 -37.5h-233zM489 671h-113l-171 -637h45q94 0 174.5 35.5t139 94t91.5 136.5t33 162q0 91 -53 150t-146 59zM775 914l-171 -145h-60
l-109 145l19 5l128 -84l173 84z" />
    <glyph glyph-name="dcaron" unicode="&#x10f;" horiz-adv-x="545" 
d="M95 -14q-47 0 -71 31.5t-24 74.5q0 59 38.5 128.5t91.5 129t111 99.5t97 40q33 0 46.5 -18.5t12.5 -51.5l92 283l-110 13l1 8l218 32l-220 -677q-6 -19 1.5 -25t18.5 -6q21 0 48.5 27.5t55.5 84.5l13 -9q-31 -82 -75 -123t-99 -41q-37 0 -53.5 23t-4.5 59l42 129
q-40 -68 -71 -109.5t-57 -64t-50 -30t-52 -7.5zM595 507q10 19 22 44t22 51t16.5 52.5t6.5 48.5q0 10 -2 19.5t-7 19.5q13 4 25 6.5t25 2.5q24 0 40 -13t16 -37q0 -37 -39.5 -84t-123.5 -111zM96 96q0 -20 8.5 -39t31.5 -19q10 0 24 4t37.5 23.5t58 61t84.5 116.5l37 116
q13 54 -2.5 76t-37.5 22q-33 0 -75 -39t-78.5 -94.5t-62 -118t-25.5 -109.5z" />
    <glyph glyph-name="Dcroat" unicode="&#x110;" horiz-adv-x="823" 
d="M2 27l103 18l76 284h-110l15 57h110l74 274l-100 18l7 27h310q68 0 125.5 -19.5t98 -54t63 -83t22.5 -106.5q0 -85 -42 -165t-117 -141t-180 -98.5t-229 -37.5h-233zM454 329h-170l-79 -295h45q94 0 174.5 35.5t139 94t91.5 136.5t33 162q0 91 -53 150t-146 59h-113
l-77 -285h170z" />
    <glyph glyph-name="dcroat" unicode="&#x111;" horiz-adv-x="545" 
d="M95 -14q-47 0 -71 31.5t-24 74.5q0 59 38.5 128.5t91.5 129t111 99.5t97 40q33 0 46.5 -18.5t12.5 -51.5l55 170h-159l13 42h160l23 71l-110 13l1 8l218 32l-40 -124h63l-13 -42h-64l-166 -511q-6 -19 1.5 -25t18.5 -6q21 0 48.5 27.5t55.5 84.5l13 -9q-31 -82 -75 -123
t-99 -41q-37 0 -53.5 23t-4.5 59l42 129q-40 -68 -71 -109.5t-57 -64t-50 -30t-52 -7.5zM96 96q0 -20 8.5 -39t31.5 -19q10 0 24 4t37.5 23.5t58 61t84.5 116.5l37 116q13 54 -2.5 76t-37.5 22q-33 0 -75 -39t-78.5 -94.5t-62 -118t-25.5 -109.5z" />
    <glyph glyph-name="Emacron" unicode="&#x112;" horiz-adv-x="744" 
d="M2 27l103 18l165 615l-100 18l7 27h554l-40 -198h-27v72q0 26 -5 43.5t-24.5 28.5t-59 15.5t-108.5 4.5h-91l-77 -288h174l52 91h27l-59 -222h-26l-2 91h-177l-83 -309h139q110 0 169.5 19t92.5 88l34 71h27l-56 -212h-616zM389 840h276l-14 -45h-276z" />
    <glyph glyph-name="emacron" unicode="&#x113;" horiz-adv-x="408" 
d="M143 -14q-54 0 -94 35t-40 102q0 61 28 126.5t70.5 118t93.5 87t97 34.5q25 0 47 -7.5t36 -22.5t18 -38t-6 -53q-13 -43 -80 -86.5t-199 -87.5q-16 -82 6.5 -113t57.5 -31t74 27.5t73 101.5l15 -5q-25 -95 -78 -141.5t-119 -46.5zM135 273q-5 -16 -9 -30t-7 -27
q100 49 150.5 95.5t50.5 95.5q0 24 -11.5 36.5t-29.5 12.5q-45 0 -81 -50t-63 -133zM203 664h276l-14 -42h-276z" />
    <glyph glyph-name="Ebreve" unicode="&#x114;" horiz-adv-x="744" 
d="M2 27l103 18l165 615l-100 18l7 27h554l-40 -198h-27v72q0 26 -5 43.5t-24.5 28.5t-59 15.5t-108.5 4.5h-91l-77 -288h174l52 91h27l-59 -222h-26l-2 91h-177l-83 -309h139q110 0 169.5 19t92.5 88l34 71h27l-56 -212h-616zM503 756q-29 0 -52.5 11t-37 30t-15 46.5
t13.5 60.5h19q-13 -46 13.5 -64t75.5 -18q39 0 80 19.5t70 62.5h19q-17 -69 -68.5 -108.5t-117.5 -39.5z" />
    <glyph glyph-name="ebreve" unicode="&#x115;" horiz-adv-x="408" 
d="M143 -14q-54 0 -94 35t-40 102q0 61 28 126.5t70.5 118t93.5 87t97 34.5q25 0 47 -7.5t36 -22.5t18 -38t-6 -53q-13 -43 -80 -86.5t-199 -87.5q-16 -82 6.5 -113t57.5 -31t74 27.5t73 101.5l15 -5q-25 -95 -78 -141.5t-119 -46.5zM135 273q-5 -16 -9 -30t-7 -27
q100 49 150.5 95.5t50.5 95.5q0 24 -11.5 36.5t-29.5 12.5q-45 0 -81 -50t-63 -133zM311 560q-72 0 -92 49.5t3 129.5h19q-10 -56 10.5 -79.5t70.5 -23.5q43 0 80.5 21.5t77.5 81.5h20q-28 -84 -78.5 -131.5t-110.5 -47.5z" />
    <glyph glyph-name="Edotaccent" unicode="&#x116;" horiz-adv-x="744" 
d="M2 27l103 18l165 615l-100 18l7 27h554l-40 -198h-27v72q0 26 -5 43.5t-24.5 28.5t-59 15.5t-108.5 4.5h-91l-77 -288h174l52 91h27l-59 -222h-26l-2 91h-177l-83 -309h139q110 0 169.5 19t92.5 88l34 71h27l-56 -212h-616zM500 765q-22 0 -34 15t-12 37q0 33 20.5 57
t51.5 24q21 0 34 -15t13 -37q0 -33 -21.5 -57t-51.5 -24z" />
    <glyph glyph-name="edotaccent" unicode="&#x117;" horiz-adv-x="408" 
d="M143 -14q-54 0 -94 35t-40 102q0 61 28 126.5t70.5 118t93.5 87t97 34.5q25 0 47 -7.5t36 -22.5t18 -38t-6 -53q-13 -43 -80 -86.5t-199 -87.5q-16 -82 6.5 -113t57.5 -31t74 27.5t73 101.5l15 -5q-25 -95 -78 -141.5t-119 -46.5zM135 273q-5 -16 -9 -30t-7 -27
q100 49 150.5 95.5t50.5 95.5q0 24 -11.5 36.5t-29.5 12.5q-45 0 -81 -50t-63 -133zM323 585q-22 0 -34 15t-12 37q0 33 20.5 57t51.5 24q21 0 34 -15t13 -37q0 -33 -21.5 -57t-51.5 -24z" />
    <glyph glyph-name="Eogonek" unicode="&#x118;" horiz-adv-x="744" 
d="M2 27l103 18l165 615l-100 18l7 27h554l-40 -198h-27v72q0 26 -5 43.5t-24.5 28.5t-59 15.5t-108.5 4.5h-91l-77 -288h174l52 91h27l-59 -222h-26l-2 91h-177l-83 -309h139q110 0 169.5 19t92.5 88l34 71h27l-56 -212h-616zM460 -282q-48 0 -72.5 23.5t-24.5 58.5
q0 18 7.5 36.5t32 44t69.5 62t120 91.5l8 -9q-81 -76 -121.5 -129.5t-40.5 -85.5q0 -21 11 -34t32 -13q19 0 39 11t40 32l10 -17q-19 -35 -48 -53t-62 -18z" />
    <glyph glyph-name="eogonek" unicode="&#x119;" horiz-adv-x="408" 
d="M143 -14q-54 0 -94 35t-40 102q0 61 28 126.5t70.5 118t93.5 87t97 34.5q25 0 47 -7.5t36 -22.5t18 -38t-6 -53q-13 -43 -80 -86.5t-199 -87.5q-16 -82 6.5 -113t57.5 -31t74 27.5t73 101.5l15 -5q-25 -95 -78 -141.5t-119 -46.5zM135 273q-5 -16 -9 -30t-7 -27
q100 49 150.5 95.5t50.5 95.5q0 24 -11.5 36.5t-29.5 12.5q-45 0 -81 -50t-63 -133zM109 -282q-48 0 -72.5 23.5t-24.5 58.5q0 18 7.5 36.5t32 44t69.5 62t120 91.5l8 -9q-81 -76 -121.5 -129.5t-40.5 -85.5q0 -21 11 -34t32 -13q19 0 39 11t40 32l10 -17q-19 -35 -48 -53
t-62 -18z" />
    <glyph glyph-name="Ecaron" unicode="&#x11a;" horiz-adv-x="744" 
d="M2 27l103 18l165 615l-100 18l7 27h554l-40 -198h-27v72q0 26 -5 43.5t-24.5 28.5t-59 15.5t-108.5 4.5h-91l-77 -288h174l52 91h27l-59 -222h-26l-2 91h-177l-83 -309h139q110 0 169.5 19t92.5 88l34 71h27l-56 -212h-616zM697 914l-171 -145h-60l-109 145l19 5l128 -84
l173 84z" />
    <glyph glyph-name="ecaron" unicode="&#x11b;" horiz-adv-x="408" 
d="M143 -14q-54 0 -94 35t-40 102q0 61 28 126.5t70.5 118t93.5 87t97 34.5q25 0 47 -7.5t36 -22.5t18 -38t-6 -53q-13 -43 -80 -86.5t-199 -87.5q-16 -82 6.5 -113t57.5 -31t74 27.5t73 101.5l15 -5q-25 -95 -78 -141.5t-119 -46.5zM135 273q-5 -16 -9 -30t-7 -27
q100 49 150.5 95.5t50.5 95.5q0 24 -11.5 36.5t-29.5 12.5q-45 0 -81 -50t-63 -133zM503 738l-172 -193h-60l-79 193l18 5l105 -122l170 122z" />
    <glyph glyph-name="Gcircumflex" unicode="&#x11c;" horiz-adv-x="827" 
d="M544 19q-22 -12 -57.5 -22.5t-80.5 -10.5q-67 0 -124 17.5t-98 50.5t-64.5 81.5t-23.5 108.5q0 99 52.5 186t129.5 151t167.5 101t165.5 37q44 0 88 -9t82 -23l-40 -197h-30v98q0 49 -26.5 71.5t-83.5 22.5q-73 0 -144.5 -39.5t-128 -104.5t-91.5 -150.5t-35 -176.5
q0 -39 16.5 -74t46.5 -60.5t74 -40.5t98 -15q25 0 48 6t45 16l58 218l-100 18l7 27h307l-7 -27l-103 -18l-79 -296zM454 764l171 145h60l109 -145l-19 -5l-128 84l-173 -84z" />
    <glyph glyph-name="gcircumflex" unicode="&#x11d;" horiz-adv-x="595" 
d="M109 -278q-46 0 -81 11t-57.5 28.5t-33.5 40t-9 45.5q4 38 36.5 70t114.5 63q-49 4 -65.5 32t-3.5 61q10 25 50 47t107 26q-41 16 -59 50.5t-18 65.5q0 38 24.5 78.5t61.5 73.5t81 54t82 21q37 0 75.5 -18t55.5 -52q13 47 40 75.5t63 28.5q22 0 38.5 -13.5t16.5 -34.5
q0 -22 -14 -35.5t-31 -13.5q-16 0 -30 8.5t-29 8.5q-19 0 -30 -23.5t-14 -49.5q-1 -43 -21.5 -84t-55.5 -73.5t-84 -54t-106 -27.5q-44 -4 -70.5 -10.5t-40 -14t-17.5 -14t-4 -10.5q0 -8 5.5 -13t17.5 -5h164q76 0 117.5 -39.5t41.5 -93.5q0 -40 -25 -78t-68 -67
t-101.5 -46.5t-123.5 -17.5zM230 165q30 0 57 19.5t48 48.5t35.5 64.5t19.5 66.5q9 53 -9 75.5t-50 22.5q-38 0 -76 -33t-67 -127q-19 -60 -7 -98.5t49 -38.5zM12 -149q0 -34 29.5 -64.5t93.5 -30.5q46 0 85 13t67.5 34t44.5 48t16 56q0 26 -16 49t-61 23h-146
q-72 -38 -92.5 -71t-20.5 -57zM201 546l172 193h60l79 -193l-18 -5l-105 122l-170 -122z" />
    <glyph glyph-name="Gbreve" unicode="&#x11e;" horiz-adv-x="827" 
d="M544 19q-22 -12 -57.5 -22.5t-80.5 -10.5q-67 0 -124 17.5t-98 50.5t-64.5 81.5t-23.5 108.5q0 99 52.5 186t129.5 151t167.5 101t165.5 37q44 0 88 -9t82 -23l-40 -197h-30v98q0 49 -26.5 71.5t-83.5 22.5q-73 0 -144.5 -39.5t-128 -104.5t-91.5 -150.5t-35 -176.5
q0 -39 16.5 -74t46.5 -60.5t74 -40.5t98 -15q25 0 48 6t45 16l58 218l-100 18l7 27h307l-7 -27l-103 -18l-79 -296zM630 756q-29 0 -52.5 11t-37 30t-15 46.5t13.5 60.5h19q-13 -46 13.5 -64t75.5 -18q39 0 80 19.5t70 62.5h19q-17 -69 -68.5 -108.5t-117.5 -39.5z" />
    <glyph glyph-name="gbreve" unicode="&#x11f;" horiz-adv-x="595" 
d="M109 -278q-46 0 -81 11t-57.5 28.5t-33.5 40t-9 45.5q4 38 36.5 70t114.5 63q-49 4 -65.5 32t-3.5 61q10 25 50 47t107 26q-41 16 -59 50.5t-18 65.5q0 38 24.5 78.5t61.5 73.5t81 54t82 21q37 0 75.5 -18t55.5 -52q13 47 40 75.5t63 28.5q22 0 38.5 -13.5t16.5 -34.5
q0 -22 -14 -35.5t-31 -13.5q-16 0 -30 8.5t-29 8.5q-19 0 -30 -23.5t-14 -49.5q-1 -43 -21.5 -84t-55.5 -73.5t-84 -54t-106 -27.5q-44 -4 -70.5 -10.5t-40 -14t-17.5 -14t-4 -10.5q0 -8 5.5 -13t17.5 -5h164q76 0 117.5 -39.5t41.5 -93.5q0 -40 -25 -78t-68 -67
t-101.5 -46.5t-123.5 -17.5zM230 165q30 0 57 19.5t48 48.5t35.5 64.5t19.5 66.5q9 53 -9 75.5t-50 22.5q-38 0 -76 -33t-67 -127q-19 -60 -7 -98.5t49 -38.5zM12 -149q0 -34 29.5 -64.5t93.5 -30.5q46 0 85 13t67.5 34t44.5 48t16 56q0 26 -16 49t-61 23h-146
q-72 -38 -92.5 -71t-20.5 -57zM361 560q-72 0 -92 49.5t3 129.5h19q-10 -56 10.5 -79.5t70.5 -23.5q43 0 80.5 21.5t77.5 81.5h20q-28 -84 -78.5 -131.5t-110.5 -47.5z" />
    <glyph glyph-name="Gdotaccent" unicode="&#x120;" horiz-adv-x="827" 
d="M544 19q-22 -12 -57.5 -22.5t-80.5 -10.5q-67 0 -124 17.5t-98 50.5t-64.5 81.5t-23.5 108.5q0 99 52.5 186t129.5 151t167.5 101t165.5 37q44 0 88 -9t82 -23l-40 -197h-30v98q0 49 -26.5 71.5t-83.5 22.5q-73 0 -144.5 -39.5t-128 -104.5t-91.5 -150.5t-35 -176.5
q0 -39 16.5 -74t46.5 -60.5t74 -40.5t98 -15q25 0 48 6t45 16l58 218l-100 18l7 27h307l-7 -27l-103 -18l-79 -296zM627 765q-22 0 -34 15t-12 37q0 33 20.5 57t51.5 24q21 0 34 -15t13 -37q0 -33 -21.5 -57t-51.5 -24z" />
    <glyph glyph-name="gdotaccent" unicode="&#x121;" horiz-adv-x="595" 
d="M109 -278q-46 0 -81 11t-57.5 28.5t-33.5 40t-9 45.5q4 38 36.5 70t114.5 63q-49 4 -65.5 32t-3.5 61q10 25 50 47t107 26q-41 16 -59 50.5t-18 65.5q0 38 24.5 78.5t61.5 73.5t81 54t82 21q37 0 75.5 -18t55.5 -52q13 47 40 75.5t63 28.5q22 0 38.5 -13.5t16.5 -34.5
q0 -22 -14 -35.5t-31 -13.5q-16 0 -30 8.5t-29 8.5q-19 0 -30 -23.5t-14 -49.5q-1 -43 -21.5 -84t-55.5 -73.5t-84 -54t-106 -27.5q-44 -4 -70.5 -10.5t-40 -14t-17.5 -14t-4 -10.5q0 -8 5.5 -13t17.5 -5h164q76 0 117.5 -39.5t41.5 -93.5q0 -40 -25 -78t-68 -67
t-101.5 -46.5t-123.5 -17.5zM230 165q30 0 57 19.5t48 48.5t35.5 64.5t19.5 66.5q9 53 -9 75.5t-50 22.5q-38 0 -76 -33t-67 -127q-19 -60 -7 -98.5t49 -38.5zM12 -149q0 -34 29.5 -64.5t93.5 -30.5q46 0 85 13t67.5 34t44.5 48t16 56q0 26 -16 49t-61 23h-146
q-72 -38 -92.5 -71t-20.5 -57zM373 585q-22 0 -34 15t-12 37q0 33 20.5 57t51.5 24q21 0 34 -15t13 -37q0 -33 -21.5 -57t-51.5 -24z" />
    <glyph glyph-name="Gcommaaccent" unicode="&#x122;" horiz-adv-x="827" 
d="M544 19q-22 -12 -57.5 -22.5t-80.5 -10.5q-67 0 -124 17.5t-98 50.5t-64.5 81.5t-23.5 108.5q0 99 52.5 186t129.5 151t167.5 101t165.5 37q44 0 88 -9t82 -23l-40 -197h-30v98q0 49 -26.5 71.5t-83.5 22.5q-73 0 -144.5 -39.5t-128 -104.5t-91.5 -150.5t-35 -176.5
q0 -39 16.5 -74t46.5 -60.5t74 -40.5t98 -15q25 0 48 6t45 16l58 218l-100 18l7 27h307l-7 -27l-103 -18l-79 -296zM282 -241q20 2 40 8.5t36 15t26 19t10 20.5q0 13 -11 20.5t-23.5 15.5t-23.5 19t-11 29q0 23 18.5 37.5t46.5 14.5q33 0 55 -24t22 -64q0 -32 -15.5 -56
t-40.5 -40.5t-58.5 -26t-69.5 -12.5z" />
    <glyph glyph-name="gcommaaccent" unicode="&#x123;" horiz-adv-x="595" 
d="M109 -278q-46 0 -81 11t-57.5 28.5t-33.5 40t-9 45.5q4 38 36.5 70t114.5 63q-49 4 -65.5 32t-3.5 61q10 25 50 47t107 26q-41 16 -59 50.5t-18 65.5q0 38 24.5 78.5t61.5 73.5t81 54t82 21q37 0 75.5 -18t55.5 -52q13 47 40 75.5t63 28.5q22 0 38.5 -13.5t16.5 -34.5
q0 -22 -14 -35.5t-31 -13.5q-16 0 -30 8.5t-29 8.5q-19 0 -30 -23.5t-14 -49.5q-1 -43 -21.5 -84t-55.5 -73.5t-84 -54t-106 -27.5q-44 -4 -70.5 -10.5t-40 -14t-17.5 -14t-4 -10.5q0 -8 5.5 -13t17.5 -5h164q76 0 117.5 -39.5t41.5 -93.5q0 -40 -25 -78t-68 -67
t-101.5 -46.5t-123.5 -17.5zM230 165q30 0 57 19.5t48 48.5t35.5 64.5t19.5 66.5q9 53 -9 75.5t-50 22.5q-38 0 -76 -33t-67 -127q-19 -60 -7 -98.5t49 -38.5zM12 -149q0 -34 29.5 -64.5t93.5 -30.5q46 0 85 13t67.5 34t44.5 48t16 56q0 26 -16 49t-61 23h-146
q-72 -38 -92.5 -71t-20.5 -57zM479 739q-20 -2 -40 -8.5t-36 -15t-26 -19t-10 -20.5q0 -13 11 -20.5t23.5 -15.5t23.5 -19t11 -29q0 -23 -18.5 -37.5t-46.5 -14.5q-33 0 -55 24t-22 64q0 32 15.5 56t40.5 40.5t58.5 26t69.5 12.5z" />
    <glyph glyph-name="Hcircumflex" unicode="&#x124;" horiz-adv-x="887" 
d="M2 27l103 18l165 615l-100 18l7 27h306l-7 -27l-103 -18l-71 -264h361l71 264l-100 18l7 27h306l-7 -27l-103 -18l-165 -615l100 -18l-7 -27h-306l7 27l103 18l83 311h-361l-83 -311l100 -18l-7 -27h-306zM404 764l171 145h60l109 -145l-19 -5l-128 84l-173 -84z" />
    <glyph glyph-name="hcircumflex" unicode="&#x125;" horiz-adv-x="543" 
d="M513 150q-31 -82 -75 -123t-99 -41q-37 0 -53.5 23t-4.5 59l100 306q11 34 0.5 48t-30.5 14q-35 0 -81 -50.5t-97 -139.5l-80 -246h-92l228 702l-110 13l1 8l218 32l-148 -455q48 93 96.5 141t105.5 48q51 0 73.5 -34.5t6.5 -82.5l-96 -294q-6 -19 1.5 -25t18.5 -6
q21 0 48.5 27.5t55.5 84.5zM109 810l171 145h60l109 -145l-19 -5l-128 84l-173 -84z" />
    <glyph glyph-name="Hbar" unicode="&#x126;" horiz-adv-x="887" 
d="M2 27l103 18l124 463h-97l12 45h97l29 107l-100 18l7 27h306l-7 -27l-103 -18l-29 -107h361l29 107l-100 18l7 27h306l-7 -27l-103 -18l-29 -107h98l-12 -45h-98l-124 -463l100 -18l-7 -27h-306l7 27l103 18l83 311h-361l-83 -311l100 -18l-7 -27h-306zM302 396h361
l30 112h-361z" />
    <glyph glyph-name="hbar" unicode="&#x127;" horiz-adv-x="543" 
d="M128 630h78l23 72l-110 13l1 8l218 32l-41 -125h131l-13 -41h-131l-94 -289q48 93 96.5 141t105.5 48q51 0 73.5 -34.5t6.5 -82.5l-96 -294q-6 -19 1.5 -25t18.5 -6q21 0 48.5 27.5t55.5 84.5l13 -9q-31 -82 -75 -123t-99 -41q-37 0 -53.5 23t-4.5 59l100 306
q11 34 0.5 48t-30.5 14q-35 0 -81 -50.5t-97 -139.5l-80 -246h-92l191 589h-77z" />
    <glyph glyph-name="Itilde" unicode="&#x128;" horiz-adv-x="443" 
d="M12 27l103 18l165 615l-100 18l7 27h306l-7 -27l-103 -18l-165 -615l100 -18l-7 -27h-306zM218 758q13 74 47.5 102t71.5 28q24 0 41.5 -7t31.5 -15t26 -15t26 -7q19 0 40.5 12t34.5 52l12 -4q-13 -74 -47.5 -102.5t-73.5 -28.5q-22 0 -38.5 6.5t-30.5 15t-26.5 15
t-27.5 6.5q-17 0 -41 -13t-34 -50z" />
    <glyph glyph-name="itilde" unicode="&#x129;" horiz-adv-x="321" 
d="M117 -14q-37 0 -53.5 23t-4.5 59l105 323q6 19 -0.5 30t-19.5 11q-6 0 -14.5 -3t-20 -14.5t-28.5 -35t-39 -64.5l-13 14q22 52 45 83.5t44.5 48.5t40.5 22.5t35 5.5q39 0 58 -26t0 -83l-98 -302q-6 -19 1.5 -25t18.5 -6q21 0 48.5 27.5t55.5 84.5l13 -9q-31 -82 -75 -123
t-99 -41zM114 579q13 74 47.5 103t73.5 29q23 0 40 -7t31 -15t26 -15t26 -7q19 0 40.5 11.5t34.5 52.5l12 -4q-13 -75 -47.5 -104t-73.5 -29q-22 0 -38.5 6.5t-30.5 15t-26.5 15t-27.5 6.5q-17 0 -41 -13t-34 -50z" />
    <glyph glyph-name="Imacron" unicode="&#x12a;" horiz-adv-x="443" 
d="M12 27l103 18l165 615l-100 18l7 27h306l-7 -27l-103 -18l-165 -615l100 -18l-7 -27h-306zM245 840h276l-14 -45h-276z" />
    <glyph glyph-name="imacron" unicode="&#x12b;" horiz-adv-x="321" 
d="M117 -14q-37 0 -53.5 23t-4.5 59l105 323q6 19 -0.5 30t-19.5 11q-6 0 -14.5 -3t-20 -14.5t-28.5 -35t-39 -64.5l-13 14q22 52 45 83.5t44.5 48.5t40.5 22.5t35 5.5q39 0 58 -26t0 -83l-98 -302q-6 -19 1.5 -25t18.5 -6q21 0 48.5 27.5t55.5 84.5l13 -9q-31 -82 -75 -123
t-99 -41zM146 664h276l-14 -42h-276z" />
    <glyph glyph-name="Ibreve" unicode="&#x12c;" horiz-adv-x="443" 
d="M12 27l103 18l165 615l-100 18l7 27h306l-7 -27l-103 -18l-165 -615l100 -18l-7 -27h-306zM359 756q-29 0 -52.5 11t-37 30t-15 46.5t13.5 60.5h19q-13 -46 13.5 -64t75.5 -18q39 0 80 19.5t70 62.5h19q-17 -69 -68.5 -108.5t-117.5 -39.5z" />
    <glyph glyph-name="ibreve" unicode="&#x12d;" horiz-adv-x="321" 
d="M117 -14q-37 0 -53.5 23t-4.5 59l105 323q6 19 -0.5 30t-19.5 11q-6 0 -14.5 -3t-20 -14.5t-28.5 -35t-39 -64.5l-13 14q22 52 45 83.5t44.5 48.5t40.5 22.5t35 5.5q39 0 58 -26t0 -83l-98 -302q-6 -19 1.5 -25t18.5 -6q21 0 48.5 27.5t55.5 84.5l13 -9q-31 -82 -75 -123
t-99 -41zM254 560q-72 0 -92 49.5t3 129.5h19q-10 -56 10.5 -79.5t70.5 -23.5q43 0 80.5 21.5t77.5 81.5h20q-28 -84 -78.5 -131.5t-110.5 -47.5z" />
    <glyph glyph-name="Iogonek" unicode="&#x12e;" horiz-adv-x="443" 
d="M12 27l103 18l165 615l-100 18l7 27h306l-7 -27l-103 -18l-165 -615l100 -18l-7 -27h-306zM97 -282q-48 0 -72.5 23.5t-24.5 58.5q0 18 7.5 36.5t32 44t69.5 62t120 91.5l8 -9q-81 -76 -121.5 -129.5t-40.5 -85.5q0 -21 11 -34t32 -13q19 0 39 11t40 32l10 -17
q-19 -35 -48 -53t-62 -18z" />
    <glyph glyph-name="iogonek" unicode="&#x12f;" horiz-adv-x="321" 
d="M117 -14q-37 0 -53.5 23t-4.5 59l105 323q6 19 -0.5 30t-19.5 11q-6 0 -14.5 -3t-20 -14.5t-28.5 -35t-39 -64.5l-13 14q22 52 45 83.5t44.5 48.5t40.5 22.5t35 5.5q39 0 58 -26t0 -83l-98 -302q-6 -19 1.5 -25t18.5 -6q21 0 48.5 27.5t55.5 84.5l13 -9q-31 -82 -75 -123
t-99 -41zM266 585q-22 0 -34 15t-12 37q0 33 20.5 57t51.5 24q21 0 34 -15t13 -37q0 -33 -21.5 -57t-51.5 -24zM74 -282q-48 0 -72.5 23.5t-24.5 58.5q0 18 7.5 36.5t32 44t69.5 62t120 91.5l8 -9q-81 -76 -121.5 -129.5t-40.5 -85.5q0 -21 11 -34t32 -13q19 0 39 11t40 32
l10 -17q-19 -35 -48 -53t-62 -18z" />
    <glyph glyph-name="Idotaccent" unicode="&#x130;" horiz-adv-x="443" 
d="M12 27l103 18l165 615l-100 18l7 27h306l-7 -27l-103 -18l-165 -615l100 -18l-7 -27h-306zM356 765q-22 0 -34 15t-12 37q0 33 20.5 57t51.5 24q21 0 34 -15t13 -37q0 -33 -21.5 -57t-51.5 -24z" />
    <glyph glyph-name="idotless" unicode="&#x131;" horiz-adv-x="321" 
d="M117 -14q-37 0 -53.5 23t-4.5 59l105 323q6 19 -0.5 30t-19.5 11q-6 0 -14.5 -3t-20 -14.5t-28.5 -35t-39 -64.5l-13 14q22 52 45 83.5t44.5 48.5t40.5 22.5t35 5.5q39 0 58 -26t0 -83l-98 -302q-6 -19 1.5 -25t18.5 -6q21 0 48.5 27.5t55.5 84.5l13 -9q-31 -82 -75 -123
t-99 -41z" />
    <glyph glyph-name="IJ" unicode="&#x132;" horiz-adv-x="875" 
d="M12 27l103 18l165 615l-100 18l7 27h306l-7 -27l-103 -18l-165 -615l100 -18l-7 -27h-306zM423 -276q-40 0 -66.5 19.5t-26.5 44.5q0 19 11.5 30.5t28.5 11.5q19 0 28 -10t16 -22.5t16 -22.5t28 -10q22 0 34.5 13t22.5 53l221 829l-100 18l7 27h306l-7 -27l-103 -18
l-175 -655q-39 -146 -101.5 -213.5t-139.5 -67.5z" />
    <glyph glyph-name="ij" unicode="&#x133;" horiz-adv-x="609" 
d="M278 589q-23 0 -36 14.5t-13 36.5q0 31 18.5 54.5t45.5 23.5q22 0 36.5 -13.5t14.5 -34.5q0 -32 -20 -56.5t-46 -24.5zM117 -14q-37 0 -53.5 23t-4.5 59l105 323q6 19 -0.5 30t-19.5 11q-6 0 -14.5 -3t-20 -14.5t-28.5 -35t-39 -64.5l-13 14q22 52 45 83.5t44.5 48.5
t40.5 22.5t35 5.5q39 0 58 -26t0 -83l-98 -302q-6 -19 1.5 -25t18.5 -6q21 0 48.5 27.5t55.5 84.5l13 -9q-31 -82 -75 -123t-99 -41zM206 -278q-38 0 -56 17.5t-18 36.5q0 16 10 28.5t29 12.5q12 0 23.5 -7.5t22.5 -16.5t22.5 -16.5t22.5 -7.5q10 0 18.5 8.5t15.5 32.5
l190 581q6 19 -0.5 30t-19.5 11q-6 0 -14.5 -3t-20 -14.5t-28.5 -35t-39 -64.5l-13 14q22 52 45 83.5t44.5 48.5t40.5 22.5t35 5.5q39 0 58 -26t0 -83q-27 -83 -54.5 -166t-54.5 -166q-30 -92 -64.5 -154.5t-69.5 -100.5t-67.5 -54.5t-57.5 -16.5zM603 585q-22 0 -34 15
t-12 37q0 33 20.5 57t51.5 24q21 0 34 -15t13 -37q0 -33 -21.5 -57t-51.5 -24z" />
    <glyph glyph-name="Jcircumflex" unicode="&#x134;" horiz-adv-x="392" 
d="M-60 -276q-40 0 -66.5 19.5t-26.5 44.5q0 19 11.5 30.5t28.5 11.5q19 0 28 -10t16 -22.5t16 -22.5t28 -10q22 0 34.5 13t22.5 53l221 829l-100 18l7 27h306l-7 -27l-103 -18l-175 -655q-39 -146 -101.5 -213.5t-139.5 -67.5zM155 764l171 145h60l109 -145l-19 -5l-128 84
l-173 -84z" />
    <glyph glyph-name="jcircumflex" unicode="&#x135;" horiz-adv-x="288" 
d="M-115 -278q-38 0 -56 17.5t-18 36.5q0 16 10 28.5t29 12.5q12 0 23.5 -7.5t22.5 -16.5t22.5 -16.5t22.5 -7.5q10 0 18.5 8.5t15.5 32.5l190 581q6 19 -0.5 30t-19.5 11q-6 0 -14.5 -3t-20 -14.5t-28.5 -35t-39 -64.5l-13 14q22 52 45 83.5t44.5 48.5t40.5 22.5t35 5.5
q39 0 58 -26t0 -83q-27 -83 -54.5 -166t-54.5 -166q-30 -92 -64.5 -154.5t-69.5 -100.5t-67.5 -54.5t-57.5 -16.5zM96 546l172 193h60l79 -193l-18 -5l-105 122l-170 -122z" />
    <glyph glyph-name="Kcommaaccent" unicode="&#x136;" horiz-adv-x="925" 
d="M2 27l103 18l165 615l-100 18l7 27h306l-7 -27l-103 -18l-82 -306l423 306l-100 18l7 27h267l-7 -27l-103 -18l-309 -224l236 -391l100 -18l-7 -27h-318l7 27l103 18l-202 333l-113 -82l-67 -251l100 -18l-7 -27h-306zM260 -241q20 2 40 8.5t36 15t26 19t10 20.5
q0 13 -11 20.5t-23.5 15.5t-23.5 19t-11 29q0 23 18.5 37.5t46.5 14.5q33 0 55 -24t22 -64q0 -32 -15.5 -56t-40.5 -40.5t-58.5 -26t-69.5 -12.5z" />
    <glyph glyph-name="kcommaaccent" unicode="&#x137;" horiz-adv-x="543" 
d="M343 -14q-38 0 -52 22t-10 54l15 135q4 40 -7.5 57.5t-36.5 17.5q-18 0 -36 -8t-46 -28l-77 -236h-92l228 702l-110 13l1 8l218 32l-150 -461q79 113 139 154t103 41q38 0 59.5 -18t21.5 -40q0 -24 -14.5 -37.5t-33.5 -13.5q-13 0 -22 7.5t-18.5 16t-20 16t-26.5 7.5
q-25 0 -61.5 -28.5t-111.5 -120.5q27 18 47.5 24t38.5 6q49 0 75.5 -32t19.5 -86l-12 -96q-4 -28 3.5 -37.5t20.5 -9.5q20 0 49 29t55 83l13 -9q-29 -81 -72.5 -122.5t-97.5 -41.5zM69 -241q20 2 40 8.5t36 15t26 19t10 20.5q0 13 -11 20.5t-23.5 15.5t-23.5 19t-11 29
q0 23 18.5 37.5t46.5 14.5q33 0 55 -24t22 -64q0 -32 -15.5 -56t-40.5 -40.5t-58.5 -26t-69.5 -12.5z" />
    <glyph glyph-name="kgreenlandic" unicode="&#x138;" horiz-adv-x="566" 
d="M367 -14q-38 0 -52 22t-10 54l15 135q4 40 -7.5 57.5t-36.5 17.5q-18 0 -36 -8t-46 -28l-77 -236h-92l145 446l-109 6l1 8l218 42l-68 -208q79 113 139 154t103 41q38 0 59.5 -18t21.5 -40q0 -24 -14.5 -37.5t-33.5 -13.5q-13 0 -22 7.5t-18.5 16t-20 16t-26.5 7.5
q-25 0 -61.5 -28.5t-111.5 -120.5q27 18 47.5 24t38.5 6q49 0 75.5 -32t19.5 -86l-12 -96q-4 -28 3.5 -37.5t20.5 -9.5q20 0 49 29t55 83l13 -9q-29 -81 -72.5 -122.5t-97.5 -41.5z" />
    <glyph glyph-name="Lacute" unicode="&#x139;" horiz-adv-x="744" 
d="M2 27l103 18l165 615l-100 18l7 27h306l-7 -27l-103 -18l-168 -626h165q66 0 106.5 6.5t65 19.5t38 33.5t26.5 47.5l34 71h27l-56 -212h-616zM327 754l85 177h137l-198 -189z" />
    <glyph glyph-name="lacute" unicode="&#x13a;" horiz-adv-x="285" 
d="M81 -14q-37 0 -53.5 23t-4.5 59l206 634l-110 13l1 8l218 32l-220 -677q-6 -19 1.5 -25t18.5 -6q21 0 48.5 27.5t55.5 84.5l13 -9q-31 -82 -75 -123t-99 -41zM307 800l85 177h137l-198 -189z" />
    <glyph glyph-name="Lcommaaccent" unicode="&#x13b;" horiz-adv-x="744" 
d="M2 27l103 18l165 615l-100 18l7 27h306l-7 -27l-103 -18l-168 -626h165q66 0 106.5 6.5t65 19.5t38 33.5t26.5 47.5l34 71h27l-56 -212h-616zM203 -241q20 2 40 8.5t36 15t26 19t10 20.5q0 13 -11 20.5t-23.5 15.5t-23.5 19t-11 29q0 23 18.5 37.5t46.5 14.5q33 0 55 -24
t22 -64q0 -32 -15.5 -56t-40.5 -40.5t-58.5 -26t-69.5 -12.5z" />
    <glyph glyph-name="lcommaaccent" unicode="&#x13c;" horiz-adv-x="285" 
d="M81 -14q-37 0 -53.5 23t-4.5 59l206 634l-110 13l1 8l218 32l-220 -677q-6 -19 1.5 -25t18.5 -6q21 0 48.5 27.5t55.5 84.5l13 -9q-31 -82 -75 -123t-99 -41zM-60 -241q20 2 40 8.5t36 15t26 19t10 20.5q0 13 -11 20.5t-23.5 15.5t-23.5 19t-11 29q0 23 18.5 37.5
t46.5 14.5q33 0 55 -24t22 -64q0 -32 -15.5 -56t-40.5 -40.5t-58.5 -26t-69.5 -12.5z" />
    <glyph glyph-name="Lcaron" unicode="&#x13d;" horiz-adv-x="744" 
d="M2 27l103 18l165 615l-100 18l7 27h306l-7 -27l-103 -18l-168 -626h165q66 0 106.5 6.5t65 19.5t38 33.5t26.5 47.5l34 71h27l-56 -212h-616zM525 507q10 19 22 44t22 51t16.5 52.5t6.5 48.5q0 10 -2 19.5t-7 19.5q13 4 25 6.5t25 2.5q24 0 40 -13t16 -37
q0 -37 -39.5 -84t-123.5 -111z" />
    <glyph glyph-name="lcaron" unicode="&#x13e;" horiz-adv-x="285" 
d="M81 -14q-37 0 -53.5 23t-4.5 59l206 634l-110 13l1 8l218 32l-220 -677q-6 -19 1.5 -25t18.5 -6q21 0 48.5 27.5t55.5 84.5l13 -9q-31 -82 -75 -123t-99 -41zM342 507q10 19 22 44t22 51t16.5 52.5t6.5 48.5q0 10 -2 19.5t-7 19.5q13 4 25 6.5t25 2.5q24 0 40 -13t16 -37
q0 -37 -39.5 -84t-123.5 -111z" />
    <glyph glyph-name="Ldot" unicode="&#x13f;" horiz-adv-x="744" 
d="M2 27l103 18l165 615l-100 18l7 27h306l-7 -27l-103 -18l-168 -626h165q66 0 106.5 6.5t65 19.5t38 33.5t26.5 47.5l34 71h27l-56 -212h-616zM607 318q-25 0 -41 17t-16 39q0 35 24.5 57.5t55.5 22.5q28 0 43.5 -17t15.5 -41q0 -33 -24 -55.5t-58 -22.5z" />
    <glyph glyph-name="ldot" unicode="&#x140;" horiz-adv-x="399" 
d="M81 -14q-37 0 -53.5 23t-4.5 59l206 634l-110 13l1 8l218 32l-220 -677q-6 -19 1.5 -25t18.5 -6q21 0 48.5 27.5t55.5 84.5l13 -9q-31 -82 -75 -123t-99 -41zM328 218q-25 0 -41 17t-16 39q0 35 24.5 57.5t55.5 22.5q28 0 43.5 -17t15.5 -41q0 -33 -24 -55.5t-58 -22.5z
" />
    <glyph glyph-name="Lslash" unicode="&#x141;" horiz-adv-x="744" 
d="M2 27l103 18l60 224l-97 -56l-23 46l135 77l4 3l86 321l-100 18l7 27h306l-7 -27l-103 -18l-66 -247l96 55l23 -45l-138 -79l-83 -310h165q66 0 106.5 6.5t65 19.5t38 33.5t26.5 47.5l34 71h27l-56 -212h-616z" />
    <glyph glyph-name="lslash" unicode="&#x142;" horiz-adv-x="345" 
d="M116 -14q-37 0 -53.5 23t-4.5 59l97 298l-93 -33l-12 41l122 44l92 284l-110 13l1 8l218 32l-96 -295l82 29l12 -40l-110 -40l-108 -331q-6 -19 1.5 -25t18.5 -6q21 0 48.5 27.5t55.5 84.5l13 -9q-31 -82 -75 -123t-99 -41z" />
    <glyph glyph-name="Nacute" unicode="&#x143;" horiz-adv-x="842" 
d="M300 619l-155 -574l100 -18l-7 -27h-243l7 27l103 18l165 615l-100 18l7 27h192l262 -552l135 507l-100 18l7 27h243l-7 -27l-103 -18l-178 -674h-28zM562 754l85 177h137l-198 -189z" />
    <glyph glyph-name="nacute" unicode="&#x144;" horiz-adv-x="579" 
d="M375 -14q-37 0 -53.5 23t-4.5 59l100 306q11 34 0.5 48t-30.5 14q-38 0 -90 -63.5t-104 -173.5l-64 -199h-92l127 391q6 19 -0.5 30t-19.5 11q-6 0 -14.5 -3t-20 -14.5t-28.5 -35t-39 -64.5l-13 14q22 52 45 83.5t44.5 48.5t40.5 22.5t35 5.5q39 0 58 -26t0 -83l-33 -103
q46 104 98 158t112 54q51 0 73 -34.5t6 -82.5l-96 -294q-6 -19 1.5 -25t18.5 -6q21 0 48.5 27.5t55.5 84.5l13 -9q-31 -82 -75 -123t-99 -41zM448 761h127l-205 -207h-21z" />
    <glyph glyph-name="Ncommaaccent" unicode="&#x145;" horiz-adv-x="842" 
d="M300 619l-155 -574l100 -18l-7 -27h-243l7 27l103 18l165 615l-100 18l7 27h192l262 -552l135 507l-100 18l7 27h243l-7 -27l-103 -18l-178 -674h-28zM221 -241q20 2 40 8.5t36 15t26 19t10 20.5q0 13 -11 20.5t-23.5 15.5t-23.5 19t-11 29q0 23 18.5 37.5t46.5 14.5
q33 0 55 -24t22 -64q0 -32 -15.5 -56t-40.5 -40.5t-58.5 -26t-69.5 -12.5z" />
    <glyph glyph-name="ncommaaccent" unicode="&#x146;" horiz-adv-x="579" 
d="M375 -14q-37 0 -53.5 23t-4.5 59l100 306q11 34 0.5 48t-30.5 14q-38 0 -90 -63.5t-104 -173.5l-64 -199h-92l127 391q6 19 -0.5 30t-19.5 11q-6 0 -14.5 -3t-20 -14.5t-28.5 -35t-39 -64.5l-13 14q22 52 45 83.5t44.5 48.5t40.5 22.5t35 5.5q39 0 58 -26t0 -83l-33 -103
q46 104 98 158t112 54q51 0 73 -34.5t6 -82.5l-96 -294q-6 -19 1.5 -25t18.5 -6q21 0 48.5 27.5t55.5 84.5l13 -9q-31 -82 -75 -123t-99 -41zM87 -241q20 2 40 8.5t36 15t26 19t10 20.5q0 13 -11 20.5t-23.5 15.5t-23.5 19t-11 29q0 23 18.5 37.5t46.5 14.5q33 0 55 -24
t22 -64q0 -32 -15.5 -56t-40.5 -40.5t-58.5 -26t-69.5 -12.5z" />
    <glyph glyph-name="Ncaron" unicode="&#x147;" horiz-adv-x="842" 
d="M300 619l-155 -574l100 -18l-7 -27h-243l7 27l103 18l165 615l-100 18l7 27h192l262 -552l135 507l-100 18l7 27h243l-7 -27l-103 -18l-178 -674h-28zM778 914l-171 -145h-60l-109 145l19 5l128 -84l173 84z" />
    <glyph glyph-name="ncaron" unicode="&#x148;" horiz-adv-x="579" 
d="M375 -14q-37 0 -53.5 23t-4.5 59l100 306q11 34 0.5 48t-30.5 14q-38 0 -90 -63.5t-104 -173.5l-64 -199h-92l127 391q6 19 -0.5 30t-19.5 11q-6 0 -14.5 -3t-20 -14.5t-28.5 -35t-39 -64.5l-13 14q22 52 45 83.5t44.5 48.5t40.5 22.5t35 5.5q39 0 58 -26t0 -83l-33 -103
q46 104 98 158t112 54q51 0 73 -34.5t6 -82.5l-96 -294q-6 -19 1.5 -25t18.5 -6q21 0 48.5 27.5t55.5 84.5l13 -9q-31 -82 -75 -123t-99 -41zM591 738l-172 -193h-60l-79 193l18 5l105 -122l170 122z" />
    <glyph glyph-name="Eng" unicode="&#x14a;" horiz-adv-x="842" 
d="M392 -276q-40 0 -66.5 19.5t-26.5 44.5q0 19 12 31t29 12q19 0 27.5 -10.5t15.5 -22.5t16 -22.5t28 -10.5q22 0 34.5 13t22.5 53l68 257l-252 531l-155 -574l100 -18l-7 -27h-243l7 27l103 18l165 615l-100 18l7 27h192l262 -552l135 507l-100 18l7 27h243l-7 -27
l-103 -18l-178 -674q-37 -137 -99 -199.5t-137 -62.5z" />
    <glyph glyph-name="eng" unicode="&#x14b;" horiz-adv-x="564" 
d="M142 -276q-38 0 -56 17.5t-18 36.5q0 16 10 28.5t29 12.5q12 0 23.5 -7.5t22.5 -16.5t22.5 -16.5t22.5 -7.5q10 0 18.5 7.5t15.5 31.5l185 564q11 34 0.5 48t-30.5 14q-38 0 -90 -63.5t-104 -173.5l-64 -199h-92l127 391q6 19 -0.5 30t-19.5 11q-6 0 -14.5 -3t-20 -14.5
t-28.5 -35t-39 -64.5l-13 14q22 52 45 83.5t44.5 48.5t40.5 22.5t35 5.5q39 0 58 -26t0 -83l-33 -103q46 104 98 157.5t112 53.5q51 0 73 -34t6 -82l-106 -324q-30 -92 -65 -154.5t-69.5 -100t-67.5 -53.5t-58 -16z" />
    <glyph glyph-name="Omacron" unicode="&#x14c;" horiz-adv-x="867" 
d="M376 -14q-60 0 -111 21t-87.5 56.5t-57 83.5t-20.5 102q0 86 38 170.5t100.5 151t144 107.5t167.5 41q62 0 115.5 -19.5t92.5 -55t61 -86t22 -112.5q0 -82 -39.5 -164.5t-104 -148t-148.5 -106.5t-173 -41zM376 23q64 0 128.5 36.5t116 100.5t84 151t32.5 187
q0 35 -10.5 68t-33 59t-58.5 41.5t-86 15.5q-59 0 -120 -35.5t-110.5 -98.5t-81 -150t-31.5 -190q0 -36 9 -69.5t29 -59t52.5 -41t79.5 -15.5zM491 840h276l-14 -45h-276z" />
    <glyph glyph-name="omacron" unicode="&#x14d;" horiz-adv-x="458" 
d="M148 -14q-28 0 -58.5 12t-51 40t-26.5 74t16 113q16 50 48 98t70.5 84.5t81 59t80.5 22.5q28 0 58 -10.5t51 -33.5t28 -61t-11 -92q-15 -46 -46 -100t-70.5 -99.5t-84 -76t-85.5 -30.5zM152 19q29 0 55.5 23.5t49 61t41.5 85.5t35 97q17 53 19 86t-5.5 51.5t-21.5 25.5
t-29 7q-31 0 -57.5 -23.5t-48.5 -61t-40 -85t-34 -96.5q-30 -92 -17.5 -131.5t53.5 -39.5zM230 664h276l-14 -42h-276z" />
    <glyph glyph-name="Obreve" unicode="&#x14e;" horiz-adv-x="867" 
d="M376 -14q-60 0 -111 21t-87.5 56.5t-57 83.5t-20.5 102q0 86 38 170.5t100.5 151t144 107.5t167.5 41q62 0 115.5 -19.5t92.5 -55t61 -86t22 -112.5q0 -82 -39.5 -164.5t-104 -148t-148.5 -106.5t-173 -41zM376 23q64 0 128.5 36.5t116 100.5t84 151t32.5 187
q0 35 -10.5 68t-33 59t-58.5 41.5t-86 15.5q-59 0 -120 -35.5t-110.5 -98.5t-81 -150t-31.5 -190q0 -36 9 -69.5t29 -59t52.5 -41t79.5 -15.5zM605 756q-29 0 -52.5 11t-37 30t-15 46.5t13.5 60.5h19q-13 -46 13.5 -64t75.5 -18q39 0 80 19.5t70 62.5h19
q-17 -69 -68.5 -108.5t-117.5 -39.5z" />
    <glyph glyph-name="obreve" unicode="&#x14f;" horiz-adv-x="458" 
d="M148 -14q-28 0 -58.5 12t-51 40t-26.5 74t16 113q16 50 48 98t70.5 84.5t81 59t80.5 22.5q28 0 58 -10.5t51 -33.5t28 -61t-11 -92q-15 -46 -46 -100t-70.5 -99.5t-84 -76t-85.5 -30.5zM152 19q29 0 55.5 23.5t49 61t41.5 85.5t35 97q17 53 19 86t-5.5 51.5t-21.5 25.5
t-29 7q-31 0 -57.5 -23.5t-48.5 -61t-40 -85t-34 -96.5q-30 -92 -17.5 -131.5t53.5 -39.5zM338 560q-72 0 -92 49.5t3 129.5h19q-10 -56 10.5 -79.5t70.5 -23.5q43 0 80.5 21.5t77.5 81.5h20q-28 -84 -78.5 -131.5t-110.5 -47.5z" />
    <glyph glyph-name="Ohungarumlaut" unicode="&#x150;" horiz-adv-x="867" 
d="M376 -14q-60 0 -111 21t-87.5 56.5t-57 83.5t-20.5 102q0 86 38 170.5t100.5 151t144 107.5t167.5 41q62 0 115.5 -19.5t92.5 -55t61 -86t22 -112.5q0 -82 -39.5 -164.5t-104 -148t-148.5 -106.5t-173 -41zM376 23q64 0 128.5 36.5t116 100.5t84 151t32.5 187
q0 35 -10.5 68t-33 59t-58.5 41.5t-86 15.5q-59 0 -120 -35.5t-110.5 -98.5t-81 -150t-31.5 -190q0 -36 9 -69.5t29 -59t52.5 -41t79.5 -15.5zM656 750l61 171h134l-181 -178zM491 750l61 171h134l-181 -178z" />
    <glyph glyph-name="ohungarumlaut" unicode="&#x151;" horiz-adv-x="458" 
d="M148 -14q-28 0 -58.5 12t-51 40t-26.5 74t16 113q16 50 48 98t70.5 84.5t81 59t80.5 22.5q28 0 58 -10.5t51 -33.5t28 -61t-11 -92q-15 -46 -46 -100t-70.5 -99.5t-84 -76t-85.5 -30.5zM152 19q29 0 55.5 23.5t49 61t41.5 85.5t35 97q17 53 19 86t-5.5 51.5t-21.5 25.5
t-29 7q-31 0 -57.5 -23.5t-48.5 -61t-40 -85t-34 -96.5q-30 -92 -17.5 -131.5t53.5 -39.5zM465 761h120l-156 -209h-17zM300 761h120l-156 -209h-17z" />
    <glyph glyph-name="OE" unicode="&#x152;" horiz-adv-x="1157" 
d="M385 0q-63 0 -116.5 17t-92 49t-60 79t-21.5 106q0 86 51 168t133 145t187.5 102t213.5 39h464l-40 -198h-27v72q0 26 -5 43.5t-24.5 28.5t-59 15.5t-108.5 4.5h-91l-77 -288h174l52 91h27l-59 -222h-26l-2 91h-177l-83 -309h139q110 0 169.5 19t92.5 88l34 71h27
l-56 -212h-639zM399 34h116l171 637h-28q-93 0 -176.5 -38t-145 -98.5t-97.5 -137t-36 -153.5q0 -98 53 -154t143 -56z" />
    <glyph glyph-name="oe" unicode="&#x153;" horiz-adv-x="695" 
d="M148 -14q-28 0 -58.5 12t-51 40t-26.5 74t16 113q16 50 48 98t70.5 84.5t81 59t80.5 22.5q33 0 67 -21.5t43 -72.5q40 42 83.5 68t83.5 26q25 0 47 -7.5t36 -22.5t18 -38t-6 -53q-13 -43 -80 -86.5t-199 -87.5q-16 -82 6.5 -113t57.5 -31t74 27.5t73 101.5l15 -5
q-25 -95 -78 -141.5t-119 -46.5q-46 0 -83 25.5t-47 75.5q-36 -43 -75.5 -72t-76.5 -29zM152 19q29 0 55.5 23.5t49 61t41.5 85.5t35 97q17 53 19 86t-5.5 51.5t-21.5 25.5t-29 7q-31 0 -57.5 -23.5t-48.5 -61t-40 -85t-34 -96.5q-30 -92 -17.5 -131.5t53.5 -39.5zM422 273
q-5 -16 -9 -30t-7 -27q100 49 150.5 95.5t50.5 95.5q0 24 -11.5 36.5t-29.5 12.5q-45 0 -81 -50t-63 -133z" />
    <glyph glyph-name="Racute" unicode="&#x154;" horiz-adv-x="798" 
d="M2 27l103 18l165 615l-100 18l7 27h307q107 0 165.5 -44.5t58.5 -108.5q0 -40 -18.5 -74.5t-51 -61t-76 -44.5t-92.5 -24q90 -16 109.5 -67t23 -107t20 -103.5t101.5 -57.5l-8 -27q-139 4 -177.5 57.5t-43.5 115t-11.5 113t-82.5 51.5h-118l-75 -278l100 -18l-7 -27h-306
zM460 671h-84l-83 -308h86q43 0 83 14t71 39.5t49.5 62t18.5 81.5q0 54 -34 82.5t-107 28.5zM462 754l85 177h137l-198 -189z" />
    <glyph glyph-name="racute" unicode="&#x155;" horiz-adv-x="466" 
d="M164 391q6 19 -0.5 30t-19.5 11q-6 0 -14.5 -3t-20 -14.5t-28.5 -35t-39 -64.5l-13 14q22 52 45 83.5t44.5 48.5t40.5 22.5t35 5.5q39 0 58 -26t0 -83l-40 -124q26 68 52 113t51 71.5t49.5 37.5t47.5 11q31 0 50 -18t19 -40q0 -24 -14.5 -37.5t-32.5 -13.5q-14 0 -23.5 7
t-18 15t-17.5 15t-21 7q-10 0 -24.5 -10.5t-35.5 -40.5t-49.5 -84t-67.5 -140l-48 -149h-92zM396 761h127l-205 -207h-21z" />
    <glyph glyph-name="Rcommaaccent" unicode="&#x156;" horiz-adv-x="798" 
d="M2 27l103 18l165 615l-100 18l7 27h307q107 0 165.5 -44.5t58.5 -108.5q0 -40 -18.5 -74.5t-51 -61t-76 -44.5t-92.5 -24q90 -16 109.5 -67t23 -107t20 -103.5t101.5 -57.5l-8 -27q-139 4 -177.5 57.5t-43.5 115t-11.5 113t-82.5 51.5h-118l-75 -278l100 -18l-7 -27h-306
zM460 671h-84l-83 -308h86q43 0 83 14t71 39.5t49.5 62t18.5 81.5q0 54 -34 82.5t-107 28.5zM226 -241q20 2 40 8.5t36 15t26 19t10 20.5q0 13 -11 20.5t-23.5 15.5t-23.5 19t-11 29q0 23 18.5 37.5t46.5 14.5q33 0 55 -24t22 -64q0 -32 -15.5 -56t-40.5 -40.5t-58.5 -26
t-69.5 -12.5z" />
    <glyph glyph-name="rcommaaccent" unicode="&#x157;" horiz-adv-x="466" 
d="M164 391q6 19 -0.5 30t-19.5 11q-6 0 -14.5 -3t-20 -14.5t-28.5 -35t-39 -64.5l-13 14q22 52 45 83.5t44.5 48.5t40.5 22.5t35 5.5q39 0 58 -26t0 -83l-40 -124q26 68 52 113t51 71.5t49.5 37.5t47.5 11q31 0 50 -18t19 -40q0 -24 -14.5 -37.5t-32.5 -13.5q-14 0 -23.5 7
t-18 15t-17.5 15t-21 7q-10 0 -24.5 -10.5t-35.5 -40.5t-49.5 -84t-67.5 -140l-48 -149h-92zM35 -241q20 2 40 8.5t36 15t26 19t10 20.5q0 13 -11 20.5t-23.5 15.5t-23.5 19t-11 29q0 23 18.5 37.5t46.5 14.5q33 0 55 -24t22 -64q0 -32 -15.5 -56t-40.5 -40.5t-58.5 -26
t-69.5 -12.5z" />
    <glyph glyph-name="Rcaron" unicode="&#x158;" horiz-adv-x="798" 
d="M2 27l103 18l165 615l-100 18l7 27h307q107 0 165.5 -44.5t58.5 -108.5q0 -40 -18.5 -74.5t-51 -61t-76 -44.5t-92.5 -24q90 -16 109.5 -67t23 -107t20 -103.5t101.5 -57.5l-8 -27q-139 4 -177.5 57.5t-43.5 115t-11.5 113t-82.5 51.5h-118l-75 -278l100 -18l-7 -27h-306
zM460 671h-84l-83 -308h86q43 0 83 14t71 39.5t49.5 62t18.5 81.5q0 54 -34 82.5t-107 28.5zM678 914l-171 -145h-60l-109 145l19 5l128 -84l173 84z" />
    <glyph glyph-name="rcaron" unicode="&#x159;" horiz-adv-x="466" 
d="M164 391q6 19 -0.5 30t-19.5 11q-6 0 -14.5 -3t-20 -14.5t-28.5 -35t-39 -64.5l-13 14q22 52 45 83.5t44.5 48.5t40.5 22.5t35 5.5q39 0 58 -26t0 -83l-40 -124q26 68 52 113t51 71.5t49.5 37.5t47.5 11q31 0 50 -18t19 -40q0 -24 -14.5 -37.5t-32.5 -13.5q-14 0 -23.5 7
t-18 15t-17.5 15t-21 7q-10 0 -24.5 -10.5t-35.5 -40.5t-49.5 -84t-67.5 -140l-48 -149h-92zM539 738l-172 -193h-60l-79 193l18 5l105 -122l170 122z" />
    <glyph glyph-name="Sacute" unicode="&#x15a;" horiz-adv-x="705" 
d="M297 -14q-58 0 -116.5 12t-137.5 41l50 189h27l-1 -81q-1 -60 37 -91.5t143 -31.5q45 0 85.5 13.5t70 37t47 55.5t17.5 70q0 33 -14 51.5t-37 28.5l-182 81q-58 26 -87 57t-29 85q0 41 22.5 80.5t62.5 69.5t94 48t117 18q54 0 99.5 -7.5t108.5 -24.5l-40 -197h-30v98
q0 57 -38 75t-104 18q-40 0 -76.5 -11t-64.5 -30t-44.5 -45.5t-16.5 -55.5q0 -31 16 -51.5t56 -38.5l182 -82q49 -22 75 -57t26 -85q0 -51 -25.5 -95t-69 -76t-101.5 -50t-122 -18zM480 754l85 177h137l-198 -189z" />
    <glyph glyph-name="sacute" unicode="&#x15b;" horiz-adv-x="371" 
d="M111 -14q-43 0 -71 11.5t-44.5 28t-23 34t-6.5 29.5q0 17 11.5 30.5t29.5 13.5q22 0 31 -16t15 -49q4 -22 17 -38t47 -16q37 0 62 24t25 63q0 22 -8.5 39t-28.5 44l-50 67q-29 39 -32.5 81.5t13.5 77t51.5 57t80.5 22.5q25 0 49 -6t43 -17.5t30.5 -27.5t11.5 -36
q0 -19 -12 -32t-32 -13t-29 16.5t-16.5 35.5t-19.5 35.5t-38 16.5q-31 0 -53 -19t-22 -48q0 -16 7 -33t33 -48l51 -61q19 -23 35.5 -50t16.5 -61q0 -35 -15.5 -64t-40.5 -49t-56 -31t-62 -11zM321 761h127l-205 -207h-21z" />
    <glyph glyph-name="Scircumflex" unicode="&#x15c;" horiz-adv-x="705" 
d="M297 -14q-58 0 -116.5 12t-137.5 41l50 189h27l-1 -81q-1 -60 37 -91.5t143 -31.5q45 0 85.5 13.5t70 37t47 55.5t17.5 70q0 33 -14 51.5t-37 28.5l-182 81q-58 26 -87 57t-29 85q0 41 22.5 80.5t62.5 69.5t94 48t117 18q54 0 99.5 -7.5t108.5 -24.5l-40 -197h-30v98
q0 57 -38 75t-104 18q-40 0 -76.5 -11t-64.5 -30t-44.5 -45.5t-16.5 -55.5q0 -31 16 -51.5t56 -38.5l182 -82q49 -22 75 -57t26 -85q0 -51 -25.5 -95t-69 -76t-101.5 -50t-122 -18zM326 764l171 145h60l109 -145l-19 -5l-128 84l-173 -84z" />
    <glyph glyph-name="scircumflex" unicode="&#x15d;" horiz-adv-x="371" 
d="M111 -14q-43 0 -71 11.5t-44.5 28t-23 34t-6.5 29.5q0 17 11.5 30.5t29.5 13.5q22 0 31 -16t15 -49q4 -22 17 -38t47 -16q37 0 62 24t25 63q0 22 -8.5 39t-28.5 44l-50 67q-29 39 -32.5 81.5t13.5 77t51.5 57t80.5 22.5q25 0 49 -6t43 -17.5t30.5 -27.5t11.5 -36
q0 -19 -12 -32t-32 -13t-29 16.5t-16.5 35.5t-19.5 35.5t-38 16.5q-31 0 -53 -19t-22 -48q0 -16 7 -33t33 -48l51 -61q19 -23 35.5 -50t16.5 -61q0 -35 -15.5 -64t-40.5 -49t-56 -31t-62 -11zM112 546l172 193h60l79 -193l-18 -5l-105 122l-170 -122z" />
    <glyph glyph-name="Scedilla" unicode="&#x15e;" horiz-adv-x="705" 
d="M297 -14q-58 0 -116.5 12t-137.5 41l50 189h27l-1 -81q-1 -60 37 -91.5t143 -31.5q45 0 85.5 13.5t70 37t47 55.5t17.5 70q0 33 -14 51.5t-37 28.5l-182 81q-58 26 -87 57t-29 85q0 41 22.5 80.5t62.5 69.5t94 48t117 18q54 0 99.5 -7.5t108.5 -24.5l-40 -197h-30v98
q0 57 -38 75t-104 18q-40 0 -76.5 -11t-64.5 -30t-44.5 -45.5t-16.5 -55.5q0 -31 16 -51.5t56 -38.5l182 -82q49 -22 75 -57t26 -85q0 -51 -25.5 -95t-69 -76t-101.5 -50t-122 -18zM147 -254q93 22 131 45.5t38 52.5q0 21 -23 35.5t-91 30.5l77 92h49l-65 -80
q66 -14 96.5 -34.5t30.5 -51.5q0 -38 -57.5 -71t-182.5 -45z" />
    <glyph glyph-name="scedilla" unicode="&#x15f;" horiz-adv-x="371" 
d="M111 -14q-43 0 -71 11.5t-44.5 28t-23 34t-6.5 29.5q0 17 11.5 30.5t29.5 13.5q22 0 31 -16t15 -49q4 -22 17 -38t47 -16q37 0 62 24t25 63q0 22 -8.5 39t-28.5 44l-50 67q-29 39 -32.5 81.5t13.5 77t51.5 57t80.5 22.5q25 0 49 -6t43 -17.5t30.5 -27.5t11.5 -36
q0 -19 -12 -32t-32 -13t-29 16.5t-16.5 35.5t-19.5 35.5t-38 16.5q-31 0 -53 -19t-22 -48q0 -16 7 -33t33 -48l51 -61q19 -23 35.5 -50t16.5 -61q0 -35 -15.5 -64t-40.5 -49t-56 -31t-62 -11zM-55 -254q93 22 131 45.5t38 52.5q0 21 -23 35.5t-91 30.5l77 92h49l-65 -80
q66 -14 96.5 -34.5t30.5 -51.5q0 -38 -57.5 -71t-182.5 -45z" />
    <glyph glyph-name="Scaron" unicode="&#x160;" horiz-adv-x="705" 
d="M297 -14q-58 0 -116.5 12t-137.5 41l50 189h27l-1 -81q-1 -60 37 -91.5t143 -31.5q45 0 85.5 13.5t70 37t47 55.5t17.5 70q0 33 -14 51.5t-37 28.5l-182 81q-58 26 -87 57t-29 85q0 41 22.5 80.5t62.5 69.5t94 48t117 18q54 0 99.5 -7.5t108.5 -24.5l-40 -197h-30v98
q0 57 -38 75t-104 18q-40 0 -76.5 -11t-64.5 -30t-44.5 -45.5t-16.5 -55.5q0 -31 16 -51.5t56 -38.5l182 -82q49 -22 75 -57t26 -85q0 -51 -25.5 -95t-69 -76t-101.5 -50t-122 -18zM696 914l-171 -145h-60l-109 145l19 5l128 -84l173 84z" />
    <glyph glyph-name="scaron" unicode="&#x161;" horiz-adv-x="371" 
d="M111 -14q-43 0 -71 11.5t-44.5 28t-23 34t-6.5 29.5q0 17 11.5 30.5t29.5 13.5q22 0 31 -16t15 -49q4 -22 17 -38t47 -16q37 0 62 24t25 63q0 22 -8.5 39t-28.5 44l-50 67q-29 39 -32.5 81.5t13.5 77t51.5 57t80.5 22.5q25 0 49 -6t43 -17.5t30.5 -27.5t11.5 -36
q0 -19 -12 -32t-32 -13t-29 16.5t-16.5 35.5t-19.5 35.5t-38 16.5q-31 0 -53 -19t-22 -48q0 -16 7 -33t33 -48l51 -61q19 -23 35.5 -50t16.5 -61q0 -35 -15.5 -64t-40.5 -49t-56 -31t-62 -11zM464 738l-172 -193h-60l-79 193l18 5l105 -122l170 122z" />
    <glyph glyph-name="Tcedilla" unicode="&#x162;" horiz-adv-x="793" 
d="M201 27l103 18l167 627h-150q-41 0 -72.5 -25t-68.5 -106l-22 -48h-27l57 212h669l-57 -212h-27l7 87q4 52 -15 72t-57 20h-134l-167 -627l100 -18l-7 -27h-306zM185 -254q93 22 131 45.5t38 52.5q0 21 -23 35.5t-91 30.5l77 92h49l-65 -80q66 -14 96.5 -34.5t30.5 -51.5
q0 -38 -57.5 -71t-182.5 -45z" />
    <glyph glyph-name="tcedilla" unicode="&#x163;" horiz-adv-x="345" 
d="M94 -14q-40 0 -57.5 24.5t1.5 82.5l115 352h-93l10 30h93l28 86l111 60l-48 -146h122l-10 -30h-121l-120 -367q-5 -16 1 -23.5t19 -7.5q18 0 36.5 16t36 41t34 56t29.5 61l17 -11q-40 -116 -92 -170t-112 -54zM-58 -254q93 22 131 45.5t38 52.5q0 21 -23 35.5t-91 30.5
l77 92h49l-65 -80q66 -14 96.5 -34.5t30.5 -51.5q0 -38 -57.5 -71t-182.5 -45z" />
    <glyph glyph-name="Tcaron" unicode="&#x164;" horiz-adv-x="793" 
d="M201 27l103 18l167 627h-150q-41 0 -72.5 -25t-68.5 -106l-22 -48h-27l57 212h669l-57 -212h-27l7 87q4 52 -15 72t-57 20h-134l-167 -627l100 -18l-7 -27h-306zM739 914l-171 -145h-60l-109 145l19 5l128 -84l173 84z" />
    <glyph glyph-name="tcaron" unicode="&#x165;" horiz-adv-x="345" 
d="M334 507q10 19 22 44t22 51t16.5 52.5t6.5 48.5q0 10 -2 19.5t-7 19.5q13 4 25 6.5t25 2.5q24 0 40 -13t16 -37q0 -37 -39.5 -84t-123.5 -111zM94 -14q-40 0 -57.5 24.5t1.5 82.5l115 352h-93l10 30h93l28 86l111 60l-48 -146h122l-10 -30h-121l-120 -367q-5 -16 1 -23.5
t19 -7.5q18 0 36.5 16t36 41t34 56t29.5 61l17 -11q-40 -116 -92 -170t-112 -54z" />
    <glyph glyph-name="Tbar" unicode="&#x166;" horiz-adv-x="793" 
d="M201 27l103 18l76 285h-230l12 45h230l79 297h-150q-41 0 -72.5 -25t-68.5 -106l-22 -48h-27l57 212h669l-57 -212h-27l7 87q4 52 -15 72t-57 20h-134l-79 -297h230l-12 -45h-230l-76 -285l100 -18l-7 -27h-306z" />
    <glyph glyph-name="tbar" unicode="&#x167;" horiz-adv-x="345" 
d="M93 -14q-40 0 -57.5 24.5t1.5 82.5l67 204h-85l13 41h85l35 107h-93l10 30h93l28 86l111 60l-48 -146h122l-10 -30h-121l-35 -107h123l-13 -41h-124l-71 -219q-5 -16 1 -23.5t19 -7.5q18 0 36.5 16t36 41t34 56t29.5 61l17 -11q-40 -116 -92 -170t-112 -54z" />
    <glyph glyph-name="Utilde" unicode="&#x168;" horiz-adv-x="843" 
d="M393 -14q-82 0 -134 24t-77.5 64t-27 95t14.5 116l101 375l-100 18l7 27h305l-7 -27l-103 -18l-102 -382q-14 -51 -11.5 -95t21.5 -76t54.5 -50.5t86.5 -18.5q37 0 73.5 13t67.5 39t56 66t39 93l111 411l-100 18l7 27h242l-7 -27l-103 -18l-110 -409
q-34 -128 -114.5 -196.5t-189.5 -68.5zM454 758q13 74 47.5 102t71.5 28q24 0 41.5 -7t31.5 -15t26 -15t26 -7q19 0 40.5 12t34.5 52l12 -4q-13 -74 -47.5 -102.5t-73.5 -28.5q-22 0 -38.5 6.5t-30.5 15t-26.5 15t-27.5 6.5q-17 0 -41 -13t-34 -50z" />
    <glyph glyph-name="utilde" unicode="&#x169;" horiz-adv-x="569" 
d="M149 -14q-51 0 -73 34.5t-6 82.5l94 288q6 19 -0.5 30t-19.5 11q-6 0 -14.5 -3t-20 -14.5t-28.5 -35t-39 -64.5l-13 14q22 52 45 83.5t44.5 48.5t40.5 22.5t35 5.5q39 0 58 -26t0 -83l-91 -279q-11 -34 -0.5 -48t30.5 -14q39 0 83 61.5t102 179.5l63 195h92l-129 -397
q-6 -19 1.5 -25t18.5 -6q21 0 48.5 27.5t55.5 84.5l13 -9q-31 -82 -75 -123t-99 -41q-37 0 -53.5 23t-4.5 59l45 139q-50 -113 -96 -167t-107 -54zM218 579q13 74 47.5 103t73.5 29q23 0 40 -7t31 -15t26 -15t26 -7q19 0 40.5 11.5t34.5 52.5l12 -4q-13 -75 -47.5 -104
t-73.5 -29q-22 0 -38.5 6.5t-30.5 15t-26.5 15t-27.5 6.5q-17 0 -41 -13t-34 -50z" />
    <glyph glyph-name="Umacron" unicode="&#x16a;" horiz-adv-x="843" 
d="M393 -14q-82 0 -134 24t-77.5 64t-27 95t14.5 116l101 375l-100 18l7 27h305l-7 -27l-103 -18l-102 -382q-14 -51 -11.5 -95t21.5 -76t54.5 -50.5t86.5 -18.5q37 0 73.5 13t67.5 39t56 66t39 93l111 411l-100 18l7 27h242l-7 -27l-103 -18l-110 -409
q-34 -128 -114.5 -196.5t-189.5 -68.5zM481 840h276l-14 -45h-276z" />
    <glyph glyph-name="umacron" unicode="&#x16b;" horiz-adv-x="569" 
d="M149 -14q-51 0 -73 34.5t-6 82.5l94 288q6 19 -0.5 30t-19.5 11q-6 0 -14.5 -3t-20 -14.5t-28.5 -35t-39 -64.5l-13 14q22 52 45 83.5t44.5 48.5t40.5 22.5t35 5.5q39 0 58 -26t0 -83l-91 -279q-11 -34 -0.5 -48t30.5 -14q39 0 83 61.5t102 179.5l63 195h92l-129 -397
q-6 -19 1.5 -25t18.5 -6q21 0 48.5 27.5t55.5 84.5l13 -9q-31 -82 -75 -123t-99 -41q-37 0 -53.5 23t-4.5 59l45 139q-50 -113 -96 -167t-107 -54zM250 664h276l-14 -42h-276z" />
    <glyph glyph-name="Ubreve" unicode="&#x16c;" horiz-adv-x="843" 
d="M393 -14q-82 0 -134 24t-77.5 64t-27 95t14.5 116l101 375l-100 18l7 27h305l-7 -27l-103 -18l-102 -382q-14 -51 -11.5 -95t21.5 -76t54.5 -50.5t86.5 -18.5q37 0 73.5 13t67.5 39t56 66t39 93l111 411l-100 18l7 27h242l-7 -27l-103 -18l-110 -409
q-34 -128 -114.5 -196.5t-189.5 -68.5zM595 756q-29 0 -52.5 11t-37 30t-15 46.5t13.5 60.5h19q-13 -46 13.5 -64t75.5 -18q39 0 80 19.5t70 62.5h19q-17 -69 -68.5 -108.5t-117.5 -39.5z" />
    <glyph glyph-name="ubreve" unicode="&#x16d;" horiz-adv-x="569" 
d="M149 -14q-51 0 -73 34.5t-6 82.5l94 288q6 19 -0.5 30t-19.5 11q-6 0 -14.5 -3t-20 -14.5t-28.5 -35t-39 -64.5l-13 14q22 52 45 83.5t44.5 48.5t40.5 22.5t35 5.5q39 0 58 -26t0 -83l-91 -279q-11 -34 -0.5 -48t30.5 -14q39 0 83 61.5t102 179.5l63 195h92l-129 -397
q-6 -19 1.5 -25t18.5 -6q21 0 48.5 27.5t55.5 84.5l13 -9q-31 -82 -75 -123t-99 -41q-37 0 -53.5 23t-4.5 59l45 139q-50 -113 -96 -167t-107 -54zM358 560q-72 0 -92 49.5t3 129.5h19q-10 -56 10.5 -79.5t70.5 -23.5q43 0 80.5 21.5t77.5 81.5h20q-28 -84 -78.5 -131.5
t-110.5 -47.5z" />
    <glyph glyph-name="Uring" unicode="&#x16e;" horiz-adv-x="843" 
d="M393 -14q-82 0 -134 24t-77.5 64t-27 95t14.5 116l101 375l-100 18l7 27h305l-7 -27l-103 -18l-102 -382q-14 -51 -11.5 -95t21.5 -76t54.5 -50.5t86.5 -18.5q37 0 73.5 13t67.5 39t56 66t39 93l111 411l-100 18l7 27h242l-7 -27l-103 -18l-110 -409
q-34 -128 -114.5 -196.5t-189.5 -68.5zM613 727q-37 0 -65 27t-28 66q0 37 28 65t65 28q39 0 66 -28t27 -65q0 -39 -27 -66t-66 -27zM613 764q23 0 39.5 16.5t16.5 39.5t-16.5 39.5t-39.5 16.5t-39.5 -16.5t-16.5 -39.5t16.5 -39.5t39.5 -16.5z" />
    <glyph glyph-name="uring" unicode="&#x16f;" horiz-adv-x="569" 
d="M149 -14q-51 0 -73 34.5t-6 82.5l94 288q6 19 -0.5 30t-19.5 11q-6 0 -14.5 -3t-20 -14.5t-28.5 -35t-39 -64.5l-13 14q22 52 45 83.5t44.5 48.5t40.5 22.5t35 5.5q39 0 58 -26t0 -83l-91 -279q-11 -34 -0.5 -48t30.5 -14q39 0 83 61.5t102 179.5l63 195h92l-129 -397
q-6 -19 1.5 -25t18.5 -6q21 0 48.5 27.5t55.5 84.5l13 -9q-31 -82 -75 -123t-99 -41q-37 0 -53.5 23t-4.5 59l45 139q-50 -113 -96 -167t-107 -54zM383 557q-37 0 -65 27t-28 66q0 37 28 65t65 28q39 0 66 -28t27 -65q0 -39 -27 -66t-66 -27zM383 594q23 0 39.5 16.5
t16.5 39.5t-16.5 39.5t-39.5 16.5t-39.5 -16.5t-16.5 -39.5t16.5 -39.5t39.5 -16.5z" />
    <glyph glyph-name="Uhungarumlaut" unicode="&#x170;" horiz-adv-x="843" 
d="M393 -14q-82 0 -134 24t-77.5 64t-27 95t14.5 116l101 375l-100 18l7 27h305l-7 -27l-103 -18l-102 -382q-14 -51 -11.5 -95t21.5 -76t54.5 -50.5t86.5 -18.5q37 0 73.5 13t67.5 39t56 66t39 93l111 411l-100 18l7 27h242l-7 -27l-103 -18l-110 -409
q-34 -128 -114.5 -196.5t-189.5 -68.5zM646 750l61 171h134l-181 -178zM481 750l61 171h134l-181 -178z" />
    <glyph glyph-name="uhungarumlaut" unicode="&#x171;" horiz-adv-x="569" 
d="M149 -14q-51 0 -73 34.5t-6 82.5l94 288q6 19 -0.5 30t-19.5 11q-6 0 -14.5 -3t-20 -14.5t-28.5 -35t-39 -64.5l-13 14q22 52 45 83.5t44.5 48.5t40.5 22.5t35 5.5q39 0 58 -26t0 -83l-91 -279q-11 -34 -0.5 -48t30.5 -14q39 0 83 61.5t102 179.5l63 195h92l-129 -397
q-6 -19 1.5 -25t18.5 -6q21 0 48.5 27.5t55.5 84.5l13 -9q-31 -82 -75 -123t-99 -41q-37 0 -53.5 23t-4.5 59l45 139q-50 -113 -96 -167t-107 -54zM485 761h120l-156 -209h-17zM320 761h120l-156 -209h-17z" />
    <glyph glyph-name="Uogonek" unicode="&#x172;" horiz-adv-x="843" 
d="M393 -14q-82 0 -134 24t-77.5 64t-27 95t14.5 116l101 375l-100 18l7 27h305l-7 -27l-103 -18l-102 -382q-14 -51 -11.5 -95t21.5 -76t54.5 -50.5t86.5 -18.5q37 0 73.5 13t67.5 39t56 66t39 93l111 411l-100 18l7 27h242l-7 -27l-103 -18l-110 -409
q-34 -128 -114.5 -196.5t-189.5 -68.5zM395 -282q-48 0 -72.5 23.5t-24.5 58.5q0 18 7.5 36.5t32 44t69.5 62t120 91.5l8 -9q-81 -76 -121.5 -129.5t-40.5 -85.5q0 -21 11 -34t32 -13q19 0 39 11t40 32l10 -17q-19 -35 -48 -53t-62 -18z" />
    <glyph glyph-name="uogonek" unicode="&#x173;" horiz-adv-x="569" 
d="M149 -14q-51 0 -73 34.5t-6 82.5l94 288q6 19 -0.5 30t-19.5 11q-6 0 -14.5 -3t-20 -14.5t-28.5 -35t-39 -64.5l-13 14q22 52 45 83.5t44.5 48.5t40.5 22.5t35 5.5q39 0 58 -26t0 -83l-91 -279q-11 -34 -0.5 -48t30.5 -14q39 0 83 61.5t102 179.5l63 195h92l-129 -397
q-6 -19 1.5 -25t18.5 -6q21 0 48.5 27.5t55.5 84.5l13 -9q-16 -42 -34.5 -72t-47.5 -58q-78 -74 -116.5 -127t-38.5 -83q0 -21 11 -34t32 -13q19 0 39 11t40 32l10 -17q-19 -35 -48 -53t-62 -18q-48 0 -72.5 23.5t-24.5 58.5q0 16 6 32.5t24 37.5t51.5 49.5t87.5 69.5
q-7 -1 -15 -2t-16 -1q-37 0 -53.5 23t-4.5 59l45 139q-50 -113 -96 -167t-107 -54z" />
    <glyph glyph-name="Wcircumflex" unicode="&#x174;" horiz-adv-x="1281" 
d="M270 660l-100 18l7 27h305l-7 -27l-103 -18l-143 -537l477 433l36 104l-100 18l7 27h308l-7 -27l-103 -18l-178 -516l554 516l-100 18l7 27h261l-7 -27l-103 -18l-722 -671h-48l169 490l-541 -490h-48zM638 764l171 145h60l109 -145l-19 -5l-128 84l-173 -84z" />
    <glyph glyph-name="wcircumflex" unicode="&#x175;" horiz-adv-x="732" 
d="M52 0l1 1q13 21 20 36.5t13 31.5q38 106 53 170t15 113q0 46 -9 60t-17 14q-4 0 -9.5 -1.5t-14.5 -10.5t-22.5 -28.5t-34.5 -55.5l-14 12q34 90 68.5 118.5t66.5 28.5q34 0 53.5 -28t19.5 -91q0 -59 -14.5 -127t-59.5 -169q98 66 148.5 114t75.5 81q1 25 1.5 47t0.5 43
q0 47 -3 73.5t-6 42.5l83 14q6 -16 9.5 -48t3.5 -68q0 -67 -13.5 -144.5t-51.5 -158.5q78 53 126 95.5t73.5 76.5t34 60.5t8.5 47.5q0 24 -6 37t-13 22t-13 17.5t-6 23.5q0 13 12 26t35 13q25 0 42 -20t17 -63q0 -83 -90 -190.5t-297 -229.5l-30 14l-1 -1v1v0l1 1
q12 21 19.5 36.5t13.5 31.5q16 41 26 75.5t15 63.5q-44 -49 -116 -104t-183 -118l-30 14l-1 -1v1zM304 546l172 193h60l79 -193l-18 -5l-105 122l-170 -122z" />
    <glyph glyph-name="Ycircumflex" unicode="&#x176;" horiz-adv-x="858" 
d="M239 27l103 18l74 276l-146 339l-100 18l7 27h311l-7 -27l-103 -18l126 -292l265 292l-100 18l7 27h256l-7 -27l-103 -18l-303 -333l-74 -282l100 -18l-7 -27h-306zM412 764l171 145h60l109 -145l-19 -5l-128 84l-173 -84z" />
    <glyph glyph-name="ycircumflex" unicode="&#x177;" horiz-adv-x="503" 
d="M-36 -278q-48 0 -76 20t-28 45q0 22 13.5 36t32.5 14t29.5 -11.5t19 -25.5t19 -25.5t30.5 -11.5q45 0 86.5 44t91.5 135l-36 441q-2 23 -7.5 33t-15.5 10q-13 0 -33.5 -28t-44.5 -98l-14 12q12 53 29 87.5t35 54.5t35.5 27.5t30.5 7.5q27 0 46.5 -16.5t22.5 -51.5
l27 -333q43 90 85 182.5t104 204.5l117 14q-93 -107 -167 -228.5t-162 -289.5q-71 -135 -139 -192t-131 -57zM201 546l172 193h60l79 -193l-18 -5l-105 122l-170 -122z" />
    <glyph glyph-name="Ydieresis" unicode="&#x178;" horiz-adv-x="858" 
d="M239 27l103 18l74 276l-146 339l-100 18l7 27h311l-7 -27l-103 -18l126 -292l265 292l-100 18l7 27h256l-7 -27l-103 -18l-303 -333l-74 -282l100 -18l-7 -27h-306zM677 768q-17 0 -28 12t-11 31q0 27 18.5 45.5t43.5 18.5q17 0 28.5 -12t11.5 -29q0 -29 -19 -47.5
t-44 -18.5zM493 768q-17 0 -28 12t-11 31q0 27 18.5 45.5t43.5 18.5q17 0 28.5 -12t11.5 -29q0 -29 -19 -47.5t-44 -18.5z" />
    <glyph glyph-name="Zacute" unicode="&#x179;" horiz-adv-x="813" 
d="M648 -9q-40 4 -117 6.5t-173 2.5h-305l12 49l608 622h-197q-51 0 -89.5 -3t-67 -13.5t-48.5 -30t-36 -53.5l-37 -79h-27l59 222q38 -4 106.5 -6.5t181.5 -2.5h295l-6 -39l-618 -632h215q110 0 163.5 25t79.5 81l34 73h27zM486 754l85 177h137l-198 -189z" />
    <glyph glyph-name="zacute" unicode="&#x17a;" horiz-adv-x="483" 
d="M-21 27l398 372h-227l-54 -95l-27 1l56 170h355l3 -24l-405 -378q15 7 32.5 10t38.5 3q29 0 57.5 -6.5t69.5 -6.5q42 0 72 22t41 82h6q6 -35 3.5 -69.5t-17 -61.5t-42.5 -43.5t-73 -16.5q-31 0 -52.5 7t-40 16t-36.5 16t-42 7q-33 0 -57.5 -10.5t-52.5 -35.5zM372 761
h127l-205 -207h-21z" />
    <glyph glyph-name="Zdotaccent" unicode="&#x17b;" horiz-adv-x="813" 
d="M648 -9q-40 4 -117 6.5t-173 2.5h-305l12 49l608 622h-197q-51 0 -89.5 -3t-67 -13.5t-48.5 -30t-36 -53.5l-37 -79h-27l59 222q38 -4 106.5 -6.5t181.5 -2.5h295l-6 -39l-618 -632h215q110 0 163.5 25t79.5 81l34 73h27zM505 765q-22 0 -34 15t-12 37q0 33 20.5 57
t51.5 24q21 0 34 -15t13 -37q0 -33 -21.5 -57t-51.5 -24z" />
    <glyph glyph-name="zdotaccent" unicode="&#x17c;" horiz-adv-x="483" 
d="M-21 27l398 372h-227l-54 -95l-27 1l56 170h355l3 -24l-405 -378q15 7 32.5 10t38.5 3q29 0 57.5 -6.5t69.5 -6.5q42 0 72 22t41 82h6q6 -35 3.5 -69.5t-17 -61.5t-42.5 -43.5t-73 -16.5q-31 0 -52.5 7t-40 16t-36.5 16t-42 7q-33 0 -57.5 -10.5t-52.5 -35.5zM335 585
q-22 0 -34 15t-12 37q0 33 20.5 57t51.5 24q21 0 34 -15t13 -37q0 -33 -21.5 -57t-51.5 -24z" />
    <glyph glyph-name="Zcaron" unicode="&#x17d;" horiz-adv-x="813" 
d="M648 -9q-40 4 -117 6.5t-173 2.5h-305l12 49l608 622h-197q-51 0 -89.5 -3t-67 -13.5t-48.5 -30t-36 -53.5l-37 -79h-27l59 222q38 -4 106.5 -6.5t181.5 -2.5h295l-6 -39l-618 -632h215q110 0 163.5 25t79.5 81l34 73h27zM702 914l-171 -145h-60l-109 145l19 5l128 -84
l173 84z" />
    <glyph glyph-name="zcaron" unicode="&#x17e;" horiz-adv-x="483" 
d="M-21 27l398 372h-227l-54 -95l-27 1l56 170h355l3 -24l-405 -378q15 7 32.5 10t38.5 3q29 0 57.5 -6.5t69.5 -6.5q42 0 72 22t41 82h6q6 -35 3.5 -69.5t-17 -61.5t-42.5 -43.5t-73 -16.5q-31 0 -52.5 7t-40 16t-36.5 16t-42 7q-33 0 -57.5 -10.5t-52.5 -35.5zM515 738
l-172 -193h-60l-79 193l18 5l105 -122l170 122z" />
    <glyph glyph-name="longs" unicode="&#x17f;" horiz-adv-x="344" 
d="M-165 -282q-53 0 -79.5 16t-26.5 44q0 19 12.5 30.5t28.5 11.5q17 0 27 -10.5t19.5 -23t22.5 -23t37 -10.5q45 0 84.5 53.5t64.5 148.5l125 490h-99l10 30h97q38 137 115 206.5t179 69.5q66 0 94.5 -22t28.5 -40q0 -19 -13 -31t-32 -12q-16 0 -26 12t-20.5 26.5
t-25.5 26.5t-42 12q-36 0 -72 -29.5t-55 -95.5l-171 -592q-18 -62 -46 -115t-64 -91t-80 -60t-93 -22z" />
    <glyph glyph-name="florin" unicode="&#x192;" horiz-adv-x="670" 
d="M74 -95q-53 0 -79.5 16t-26.5 44q0 19 12.5 30.5t28.5 11.5q17 0 27 -10.5t19.5 -23t22.5 -23t37 -10.5q45 0 79.5 42.5t64.5 159.5l74 294h-129l12 39h127q38 138 115 207t179 69q66 0 94.5 -22t28.5 -40q0 -19 -13 -31t-32 -12q-16 0 -26 12t-20.5 26.5t-25.5 26.5
t-42 12q-36 0 -72 -29t-55 -96l-36 -123h184l-12 -39h-183l-70 -243q-44 -151 -114 -219.5t-169 -68.5z" />
    <glyph glyph-name="Aringacute" unicode="&#x1fa;" horiz-adv-x="904" 
d="M-28 27l103 18l740 671h48l-179 -671l100 -18l-7 -27h-305l7 27l103 18l52 194h-287l-214 -194l100 -18l-7 -27h-261zM644 279l81 303l-334 -303h253zM870 727q-37 0 -65 27t-28 66q0 37 28 65t65 28q39 0 66 -28t27 -65q0 -39 -27 -66t-66 -27zM870 764q23 0 39.5 16.5
t16.5 39.5t-16.5 39.5t-39.5 16.5t-39.5 -16.5t-16.5 -39.5t16.5 -39.5t39.5 -16.5zM897 962l85 177h137l-198 -189z" />
    <glyph glyph-name="aringacute" unicode="&#x1fb;" horiz-adv-x="549" 
d="M646 939l-198 -189l-24 12l85 177h137zM409 557q-37 0 -65 27t-28 66q0 37 28 65t65 28q39 0 66 -28t27 -65q0 -39 -27 -66t-66 -27zM409 594q23 0 39.5 16.5t16.5 39.5t-16.5 39.5t-39.5 16.5t-39.5 -16.5t-16.5 -39.5t16.5 -39.5t39.5 -16.5zM95 -14q-47 0 -71 31.5
t-24 74.5q0 59 38.5 128.5t91.5 129t111 99.5t97 40q33 0 46.5 -18.5t12.5 -50.5l18 55l96 14l-134 -411q-6 -19 1.5 -25t18.5 -6q21 0 48.5 27.5t55.5 84.5l13 -9q-31 -82 -75 -123t-99 -41q-37 0 -53.5 23t-4.5 59l41 126q-40 -67 -70.5 -108t-56 -63.5t-49.5 -29.5
t-52 -7zM96 96q0 -20 8.5 -39t31.5 -19q10 0 24 4t37 23.5t57.5 60.5t83.5 115l39 118q13 54 -2.5 76t-37.5 22q-33 0 -75 -39t-78.5 -94.5t-62 -118t-25.5 -109.5z" />
    <glyph glyph-name="AEacute" unicode="&#x1fc;" horiz-adv-x="1230" 
d="M-28 27l103 18l729 660h413l-40 -198h-27v72q0 26 -5 43.5t-24.5 28.5t-59 15.5t-108.5 4.5h-91l-77 -288h174l52 91h27l-59 -222h-26l-2 91h-177l-83 -309h139q110 0 169.5 19t92.5 88l34 71h27l-56 -212h-616l7 27l103 18l52 194h-296l-214 -194l100 -18l-7 -27h-261z
M654 279l84 315l-347 -315h263zM862 754l85 177h137l-198 -189z" />
    <glyph glyph-name="aeacute" unicode="&#x1fd;" horiz-adv-x="648" 
d="M103 -14q-44 0 -73 29t-29 71q0 49 28 83t69.5 54.5t90 27t89.5 0.5q6 16 14 31t17 30q21 40 23 68.5t-9 45.5t-31.5 25t-44.5 8q-31 0 -50 -18.5t-20 -49.5q-1 -28 -13 -42t-34 -15q-16 -1 -29.5 10.5t-13.5 36.5q0 24 15.5 44t39.5 34t53.5 22t55.5 8q49 0 84 -21
t39 -70q39 41 82 66t82 25q25 0 47 -7.5t36 -22.5t18 -38t-6 -53q-13 -43 -80 -86.5t-199 -87.5q-15 -82 7 -113t57 -31t74 27.5t73 101.5l15 -5q-25 -95 -78 -141.5t-119 -46.5q-37 0 -69 16.5t-49 49.5q-37 -31 -76 -48.5t-86 -17.5zM375 273q-5 -16 -9 -30t-7 -27
q100 49 150.5 95.5t50.5 95.5q0 24 -11.5 36.5t-29.5 12.5q-45 0 -81 -50t-63 -133zM96 98q0 -17 14.5 -33.5t38.5 -16.5q22 0 45.5 4.5t60.5 23.5q-3 10 -4.5 22t-1.5 25q0 25 5 50.5t13 50.5q-31 3 -61.5 -4.5t-55 -24t-39.5 -41t-15 -56.5zM484 761h127l-205 -207h-21z
" />
    <glyph glyph-name="Oslashacute" unicode="&#x1fe;" horiz-adv-x="867" 
d="M181 -9l30 44q-51 36 -81 92t-30 122q0 86 38 170.5t100.5 151t144 107.5t167.5 41q31 0 61 -5t56 -15l32 46l37 -26l-27 -39q60 -34 96 -94.5t36 -139.5q0 -82 -39.5 -164.5t-104 -148t-148.5 -106.5t-173 -41q-34 0 -65.5 7t-59.5 20l-33 -48zM206 208q0 -36 9 -69
t28 -58l400 582q-19 9 -42.5 14t-51.5 5q-59 0 -120 -35.5t-110.5 -98.5t-81 -150t-31.5 -190zM376 23q64 0 128.5 36.5t116 100.5t84 151t32.5 187q0 40 -13.5 77t-43.5 63l-404 -589q19 -12 44 -19t56 -7zM533 754l85 177h137l-198 -189z" />
    <glyph glyph-name="oslashacute" unicode="&#x1ff;" horiz-adv-x="458" 
d="M45 -32l24 42q-35 24 -51.5 76t11.5 139q16 50 48 98t70.5 84.5t81 59t80.5 22.5q7 0 14.5 -0.5t14.5 -1.5l31 54l28 -18l-26 -46q21 -8 38 -23t27 -37.5t11 -53.5t-12 -71q-15 -46 -46 -100t-70.5 -99.5t-84 -76t-85.5 -30.5q-12 0 -25 2.5t-26 6.5l-25 -44zM117 190
q-14 -44 -18.5 -75.5t-0.5 -51.5l221 389q-5 2 -11 3t-11 1q-31 0 -57.5 -23.5t-48.5 -61t-40 -85t-34 -96.5zM153 19q29 0 55.5 23.5t49 61t41.5 85.5t35 97q19 57 20 92t-9 52l-228 -401q7 -5 16.5 -7.5t19.5 -2.5zM387 761h127l-205 -207h-21z" />
    <glyph glyph-name="Scommaaccent" unicode="&#x218;" horiz-adv-x="705" 
d="M297 -14q-58 0 -116.5 12t-137.5 41l50 189h27l-1 -81q-1 -60 37 -91.5t143 -31.5q45 0 85.5 13.5t70 37t47 55.5t17.5 70q0 33 -14 51.5t-37 28.5l-182 81q-58 26 -87 57t-29 85q0 41 22.5 80.5t62.5 69.5t94 48t117 18q54 0 99.5 -7.5t108.5 -24.5l-40 -197h-30v98
q0 57 -38 75t-104 18q-40 0 -76.5 -11t-64.5 -30t-44.5 -45.5t-16.5 -55.5q0 -31 16 -51.5t56 -38.5l182 -82q49 -22 75 -57t26 -85q0 -51 -25.5 -95t-69 -76t-101.5 -50t-122 -18zM175 -241q20 2 40 8.5t36 15t26 19t10 20.5q0 13 -11 20.5t-23.5 15.5t-23.5 19t-11 29
q0 23 18.5 37.5t46.5 14.5q33 0 55 -24t22 -64q0 -32 -15.5 -56t-40.5 -40.5t-58.5 -26t-69.5 -12.5z" />
    <glyph glyph-name="scommaaccent" unicode="&#x219;" horiz-adv-x="371" 
d="M111 -14q-43 0 -71 11.5t-44.5 28t-23 34t-6.5 29.5q0 17 11.5 30.5t29.5 13.5q22 0 31 -16t15 -49q4 -22 17 -38t47 -16q37 0 62 24t25 63q0 22 -8.5 39t-28.5 44l-50 67q-29 39 -32.5 81.5t13.5 77t51.5 57t80.5 22.5q25 0 49 -6t43 -17.5t30.5 -27.5t11.5 -36
q0 -19 -12 -32t-32 -13t-29 16.5t-16.5 35.5t-19.5 35.5t-38 16.5q-31 0 -53 -19t-22 -48q0 -16 7 -33t33 -48l51 -61q19 -23 35.5 -50t16.5 -61q0 -35 -15.5 -64t-40.5 -49t-56 -31t-62 -11zM-27 -241q20 2 40 8.5t36 15t26 19t10 20.5q0 13 -11 20.5t-23.5 15.5t-23.5 19
t-11 29q0 23 18.5 37.5t46.5 14.5q33 0 55 -24t22 -64q0 -32 -15.5 -56t-40.5 -40.5t-58.5 -26t-69.5 -12.5z" />
    <glyph glyph-name="Tcommaaccent" unicode="&#x21a;" horiz-adv-x="793" 
d="M201 27l103 18l167 627h-150q-41 0 -72.5 -25t-68.5 -106l-22 -48h-27l57 212h669l-57 -212h-27l7 87q4 52 -15 72t-57 20h-134l-167 -627l100 -18l-7 -27h-306zM213 -241q20 2 40 8.5t36 15t26 19t10 20.5q0 13 -11 20.5t-23.5 15.5t-23.5 19t-11 29q0 23 18.5 37.5
t46.5 14.5q33 0 55 -24t22 -64q0 -32 -15.5 -56t-40.5 -40.5t-58.5 -26t-69.5 -12.5z" />
    <glyph glyph-name="tcommaaccent" unicode="&#x21b;" horiz-adv-x="345" 
d="M94 -14q-40 0 -57.5 24.5t1.5 82.5l115 352h-93l10 30h93l28 86l111 60l-48 -146h122l-10 -30h-121l-120 -367q-5 -16 1 -23.5t19 -7.5q18 0 36.5 16t36 41t34 56t29.5 61l17 -11q-40 -116 -92 -170t-112 -54zM-30 -241q20 2 40 8.5t36 15t26 19t10 20.5q0 13 -11 20.5
t-23.5 15.5t-23.5 19t-11 29q0 23 18.5 37.5t46.5 14.5q33 0 55 -24t22 -64q0 -32 -15.5 -56t-40.5 -40.5t-58.5 -26t-69.5 -12.5z" />
    <glyph glyph-name="jdotless" unicode="&#x237;" horiz-adv-x="288" 
d="M-115 -278q-38 0 -56 17.5t-18 36.5q0 16 10 28.5t29 12.5q12 0 23.5 -7.5t22.5 -16.5t22.5 -16.5t22.5 -7.5q10 0 18.5 8.5t15.5 32.5l190 581q6 19 -0.5 30t-19.5 11q-6 0 -14.5 -3t-20 -14.5t-28.5 -35t-39 -64.5l-13 14q22 52 45 83.5t44.5 48.5t40.5 22.5t35 5.5
q39 0 58 -26t0 -83q-27 -83 -54.5 -166t-54.5 -166q-30 -92 -64.5 -154.5t-69.5 -100.5t-67.5 -54.5t-57.5 -16.5z" />
    <glyph glyph-name="circumflex" unicode="&#x2c6;" horiz-adv-x="600" 
d="M254 546l172 193h60l79 -193l-18 -5l-105 122l-170 -122z" />
    <glyph glyph-name="caron" unicode="&#x2c7;" horiz-adv-x="600" 
d="M597 738l-172 -193h-60l-79 193l18 5l105 -122l170 122z" />
    <glyph glyph-name="uni02C9" unicode="&#x2c9;" horiz-adv-x="600" 
d="M301 664h276l-14 -42h-276z" />
    <glyph glyph-name="breve" unicode="&#x2d8;" horiz-adv-x="600" 
d="M402 560q-72 0 -92 49.5t3 129.5h19q-10 -56 10.5 -79.5t70.5 -23.5q43 0 80.5 21.5t77.5 81.5h20q-28 -84 -78.5 -131.5t-110.5 -47.5z" />
    <glyph glyph-name="dotaccent" unicode="&#x2d9;" horiz-adv-x="600" 
d="M421 585q-22 0 -34 15t-12 37q0 33 20.5 57t51.5 24q21 0 34 -15t13 -37q0 -33 -21.5 -57t-51.5 -24z" />
    <glyph glyph-name="ring" unicode="&#x2da;" horiz-adv-x="600" 
d="M434 557q-37 0 -65 27t-28 66q0 37 28 65t65 28q39 0 66 -28t27 -65q0 -39 -27 -66t-66 -27zM434 594q23 0 39.5 16.5t16.5 39.5t-16.5 39.5t-39.5 16.5t-39.5 -16.5t-16.5 -39.5t16.5 -39.5t39.5 -16.5z" />
    <glyph glyph-name="ogonek" unicode="&#x2db;" horiz-adv-x="600" 
d="M152 -282q-48 0 -72.5 23.5t-24.5 58.5q0 18 7.5 36.5t32 44t69.5 62t120 91.5l8 -9q-81 -76 -121.5 -129.5t-40.5 -85.5q0 -21 11 -34t32 -13q19 0 39 11t40 32l10 -17q-19 -35 -48 -53t-62 -18z" />
    <glyph glyph-name="tilde" unicode="&#x2dc;" horiz-adv-x="600" 
d="M269 579q13 74 47.5 103t73.5 29q23 0 40 -7t31 -15t26 -15t26 -7q19 0 40.5 11.5t34.5 52.5l12 -4q-13 -75 -47.5 -104t-73.5 -29q-22 0 -38.5 6.5t-30.5 15t-26.5 15t-27.5 6.5q-17 0 -41 -13t-34 -50z" />
    <glyph glyph-name="hungarumlaut" unicode="&#x2dd;" horiz-adv-x="600" 
d="M495 761h120l-156 -209h-17zM330 761h120l-156 -209h-17z" />
    <glyph glyph-name="gravecomb" unicode="&#x300;" horiz-adv-x="600" 
d="M253 761h117l-5 -208h-18z" />
    <glyph glyph-name="acutecomb" unicode="&#x301;" horiz-adv-x="600" 
d="M425 761h127l-205 -207h-21z" />
    <glyph glyph-name="circumflexcomb" unicode="&#x302;" horiz-adv-x="600" 
d="M254 546l172 193h60l79 -193l-18 -5l-105 122l-170 -122z" />
    <glyph glyph-name="tildecomb" unicode="&#x303;" horiz-adv-x="631" 
d="M285 579q13 74 47.5 103t73.5 29q23 0 40 -7t31 -15t26 -15t26 -7q19 0 40.5 11.5t34.5 52.5l12 -4q-13 -75 -47.5 -104t-73.5 -29q-22 0 -38.5 6.5t-30.5 15t-26.5 15t-27.5 6.5q-17 0 -41 -13t-34 -50z" />
    <glyph glyph-name="macroncomb" unicode="&#x304;" horiz-adv-x="600" 
d="M301 664h276l-14 -42h-276z" />
    <glyph glyph-name="brevecomb" unicode="&#x306;" horiz-adv-x="600" 
d="M412 560q-72 0 -92 49.5t3 129.5h19q-10 -56 10.5 -79.5t70.5 -23.5q43 0 80.5 21.5t77.5 81.5h20q-28 -84 -78.5 -131.5t-110.5 -47.5z" />
    <glyph glyph-name="dotaccentcomb" unicode="&#x307;" horiz-adv-x="600" 
d="M421 585q-22 0 -34 15t-12 37q0 33 20.5 57t51.5 24q21 0 34 -15t13 -37q0 -33 -21.5 -57t-51.5 -24z" />
    <glyph glyph-name="dieresiscomb" unicode="&#x308;" horiz-adv-x="600" 
d="M359 598q-17 0 -28 12t-11 31q0 27 18.5 45.5t43.5 18.5q17 0 28.5 -12t11.5 -29q0 -29 -19 -47.5t-44 -18.5zM175 598q-17 0 -28 12t-11 31q0 27 18.5 45.5t43.5 18.5q17 0 28.5 -12t11.5 -29q0 -29 -19 -47.5t-44 -18.5z" />
    <glyph glyph-name="ringcomb" unicode="&#x30a;" horiz-adv-x="600" 
d="M434 557q-37 0 -65 27t-28 66q0 37 28 65t65 28q39 0 66 -28t27 -65q0 -39 -27 -66t-66 -27zM434 594q23 0 39.5 16.5t16.5 39.5t-16.5 39.5t-39.5 16.5t-39.5 -16.5t-16.5 -39.5t16.5 -39.5t39.5 -16.5z" />
    <glyph glyph-name="hungarumlautcomb" unicode="&#x30b;" horiz-adv-x="600" 
d="M485 761h120l-156 -209h-17zM320 761h120l-156 -209h-17z" />
    <glyph glyph-name="caroncomb" unicode="&#x30c;" horiz-adv-x="600" 
d="M597 738l-172 -193h-60l-79 193l18 5l105 -122l170 122z" />
    <glyph glyph-name="commaturnedabovecomb" unicode="&#x312;" horiz-adv-x="470" 
d="M472 739q-20 -2 -40 -8.5t-36 -15t-26 -19t-10 -20.5q0 -13 11 -20.5t23.5 -15.5t23.5 -19t11 -29q0 -23 -18.5 -37.5t-46.5 -14.5q-33 0 -55 24t-22 64q0 32 15.5 56t40.5 40.5t58.5 26t69.5 12.5z" />
    <glyph glyph-name="commaaccentcomb" unicode="&#x326;" horiz-adv-x="470" 
d="M6 -241q20 2 40 8.5t36 15t26 19t10 20.5q0 13 -11 20.5t-23.5 15.5t-23.5 19t-11 29q0 23 18.5 37.5t46.5 14.5q33 0 55 -24t22 -64q0 -32 -15.5 -56t-40.5 -40.5t-58.5 -26t-69.5 -12.5z" />
    <glyph glyph-name="cedillacomb" unicode="&#x327;" horiz-adv-x="600" 
d="M149 -254q93 22 131 45.5t38 52.5q0 21 -23 35.5t-91 30.5l77 92h49l-65 -80q66 -14 96.5 -34.5t30.5 -51.5q0 -38 -57.5 -71t-182.5 -45z" />
    <glyph glyph-name="ogonekcomb" unicode="&#x328;" horiz-adv-x="600" 
d="M170 -282q-48 0 -72.5 23.5t-24.5 58.5q0 18 7.5 36.5t32 44t69.5 62t120 91.5l8 -9q-81 -76 -121.5 -129.5t-40.5 -85.5q0 -21 11 -34t32 -13q19 0 39 11t40 32l10 -17q-19 -35 -48 -53t-62 -18z" />
    <glyph glyph-name="strokeshortcomb" unicode="&#x335;" horiz-adv-x="600" 
d="M188 378h315l-13 -42h-315z" />
    <glyph glyph-name="strokelongcomb" unicode="&#x336;" horiz-adv-x="824" 
d="M76 380h762l-12 -45h-762z" />
    <glyph glyph-name="slashshortcomb" unicode="&#x337;" horiz-adv-x="600" 
d="M196 374l147 53l48 22l114 40l12 -40l-130 -47l-47 -22l-132 -47z" />
    <glyph glyph-name="slashlongcomb" unicode="&#x338;" horiz-adv-x="600" 
d="M126 -32l324 573l28 -18l-324 -572z" />
    <glyph glyph-name="Deltagreek" unicode="&#x394;" horiz-adv-x="722" 
d="M503 704l136 -704h-640zM586 45l-106 555l-396 -555h502z" />
    <glyph glyph-name="Omegagreek" unicode="&#x3a9;" horiz-adv-x="837" 
d="M40 89h193q-54 46 -84 110.5t-30 134.5q0 65 37.5 133t98 123.5t138 91.5t156.5 36q58 0 106.5 -22t83 -59t53.5 -85t19 -100q0 -53 -21 -105.5t-58 -100t-88.5 -88t-113.5 -69.5h186l-27 -89h-267l17 53h-1l4 11q53 32 102.5 80t87.5 105.5t61 122t23 128.5
q0 87 -43 136t-128 49q-62 0 -121 -31t-104.5 -83t-73.5 -121.5t-28 -146.5q0 -60 15.5 -124t56.5 -115l-20 -64h-257z" />
    <glyph glyph-name="mugreek" unicode="&#x3bc;" horiz-adv-x="541" 
d="M140 -13q-31 0 -53.5 22t-21.5 62q-15 -39 -26 -82.5t-11 -77.5t12.5 -53.5t27 -32.5t27 -25t12.5 -31q0 -16 -12.5 -26.5t-27.5 -10.5q-30 0 -47.5 27.5t-23 72t1.5 101.5t25 114l138 428h92l-121 -374q-11 -36 -0.5 -49t29.5 -13q44 0 87.5 60.5t97.5 176.5l64 199h92
l-129 -397q-6 -19 1.5 -25t18.5 -6q21 0 48.5 27.5t55.5 84.5l13 -9q-31 -82 -75 -123t-99 -41q-37 0 -53.5 23t-4.5 59l31 95q-40 -90 -81.5 -133t-87.5 -43z" />
    <glyph glyph-name="pi" unicode="&#x3c0;" horiz-adv-x="679" 
d="M424 0q-10 19 -12.5 56.5t22.5 113.5l88 271h-234l-143 -441h-98l143 441h-79l17 50h588l-17 -50h-79l-90 -278q-23 -72 -20 -108t11 -55h-97z" />
    <glyph glyph-name="Wgrave" unicode="&#x1e80;" horiz-adv-x="1281" 
d="M270 660l-100 18l7 27h305l-7 -27l-103 -18l-143 -537l477 433l36 104l-100 18l7 27h308l-7 -27l-103 -18l-178 -516l554 516l-100 18l7 27h261l-7 -27l-103 -18l-722 -671h-48l169 490l-541 -490h-48zM705 931h123l-5 -184h-29z" />
    <glyph glyph-name="wgrave" unicode="&#x1e81;" horiz-adv-x="732" 
d="M52 0l1 1q13 21 20 36.5t13 31.5q38 106 53 170t15 113q0 46 -9 60t-17 14q-4 0 -9.5 -1.5t-14.5 -10.5t-22.5 -28.5t-34.5 -55.5l-14 12q34 90 68.5 118.5t66.5 28.5q34 0 53.5 -28t19.5 -91q0 -59 -14.5 -127t-59.5 -169q98 66 148.5 114t75.5 81q1 25 1.5 47t0.5 43
q0 47 -3 73.5t-6 42.5l83 14q6 -16 9.5 -48t3.5 -68q0 -67 -13.5 -144.5t-51.5 -158.5q78 53 126 95.5t73.5 76.5t34 60.5t8.5 47.5q0 24 -6 37t-13 22t-13 17.5t-6 23.5q0 13 12 26t35 13q25 0 42 -20t17 -63q0 -83 -90 -190.5t-297 -229.5l-30 14l-1 -1v1v0l1 1
q12 21 19.5 36.5t13.5 31.5q16 41 26 75.5t15 63.5q-44 -49 -116 -104t-183 -118l-30 14l-1 -1v1zM344 761h117l-5 -208h-18z" />
    <glyph glyph-name="Wacute" unicode="&#x1e82;" horiz-adv-x="1281" 
d="M270 660l-100 18l7 27h305l-7 -27l-103 -18l-143 -537l477 433l36 104l-100 18l7 27h308l-7 -27l-103 -18l-178 -516l554 516l-100 18l7 27h261l-7 -27l-103 -18l-722 -671h-48l169 490l-541 -490h-48zM792 754l85 177h137l-198 -189z" />
    <glyph glyph-name="wacute" unicode="&#x1e83;" horiz-adv-x="732" 
d="M52 0l1 1q13 21 20 36.5t13 31.5q38 106 53 170t15 113q0 46 -9 60t-17 14q-4 0 -9.5 -1.5t-14.5 -10.5t-22.5 -28.5t-34.5 -55.5l-14 12q34 90 68.5 118.5t66.5 28.5q34 0 53.5 -28t19.5 -91q0 -59 -14.5 -127t-59.5 -169q98 66 148.5 114t75.5 81q1 25 1.5 47t0.5 43
q0 47 -3 73.5t-6 42.5l83 14q6 -16 9.5 -48t3.5 -68q0 -67 -13.5 -144.5t-51.5 -158.5q78 53 126 95.5t73.5 76.5t34 60.5t8.5 47.5q0 24 -6 37t-13 22t-13 17.5t-6 23.5q0 13 12 26t35 13q25 0 42 -20t17 -63q0 -83 -90 -190.5t-297 -229.5l-30 14l-1 -1v1v0l1 1
q12 21 19.5 36.5t13.5 31.5q16 41 26 75.5t15 63.5q-44 -49 -116 -104t-183 -118l-30 14l-1 -1v1zM513 761h127l-205 -207h-21z" />
    <glyph glyph-name="Wdieresis" unicode="&#x1e84;" horiz-adv-x="1281" 
d="M270 660l-100 18l7 27h305l-7 -27l-103 -18l-143 -537l477 433l36 104l-100 18l7 27h308l-7 -27l-103 -18l-178 -516l554 516l-100 18l7 27h261l-7 -27l-103 -18l-722 -671h-48l169 490l-541 -490h-48zM903 768q-17 0 -28 12t-11 31q0 27 18.5 45.5t43.5 18.5
q17 0 28.5 -12t11.5 -29q0 -29 -19 -47.5t-44 -18.5zM719 768q-17 0 -28 12t-11 31q0 27 18.5 45.5t43.5 18.5q17 0 28.5 -12t11.5 -29q0 -29 -19 -47.5t-44 -18.5z" />
    <glyph glyph-name="wdieresis" unicode="&#x1e85;" horiz-adv-x="732" 
d="M52 0l1 1q13 21 20 36.5t13 31.5q38 106 53 170t15 113q0 46 -9 60t-17 14q-4 0 -9.5 -1.5t-14.5 -10.5t-22.5 -28.5t-34.5 -55.5l-14 12q34 90 68.5 118.5t66.5 28.5q34 0 53.5 -28t19.5 -91q0 -59 -14.5 -127t-59.5 -169q98 66 148.5 114t75.5 81q1 25 1.5 47t0.5 43
q0 47 -3 73.5t-6 42.5l83 14q6 -16 9.5 -48t3.5 -68q0 -67 -13.5 -144.5t-51.5 -158.5q78 53 126 95.5t73.5 76.5t34 60.5t8.5 47.5q0 24 -6 37t-13 22t-13 17.5t-6 23.5q0 13 12 26t35 13q25 0 42 -20t17 -63q0 -83 -90 -190.5t-297 -229.5l-30 14l-1 -1v1v0l1 1
q12 21 19.5 36.5t13.5 31.5q16 41 26 75.5t15 63.5q-44 -49 -116 -104t-183 -118l-30 14l-1 -1v1zM569 598q-17 0 -28 12t-11 31q0 27 18.5 45.5t43.5 18.5q17 0 28.5 -12t11.5 -29q0 -29 -19 -47.5t-44 -18.5zM385 598q-17 0 -28 12t-11 31q0 27 18.5 45.5t43.5 18.5
q17 0 28.5 -12t11.5 -29q0 -29 -19 -47.5t-44 -18.5z" />
    <glyph glyph-name="Ygrave" unicode="&#x1ef2;" horiz-adv-x="858" 
d="M239 27l103 18l74 276l-146 339l-100 18l7 27h311l-7 -27l-103 -18l126 -292l265 292l-100 18l7 27h256l-7 -27l-103 -18l-303 -333l-74 -282l100 -18l-7 -27h-306zM479 931h123l-5 -184h-29z" />
    <glyph glyph-name="ygrave" unicode="&#x1ef3;" horiz-adv-x="503" 
d="M-36 -278q-48 0 -76 20t-28 45q0 22 13.5 36t32.5 14t29.5 -11.5t19 -25.5t19 -25.5t30.5 -11.5q45 0 86.5 44t91.5 135l-36 441q-2 23 -7.5 33t-15.5 10q-13 0 -33.5 -28t-44.5 -98l-14 12q12 53 29 87.5t35 54.5t35.5 27.5t30.5 7.5q27 0 46.5 -16.5t22.5 -51.5
l27 -333q43 90 85 182.5t104 204.5l117 14q-93 -107 -167 -228.5t-162 -289.5q-71 -135 -139 -192t-131 -57zM241 761h117l-5 -208h-18z" />
    <glyph glyph-name="thinspace" unicode="&#x2009;" horiz-adv-x="100" 
 />
    <glyph glyph-name="endash" unicode="&#x2013;" horiz-adv-x="657" 
d="M43 271h578l-22 -67h-578z" />
    <glyph glyph-name="emdash" unicode="&#x2014;" horiz-adv-x="1056" 
d="M43 271h977l-22 -67h-977z" />
    <glyph glyph-name="quoteleft" unicode="&#x2018;" horiz-adv-x="264" 
d="M308 735q-50 -23 -82.5 -52.5t-32.5 -60.5q0 -9 6 -18.5t24 -20.5q18 -12 27 -25t9 -30q0 -21 -15.5 -37t-38.5 -16q-31 0 -55 28t-24 69q0 63 49.5 110t127.5 72z" />
    <glyph glyph-name="quoteright" unicode="&#x2019;" horiz-adv-x="264" 
d="M113 491q50 23 82.5 52.5t32.5 60.5q0 9 -6 18.5t-24 20.5q-18 12 -27 25t-9 30q0 21 15.5 37t38.5 16q31 0 55 -28t24 -69q0 -63 -49.5 -110t-127.5 -72z" />
    <glyph glyph-name="quotesinglbase" unicode="&#x201a;" horiz-adv-x="265" 
d="M-8 -137q50 23 82.5 52.5t32.5 60.5q0 9 -6 18.5t-24 20.5q-18 12 -27 25t-9 30q0 21 15.5 37t38.5 16q31 0 55 -28t24 -69q0 -63 -49.5 -110t-127.5 -72z" />
    <glyph glyph-name="quotedblleft" unicode="&#x201c;" horiz-adv-x="488" 
d="M308 735q-50 -23 -82.5 -52.5t-32.5 -60.5q0 -9 6 -18.5t24 -20.5q18 -12 27 -25t9 -30q0 -21 -15.5 -37t-38.5 -16q-31 0 -55 28t-24 69q0 63 49.5 110t127.5 72zM532 735q-50 -23 -82.5 -52.5t-32.5 -60.5q0 -9 6 -18.5t24 -20.5q18 -12 27 -25t9 -30q0 -21 -15.5 -37
t-38.5 -16q-31 0 -55 28t-24 69q0 63 49.5 110t127.5 72z" />
    <glyph glyph-name="quotedblright" unicode="&#x201d;" horiz-adv-x="488" 
d="M113 491q50 23 82.5 52.5t32.5 60.5q0 9 -6 18.5t-24 20.5q-18 12 -27 25t-9 30q0 21 15.5 37t38.5 16q31 0 55 -28t24 -69q0 -63 -49.5 -110t-127.5 -72zM337 491q50 23 82.5 52.5t32.5 60.5q0 9 -6 18.5t-24 20.5q-18 12 -27 25t-9 30q0 21 15.5 37t38.5 16
q31 0 55 -28t24 -69q0 -63 -49.5 -110t-127.5 -72z" />
    <glyph glyph-name="quotedblbase" unicode="&#x201e;" horiz-adv-x="489" 
d="M-8 -137q50 23 82.5 52.5t32.5 60.5q0 9 -6 18.5t-24 20.5q-18 12 -27 25t-9 30q0 21 15.5 37t38.5 16q31 0 55 -28t24 -69q0 -63 -49.5 -110t-127.5 -72zM216 -137q50 23 82.5 52.5t32.5 60.5q0 9 -6 18.5t-24 20.5q-18 12 -27 25t-9 30q0 21 15.5 37t38.5 16
q31 0 55 -28t24 -69q0 -63 -49.5 -110t-127.5 -72z" />
    <glyph glyph-name="dagger" unicode="&#x2020;" horiz-adv-x="709" 
d="M117 475h266l59 206h84l-59 -206h266l-21 -74h-266l-173 -607h-84l173 607h-266z" />
    <glyph glyph-name="daggerdbl" unicode="&#x2021;" horiz-adv-x="725" 
d="M3 74h266l93 327h-266l21 74h266l59 206h84l-59 -206h266l-21 -74h-266l-93 -327h266l-21 -74h-266l-59 -206h-84l59 206h-266z" />
    <glyph glyph-name="bullet" unicode="&#x2022;" horiz-adv-x="396" 
d="M214 170q-48 0 -82 34t-34 82q0 47 34 81.5t82 34.5q47 0 81.5 -34.5t34.5 -81.5q0 -48 -34.5 -82t-81.5 -34z" />
    <glyph glyph-name="ellipsis" unicode="&#x2026;" horiz-adv-x="948" 
d="M91 -14q-25 0 -41 17t-16 39q0 35 24.5 57.5t55.5 22.5q28 0 43.5 -17t15.5 -41q0 -33 -24 -55.5t-58 -22.5zM407 -14q-25 0 -41 17t-16 39q0 35 24.5 57.5t55.5 22.5q28 0 43.5 -17t15.5 -41q0 -33 -24 -55.5t-58 -22.5zM723 -14q-25 0 -41 17t-16 39q0 35 24.5 57.5
t55.5 22.5q28 0 43.5 -17t15.5 -41q0 -33 -24 -55.5t-58 -22.5z" />
    <glyph glyph-name="perthousand" unicode="&#x2030;" horiz-adv-x="1428" 
d="M273 12l545 710l36 -26l-547 -712zM264 349q-56 0 -83 35t-27 93q0 37 15.5 79t42 77.5t61 59t72.5 23.5q50 0 80 -36t30 -88q0 -38 -15.5 -81t-41.5 -79t-61 -59.5t-73 -23.5zM261 369q26 0 50 29t42.5 71t29.5 90.5t11 86.5q0 23 -12.5 36.5t-34.5 13.5
q-28 0 -52 -31.5t-42 -75t-28.5 -90t-10.5 -76.5q0 -31 13.5 -42.5t33.5 -11.5zM1159 -9q-56 0 -83 35t-27 93q0 37 15.5 79t42 77.5t61 59t72.5 23.5q50 0 80 -36t30 -88q0 -38 -15.5 -81t-41.5 -79t-61 -59.5t-73 -23.5zM762 -9q-56 0 -83 35t-27 93q0 37 15.5 79t42 77.5
t61 59t72.5 23.5q50 0 80 -36t30 -88q0 -38 -15.5 -81t-41.5 -79t-61 -59.5t-73 -23.5zM759 11q26 0 50 29t42.5 71t29.5 90.5t11 86.5q0 23 -12.5 36.5t-34.5 13.5q-28 0 -52 -31.5t-42 -75t-28.5 -90t-10.5 -76.5q0 -31 13.5 -42.5t33.5 -11.5zM1156 11q26 0 50 29
t42.5 71t29.5 90.5t11 86.5q0 23 -12.5 36.5t-34.5 13.5q-28 0 -52 -31.5t-42 -75t-28.5 -90t-10.5 -76.5q0 -31 13.5 -42.5t33.5 -11.5z" />
    <glyph glyph-name="guilsinglleft" unicode="&#x2039;" horiz-adv-x="257" 
d="M10 239l226 190l24 -24l-166 -173l98 -165l-28 -21z" />
    <glyph glyph-name="guilsinglright" unicode="&#x203a;" horiz-adv-x="257" 
d="M247 236l-226 -190l-24 24l166 173l-98 165l28 21z" />
    <glyph glyph-name="fraction" unicode="&#x2044;" horiz-adv-x="197" 
d="M-144 12l545 710l36 -26l-547 -712z" />
    <glyph glyph-name="zerosuperior" unicode="&#x2070;" horiz-adv-x="417" 
d="M266 449q-56 0 -83 35t-27 93q0 37 15.5 79t42 77.5t61 59t72.5 23.5q50 0 80 -36t30 -88q0 -38 -15.5 -81t-41.5 -79t-61 -59.5t-73 -23.5zM263 469q26 0 50 29t42.5 71t29.5 90.5t11 86.5q0 23 -12.5 36.5t-34.5 13.5q-28 0 -52 -31.5t-42 -75t-28.5 -90t-10.5 -76.5
q0 -31 13.5 -42.5t33.5 -11.5z" />
    <glyph glyph-name="foursuperior" unicode="&#x2074;" horiz-adv-x="388" 
d="M416 546h-66l-24 -88h-60l24 88h-158l6 36l222 223h59l-59 -219h66zM169 586h131l49 181z" />
    <glyph glyph-name="zeroinferior" unicode="&#x2080;" horiz-adv-x="417" 
d="M109 -159q-56 0 -83 35t-27 93q0 37 15.5 79t42 77.5t61 59t72.5 23.5q50 0 80 -36t30 -88q0 -38 -15.5 -81t-41.5 -79t-61 -59.5t-73 -23.5zM106 -139q26 0 50 29t42.5 71t29.5 90.5t11 86.5q0 23 -12.5 36.5t-34.5 13.5q-28 0 -52 -31.5t-42 -75t-28.5 -90t-10.5 -76.5
q0 -31 13.5 -42.5t33.5 -11.5z" />
    <glyph glyph-name="oneinferior" unicode="&#x2081;" horiz-adv-x="338" 
d="M202 203l-95 -353h-61l78 293l-94 -41l-5 13l135 88h42z" />
    <glyph glyph-name="twoinferior" unicode="&#x2082;" horiz-adv-x="363" 
d="M-27 -106l117 93q72 57 92.5 87t20.5 62q0 26 -15.5 40t-40.5 14q-16 0 -37 -13.5t-21 -47.5q0 -21 -8.5 -29.5t-24.5 -8.5q-13 0 -22.5 9.5t-9.5 26.5q0 18 12 33t30.5 26t40.5 17.5t43 6.5q55 0 85 -29.5t30 -59.5q0 -13 -5.5 -27t-24 -34t-55 -47.5t-98.5 -66.5
l-62 -39h179l-13 -57h-222z" />
    <glyph glyph-name="threeinferior" unicode="&#x2083;" horiz-adv-x="375" 
d="M83 -160q-17 0 -36.5 4t-35.5 11.5t-27 20t-11 30.5q0 14 9.5 23t22.5 9q11 0 18 -7t16 -32q5 -14 14.5 -26.5t28.5 -12.5q37 0 62 24.5t25 61.5q0 21 -9.5 34.5t-23.5 22t-30.5 11.5t-30.5 3l-1 7q62 14 101.5 39.5t39.5 66.5q0 24 -13 40t-39 16q-28 0 -44 -15.5
t-17 -36.5q-1 -22 -11.5 -31.5t-24.5 -9.5q-11 0 -21 8t-10 22q0 18 12.5 33.5t31.5 26.5t42 17t45 6q49 0 81 -24.5t32 -57.5q0 -28 -29 -52.5t-89 -37.5q36 -10 55.5 -30.5t19.5 -48.5q0 -44 -44 -80t-109 -35z" />
    <glyph glyph-name="fourinferior" unicode="&#x2084;" horiz-adv-x="387" 
d="M258 -62h-66l-24 -88h-60l24 88h-158l6 36l222 223h59l-59 -219h66zM11 -22h131l49 181z" />
    <glyph glyph-name="euro" unicode="&#x20ac;" horiz-adv-x="630" 
d="M319 -14q-49 0 -90 15.5t-70.5 47t-46.5 79t-17 110.5q0 12 1 24.5t2 24.5h-84l13 39h77q3 17 8 34.5t11 33.5h-74l13 39h76q27 61 68 113.5t89.5 90.5t102 60t106.5 22q40 0 83.5 -9t81.5 -23l-40 -197h-30v85q0 57 -22.5 82t-82.5 25q-38 0 -75.5 -19t-70.5 -52
t-61 -79t-47 -99h282l-13 -39h-282q-5 -16 -9 -33.5t-7 -34.5h275l-14 -39h-267q-2 -17 -3 -35t-1 -35q0 -84 34 -139t86 -55q39 0 73 17t61 45t48.5 65t36.5 76h30l-55 -201q-47 -18 -101.5 -28.5t-94.5 -10.5z" />
    <glyph glyph-name="numero" unicode="&#x2116;" horiz-adv-x="1149" 
d="M300 619l-155 -574l100 -18l-7 -27h-243l7 27l103 18l165 615l-100 18l7 27h192l262 -552l135 507l-100 18l7 27h243l-7 -27l-103 -18l-178 -674h-28zM987 277q-19 0 -41 9t-36.5 28.5t-18.5 52.5t11 80q12 36 34.5 70t50 59.5t57.5 41.5t57 16q20 0 41.5 -7.5t36 -23.5
t19.5 -43t-8 -66q-10 -32 -32 -70.5t-50 -70.5t-60 -54t-61 -22zM990 300q21 0 39.5 16.5t34.5 43.5t29.5 61t24.5 69q25 75 10.5 98t-36.5 23t-40.5 -16.5t-34 -43.5t-29 -61t-24.5 -68q-21 -65 -12 -93.5t38 -28.5z" />
    <glyph glyph-name="published" unicode="&#x2117;" horiz-adv-x="857" 
d="M376 -14q-61 0 -111.5 20t-86 56.5t-55 87.5t-19.5 112q0 85 36 163.5t96.5 138.5t141.5 95.5t169 35.5q61 0 111.5 -20t86.5 -56.5t55.5 -87.5t19.5 -112q0 -85 -36 -164t-97 -138.5t-142 -95t-169 -35.5zM377 28q82 0 155 33.5t126.5 88.5t85 127.5t31.5 148.5
q0 50 -17 91.5t-47 71.5t-72.5 47t-92.5 17q-82 0 -155 -33t-126.5 -87.5t-84.5 -126.5t-31 -149q0 -50 16.5 -92t46.5 -72.5t72.5 -47.5t92.5 -17zM255 184l28 3q10 1 16 10.5t11 25.5l74 226q4 15 4.5 25t-9.5 11l-26 3l5 14h151q59 0 96 -20t37 -57q0 -42 -56.5 -79.5
t-178.5 -42.5l-27 -80q-4 -14 -4.5 -24.5t8.5 -11.5l27 -3l-5 -14h-156zM461 472l-47 -142q46 2 75.5 12t46 23t22.5 27.5t6 26.5q0 28 -19 40.5t-53 12.5h-31z" />
    <glyph glyph-name="trademark" unicode="&#x2122;" horiz-adv-x="1063" 
d="M691 652l-93 -276l63 -9l-5 -14h-153l5 14l65 9l103 307l-63 9l5 13h126l57 -277l239 277h130l-5 -13l-65 -9l-103 -307l63 -9l-5 -14h-193l5 14l65 9l94 277l-267 -307h-5zM174 367l65 9l105 312h-83q-25 0 -44.5 -12.5t-41.5 -52.5l-19 -34h-17l38 116h398l-39 -116
h-17l4 53q2 26 -8 36t-34 10h-72l-105 -312l63 -9l-5 -14h-193z" />
    <glyph glyph-name="Omega" unicode="&#x2126;" horiz-adv-x="837" 
d="M40 89h193q-54 46 -84 110.5t-30 134.5q0 65 37.5 133t98 123.5t138 91.5t156.5 36q58 0 106.5 -22t83 -59t53.5 -85t19 -100q0 -53 -21 -105.5t-58 -100t-88.5 -88t-113.5 -69.5h186l-27 -89h-267l17 53h-1l4 11q53 32 102.5 80t87.5 105.5t61 122t23 128.5
q0 87 -43 136t-128 49q-62 0 -121 -31t-104.5 -83t-73.5 -121.5t-28 -146.5q0 -60 15.5 -124t56.5 -115l-20 -64h-257z" />
    <glyph glyph-name="leftArrow" unicode="&#x2190;" horiz-adv-x="1034" 
d="M46 241l193 155l-30 -122h788l-18 -66h-787l-30 -122z" />
    <glyph glyph-name="upArrow" unicode="&#x2191;" horiz-adv-x="391" 
d="M327 701l120 -152l-126 2l-203 -760h-69l204 761l-125 3z" />
    <glyph glyph-name="rightArrow" unicode="&#x2192;" horiz-adv-x="1034" 
d="M57 274h787l30 122l116 -155l-193 -155l30 122h-788z" />
    <glyph glyph-name="downArrow" unicode="&#x2193;" horiz-adv-x="391" 
d="M69 -209l-120 152l126 -2l203 760h69l-204 -761l125 -3z" />
    <glyph glyph-name="northWestArrow" unicode="&#x2196;" horiz-adv-x="857" 
d="M177 705l243 -49l-113 -55l507 -604l-62 -28l-506 602l-113 -55z" />
    <glyph glyph-name="northEastArrow" unicode="&#x2197;" horiz-adv-x="612" 
d="M614 705l44 -189l-113 55l-506 -602l-62 28l507 604l-113 55z" />
    <glyph glyph-name="southEastArrow" unicode="&#x2198;" horiz-adv-x="907" 
d="M785 0l-243 49l113 55l-507 604l62 28l506 -602l113 55z" />
    <glyph glyph-name="southWestArrow" unicode="&#x2199;" horiz-adv-x="622" 
d="M53 0l-44 189l113 -55l506 602l62 -28l-507 -604l113 -55z" />
    <glyph glyph-name="partialdiff" unicode="&#x2202;" horiz-adv-x="665" 
d="M292 -14q-48 0 -86 17t-64 45.5t-39.5 66.5t-13.5 79q0 54 19 100.5t52 81t78.5 54t97.5 19.5q58 0 110.5 -36t69.5 -104q30 91 35.5 177t-12.5 152t-58 106t-99 40q-31 0 -47 -14.5t-27 -32t-23 -32t-36 -14.5q-18 0 -29 11t-11 28q0 33 39.5 60t117.5 27
q60 0 111.5 -25.5t88.5 -71t58 -109.5t21 -141q0 -94 -29.5 -182t-78 -155t-112.5 -107t-133 -40zM284 19q49 0 108 52.5t110 186.5q-5 25 -16 49.5t-28 43.5t-40 30.5t-52 11.5q-36 0 -70 -20.5t-59.5 -54.5t-41 -78.5t-15.5 -91.5q0 -65 28 -97t76 -32z" />
    <glyph glyph-name="Delta" unicode="&#x2206;" horiz-adv-x="722" 
d="M503 704l136 -704h-640zM586 45l-106 555l-396 -555h502z" />
    <glyph glyph-name="product" unicode="&#x220f;" horiz-adv-x="880" 
d="M-26 -163l103 16l216 809l-93 16l7 27h729l-7 -27l-103 -16l-216 -809l93 -16l-7 -27h-292l7 27l103 16l217 812h-341l-217 -812l93 -16l-7 -27h-292z" />
    <glyph glyph-name="summation" unicode="&#x2211;" horiz-adv-x="724" 
d="M321 254l-139 451h613l-45 -202h-28l-1 60q-1 60 -16 81t-55 21h-359l119 -384l-401 -392h367q59 0 92 17t73 84l43 71h27l-86 -251h-659z" />
    <glyph glyph-name="minus" unicode="&#x2212;" 
d="M121 320h456l-16 -67h-456z" />
    <glyph glyph-name="radical" unicode="&#x221a;" horiz-adv-x="642" 
d="M793 905l-437 -946l-116 494l-105 -14l8 34l182 24l78 -333l349 754z" />
    <glyph glyph-name="infinity" unicode="&#x221e;" horiz-adv-x="1029" 
d="M250 71q-75 0 -120 45.5t-45 116.5q0 49 23.5 96.5t60.5 83.5t84 58.5t94 22.5t80.5 -12.5t58 -33.5t41.5 -48.5t31 -56.5q50 69 123.5 112.5t144.5 43.5q76 0 117.5 -48t41.5 -114q0 -50 -23.5 -97t-60 -83.5t-83 -58.5t-92.5 -22q-48 0 -82.5 13t-59 34t-41.5 49
t-31 58q-22 -32 -51.5 -61t-64 -50.5t-72 -34.5t-74.5 -13zM118 242q0 -37 38.5 -61.5t105.5 -24.5q72 0 134.5 31t101.5 74q-13 30 -27.5 59t-34 51t-46.5 35.5t-65 13.5q-43 0 -81 -13t-66 -36.5t-44 -56.5t-16 -72zM814 414q-63 0 -128.5 -23t-114.5 -78q14 -31 28 -60
t33 -51.5t46 -36.5t66 -14q44 0 82 13t66 36.5t44.5 56.5t16.5 72q0 40 -39.5 62.5t-99.5 22.5z" />
    <glyph glyph-name="integral" unicode="&#x222b;" horiz-adv-x="388" 
d="M-59 -182q-49 0 -78.5 18.5t-29.5 50.5q0 16 12.5 31t31.5 15t28.5 -11.5t17.5 -25.5t19 -25.5t33 -11.5q24 0 50 14t36 49l196 697q13 47 36.5 89.5t54.5 74t71 50t86 18.5q61 0 102 -21.5t41 -51.5q0 -19 -13 -32.5t-35 -13.5t-31.5 13.5t-17.5 29t-20.5 29t-39.5 13.5
q-40 0 -68.5 -26t-46.5 -93l-190 -665q-16 -55 -43 -95.5t-60 -67t-70 -39.5t-72 -13z" />
    <glyph glyph-name="approxequal" unicode="&#x2248;" 
d="M125 377l12 12t33 27t51.5 27t67.5 12q30 0 50 -10.5t36.5 -23t34 -23t42.5 -10.5q27 0 51.5 11t43 23.5t29.5 23.5l11 11l19 -57l-11.5 -12.5t-33 -27t-52 -27t-67.5 -12.5q-30 0 -50 10.5t-37 23t-34.5 23t-42.5 10.5q-27 0 -51.5 -11t-43 -23.5t-29 -23.5l-10.5 -11z
M74 170l12 12t33 27t51.5 27t67.5 12q30 0 50 -10.5t36.5 -23t34 -23t42.5 -10.5q27 0 51.5 11t43 23.5t29.5 23.5l11 11l19 -57l-11.5 -12.5t-33 -27t-52 -27t-67.5 -12.5q-30 0 -50 10.5t-37 23t-34.5 23t-42.5 10.5q-27 0 -51.5 -11t-43 -23.5t-29 -23.5l-10.5 -11z" />
    <glyph glyph-name="notequal" unicode="&#x2260;" 
d="M177 0l75 149h-176l16 67h194l70 140h-229l17 67h246l82 163l42 -14l-75 -149h166l-17 -67h-183l-70 -140h218l-16 -67h-236l-82 -163z" />
    <glyph glyph-name="lessequal" unicode="&#x2264;" 
d="M106 391l568 288l-22 -84l-421 -213l304 -217l-17 -68zM49 67h460l-17 -67h-461z" />
    <glyph glyph-name="greaterequal" unicode="&#x2265;" 
d="M641 385l-568 -288l22 84l421 213l-304 217l17 68zM66 67h460l-17 -67h-461z" />
    <glyph glyph-name="BlackSquare" unicode="&#x25a0;" horiz-adv-x="820" 
d="M184 681h681l-182 -681h-681z" />
    <glyph glyph-name="UpTriangle" unicode="&#x25b2;" horiz-adv-x="768" 
d="M462 617l184 -617h-698z" />
    <glyph glyph-name="RightTriangle" unicode="&#x25ba;" horiz-adv-x="722" 
d="M185 684l524 -349l-711 -349z" />
    <glyph glyph-name="DownTriangle" unicode="&#x25bc;" horiz-adv-x="768" 
d="M169 681h698l-514 -617z" />
    <glyph glyph-name="LeftTriangle" unicode="&#x25c0;" horiz-adv-x="722" 
d="M57 335l711 349l-188 -698z" />
    <glyph glyph-name="Diamond" unicode="&#x25c6;" horiz-adv-x="660" 
d="M24 233l415 449l175 -449l-415 -449z" />
    <glyph glyph-name="lozenge" unicode="&#x25ca;" horiz-adv-x="576" 
d="M114 353l301 331l123 -331l-301 -333z" />
    <glyph glyph-name="BlackCircle" unicode="&#x25cf;" horiz-adv-x="865" 
d="M396 -14q-63 0 -116.5 21.5t-92 59.5t-60.5 90.5t-22 114.5q0 80 36 156.5t96 135t138 94.5t162 36q62 0 115.5 -21.5t92 -59t60.5 -90t22 -114.5q0 -80 -36.5 -156.5t-96 -135.5t-137.5 -95t-161 -36z" />
    <glyph glyph-name="HeavyBlackHeart" unicode="&#x2764;" horiz-adv-x="1035" 
d="M422 -156q-25 46 -46.5 79.5t-44.5 64.5t-49.5 64.5t-61.5 78.5q-58 75 -92 141t-34 138q0 54 22 104t57.5 87t82 59t95.5 22q87 -1 133.5 -64t60.5 -188q48 78 91 127t82.5 76.5t79.5 38t82 10.5q40 0 73 -15t56 -41.5t35.5 -61.5t12.5 -74q0 -58 -20.5 -108
t-55.5 -93.5t-83.5 -82.5t-104.5 -77q-65 -44 -114.5 -78.5t-91.5 -66t-81.5 -65t-83.5 -75.5z" />
    <glyph glyph-name="idotaccent" horiz-adv-x="321" 
d="M278 589q-23 0 -36 14.5t-13 36.5q0 31 18.5 54.5t45.5 23.5q22 0 36.5 -13.5t14.5 -34.5q0 -32 -20 -56.5t-46 -24.5zM117 -14q-37 0 -53.5 23t-4.5 59l105 323q6 19 -0.5 30t-19.5 11q-6 0 -14.5 -3t-20 -14.5t-28.5 -35t-39 -64.5l-13 14q22 52 45 83.5t44.5 48.5
t40.5 22.5t35 5.5q39 0 58 -26t0 -83l-98 -302q-6 -19 1.5 -25t18.5 -6q21 0 48.5 27.5t55.5 84.5l13 -9q-31 -82 -75 -123t-99 -41z" />
    <glyph glyph-name="a.ordn" horiz-adv-x="402" 
d="M148 277q-33 0 -50 22t-17 53q0 42 27 91.5t65 91.5t79 70.5t69 28.5q23 0 33 -13t9 -36l13 39l68 10l-95 -292q-4 -13 1 -17.5t13 -4.5q15 0 34.5 20t39.5 60l9 -6q-22 -59 -53 -88t-71 -29q-26 0 -37.5 16.5t-3.5 41.5l29 90q-28 -48 -49.5 -77t-40 -45t-35.5 -21
t-37 -5zM149 355q0 -14 6.5 -27.5t22.5 -13.5q7 0 17 3t26 16.5t40.5 43t59.5 81.5l28 84q9 39 -2 54t-27 15q-23 0 -53 -27.5t-56 -67t-44 -84t-18 -77.5z" />
    <glyph glyph-name="d.ordn" horiz-adv-x="398" 
d="M148 277q-33 0 -50 22t-17 53q0 42 27 91.5t65 91.5t79 70.5t69 28.5q23 0 33 -13t9 -37l65 202l-78 9l1 5l155 23l-157 -481q-4 -13 1.5 -17.5t13.5 -4.5q14 0 33.5 20t39.5 60l10 -6q-22 -59 -53 -88t-71 -29q-26 0 -37.5 16.5t-3.5 41.5l30 92q-29 -49 -51 -78.5
t-40 -45.5t-35.5 -21t-37.5 -5zM149 355q0 -14 6.5 -27.5t22.5 -13.5q7 0 17 3t26 17t41 43t60 82l27 83q9 39 -2 54t-27 15q-23 0 -53 -27.5t-56 -67t-44 -84t-18 -77.5z" />
    <glyph glyph-name="e.ordn" horiz-adv-x="313" 
d="M182 277q-39 0 -67.5 24.5t-28.5 72.5q0 44 20 90t50 83.5t66.5 62t69.5 24.5q36 0 58 -21.5t9 -64.5q-10 -31 -57 -61.5t-141 -61.5q-11 -59 4.5 -80.5t40.5 -21.5t53 19.5t52 71.5l10 -3q-18 -68 -55.5 -101t-83.5 -33zM176 481q-4 -11 -7 -21t-5 -20q72 35 107.5 68
t35.5 68q0 17 -8 26t-21 9q-32 0 -57.5 -35.5t-44.5 -94.5z" />
    <glyph glyph-name="g.ordn" horiz-adv-x="449" 
d="M164 90q-65 0 -98 27.5t-30 60.5q2 28 25.5 50.5t81.5 44.5q-34 2 -46 22.5t-3 43.5q7 18 35.5 33.5t76.5 18.5q-30 11 -42.5 35.5t-12.5 46.5q0 27 17.5 56t43.5 52t57.5 38t58.5 15q26 0 53 -12.5t40 -37.5q10 34 29 54t44 20q16 0 27.5 -9.5t11.5 -24.5t-10 -25
t-22 -10q-11 0 -21.5 6.5t-20.5 6.5q-13 0 -21 -17t-10 -35q-1 -31 -15.5 -60t-39.5 -52t-59.5 -38.5t-75.5 -19.5q-63 -6 -78 -17.5t-15 -17.5t3.5 -9.5t12.5 -3.5h116q54 0 83.5 -27.5t29.5 -66.5q0 -28 -18 -55t-48.5 -47.5t-71.5 -33t-88 -12.5zM250 404q22 0 41 14
t34 34.5t25 45.5t14 47q6 38 -6.5 54t-35.5 16q-27 0 -54 -23.5t-48 -90.5q-13 -43 -4 -70t34 -27zM96 181q0 -24 20.5 -45.5t66.5 -21.5q64 0 107.5 33t43.5 74q0 19 -11.5 35t-43.5 16h-103q-51 -27 -65.5 -50.5t-14.5 -40.5z" />
    <glyph glyph-name="l.ordn" horiz-adv-x="192" 
d="M119 277q-27 0 -38.5 16.5t-3.5 41.5l147 451l-79 9l1 5l155 23l-156 -481q-4 -13 1 -17.5t13 -4.5q15 0 34.5 20t39.5 60l9 -6q-22 -59 -53 -88t-70 -29z" />
    <glyph glyph-name="m.ordn" horiz-adv-x="579" 
d="M186 565q4 13 -0.5 21t-13.5 8q-8 0 -24.5 -13t-47.5 -70l-9 10q31 73 63 93t54 20q28 0 41 -18.5t0 -58.5l-24 -75q34 78 66.5 115t75.5 37q36 0 51.5 -24.5t4.5 -58.5l-22 -67q34 77 66 113.5t75 36.5q36 0 51.5 -24.5t4.5 -58.5l-68 -209q-4 -13 1.5 -17.5t12.5 -4.5
q15 0 34.5 20t39.5 60l9 -6q-22 -59 -53 -88t-70 -29q-27 0 -38.5 16.5t-2.5 41.5l71 218q7 24 0 34t-22 10q-27 0 -57.5 -42.5t-70.5 -123.5l-47 -144h-65l86 266q8 24 0.5 34t-21.5 10q-27 0 -58 -43t-71 -125l-46 -142h-66z" />
    <glyph glyph-name="o.ordn" horiz-adv-x="347" 
d="M185 277q-19 0 -41 9t-36.5 28.5t-18.5 52.5t11 80q12 36 34.5 70t50 59.5t57.5 41.5t57 16q20 0 41.5 -7.5t36 -23.5t19.5 -43t-8 -66q-10 -32 -32 -70.5t-50 -70.5t-60 -54t-61 -22zM188 300q21 0 39.5 16.5t34.5 43.5t29.5 61t24.5 69q25 75 10.5 98t-36.5 23
t-40.5 -16.5t-34 -43.5t-29 -61t-24.5 -68q-21 -65 -12 -93.5t38 -28.5z" />
    <glyph glyph-name="r.ordn" horiz-adv-x="343" 
d="M186 565q4 13 -0.5 21t-13.5 8q-8 0 -24.5 -13t-47.5 -70l-9 10q31 73 63 93t54 20q28 0 41 -18.5t0 -58.5l-28 -88q37 96 73 130.5t69 34.5q22 0 35.5 -12.5t13.5 -28.5q0 -17 -10.5 -26.5t-23.5 -9.5q-19 0 -29.5 15.5t-27.5 15.5q-7 0 -17.5 -7.5t-25 -28.5
t-34.5 -59.5t-48 -99.5l-34 -106h-66z" />
    <glyph glyph-name="s.ordn" horiz-adv-x="280" 
d="M153 277q-30 0 -50 8t-32 19.5t-16.5 24t-4.5 21.5q0 13 8 22t21 9q16 0 22.5 -11t10.5 -35q2 -15 11 -26.5t34 -11.5q26 0 44 17t18 45q0 15 -6 27.5t-20 31.5l-36 47q-21 28 -23 58t9.5 54.5t36 40.5t57.5 16q36 0 65.5 -17t29.5 -45q0 -13 -8.5 -22.5t-22.5 -9.5
t-20 11.5t-12 25.5t-14.5 25.5t-26.5 11.5q-22 0 -37.5 -13.5t-15.5 -33.5q0 -12 4.5 -24t23.5 -34l36 -43q14 -16 25.5 -35.5t11.5 -43.5q0 -25 -11 -45.5t-28.5 -34.5t-39.5 -22t-44 -8z" />
    <glyph glyph-name="t.ordn" horiz-adv-x="254" 
d="M136 277q-28 0 -40.5 17.5t0.5 58.5l82 250h-66l7 21h66l20 61l79 43l-34 -104h86l-7 -21h-86l-85 -261q-4 -11 0 -16.5t14 -5.5q13 0 26 11.5t25.5 29t24 40t21.5 43.5l12 -8q-28 -83 -65 -121t-80 -38z" />
    <glyph glyph-name="caron.alt" horiz-adv-x="639" 
d="M364 507q10 19 22 44t22 51t16.5 52.5t6.5 48.5q0 10 -2 19.5t-7 19.5q13 4 25 6.5t25 2.5q24 0 40 -13t16 -37q0 -37 -39.5 -84t-123.5 -111z" />
    <glyph glyph-name="revcommaaccent" horiz-adv-x="470" 
d="M472 739q-20 -2 -40 -8.5t-36 -15t-26 -19t-10 -20.5q0 -13 11 -20.5t23.5 -15.5t23.5 -19t11 -29q0 -23 -18.5 -37.5t-46.5 -14.5q-33 0 -55 24t-22 64q0 32 15.5 56t40.5 40.5t58.5 26t69.5 12.5z" />
    <glyph glyph-name="slashlongcomb.case" horiz-adv-x="600" 
d="M94 -32l450 796l39 -22l-450 -796z" />
    <glyph glyph-name="commaturnedabove" horiz-adv-x="600" 
d="M472 739q-20 -2 -40 -8.5t-36 -15t-26 -19t-10 -20.5q0 -13 11 -20.5t23.5 -15.5t23.5 -19t11 -29q0 -23 -18.5 -37.5t-46.5 -14.5q-33 0 -55 24t-22 64q0 32 15.5 56t40.5 40.5t58.5 26t69.5 12.5z" />
    <glyph glyph-name="acutecomb.case" horiz-adv-x="600" 
d="M340 584l85 177h137l-198 -189z" />
    <glyph glyph-name="brevecomb.case" horiz-adv-x="600" 
d="M419 586q-29 0 -52.5 11t-37 30t-15 46.5t13.5 60.5h19q-13 -46 13.5 -64t75.5 -18q39 0 80 19.5t70 62.5h19q-17 -69 -68.5 -108.5t-117.5 -39.5z" />
    <glyph glyph-name="caroncomb.case" horiz-adv-x="600" 
d="M616 744l-171 -145h-60l-109 145l19 5l128 -84l173 84z" />
    <glyph glyph-name="circumflexcomb.case" horiz-adv-x="600" 
d="M246 594l171 145h60l109 -145l-19 -5l-128 84l-173 -84z" />
    <glyph glyph-name="commaaccentcomb.case" horiz-adv-x="470" 
d="M6 -241q20 2 40 8.5t36 15t26 19t10 20.5q0 13 -11 20.5t-23.5 15.5t-23.5 19t-11 29q0 23 18.5 37.5t46.5 14.5q33 0 55 -24t22 -64q0 -32 -15.5 -56t-40.5 -40.5t-58.5 -26t-69.5 -12.5z" />
    <glyph glyph-name="commaturnedabovecomb.case" horiz-adv-x="470" 
d="M480 765q-20 -2 -40 -8.5t-36 -15t-26 -19t-10 -20.5q0 -13 11 -20.5t23.5 -15.5t23.5 -19t11 -29q0 -23 -18.5 -37.5t-46.5 -14.5q-33 0 -55 24t-22 64q0 32 15.5 56t40.5 40.5t58.5 26t69.5 12.5z" />
    <glyph glyph-name="dieresiscomb.case" horiz-adv-x="600" 
d="M515 598q-17 0 -28 12t-11 31q0 27 18.5 45.5t43.5 18.5q17 0 28.5 -12t11.5 -29q0 -29 -19 -47.5t-44 -18.5zM331 598q-17 0 -28 12t-11 31q0 27 18.5 45.5t43.5 18.5q17 0 28.5 -12t11.5 -29q0 -29 -19 -47.5t-44 -18.5z" />
    <glyph glyph-name="dotaccentcomb.case" horiz-adv-x="600" 
d="M418 595q-22 0 -34 15t-12 37q0 33 20.5 57t51.5 24q21 0 34 -15t13 -37q0 -33 -21.5 -57t-51.5 -24z" />
    <glyph glyph-name="gravecomb.case" horiz-adv-x="600" 
d="M369 761h123l-5 -184h-29z" />
    <glyph glyph-name="hungarumlautcomb.case" horiz-adv-x="600" 
d="M415 580l61 171h134l-181 -178zM250 580l61 171h134l-181 -178z" />
    <glyph glyph-name="macroncomb.case" horiz-adv-x="600" 
d="M301 670h276l-14 -45h-276z" />
    <glyph glyph-name="ringcomb.case" horiz-adv-x="600" 
d="M434 557q-37 0 -65 27t-28 66q0 37 28 65t65 28q39 0 66 -28t27 -65q0 -39 -27 -66t-66 -27zM434 594q23 0 39.5 16.5t16.5 39.5t-16.5 39.5t-39.5 16.5t-39.5 -16.5t-16.5 -39.5t16.5 -39.5t39.5 -16.5z" />
    <glyph glyph-name="slashshortcomb.case" horiz-adv-x="600" 
d="M143 259l135 77l44 30l179 102l23 -45l-194 -111l-42 -29l-122 -70z" />
    <glyph glyph-name="strokeshortcomb.case" horiz-adv-x="600" 
d="M155 386h383l-15 -57h-383z" />
    <glyph glyph-name="tildecomb.case" horiz-adv-x="631" 
d="M291 588q13 74 47.5 102t71.5 28q24 0 41.5 -7t31.5 -15t26 -15t26 -7q19 0 40.5 12t34.5 52l12 -4q-13 -74 -47.5 -102.5t-73.5 -28.5q-22 0 -38.5 6.5t-30.5 15t-26.5 15t-27.5 6.5q-17 0 -41 -13t-34 -50z" />
    <glyph glyph-name="f_b" horiz-adv-x="808" 
d="M-165 -282q-53 0 -79.5 16t-26.5 44q0 19 12.5 30.5t28.5 11.5q17 0 27 -10.5t19.5 -23t22.5 -23t37 -10.5q45 0 84.5 53.5t64.5 148.5l125 490h-99l10 30h97q38 137 115 206.5t179 69.5q39 0 64.5 -8.5t39.5 -20.5l92 33l-139 -432q48 100 86.5 133t86.5 33
q15 0 35 -7.5t37.5 -23t29.5 -39.5t12 -57q0 -50 -29.5 -115.5t-74.5 -123t-99 -97.5t-103 -40q-28 0 -48 11t-31 39l-102 -50l214 661q-14 3 -23 15.5t-19 25.5t-25 24t-40 11q-36 0 -72 -29.5t-55 -95.5l-36 -123h134l-10 -30h-132l-127 -439q-18 -62 -46 -115t-64 -91
t-80 -60t-93 -22zM659 456q-15 0 -29.5 -7t-35 -33.5t-50 -78t-75.5 -139.5l-43 -132q10 -26 26.5 -36t42.5 -10q56 0 99.5 64.5t91.5 213.5q15 46 16 77t-5 48.5t-17 25t-21 7.5z" />
    <glyph glyph-name="f_f_b" horiz-adv-x="1118" 
d="M145 -282q-68 0 -102 22t-34 50q0 4 0.5 7.5t1.5 6.5q-36 -40 -80.5 -63t-95.5 -23q-53 0 -79.5 16t-26.5 44q0 19 12.5 30.5t28.5 11.5q17 0 27 -10.5t19.5 -23t22.5 -23t37 -10.5q45 0 84.5 53.5t64.5 148.5l125 490h-99l10 30h97q38 137 115 206.5t179 69.5
q66 0 94.5 -22t28.5 -40q0 -5 -1 -9.5t-2 -8.5q39 40 87 60t103 20q39 0 64.5 -8.5t39.5 -20.5l92 33l-139 -432q48 100 86.5 133t86.5 33q15 0 35 -7.5t37.5 -23t29.5 -39.5t12 -57q0 -50 -29.5 -115.5t-74.5 -123t-99 -97.5t-103 -40q-28 0 -48 11t-31 39l-102 -50
l214 661q-14 3 -23 15.5t-19 25.5t-25 24t-40 11q-36 0 -72 -29.5t-55 -95.5l-36 -123h134l-10 -30h-132l-127 -439q-18 -62 -46 -115t-64 -91t-80 -60t-93 -22zM289 598l-36 -123h215q15 55 37 99.5t49 77.5q-5 -3 -11 -4.5t-13 -1.5q-16 0 -26 12t-20.5 26.5t-25.5 26.5
t-42 12q-36 0 -72 -29.5t-55 -95.5zM969 456q-15 0 -29.5 -7t-35 -33.5t-50 -78t-75.5 -139.5l-43 -132q10 -26 26.5 -36t42.5 -10q56 0 99.5 64.5t91.5 213.5q15 46 16 77t-5 48.5t-17 25t-21 7.5zM335 -45l125 490h-215l-127 -439q-16 -51 -38 -97t-50 -82q4 2 9.5 3.5
t10.5 1.5q17 0 28.5 -13t24 -28.5t29 -28.5t43.5 -13q50 0 92.5 54.5t67.5 151.5z" />
    <glyph glyph-name="f_h" horiz-adv-x="852" 
d="M-165 -282q-53 0 -79.5 16t-26.5 44q0 19 12.5 30.5t28.5 11.5q17 0 27 -10.5t19.5 -23t22.5 -23t37 -10.5q45 0 84.5 53.5t64.5 148.5l125 490h-99l10 30h97q38 137 115 206.5t179 69.5q38 0 64 -8.5t39 -19.5l92 32l-148 -455q48 93 96.5 141t105.5 48q51 0 73.5 -34.5
t6.5 -82.5l-96 -294q-6 -19 1.5 -25t18.5 -6q21 0 48.5 27.5t55.5 84.5l13 -9q-31 -82 -75 -123t-99 -41q-37 0 -53.5 23t-4.5 59l100 306q11 34 0.5 48t-30.5 14q-35 0 -81 -50.5t-97 -139.5l-80 -246h-92l211 647q-13 4 -21.5 16.5t-19 25.5t-25 23.5t-39.5 10.5
q-36 0 -72 -29.5t-55 -95.5l-36 -123h134l-10 -30h-132l-127 -439q-18 -62 -46 -115t-64 -91t-80 -60t-93 -22z" />
    <glyph glyph-name="f_f_h" horiz-adv-x="1162" 
d="M145 -282q-68 0 -102 22t-34 50q0 4 0.5 7t1.5 7q-37 -40 -81.5 -63t-94.5 -23q-53 0 -79.5 16t-26.5 44q0 19 12.5 30.5t28.5 11.5q17 0 27 -10.5t19.5 -23t22.5 -23t37 -10.5q45 0 84.5 53.5t64.5 148.5l125 490h-99l10 30h97q38 137 115 206.5t179 69.5q66 0 94.5 -22
t28.5 -40q0 -5 -1 -9.5t-2 -8.5q39 40 87 60t103 20q38 0 64 -8.5t39 -19.5l92 32l-148 -455q48 93 96.5 141t105.5 48q51 0 73.5 -34.5t6.5 -82.5l-96 -294q-6 -19 1.5 -25t18.5 -6q21 0 48.5 27.5t55.5 84.5l13 -9q-31 -82 -75 -123t-99 -41q-37 0 -53.5 23t-4.5 59
l100 306q11 34 0.5 48t-30.5 14q-35 0 -81 -50.5t-97 -139.5l-80 -246h-92l211 647q-13 4 -21.5 16.5t-19 25.5t-25 23.5t-39.5 10.5q-36 0 -72 -29.5t-55 -95.5l-36 -123h134l-10 -30h-132l-127 -439q-18 -62 -46 -115t-64 -91t-80 -60t-93 -22zM289 598l-36 -123h215
q15 55 37 99.5t49 77.5q-5 -3 -11 -4.5t-13 -1.5q-16 0 -26 12t-20.5 26.5t-25.5 26.5t-42 12q-36 0 -72 -29.5t-55 -95.5zM335 -45l125 490h-215l-127 -439q-15 -51 -37 -97t-50 -82q4 2 9 3.5t10 1.5q18 0 29 -13t23 -28.5t28.5 -28.5t44.5 -13q49 0 92 53.5t68 152.5z
" />
    <glyph glyph-name="f_j" horiz-adv-x="539" 
d="M143 -282q-41 0 -62 20.5t-21 39.5q0 16 11.5 29t30.5 13q13 0 23.5 -9.5t20 -21t19.5 -21t23 -9.5q21 0 45.5 26t39.5 76l174 584h-202l-127 -439q-18 -62 -46 -115t-64 -91t-80 -60t-93 -22q-53 0 -79.5 16t-26.5 44q0 19 12.5 30.5t28.5 11.5q17 0 27 -10.5t19.5 -23
t22.5 -23t37 -10.5q45 0 84.5 53.5t64.5 148.5l125 490h-99l10 30h97q36 137 109.5 206.5t171.5 69.5q28 0 54.5 -8t46.5 -21t32.5 -30t12.5 -34t-13 -29.5t-32 -12.5q-21 0 -31.5 17t-21 36.5t-25.5 36.5t-46 17q-36 0 -72 -29.5t-55 -95.5l-36 -123h295l-161 -490
q-24 -72 -54 -123t-62.5 -83t-65.5 -46.5t-62 -14.5z" />
    <glyph glyph-name="f_f_j" horiz-adv-x="849" 
d="M145 -282q-68 0 -102 22t-34 50q0 4 0.5 7.5t1.5 6.5q-36 -40 -80.5 -63t-95.5 -23q-53 0 -79.5 16t-26.5 44q0 19 12.5 30.5t28.5 11.5q17 0 27 -10.5t19.5 -23t22.5 -23t37 -10.5q45 0 84.5 53.5t64.5 148.5l125 490h-99l10 30h97q38 137 115 206.5t179 69.5
q66 0 94.5 -22t28.5 -40v-5.5t-1 -5.5q36 37 80.5 55t94.5 18q28 0 54.5 -8t46.5 -21t32.5 -30t12.5 -34t-13 -29.5t-32 -12.5q-21 0 -31.5 17t-21 36.5t-25.5 36.5t-46 17q-36 0 -72 -29.5t-55 -95.5l-36 -123h295l-161 -490q-24 -72 -54 -123t-62.5 -83t-65.5 -46.5
t-62 -14.5q-41 0 -62 20.5t-21 39.5q0 16 11.5 29t30.5 13q13 0 23.5 -9.5t20 -21t19.5 -21t23 -9.5q21 0 45.5 26t39.5 76l174 584h-202l-127 -439q-18 -62 -46 -115t-64 -91t-80 -60t-93 -22zM289 598l-36 -123h215q14 54 34.5 97.5t45.5 76.5q-4 -1 -8.5 -2t-9.5 -1
q-16 0 -26 12t-20.5 26.5t-25.5 26.5t-42 12q-36 0 -72 -29.5t-55 -95.5zM335 -45l125 490h-215l-127 -439q-15 -51 -37.5 -97t-50.5 -82q4 2 9.5 3.5t9.5 1.5q17 0 29 -13t24.5 -28.5t29.5 -28.5t43 -13q50 0 92.5 54.5t67.5 151.5z" />
    <glyph glyph-name="f_k" horiz-adv-x="853" 
d="M-165 -282q-53 0 -79.5 16t-26.5 44q0 19 12.5 30.5t28.5 11.5q17 0 27 -10.5t19.5 -23t22.5 -23t37 -10.5q45 0 84.5 53.5t64.5 148.5l125 490h-99l10 30h97q38 137 115 206.5t179 69.5q39 0 64.5 -8.5t39.5 -19.5l92 32l-144 -445q77 104 136 141.5t102 37.5
q37 0 58 -18t21 -40q0 -24 -14.5 -37.5t-33.5 -13.5q-13 0 -23 7t-19 15.5t-19 15.5t-24 7q-26 0 -62 -25t-109 -109q25 16 44.5 21t35.5 5q51 0 77 -31t20 -85l-12 -107q-3 -28 4 -37.5t20 -9.5q20 0 49 29t55 83l13 -9q-29 -81 -72.5 -122.5t-97.5 -41.5q-40 0 -53 22
t-9 54l15 146q4 40 -8 56t-38 16q-15 0 -32 -5.5t-44 -24.5l-81 -250h-92l211 647q-13 3 -22 15.5t-19.5 26t-25 24t-39.5 10.5q-36 0 -72 -29.5t-55 -95.5l-36 -123h134l-10 -30h-132l-127 -439q-18 -62 -46 -115t-64 -91t-80 -60t-93 -22z" />
    <glyph glyph-name="f_f_k" horiz-adv-x="1163" 
d="M145 -282q-69 0 -102.5 22t-33.5 50q0 4 0.5 7.5t1.5 6.5q-36 -40 -80.5 -63t-95.5 -23q-53 0 -79.5 16t-26.5 44q0 19 12.5 30.5t28.5 11.5q17 0 27 -10.5t19.5 -23t22.5 -23t37 -10.5q45 0 84.5 53.5t64.5 148.5l125 490h-99l10 30h97q38 137 115 206.5t179 69.5
q66 0 94.5 -22t28.5 -40q0 -5 -1 -9.5t-2 -8.5q39 40 87 60t103 20q39 0 64.5 -8.5t39.5 -19.5l92 32l-144 -445q77 104 136 141.5t102 37.5q37 0 58 -18t21 -40q0 -24 -14.5 -37.5t-33.5 -13.5q-13 0 -23 7t-19 15.5t-19 15.5t-24 7q-26 0 -62 -25t-109 -109q25 16 44.5 21
t35.5 5q51 0 77 -31t20 -85l-12 -107q-3 -28 4 -37.5t20 -9.5q20 0 49 29t55 83l13 -9q-29 -81 -72.5 -122.5t-97.5 -41.5q-40 0 -53 22t-9 54l15 146q4 40 -8 56t-38 16q-15 0 -32 -5.5t-44 -24.5l-81 -250h-92l211 647q-13 3 -22 15.5t-19.5 26t-25 24t-39.5 10.5
q-36 0 -72 -29.5t-55 -95.5l-36 -123h134l-10 -30h-132l-127 -439q-18 -62 -46 -115t-64 -91t-80 -60t-93 -22zM289 598l-36 -123h215q15 55 37 99.5t49 77.5q-5 -3 -11 -4.5t-13 -1.5q-16 0 -26 12t-20.5 26.5t-25.5 26.5t-42 12q-36 0 -72 -29.5t-55 -95.5zM335 -45
l125 490h-215l-127 -439q-16 -51 -38 -97t-50 -82q4 2 9.5 3.5t10.5 1.5q17 0 28.5 -13t24 -28.5t29 -28.5t44.5 -13q52 0 93 54.5t66 151.5z" />
    <glyph glyph-name="f_t" horiz-adv-x="689" 
d="M-165 -282q-53 0 -79.5 16t-26.5 44q0 19 12.5 30.5t28.5 11.5q17 0 27 -10.5t19.5 -23t22.5 -23t37 -10.5q45 0 84.5 53.5t64.5 148.5l125 490h-99l10 30h97q38 137 115 206.5t179 69.5q66 0 94.5 -22t28.5 -40q0 -19 -13 -31t-32 -12q-16 0 -26 12t-20.5 26.5
t-25.5 26.5t-42 12q-36 0 -72 -29.5t-55 -95.5l-36 -123h134l-10 -30h-132l-127 -439q-18 -62 -46 -115t-64 -91t-80 -60t-93 -22zM438 -14q-40 0 -57.5 24.5t1.5 82.5l115 352h-93l10 30h93l28 86l111 60l-48 -146h122l-10 -30h-121l-120 -367q-5 -16 1 -23.5t19 -7.5
q18 0 36.5 16t36 41t34 56t29.5 61l17 -11q-40 -116 -92 -170t-112 -54z" />
    <glyph glyph-name="f_f_t" horiz-adv-x="1033" 
d="M-165 -282q-53 0 -79.5 16t-26.5 44q0 19 12.5 30.5t28.5 11.5q17 0 27 -10.5t19.5 -23t22.5 -23t37 -10.5q45 0 84.5 53.5t64.5 148.5l125 490h-99l10 30h97q38 137 115 206.5t179 69.5q66 0 94.5 -22t28.5 -40q0 -19 -13 -31t-32 -12q-16 0 -26 12t-20.5 26.5
t-25.5 26.5t-42 12q-36 0 -72 -29.5t-55 -95.5l-36 -123h134l-10 -30h-132l-127 -439q-18 -62 -46 -115t-64 -91t-80 -60t-93 -22zM179 -282q-53 0 -79.5 16t-26.5 44q0 19 12.5 30.5t28.5 11.5q17 0 27 -10.5t19.5 -23t22.5 -23t37 -10.5q45 0 84.5 53.5t64.5 148.5
l125 490h-99l10 30h97q38 137 115 206.5t179 69.5q66 0 94.5 -22t28.5 -40q0 -19 -13 -31t-32 -12q-16 0 -26 12t-20.5 26.5t-25.5 26.5t-42 12q-36 0 -72 -29.5t-55 -95.5l-36 -123h134l-10 -30h-132l-127 -439q-18 -62 -46 -115t-64 -91t-80 -60t-93 -22zM782 -14
q-40 0 -57.5 24.5t1.5 82.5l115 352h-93l10 30h93l28 86l111 60l-48 -146h122l-10 -30h-121l-120 -367q-5 -16 1 -23.5t19 -7.5q18 0 36.5 16t36 41t34 56t29.5 61l17 -11q-40 -116 -92 -170t-112 -54z" />
    <glyph glyph-name="t_t" horiz-adv-x="670" 
d="M94 -14q-40 0 -57.5 24.5t1.5 82.5l115 352h-93l10 30h93l28 86l111 60l-48 -146h234l28 86l111 60l-48 -146h122l-10 -30h-121l-120 -367q-5 -16 1 -23.5t19 -7.5q18 0 36.5 16t36 41t34 56t29.5 61l17 -11q-40 -116 -92 -170t-112 -54q-40 0 -57.5 24.5t1.5 82.5
l115 352h-233l-120 -367q-5 -16 1 -23.5t19 -7.5q18 0 36.5 16t36 41t34 56t29.5 61l17 -11q-40 -116 -92 -170t-112 -54z" />
    <glyph glyph-name="t_f" horiz-adv-x="689" 
d="M94 -14q-40 0 -57.5 24.5t1.5 82.5l115 352h-93l10 30h93l28 86l111 60l-48 -146h122l-10 -30h-121l-120 -367q-5 -16 1 -23.5t19 -7.5q18 0 36.5 16t36 41t34 56t29.5 61l17 -11q-40 -116 -92 -170t-112 -54zM180 -282q-53 0 -79.5 16t-26.5 44q0 19 12.5 30.5
t28.5 11.5q17 0 27 -10.5t19.5 -23t22.5 -23t37 -10.5q45 0 84.5 53.5t64.5 148.5l125 490h-99l10 30h97q38 137 115 206.5t179 69.5q66 0 94.5 -22t28.5 -40q0 -19 -13 -31t-32 -12q-16 0 -26 12t-20.5 26.5t-25.5 26.5t-42 12q-36 0 -72 -29.5t-55 -95.5l-36 -123h134
l-10 -30h-132l-127 -439q-18 -62 -46 -115t-64 -91t-80 -60t-93 -22z" />
    <glyph glyph-name="c_t" horiz-adv-x="734" 
d="M143 -14q-54 0 -94 35t-40 102q0 61 28 126.5t70.5 118t93.5 87t97 34.5h2h2q-27 28 -43.5 61t-16.5 72q0 28 10.5 54t30 45.5t48 31.5t63.5 12q56 0 100 -22.5t74 -61.5t45 -92.5t12 -113.5h139l-10 -30h-131q-2 -19 -6.5 -39t-10.5 -40l-6 -20l-87 -268q-5 -16 1 -23.5
t19 -7.5q18 0 36.5 16t36 41t34 56t29.5 61l17 -11q-40 -116 -92 -170t-112 -54q-40 0 -57.5 24.5t1.5 82.5l97 298v0q3 10 6 21.5t5 22.5q1 2 1 5t1 5h-78l10 30h72q4 49 -6 95.5t-30.5 81.5t-51 56.5t-67.5 21.5q-51 0 -80 -31.5t-29 -74.5q0 -40 18.5 -75.5t57.5 -69.5
q24 -10 37.5 -29.5t13.5 -44.5q0 -22 -13 -34.5t-29 -12.5q-25 0 -31 15.5t-8.5 33.5t-9.5 33.5t-33 15.5q-45 0 -81 -50t-63 -133q-21 -65 -25 -108t4 -68.5t25.5 -36t39.5 -10.5q40 0 78 31.5t68 97.5l15 -5q-25 -95 -78 -141.5t-119 -46.5z" />
    <glyph glyph-name="s_t" horiz-adv-x="696" 
d="M111 -14q-43 0 -71 11.5t-44.5 28t-23 34t-6.5 29.5q0 17 11.5 30.5t29.5 13.5q22 0 31 -16t15 -49q4 -22 17 -38t47 -16q37 0 62 24t25 63q0 22 -8.5 39t-28.5 44l-50 67q-29 39 -32.5 81.5t13.5 77t51.5 57t80.5 22.5q8 0 16 -1l16 -2q-28 30 -43 63t-15 73
q0 28 10.5 54t30 45.5t48 31.5t63.5 12q56 0 100 -22.5t74 -61.5t45 -92.5t12 -113.5h139l-10 -30h-131q-2 -19 -6.5 -39t-10.5 -40l-6 -20l-87 -268q-5 -16 1 -23.5t19 -7.5q18 0 36.5 16t36 41t34 56t29.5 61l17 -11q-40 -116 -92 -170t-112 -54q-40 0 -57.5 24.5
t1.5 82.5l97 298v0q3 10 6 21.5t5 22.5q1 2 1 5t1 5h-78l10 30h71q4 49 -6 95.5t-30.5 81.5t-50.5 56.5t-67 21.5q-51 0 -80 -31.5t-29 -74.5q0 -45 19.5 -80.5t67.5 -79.5q18 -11 28.5 -27t10.5 -35t-12 -32t-32 -13t-29 16.5t-16.5 35.5t-19.5 35.5t-38 16.5
q-31 0 -53 -19t-22 -48q0 -16 7 -33t33 -48l51 -61q19 -23 35.5 -50t16.5 -61q0 -35 -15.5 -64t-40.5 -49t-56 -31t-62 -11z" />
    <glyph glyph-name="s_p" horiz-adv-x="851" 
d="M111 -14q-43 0 -71 11.5t-44.5 28t-23 34t-6.5 29.5q0 17 11.5 30.5t29.5 13.5q22 0 31 -16t15 -49q4 -22 17 -38t47 -16q37 0 62 24t25 63q0 22 -8.5 39t-28.5 44l-50 67q-29 39 -32.5 81.5t13.5 77t51.5 57t80.5 22.5q10 0 19 -1t18 -3q-28 30 -45.5 64t-17.5 77
q0 27 11 52t30.5 44.5t48 31t63.5 11.5q72 0 123.5 -33.5t79.5 -88t32 -123.5t-19 -140l-16 -48q46 95 84 126t85 31q15 0 35 -7.5t37.5 -23t29.5 -39.5t12 -57q0 -50 -29.5 -115.5t-74.5 -123t-99 -97.5t-103 -40q-25 0 -44 9t-31 32l-80 -246l123 -41v-8h-313v8l98 40
l198 611q19 59 18.5 119.5t-18.5 109t-52.5 79.5t-83.5 31q-51 0 -81 -31t-30 -71q0 -48 24.5 -86t70.5 -84q14 -10 22.5 -24.5t8.5 -31.5q0 -19 -12 -32t-32 -13t-29 16.5t-16.5 35.5t-19.5 35.5t-38 16.5q-31 0 -53 -19t-22 -48q0 -16 7 -33t33 -48l51 -61
q19 -23 35.5 -50t16.5 -61q0 -35 -15.5 -64t-40.5 -49t-56 -31t-62 -11zM703 456q-15 0 -29.5 -7t-34 -32.5t-49 -76t-74.5 -135.5l-45 -140q10 -25 26 -35t42 -10q56 0 99.5 64.5t91.5 213.5q15 46 16 77t-5 48.5t-17 25t-21 7.5z" />
    <glyph glyph-name="hyphen.case" horiz-adv-x="349" 
d="M88 410h270l-25 -77h-270z" />
    <glyph glyph-name="exclamdown.case" horiz-adv-x="223" 
d="M244 719q25 0 41 -17t16 -39q0 -35 -24.5 -57.5t-55.5 -22.5q-28 0 -43.5 17t-15.5 41q0 33 24 55.5t58 22.5zM195 395q-19 -129 -34 -211.5t-25 -130.5q-13 -63 -33 -81t-39 -18t-30.5 11.5t-11.5 30.5q0 22 12.5 67t31 101.5t41.5 122t44 128.5l25 76h33z" />
    <glyph glyph-name="questiondown.case" horiz-adv-x="456" 
d="M372 719q25 0 41 -17t16 -39q0 -35 -24.5 -57.5t-55.5 -22.5q-28 0 -43.5 17t-15.5 41q0 33 24 55.5t58 22.5zM291 491q43 0 76 -27t33 -70q0 -34 -22.5 -65.5t-67.5 -50.5l-120 -52q-53 -23 -76 -47.5t-28 -55.5q-9 -54 22 -95t100 -41q20 0 40.5 5t36.5 14t26.5 22.5
t10.5 31.5q0 11 -6 19.5t-12.5 16.5t-12.5 18t-6 23q0 19 15 33t39 14q22 0 40 -21.5t18 -52.5q0 -34 -16 -63t-43 -49.5t-63.5 -32t-77.5 -11.5q-48 0 -87.5 15t-66.5 40.5t-39.5 59t-6.5 70.5q7 49 44 87t98 65l138 61q16 7 24.5 18.5t8.5 27.5q0 21 -13.5 34t-33.5 13
q-15 0 -36.5 -9t-41.5 -44l-15 9q14 48 49.5 69t71.5 21z" />
    <glyph glyph-name="guilsinglleft.case" horiz-adv-x="258" 
d="M44 343l226 190l24 -24l-166 -173l98 -165l-28 -21z" />
    <glyph glyph-name="guilsinglright.case" horiz-adv-x="258" 
d="M281 340l-226 -190l-24 24l166 173l-98 165l28 21z" />
    <glyph glyph-name="guillemetleft.case" horiz-adv-x="455" 
d="M241 343l226 190l24 -24l-166 -173l98 -165l-28 -21zM44 343l226 190l24 -24l-166 -173l98 -165l-28 -21z" />
    <glyph glyph-name="guillemetright.case" horiz-adv-x="455" 
d="M281 340l-226 -190l-24 24l166 173l-98 165l28 21zM478 340l-226 -190l-24 24l166 173l-98 165l28 21z" />
    <glyph glyph-name="endash.case" horiz-adv-x="657" 
d="M80 386h578l-22 -67h-578z" />
    <glyph glyph-name="emdash.case" horiz-adv-x="1056" 
d="M80 386h977l-22 -67h-977z" />
    <glyph glyph-name="periodcentered.case" horiz-adv-x="316" 
d="M190 292q-25 0 -41 17t-16 39q0 35 24.5 57.5t55.5 22.5q28 0 43.5 -17t15.5 -41q0 -33 -24 -55.5t-58 -22.5z" />
    <glyph glyph-name="parenleft.case" horiz-adv-x="288" 
d="M213 -118q-50 86 -77 179t-27 202q0 169 77 314.5t220 264.5l10 -21q-112 -131 -170.5 -283.5t-58.5 -327.5q0 -87 13 -169.5t32 -143.5z" />
    <glyph glyph-name="parenright.case" horiz-adv-x="273" 
d="M141 842q50 -86 77 -179t27 -202q0 -169 -77 -314.5t-220 -264.5l-10 21q112 131 170.5 283.5t58.5 327.5q0 87 -13 169.5t-32 143.5z" />
    <glyph glyph-name="bracketleft.case" horiz-adv-x="268" 
d="M242 829h192l-11 -44h-110l-212 -851h110l-11 -44h-191z" />
    <glyph glyph-name="bracketright.case" horiz-adv-x="268" 
d="M105 -110h-192l11 44h110l212 851h-110l11 44h191z" />
    <glyph glyph-name="braceleft.case" horiz-adv-x="293" 
d="M212 -120q-37 1 -63 18t-40.5 44t-17.5 62.5t7 73.5l23 89q26 101 9.5 144t-48.5 51l6 23q40 4 72 36.5t50 106.5l32 130q25 100 74 142.5t136 42.5l-5 -23q-18 -2 -35 -8.5t-32.5 -23.5t-29.5 -46.5t-25 -76.5l-33 -129q-21 -81 -55 -115.5t-83 -47.5q44 -18 56 -78.5
t-16 -155.5l-24 -106q-13 -57 3 -90.5t45 -39.5z" />
    <glyph glyph-name="braceright.case" horiz-adv-x="293" 
d="M162 843q37 -1 63 -18t40.5 -44t17.5 -62.5t-7 -73.5l-23 -89q-26 -101 -9.5 -144t48.5 -51l-6 -23q-40 -4 -72 -36.5t-50 -106.5l-32 -130q-25 -100 -74 -142.5t-136 -42.5l5 23q18 2 35 8.5t32.5 23.5t29.5 46.5t25 76.5l33 129q21 81 55 115.5t83 47.5
q-44 18 -56 78.5t16 155.5l24 106q13 57 -3 90.5t-45 39.5z" />
    <glyph glyph-name="numero_s" horiz-adv-x="1429" 
d="M300 619l-155 -574l100 -18l-7 -27h-243l7 27l103 18l165 615l-100 18l7 27h192l262 -552l135 507l-100 18l7 27h243l-7 -27l-103 -18l-178 -674h-28zM987 277q-19 0 -41 9t-36.5 28.5t-18.5 52.5t11 80q12 36 34.5 70t50 59.5t57.5 41.5t57 16q20 0 41.5 -7.5t36 -23.5
t19.5 -43t-8 -66q-10 -32 -32 -70.5t-50 -70.5t-60 -54t-61 -22zM990 300q21 0 39.5 16.5t34.5 43.5t29.5 61t24.5 69q25 75 10.5 98t-36.5 23t-40.5 -16.5t-34 -43.5t-29 -61t-24.5 -68q-21 -65 -12 -93.5t38 -28.5zM1302 277q-30 0 -50 8t-32 19.5t-16.5 24t-4.5 21.5
q0 13 8 22t21 9q16 0 22.5 -11t10.5 -35q2 -15 11 -26.5t34 -11.5q26 0 44 17t18 45q0 15 -6 27.5t-20 31.5l-36 47q-21 28 -23 58t9.5 54.5t36 40.5t57.5 16q36 0 65.5 -17t29.5 -45q0 -13 -8.5 -22.5t-22.5 -9.5t-20 11.5t-12 25.5t-14.5 25.5t-26.5 11.5
q-22 0 -37.5 -13.5t-15.5 -33.5q0 -12 4.5 -24t23.5 -34l36 -43q14 -16 25.5 -35.5t11.5 -43.5q0 -25 -11 -45.5t-28.5 -34.5t-39.5 -22t-44 -8z" />
    <glyph glyph-name="numeroLC" horiz-adv-x="886" 
d="M375 -14q-37 0 -53.5 23t-4.5 59l100 306q11 34 0.5 48t-30.5 14q-38 0 -90 -63.5t-104 -173.5l-64 -199h-92l127 391q6 19 -0.5 30t-19.5 11q-6 0 -14.5 -3t-20 -14.5t-28.5 -35t-39 -64.5l-13 14q22 52 45 83.5t44.5 48.5t40.5 22.5t35 5.5q39 0 58 -26t0 -83l-33 -103
q46 104 98 158t112 54q51 0 73 -34.5t6 -82.5l-96 -294q-6 -19 1.5 -25t18.5 -6q21 0 48.5 27.5t55.5 84.5l13 -9q-31 -82 -75 -123t-99 -41zM724 277q-19 0 -41 9t-36.5 28.5t-18.5 52.5t11 80q12 36 34.5 70t50 59.5t57.5 41.5t57 16q20 0 41.5 -7.5t36 -23.5t19.5 -43
t-8 -66q-10 -32 -32 -70.5t-50 -70.5t-60 -54t-61 -22zM727 300q21 0 39.5 16.5t34.5 43.5t29.5 61t24.5 69q25 75 10.5 98t-36.5 23t-40.5 -16.5t-34 -43.5t-29 -61t-24.5 -68q-21 -65 -12 -93.5t38 -28.5z" />
    <glyph glyph-name="numeroLC_s" horiz-adv-x="1166" 
d="M375 -14q-37 0 -53.5 23t-4.5 59l100 306q11 34 0.5 48t-30.5 14q-38 0 -90 -63.5t-104 -173.5l-64 -199h-92l127 391q6 19 -0.5 30t-19.5 11q-6 0 -14.5 -3t-20 -14.5t-28.5 -35t-39 -64.5l-13 14q22 52 45 83.5t44.5 48.5t40.5 22.5t35 5.5q39 0 58 -26t0 -83l-33 -103
q46 104 98 158t112 54q51 0 73 -34.5t6 -82.5l-96 -294q-6 -19 1.5 -25t18.5 -6q21 0 48.5 27.5t55.5 84.5l13 -9q-31 -82 -75 -123t-99 -41zM724 277q-19 0 -41 9t-36.5 28.5t-18.5 52.5t11 80q12 36 34.5 70t50 59.5t57.5 41.5t57 16q20 0 41.5 -7.5t36 -23.5t19.5 -43
t-8 -66q-10 -32 -32 -70.5t-50 -70.5t-60 -54t-61 -22zM727 300q21 0 39.5 16.5t34.5 43.5t29.5 61t24.5 69q25 75 10.5 98t-36.5 23t-40.5 -16.5t-34 -43.5t-29 -61t-24.5 -68q-21 -65 -12 -93.5t38 -28.5zM1039 277q-30 0 -50 8t-32 19.5t-16.5 24t-4.5 21.5q0 13 8 22
t21 9q16 0 22.5 -11t10.5 -35q2 -15 11 -26.5t34 -11.5q26 0 44 17t18 45q0 15 -6 27.5t-20 31.5l-36 47q-21 28 -23 58t9.5 54.5t36 40.5t57.5 16q36 0 65.5 -17t29.5 -45q0 -13 -8.5 -22.5t-22.5 -9.5t-20 11.5t-12 25.5t-14.5 25.5t-26.5 11.5q-22 0 -37.5 -13.5
t-15.5 -33.5q0 -12 4.5 -24t23.5 -34l36 -43q14 -16 25.5 -35.5t11.5 -43.5q0 -25 -11 -45.5t-28.5 -34.5t-39.5 -22t-44 -8z" />
    <glyph glyph-name="zero.slash" horiz-adv-x="629" 
d="M271 -14q-93 0 -138.5 64.5t-45.5 180.5q0 74 28.5 159.5t76.5 158.5t110.5 121.5t130.5 48.5q84 0 134 -66.5t50 -171.5q0 -76 -28 -163.5t-75 -161t-110.5 -122t-132.5 -48.5zM172 133q0 -14 1.5 -26t4.5 -22l321 581q-12 10 -27 15t-34 5q-55 0 -104 -64t-84.5 -152
t-56.5 -182.5t-21 -154.5zM266 19q51 0 99.5 58.5t85 144t59 183t22.5 174.5q0 16 -3 30t-7 25l-325 -588q13 -14 30.5 -20.5t38.5 -6.5z" />
    <glyph glyph-name="zero.slash.osf" horiz-adv-x="629" 
d="M268 -14q-31 0 -69.5 15t-70 46t-50 78t-9.5 110q7 54 37.5 100.5t73 80.5t92 53.5t93.5 19.5q39 0 77.5 -18t67 -50t43.5 -77t8 -98q-9 -62 -38 -110.5t-69.5 -81.5t-89.5 -50.5t-96 -17.5zM159 192q-3 -24 -2 -45.5t5 -38.5l285 305q-14 20 -36 31.5t-51 11.5
q-39 0 -73 -23.5t-60.5 -60.5t-44 -84.5t-23.5 -95.5zM277 19q67 0 122 73t71 191q4 27 2.5 51.5t-8.5 45.5l-288 -309q15 -25 41 -38.5t60 -13.5z" />
    <glyph glyph-name="zero.osf" horiz-adv-x="629" 
d="M268 -14q-31 0 -69.5 15t-70 46t-50 78t-9.5 110q7 54 37.5 100.5t73 80.5t92 53.5t93.5 19.5q39 0 77.5 -18t67 -50t43.5 -77t8 -98q-9 -62 -38 -110.5t-69.5 -81.5t-89.5 -50.5t-96 -17.5zM277 19q67 0 122 73t71 191q10 72 -18.5 122.5t-91.5 50.5q-39 0 -73 -23.5
t-60.5 -60.5t-44 -84.5t-23.5 -95.5q-10 -83 22 -128t96 -45z" />
    <glyph glyph-name="one.osf" horiz-adv-x="424" 
d="M9 27l103 18l103 385l-100 18l7 27h300l-7 -27l-103 -18l-103 -385l100 -18l-7 -27h-300z" />
    <glyph glyph-name="two.osf" horiz-adv-x="574" 
d="M12 74l215 96q110 49 148 92t38 89q0 52 -30.5 77.5t-83.5 25.5q-40 0 -60.5 -21t-30.5 -60q-9 -34 -30.5 -43.5t-40.5 -7.5t-32 19.5t-7 43.5q10 43 62.5 73.5t134.5 30.5q46 0 85.5 -11t68.5 -31t45.5 -48t16.5 -62q0 -48 -41.5 -92.5t-149.5 -82.5l-246 -86h381
l-24 -76h-443z" />
    <glyph glyph-name="three.osf" horiz-adv-x="535" 
d="M-83 -251q73 3 140 26t118 58t81.5 78.5t30.5 87.5q0 32 -13.5 53.5t-33 34t-41.5 18t-38 5.5l-1 14q106 31 168.5 84.5t69.5 129.5q5 57 -24 86.5t-82 29.5q-43 0 -66.5 -18t-36.5 -61q-9 -31 -28.5 -43.5t-44.5 -9.5q-19 2 -32 21.5t-5 45.5q9 30 33.5 49.5t54 30.5
t61.5 15.5t56 4.5q52 0 92 -13.5t67 -35.5t40.5 -50t13.5 -57q0 -59 -52.5 -106.5t-150.5 -81.5q43 -21 67.5 -59t24.5 -78q0 -57 -40 -109.5t-104.5 -92t-148.5 -62.5t-171 -22z" />
    <glyph glyph-name="four.osf" horiz-adv-x="627" 
d="M549 0h-147l-55 -206h-96l55 206h-323l18 67l427 408h102l-109 -407h146zM53 68h271l94 349z" />
    <glyph glyph-name="five.osf" horiz-adv-x="501" 
d="M-98 -251q71 18 140.5 51.5t124 77.5t88 96.5t33.5 108.5q0 31 -8 59t-29 52t-57.5 45t-93.5 39l46 198h345l-24 -89h-308l-12 -51q128 -41 183 -97.5t55 -142.5q0 -69 -47.5 -134t-118 -116t-155 -84.5t-157.5 -39.5z" />
    </font>
</defs>
</svg>
