<?xml version="1.0" standalone="no"?>
<!DOCTYPE svg PUBLIC "-//W3C//DTD SVG 1.1//EN" "http://www.w3.org/Graphics/SVG/1.1/DTD/svg11.dtd" >
<svg xmlns="http://www.w3.org/2000/svg" xmlns:xlink="http://www.w3.org/1999/xlink" version="1.1">
<metadata>
Created by FontForge 20170731 at Fri Jun 10 05:19:54 2022
 By Aleksey,,,
Copyright (c) 2006 by Dino dos Santos _DSType. All rights reserved.
</metadata>
<defs>
<font id="LeituraNews-Roman2" horiz-adv-x="1228" >
  <font-face 
    font-family="Leitura News Roman 2"
    font-weight="400"
    font-stretch="normal"
    units-per-em="2048"
    panose-1="2 0 5 3 0 0 0 2 0 4"
    ascent="1638"
    descent="-410"
    x-height="1024"
    cap-height="1434"
    bbox="-314.222 -686 3250 2163"
    underline-thickness="102"
    underline-position="-307"
    unicode-range="U+000D-FB04"
  />
<missing-glyph horiz-adv-x="1208" 
d="M143 1024h922v-1024h-922v1024zM588 510l-422 483v-960zM623 510l419 -473v952zM190 999l416 -469l414 469h-830zM606 492l-411 -467h821z" />
    <glyph glyph-name="ff" unicode="ff" horiz-adv-x="1351" 
d="M1065 942v-733q0 -86 31 -117.5t137 -46.5v-45h-522v45q95 17 122 47.5t27 116.5v733h-450v-733q0 -86 31 -117.5t137 -46.5v-45h-523v45q96 17 123 47.5t27 116.5v733h-133v72l133 10q10 92 47.5 180.5t88.5 154t109 116t111.5 76.5t93.5 26q85 0 106 -60
q17 -46 -13 -87q-32 -43 -80 -27q-66 22 -111.5 26t-74.5 -8.5t-44.5 -41.5t-22 -73t-7 -102.5t0.5 -131.5q1 -32 1 -48h450q12 114 66.5 221t123.5 177.5t140 112.5t121 42q85 0 106 -60q16 -46 -13 -87q-33 -43 -81 -27q-66 22 -111.5 26t-74.5 -8.5t-44.5 -41.5t-22 -73
t-7 -102.5t0.5 -131.5q1 -32 1 -48h250v-82h-250z" />
    <glyph glyph-name="fi" unicode="fi" horiz-adv-x="1269" 
d="M410 1024h321l334 20h20v-835q0 -86 31 -117.5t137 -46.5v-45h-542v45q106 15 138 46.5t32 117.5v584q0 81 -30 115t-120 34h-321v-733q0 -86 31 -117.5t137 -46.5v-45h-523v45q96 17 123 47.5t27 116.5v733h-133v72l133 10q10 92 47.5 180.5t88.5 154t109 116
t111.5 76.5t93.5 26q85 0 106 -60q17 -46 -13 -87q-32 -43 -80 -27q-66 22 -111.5 26t-74.5 -8.5t-44.5 -41.5t-22 -73t-7 -102.5t0.5 -131.5q1 -32 1 -48z" />
    <glyph glyph-name="fl" unicode="fl" horiz-adv-x="1269" 
d="M1065 1577l-86 -64q-118 64 -242 64q-188 0 -347 -159t-185 -394l-133 -10v-72h133v-733q0 -86 -27 -116.5t-123 -47.5v-45h523v45q-106 15 -137 46.5t-31 117.5v733h249v82h-249q-8 90 -5 159t12 120t33.5 82.5t59 46t88.5 10.5t122.5 -23.5t160.5 -56.5v-1153
q0 -86 -32 -117.5t-138 -46.5v-45h542v45q-106 15 -137 46.5t-31 117.5v1368h-20z" />
    <glyph glyph-name="ffi" unicode="ffi" horiz-adv-x="1925" 
d="M410 1024h450q12 114 66.5 221t123.5 177.5t140 112.5t121 42q85 0 106 -60q16 -46 -13 -87q-33 -43 -81 -27q-66 22 -111.5 26t-74.5 -8.5t-44.5 -41.5t-22 -73t-7 -102.5t0.5 -131.5q1 -32 1 -48h321l334 20h21v-835q0 -86 31 -117.5t137 -46.5v-45h-543v45
q106 15 138 46.5t32 117.5v584q0 81 -30 115t-120 34h-321v-733q0 -86 31 -117.5t137 -46.5v-45h-522v45q95 17 122 47.5t27 116.5v733h-450v-733q0 -86 31 -117.5t137 -46.5v-45h-523v45q96 17 123 47.5t27 116.5v733h-133v72l133 10q10 92 47.5 180.5t88.5 154t109 116
t111.5 76.5t93.5 26q85 0 106 -60q17 -46 -13 -87q-32 -43 -80 -27q-66 22 -111.5 26t-74.5 -8.5t-44.5 -41.5t-22 -73t-7 -102.5t0.5 -131.5q1 -32 1 -48z" />
    <glyph glyph-name="ffl" unicode="ffl" horiz-adv-x="1925" 
d="M860 942h-450v-733q0 -86 31 -117.5t137 -46.5v-45h-523v45q96 17 123 47.5t27 116.5v733h-133v72l133 10q10 92 47.5 180.5t88.5 154t109 116t111.5 76.5t93.5 26q85 0 106 -60q17 -46 -13 -87q-32 -43 -80 -27q-66 22 -111.5 26t-74.5 -8.5t-44.5 -41.5t-22 -73
t-7 -102.5t0.5 -131.5q1 -32 1 -48h450q13 117 64 221.5t124 176.5t163.5 113.5t181.5 41.5q123 0 241 -64l86 64h21v-1368q0 -86 31 -117.5t137 -46.5v-45h-543v45q106 15 138 46.5t32 117.5v1153q-92 37 -160.5 56.5t-122.5 23.5t-88.5 -10.5t-59 -46t-33.5 -82.5
t-12 -120t5 -159h250v-82h-250v-733q0 -86 31 -117.5t137 -46.5v-45h-522v45q95 17 122 47.5t27 116.5v733z" />
    <glyph glyph-name="T_h" unicode="Th" horiz-adv-x="2314" 
d="M1120 1434l334 98h21v-692h4q193 204 389 204q54 0 99.5 -17t82.5 -52t58.5 -96t21.5 -142v-528q0 -86 31 -117.5t137 -46.5v-45h-502v45q48 12 72.5 22t38 30t16 42t2.5 70v522q0 75 -38 122.5t-109 47.5q-73 0 -144 -29.5t-159 -99.5v-563q0 -86 31 -117.5t136 -46.5
v-45h-542v45q106 15 138 46.5t32 117.5v1001q0 81 -30 113.5t-120 32.5h-403v-1147q0 -86 31 -117.5t137 -46.5v-45h-543v45q106 15 138 46.5t32 117.5v1147h-143q-108 0 -174.5 -66t-81.5 -190h-58l11 334h1054z" />
    <glyph glyph-name="T_h.caron" unicode="&#x164;h" horiz-adv-x="2314" 
d="M1120 1434l334 98h21v-692h4q193 204 389 204q54 0 99.5 -17t82.5 -52t58.5 -96t21.5 -142v-528q0 -86 31 -117.5t137 -46.5v-45h-502v45q48 12 72.5 22t38 30t16 42t2.5 70v522q0 75 -38 122.5t-109 47.5q-73 0 -144 -29.5t-159 -99.5v-563q0 -86 31 -117.5t136 -46.5
v-45h-542v45q106 15 138 46.5t32 117.5v1001q0 81 -30 113.5t-120 32.5h-403v-1147q0 -86 31 -117.5t137 -46.5v-45h-543v45q106 15 138 46.5t32 117.5v1147h-143q-108 0 -174.5 -66t-81.5 -190h-58l11 334h1054zM614 1720l-231 185h-55l256 -369h61l256 369h-57z" />
    <glyph glyph-name="T_h.commaaccent" unicode="&#x162;h" horiz-adv-x="2314" 
d="M1120 1434l334 98h21v-692h4q193 204 389 204q54 0 99.5 -17t82.5 -52t58.5 -96t21.5 -142v-528q0 -86 31 -117.5t137 -46.5v-45h-502v45q48 12 72.5 22t38 30t16 42t2.5 70v522q0 75 -38 122.5t-109 47.5q-73 0 -144 -29.5t-159 -99.5v-563q0 -86 31 -117.5t136 -46.5
v-45h-542v45q106 15 138 46.5t32 117.5v1001q0 81 -30 113.5t-120 32.5h-403v-1147q0 -86 31 -117.5t137 -46.5v-45h-543v45q106 15 138 46.5t32 117.5v1147h-143q-108 0 -174.5 -66t-81.5 -190h-58l11 334h1054zM590 -94q50 0 85.5 -20.5t53 -54.5t24.5 -67t7 -69
q0 -134 -82.5 -238t-181.5 -139l-27 47q104 48 152 140q39 72 17 116q-15 26 -48 27q-53 0 -90 37.5t-37 93.5q0 51 38 89t89 38z" />
    <glyph glyph-name="f_f_j" unicode="ffj" horiz-adv-x="1884" 
d="M860 942h-450v-733q0 -86 31 -117.5t137 -46.5v-45h-523v45q96 17 123 47.5t27 116.5v733h-133v72l133 10q10 92 47.5 180.5t88.5 154t109 116t111.5 76.5t93.5 26q85 0 106 -60q17 -46 -13 -87q-32 -43 -80 -27q-66 22 -111.5 26t-74.5 -8.5t-44.5 -41.5t-22 -73
t-7 -102.5t0.5 -131.5q1 -32 1 -48h450q12 114 66.5 221t123.5 177.5t140 112.5t121 42q85 0 106 -60q16 -46 -13 -87q-33 -43 -81 -27q-66 22 -111.5 26t-74.5 -8.5t-44.5 -41.5t-22 -73t-7 -102.5t0.5 -131.5q1 -32 1 -48h348l307 20h21v-952q0 -103 -24 -204
t-63.5 -178.5t-88 -138t-99 -92.5t-94.5 -32q-87 0 -112 61q-18 46 9 87q29 42 77 26q46 -15 81 -19t57.5 4.5t36.5 24t20.5 44.5t8.5 59t0 74.5t-5 85t-6 96t-3 102.5v701q0 81 -30 115t-120 34h-321v-733q0 -86 31 -117.5t137 -46.5v-45h-522v45q95 17 122 47.5t27 116.5
v733z" />
    <glyph glyph-name="f_j" unicode="fj" 
d="M1085 1044v-952q0 -128 -37 -250.5t-92 -207t-119.5 -136t-119.5 -51.5q-87 0 -112 61q-18 46 8 87q29 42 77 26q46 -15 81 -19t57.5 4.5t37 24t21 44.5t8 59t-0.5 74.5t-4.5 85t-5.5 96t-3 102.5v701q0 81 -30 115t-120 34h-321v-733q0 -86 31 -117.5t137 -46.5v-45
h-523v45q96 17 123 47.5t27 116.5v733h-133v72l133 10q10 92 47.5 180.5t88.5 154t109 116t111.5 76.5t93.5 26q85 0 106 -60q17 -46 -13 -87q-32 -43 -80 -27q-66 22 -111.5 26t-74.5 -8.5t-44.5 -41.5t-22 -73t-7 -102.5t0.5 -131.5q1 -32 1 -48h321l334 20h20z" />
    <glyph glyph-name=".notdef" horiz-adv-x="1208" 
d="M143 1024h922v-1024h-922v1024zM588 510l-422 483v-960zM623 510l419 -473v952zM190 999l416 -469l414 469h-830zM606 492l-411 -467h821z" />
    <glyph glyph-name=".notdef" horiz-adv-x="1208" 
d="M143 1024h922v-1024h-922v1024zM588 510l-422 483v-960zM623 510l419 -473v952zM190 999l416 -469l414 469h-830zM606 492l-411 -467h821z" />
    <glyph glyph-name=".null" horiz-adv-x="0" 
 />
    <glyph glyph-name="nonmarkingreturn" horiz-adv-x="682" 
 />
    <glyph glyph-name="CR" unicode="&#xd;" horiz-adv-x="471" 
 />
    <glyph glyph-name="space" unicode=" " horiz-adv-x="471" 
 />
    <glyph glyph-name="exclam" unicode="!" horiz-adv-x="655" 
d="M197 109q0 54 38.5 91.5t92.5 37.5q53 0 91 -37.5t38 -91.5t-38 -91.5t-91 -37.5q-54 0 -92.5 37.5t-38.5 91.5zM354 410h-51l-96 1017q-5 60 24 105t99 45q69 0 94 -44t20 -106z" />
    <glyph glyph-name="quotedbl" unicode="&#x22;" horiz-adv-x="851" 
d="M651 1556h-145l41 -405h63zM344 1556h-145l41 -405h63z" />
    <glyph glyph-name="numbersign" unicode="#" horiz-adv-x="1146" 
d="M76 424h291v246h-291v82h291v292h82v-292h245v292h82v-292h293v-82h-293v-246h293v-82h-293v-291h-82v291h-245v-291h-82v291h-291v82zM449 670v-246h245v246h-245z" />
    <glyph glyph-name="dollar" unicode="$" horiz-adv-x="1095" 
d="M506 1638h82v-186q193 -7 348 -90l20 -344h-55q-56 340 -313 352v-520q416 -161 416 -451q0 -180 -114.5 -291.5t-301.5 -123.5v-189h-82v185q-103 3 -208.5 31t-184.5 71l-21 362h55q8 -89 34 -157.5t60.5 -110t80.5 -68t90 -36.5t94 -11v582q-90 37 -156.5 75
t-124.5 90t-88.5 120t-30.5 149q0 155 107.5 258.5t292.5 116.5v186zM793 334q0 91 -54.5 154t-150.5 114v-532q98 17 151.5 87.5t53.5 176.5zM322 1147q0 -161 184 -258v473q-90 -12 -137 -67t-47 -148z" />
    <glyph glyph-name="percent" unicode="%" horiz-adv-x="2007" 
d="M1405 1577h-90l-699 -1700h93zM1204 297q2 134 89 225.5t220 91.5q127 0 210.5 -92t80.5 -225q-2 -134 -89 -225.5t-220 -91.5q-127 0 -210.5 92t-80.5 225zM1337 297q0 -137 44 -208t124 -71q79 0 122.5 71.5t43.5 207.5t-43.5 206t-122.5 70q-81 0 -124.5 -70
t-43.5 -206zM201 1137q2 134 89 225.5t220 91.5q127 0 210.5 -92t80.5 -225q-2 -134 -89 -226t-220 -92q-127 0 -210.5 92.5t-80.5 225.5zM334 1137q0 -137 44 -208t124 -71q79 0 122.5 71.5t43.5 207.5t-43.5 206t-122.5 70q-81 0 -124.5 -70t-43.5 -206z" />
    <glyph glyph-name="ampersand" unicode="&#x26;" horiz-adv-x="1617" 
d="M352 420q0 191 144 301l417 -514q-72 -64 -145.5 -91.5t-132.5 -27.5q-121 0 -202 97.5t-81 234.5zM829 1167q0 -81 -45 -150.5t-157 -137.5q-74 95 -109 164t-35 137q0 49 15 90.5t55.5 72.5t101.5 31t102 -32.5t56.5 -77t15.5 -97.5zM961 150l133 -150h305v45
q-112 28 -191 123l-114 139q81 122 155 301q3 7 7 19q27 70 47 91q37 39 147 53l8 1v47h-461v-47q123 -15 157.5 -49.5t6.5 -114.5q-47 -138 -117 -243l-378 462q303 147 303 347q0 126 -92 203t-230 77q-94 0 -175.5 -36.5t-134 -109.5t-52.5 -169q0 -91 39 -171t131 -196
q-61 -37 -102 -65.5t-83.5 -67t-67 -77t-40 -90t-15.5 -110.5q0 -177 115.5 -279.5t300.5 -102.5q104 0 198.5 38t199.5 132z" />
    <glyph glyph-name="quotesingle" unicode="'" horiz-adv-x="544" 
d="M344 1556h-145l41 -405h63z" />
    <glyph glyph-name="parenleft" unicode="(" horiz-adv-x="768" 
d="M410 604q0 -299 64.5 -604.5t201.5 -542.5h-51q-117 126 -202.5 270.5t-134 292.5t-71 292t-22.5 292t22.5 292t71 292t134 292.5t202.5 270.5h51q-137 -237 -201.5 -542.5t-64.5 -604.5z" />
    <glyph glyph-name="parenright" unicode=")" horiz-adv-x="768" 
d="M358 604q0 -299 -64.5 -604.5t-201.5 -542.5h51q117 126 202.5 270.5t134 292.5t71 292t22.5 292t-22.5 292t-71 292t-134 292.5t-202.5 270.5h-51q137 -237 201.5 -542.5t64.5 -604.5z" />
    <glyph glyph-name="asterisk" unicode="*" horiz-adv-x="905" 
d="M248 1327q14 15 34 16t35 -14q4 -5 12.5 -18.5t33.5 -48t65 -84.5q-7 65 -13.5 108t-9 57t-2.5 21q0 22 14 35.5t36 13.5t36.5 -13t14.5 -36q0 -8 -2.5 -22.5t-9.5 -58.5t-15 -105q39 49 63.5 84t33 48t14.5 19q15 15 34.5 15t34.5 -15q16 -16 16.5 -35t-16.5 -37
q-5 -6 -16.5 -13.5t-47.5 -33.5t-87 -67q64 7 105.5 15t56 12t22.5 4q22 0 36.5 -15t14.5 -37t-14.5 -35.5t-36.5 -13.5q-7 0 -21.5 2.5t-57 9t-103.5 13.5q49 -39 82.5 -63t46.5 -32t18 -12q15 -15 15 -36.5t-15 -34.5q-15 -15 -35.5 -15t-35.5 15q-5 5 -11 13l-15 20
t-31 41.5t-50 66.5q6 -60 13 -99.5t10.5 -54t3.5 -20.5q0 -22 -14.5 -36.5t-36.5 -14.5t-36 14.5t-14 36.5q0 7 2.5 20.5t9 55.5t13.5 104q-39 -50 -63.5 -84.5t-31.5 -46.5t-11 -16q-15 -15 -37 -15t-37 15t-14 35.5t16 35.5q4 4 15 11.5t44.5 32.5t81.5 63
q-48 -5 -85 -10.5t-52 -8t-25 -4.5t-16 -2q-22 0 -35.5 13.5t-13.5 35.5t14 37t35 15q7 0 22 -3.5t56.5 -11t103.5 -14.5q-49 39 -84.5 65t-46.5 34t-16 13q-15 15 -15 35t15 35z" />
    <glyph glyph-name="plus" unicode="+" horiz-adv-x="1146" 
d="M612 922v-334h334v-82h-334v-332h-82v332h-331v82h331v334h82z" />
    <glyph glyph-name="comma" unicode="," horiz-adv-x="696" 
d="M326 252q50 0 85.5 -20t53 -53.5t24.5 -66.5t7 -69q0 -91 -43 -173t-101.5 -132t-120.5 -72l-26 47q104 48 152 140q39 72 17 116q-14 27 -48 27q-53 0 -90 36.5t-37 92.5q0 52 38 89.5t89 37.5z" />
    <glyph glyph-name="hyphen" unicode="-" horiz-adv-x="1146" 
d="M199 588h747v-82h-747v82z" />
    <glyph glyph-name="period" unicode="." horiz-adv-x="655" 
d="M197 109q0 54 38.5 91.5t92.5 37.5q53 0 91 -37.5t38 -91.5t-38 -91.5t-91 -37.5q-54 0 -92.5 37.5t-38.5 91.5z" />
    <glyph glyph-name="slash" unicode="/" horiz-adv-x="983" 
d="M782 1577h-90l-493 -1700h92z" />
    <glyph glyph-name="zero" unicode="0" 
d="M113 666q0 107 18.5 205.5t58 186.5t97.5 153t142 103t185 38t185.5 -38t142 -103t97.5 -153t58.5 -186.5t18.5 -205.5t-18.5 -205.5t-58.5 -186.5t-97.5 -153t-142 -103t-185.5 -38t-185 37.5t-142 102t-97.5 152.5t-58 187t-18.5 207zM338 666q0 -109 7.5 -196
t26.5 -166.5t49.5 -132t79 -83.5t113.5 -31q80 0 135.5 45.5t85.5 131.5t43 190.5t13 241.5q0 89 -5.5 164t-17.5 145t-33.5 123t-51.5 92.5t-72.5 60.5t-96.5 21q-65 0 -113.5 -31t-79 -83.5t-49.5 -131t-26.5 -165.5t-7.5 -195z" />
    <glyph glyph-name="one" unicode="1" horiz-adv-x="860" 
d="M532 1352v-1143q0 -46 7 -71t34 -45.5t75 -30t134 -17.5v-45h-706v45q114 10 166.5 27.5t69 46.5t16.5 90v860q0 80 -44.5 96.5t-207.5 16.5v47l436 123h20z" />
    <glyph glyph-name="two" unicode="2" horiz-adv-x="1044" 
d="M526 1272q105 0 155 -87t50 -222q0 -46 -4 -84.5t-19 -94.5t-41 -108.5t-74 -122t-114 -139.5t-164.5 -156t-222.5 -176v-82h860v168h-645q141 96 249.5 186.5t175.5 167t111 141.5t64.5 126.5t27.5 104t7 91.5q0 69 -26.5 134t-75 117.5t-126 84t-171.5 31.5
q-190 0 -297 -75.5t-107 -180.5q0 -53 33.5 -83t85.5 -30q44 0 71 22.5t25 55.5q-8 114 30.5 162.5t141.5 48.5z" />
    <glyph glyph-name="three" unicode="3" horiz-adv-x="1095" 
d="M492 57q132 0 202 84.5t70 239.5q0 126 -75.5 205t-213.5 76h-69v77h55q124 0 192 79.5t68 221.5q0 105 -58 168.5t-151 63.5q-95 0 -130.5 -47t-27.5 -164q2 -33 -25 -55.5t-71 -22.5q-52 0 -85.5 30t-33.5 83q0 105 106 180.5t292 75.5q175 0 284 -84.5t109 -220.5
q0 -119 -78.5 -209t-212.5 -127v-4q71 -9 131 -32t109 -62.5t76.5 -101t27.5 -140.5q0 -189 -140 -290t-362 -101q-172 0 -277 77.5t-102 194.5q1 47 35.5 71.5t83.5 24.5q44 0 70 -21.5t24 -54.5q-7 -112 36 -163.5t141 -51.5z" />
    <glyph glyph-name="four" unicode="4" horiz-adv-x="1167" 
d="M690 451h-545l545 690v-690zM1090 307v144h-195v901h-137l-682 -869v-176h614v-307h205v307h195z" />
    <glyph glyph-name="five" unicode="5" horiz-adv-x="1095" 
d="M348 731h-127l21 600h690v-170h-608l-13 -338q113 16 204 7.5t161 -30t122 -58.5t87.5 -78t57 -89.5t31 -91.5t9.5 -84q0 -187 -136 -303t-366 -116q-167 0 -275 77t-108 179q0 53 34 82.5t89 29.5q44 0 70 -21.5t24 -54.5q-6 -106 40 -153t141 -47q112 0 192 79t80 222
q0 80 -21 142t-68 111t-130 76t-201 29z" />
    <glyph glyph-name="six" unicode="6" horiz-adv-x="1157" 
d="M819 410q0 -171 -63.5 -262t-171.5 -91q-92 0 -156.5 81t-87 213.5t-2.5 285.5q47 48 109.5 77t125.5 29q113 0 179.5 -90t66.5 -243zM1044 430q0 172 -107.5 292t-274.5 120q-186 0 -326 -121q14 79 37 146t64.5 136t97.5 123.5t139.5 101.5t187.5 77l-16 67
q-216 -41 -382 -159t-258.5 -298t-92.5 -395q0 -111 30.5 -208t87.5 -171.5t147.5 -117.5t203.5 -43q124 0 228.5 54.5t169 158.5t64.5 237z" />
    <glyph glyph-name="seven" unicode="7" horiz-adv-x="1003" 
d="M457 0l489 1270v61h-860l-10 -344h57q15 115 45.5 144.5t138.5 29.5h512l-618 -1161h246z" />
    <glyph glyph-name="eight" unicode="8" horiz-adv-x="1157" 
d="M813 1036q0 -96 -36 -170t-107 -114q-156 63 -232 134t-76 169q0 99 63 158t159 59q102 0 165.5 -61.5t63.5 -174.5zM840 307q0 -112 -67.5 -181t-190.5 -69q-126 0 -198.5 78.5t-72.5 218.5q0 90 42 158.5t130 124.5q357 -138 357 -330zM1040 362q0 118 -70 200.5
t-237 158.5q123 43 192.5 127t69.5 178q0 101 -57 177t-146 112.5t-194 36.5q-109 0 -206 -40t-161.5 -121t-64.5 -187q0 -196 250 -334q-139 -53 -220 -140t-81 -190q0 -118 62 -201t161 -121t225 -38q92 0 177 25t152 71.5t107.5 120.5t40.5 165z" />
    <glyph glyph-name="nine" unicode="9" horiz-adv-x="1157" 
d="M338 922q0 171 62.5 260.5t172.5 89.5q91 0 155 -81t87 -213t4 -284q-49 -49 -111.5 -78.5t-123.5 -29.5q-114 0 -180 91t-66 245zM113 901q0 -112 47 -206.5t135 -151t199 -56.5q181 0 327 121q-15 -79 -38 -146t-64.5 -136t-97 -123t-139 -101t-187.5 -77l16 -66
q216 41 382 159t258.5 298t92.5 395q0 89 -19 169t-57.5 148t-93.5 118t-131.5 78t-167.5 28q-124 0 -228.5 -54.5t-169 -159t-64.5 -237.5z" />
    <glyph glyph-name="colon" unicode=":" horiz-adv-x="655" 
d="M197 225q0 54 38.5 91.5t92.5 37.5q53 0 91 -37.5t38 -91.5t-38 -91.5t-91 -37.5q-54 0 -92.5 37.5t-38.5 91.5zM197 799q0 53 38.5 91t92.5 38q52 0 90.5 -38t38.5 -91q0 -54 -38 -92.5t-91 -38.5q-54 0 -92.5 38.5t-38.5 92.5z" />
    <glyph glyph-name="semicolon" unicode=";" horiz-adv-x="696" 
d="M217 799q0 53 38.5 91t92.5 38q52 0 90.5 -38t38.5 -91q0 -54 -38 -92.5t-91 -38.5q-54 0 -92.5 38.5t-38.5 92.5zM326 252q50 0 85.5 -20t53 -53.5t24.5 -66.5t7 -69q0 -91 -43 -173t-101.5 -132t-120.5 -72l-26 47q104 48 152 140q39 72 17 116q-14 27 -48 27
q-53 0 -90 36.5t-37 92.5q0 52 38 89.5t89 37.5z" />
    <glyph glyph-name="less" unicode="&#x3c;" horiz-adv-x="983" 
d="M309 551l473 311v96l-583 -387v-47l583 -385v94z" />
    <glyph glyph-name="equal" unicode="=" horiz-adv-x="1146" 
d="M199 731h747v-82h-747v82zM199 444h747v-82h-747v82z" />
    <glyph glyph-name="greater" unicode="&#x3e;" horiz-adv-x="983" 
d="M674 551l-475 311v96l583 -387v-47l-583 -385v94z" />
    <glyph glyph-name="question" unicode="?" horiz-adv-x="919" 
d="M653 1126q0 43 -27.5 78t-75.5 59.5t-95 42t-104 36.5t-85 32q-70 34 -74 98q-5 55 40 87q59 43 147 -2q17 -9 35 -21q35 -25 71 -55.5t81 -78t79 -95.5t57 -107t23 -115q0 -113 -42.5 -187.5t-156.5 -135.5q-36 -19 -57.5 -35.5t-40.5 -43t-25.5 -61.5t-5 -87.5
t14.5 -124.5h-62q-235 384 60 510q19 8 56.5 22.5t57.5 23t48.5 25.5t43.5 33.5t26 43t11 58.5zM256 109q0 54 38.5 91.5t92.5 37.5q53 0 91 -37.5t38 -91.5t-38 -91.5t-91 -37.5q-54 0 -92.5 37.5t-38.5 91.5z" />
    <glyph glyph-name="at" unicode="@" horiz-adv-x="1810" 
d="M1083 510q-12 -76 -36 -178t-43 -142q-27 -61 -72 -101t-103 -40q-45 0 -74.5 33t-40.5 86.5t-7.5 120t20.5 135.5q72 307 252 307q23 0 45 -11.5t41.5 -38t24 -68.5t-6.5 -103zM1260 768l-121 -102h-6q-15 61 -58 93t-102 32q-128 0 -236 -97t-157 -239
q-21 -58 -25.5 -124t9 -128t42.5 -112t80 -80.5t115 -30.5q67 0 132 43.5t95 111.5q5 -66 44.5 -108.5t117.5 -42.5q83 0 158.5 39.5t132.5 110.5t91 176.5t34 228.5q0 155 -48.5 274.5t-134.5 193t-197 111t-243 37.5q-151 0 -293.5 -64t-249 -171.5t-171 -257
t-64.5 -312.5q0 -191 81.5 -343.5t230 -239t337.5 -86.5q157 0 302.5 51.5t256.5 144.5l-20 37q-100 -81 -224 -123.5t-251 -42.5q-283 0 -427.5 156.5t-144.5 449.5q0 198 82 367.5t228 271t323 101.5q94 0 174.5 -17t154 -58.5t125 -105t81.5 -161t30 -222.5
q0 -110 -27.5 -203t-71 -149.5t-92.5 -87.5t-96 -31q-29 0 -47.5 11t-26.5 27t-9 42.5t1.5 48t8.5 52.5l98 528h-22z" />
    <glyph glyph-name="A" unicode="A" horiz-adv-x="1433" 
d="M1249 168l-471 1276h-121l-438 -1276q-21 -62 -60 -85t-145 -38v-45h461v45q-80 10 -117 37.5t-37.5 71.5t19.5 106l76 227h485l92 -258q18 -52 16 -89.5t-37 -61t-108 -33.5v-45h553v45q-86 23 -116.5 46t-51.5 77zM649 1192h4l219 -627h-430z" />
    <glyph glyph-name="B" unicode="B" horiz-adv-x="1249" 
d="M829 750v4q127 35 207 123t80 208q0 158 -123 253.5t-348 95.5h-569v-48q106 -15 138 -46t32 -117v-1014q0 -86 -32 -117.5t-138 -46.5v-45h631q225 0 348 103t123 276q0 129 -84 227.5t-265 143.5zM451 702h143q187 0 278 -85t91 -228q0 -66 -15 -119t-48.5 -98.5
t-95.5 -70.5t-149 -25h-204v626zM553 780h-102v576h163q152 0 219.5 -78.5t67.5 -212.5q0 -140 -80 -212.5t-268 -72.5z" />
    <glyph glyph-name="C" unicode="C" horiz-adv-x="1310" 
d="M778 57q-134 0 -239 83.5t-163.5 234t-58.5 342.5q0 291 129 474t332 183q88 0 162.5 -29t125 -78t83.5 -106.5t49 -122.5h55l-20 293q-77 48 -197 85.5t-258 37.5q-147 0 -274.5 -55t-218 -152t-142 -234t-51.5 -296t51.5 -296t142 -234t218 -152t274.5 -55
q138 0 258 37t197 85l20 291h-55q-16 -65 -49 -122.5t-83.5 -106.5t-125 -78t-162.5 -29z" />
    <glyph glyph-name="D" unicode="D" horiz-adv-x="1515" 
d="M451 76h245q102 0 187 35.5t142.5 96.5t97 143.5t57.5 174.5t18 191q0 145 -30.5 260.5t-93 201t-163.5 131.5t-235 46h-225v-1280zM696 0h-620v45q106 15 138 46.5t32 117.5v1014q0 86 -32 117t-138 46v48h620q333 0 530 -191t197 -526q0 -210 -89.5 -372.5t-255 -253.5
t-382.5 -91z" />
    <glyph glyph-name="E" unicode="E" 
d="M451 1356v-596h184q101 0 154.5 45t66.5 162h55v-492h-55q-13 117 -66.5 162t-154.5 45h-184v-606h378q109 0 180.5 66.5t86.5 189.5h55l-21 -332h-1054v45q106 15 138 46.5t32 117.5v1014q0 86 -32 117t-138 46v48h1034l10 -334h-55q-15 124 -81.5 190t-174.5 66h-358z
" />
    <glyph glyph-name="F" unicode="F" horiz-adv-x="1177" 
d="M451 651v-442q0 -86 31 -117.5t136 -46.5v-45h-542v45q106 15 138 46.5t32 117.5v1014q0 86 -32 117t-138 46v48h1034l10 -334h-55q-15 124 -81.5 190t-174.5 66h-358v-627h184q101 0 154.5 45t66.5 162h55v-492h-55q-13 117 -66.5 162t-154.5 45h-184z" />
    <glyph glyph-name="G" unicode="G" horiz-adv-x="1454" 
d="M1075 430v-258q-125 -115 -297 -115q-134 0 -239 83.5t-163.5 234t-58.5 342.5q0 291 129 474t332 183q88 0 162.5 -29t125 -78t83.5 -106.5t49 -122.5h55l-20 293q-77 48 -197 85.5t-258 37.5q-147 0 -274.5 -55t-218 -152t-142 -234t-51.5 -296t51.5 -296t142 -234
t218 -152t274.5 -55q139 0 282 53t220 110v287q0 88 24 118.5t113 45.5v45h-512v-45q58 -8 90 -18t51 -30t24 -45t5 -71z" />
    <glyph glyph-name="H" unicode="H" horiz-adv-x="1597" 
d="M1352 1223v-1014q0 -86 31 -117.5t137 -46.5v-45h-543v45q106 15 138 46.5t32 117.5v483h-696v-483q0 -86 31 -117.5t136 -46.5v-45h-542v45q106 15 138 46.5t32 117.5v1014q0 86 -32 117t-138 46v48h542v-48q-106 -15 -136.5 -46t-30.5 -117v-453h696v453q0 86 -32 117
t-138 46v48h543v-48q-106 -15 -137 -46t-31 -117z" />
    <glyph glyph-name="I" unicode="I" horiz-adv-x="696" 
d="M451 1223v-1014q0 -86 31 -117.5t136 -46.5v-45h-542v45q106 15 138 46.5t32 117.5v1014q0 86 -32 117t-138 46v48h542v-48q-106 -15 -136.5 -46t-30.5 -117z" />
    <glyph glyph-name="J" unicode="J" horiz-adv-x="819" 
d="M573 1223v-670q0 -260 -117.5 -416.5t-301.5 -156.5q-96 0 -124 61q-19 44 8 83q30 44 85 30q12 -3 24 -9q58 -26 95.5 -37t63 -9.5t38.5 17t19 45.5t7 72.5t0 100.5q-1 53 -1 82v807q0 86 -32 117t-138 46v48h542v-48q-106 -15 -137 -46t-31 -117z" />
    <glyph glyph-name="K" unicode="K" horiz-adv-x="1503" 
d="M668 860l250 311q27 34 41.5 66t14.5 64t-31.5 55t-94.5 30v48h522v-48q-203 -29 -305 -157l-352 -445l448 -534q148 -172 291 -205v-45h-610v45q53 7 80.5 26t29 46t-13 57t-43.5 66l-297 358q-45 54 -70.5 68t-76.5 14v-471q0 -86 31 -117.5t136 -46.5v-45h-542v45
q106 15 138 46.5t32 117.5v1014q0 86 -32 117t-138 46v48h542v-48q-106 -15 -136.5 -46t-30.5 -117v-465q82 0 126 21.5t91 80.5z" />
    <glyph glyph-name="L" unicode="L" horiz-adv-x="1187" 
d="M451 76h378q109 0 180.5 66.5t86.5 189.5h55l-21 -332h-1054v45q106 15 138 46.5t32 117.5v1014q0 86 -32 117t-138 46v48h542v-48q-106 -15 -136.5 -46t-30.5 -117v-1147z" />
    <glyph glyph-name="M" unicode="M" horiz-adv-x="1802" 
d="M932 287l409 1147h383v-48q-106 -15 -137 -46t-31 -117v-1014q0 -86 31 -117.5t137 -46.5v-45h-542v45q106 15 138 46.5t32 117.5v989l-437 -1208h-102l-465 1253v-1034q0 -61 12 -90t50.5 -46.5t121.5 -27.5v-45h-456v45q83 10 121.5 27.5t50.5 46.5t12 90v1014
q0 61 -12 89.5t-50.5 46t-121.5 27.5v48h436z" />
    <glyph glyph-name="N" unicode="N" horiz-adv-x="1495" 
d="M1167 352v871q0 61 -12 89.5t-50.5 46t-121.5 27.5v48h455v-48q-114 -15 -148.5 -46t-34.5 -117v-1223h-125l-782 1243v-1034q0 -61 12 -90t50.5 -46.5t121.5 -27.5v-45h-456v45q114 15 148 46.5t34 117.5v1014q0 86 -34 117t-148 46v48h420z" />
    <glyph glyph-name="O" unicode="O" horiz-adv-x="1597" 
d="M92 717q0 158 56.5 296t152.5 234t225.5 151.5t272.5 55.5t272.5 -55.5t225 -151.5t152 -234t56.5 -296t-56.5 -296t-152 -234t-225 -151.5t-272.5 -55.5t-272.5 55.5t-225.5 151.5t-152.5 234t-56.5 296zM317 717q0 -291 135.5 -475.5t346.5 -184.5q138 0 247.5 83.5
t171.5 234t62 342.5q0 290 -135.5 473.5t-345.5 183.5q-139 0 -249 -82.5t-171.5 -232.5t-61.5 -342z" />
    <glyph glyph-name="P" unicode="P" horiz-adv-x="1249" 
d="M451 686h143q102 0 175.5 27t114.5 75t60 106.5t19 129.5q0 66 -15 122t-48.5 105t-96 77t-148.5 28h-204v-670zM604 608h-153v-399q0 -86 31 -117.5t136 -46.5v-45h-542v45q106 15 138 46.5t32 117.5v1014q0 86 -32 117t-138 46v48h631q224 0 347.5 -108t123.5 -282
q0 -53 -13 -103.5t-40 -100.5t-73 -91t-107.5 -73t-149 -50t-191.5 -18z" />
    <glyph glyph-name="Q" unicode="Q" horiz-adv-x="1597" 
d="M92 717q0 158 56.5 296t152.5 234t225.5 151.5t272.5 55.5t272.5 -55.5t225 -151.5t152 -234t56.5 -296q0 -189 -79 -347t-212.5 -255t-298.5 -123q41 -43 61.5 -63.5t69 -67t83 -73.5t90.5 -65.5t105 -62t111.5 -44.5t125.5 -30v-37q-148 -45 -240 -45q-55 0 -110 18
t-100.5 45t-92.5 69.5t-81.5 80.5t-73 89.5t-61.5 85.5t-52 78q-2 3 -2.5 4t-2 3t-2.5 3.5t-2 3.5q-134 10 -253 69t-206.5 153.5t-138.5 227.5t-51 283zM317 717q0 -291 135.5 -475.5t346.5 -184.5q138 0 247.5 83.5t171.5 234t62 342.5q0 290 -135.5 473.5t-345.5 183.5
q-139 0 -249 -82.5t-171.5 -232.5t-61.5 -342z" />
    <glyph glyph-name="R" unicode="R" horiz-adv-x="1372" 
d="M1157 1051q0 -66 -17 -124t-55 -112t-106.5 -96t-163.5 -66l301 -422q46 -65 105 -115.5t114 -70.5v-45h-297q-75 56 -164 195l-284 434h-139v-420q0 -86 31 -117.5t136 -46.5v-45h-542v45q106 15 138 46.5t32 117.5v1014q0 86 -32 117t-138 46v48h610q225 0 348 -105
t123 -278zM451 707h143q102 0 172.5 24.5t107.5 70.5t52.5 101t15.5 127q0 52 -8.5 97t-30.5 88t-56 73.5t-88 49t-124 18.5h-184v-649z" />
    <glyph glyph-name="S" unicode="S" horiz-adv-x="1095" 
d="M590 850q414 -166 414 -451q0 -193 -131.5 -306t-340.5 -113q-109 0 -221 27.5t-198 74.5l-21 362h55q37 -383 375 -383q127 0 199 74t72 199q0 50 -18.5 93.5t-46 74.5t-72 61t-83 49.5t-92.5 42.5q-85 36 -147 73t-116.5 87.5t-83 116.5t-28.5 145q0 166 122 271.5
t329 105.5q209 0 379 -92l20 -344h-55q-59 354 -332 354q-114 0 -180.5 -56.5t-66.5 -168.5q0 -107 71.5 -177t196.5 -120z" />
    <glyph glyph-name="T" unicode="T" 
d="M1161 1434h-1095l-11 -334h58q15 124 81.5 190t174.5 66h143v-1147q0 -86 -32 -117.5t-138 -46.5v-45h543v45q-106 15 -137 46.5t-31 117.5v1147h143q108 0 174.5 -66t81.5 -190h55z" />
    <glyph glyph-name="U" unicode="U" horiz-adv-x="1556" 
d="M1225 573v650q0 46 -6 71t-26.5 45t-56 29.5t-98.5 17.5v48h461v-48q-117 -15 -150.5 -46t-33.5 -117v-670q0 -273 -146.5 -423t-400.5 -150q-272 0 -407.5 150t-135.5 423v670q0 86 -32 117t-138 46v48h543v-48q-106 -15 -137 -46t-31 -117v-650q0 -501 383 -501
q204 0 308 130t104 371z" />
    <glyph glyph-name="V" unicode="V" horiz-adv-x="1433" 
d="M184 1264l471 -1274h119l438 1274q21 62 60.5 84.5t144.5 37.5v48h-461v-48q80 -10 117.5 -37.5t38 -71.5t-19.5 -106l-310 -931h-4l-344 962q-18 52 -16 89.5t37 61t108 33.5v48h-549v-48q88 -23 118.5 -45.5t51.5 -76.5z" />
    <glyph glyph-name="W" unicode="W" horiz-adv-x="2068" 
d="M936 1264l82 -271l-277 -745h-4l-309 954q-16 52 -13 89.5t39 61t109 33.5v48h-549v-48q87 -23 118 -46t48 -76l426 -1274h119l332 874l274 -874h137l379 1274q18 62 57.5 84t147.5 38v48h-461v-48q80 -10 116.5 -37t37.5 -71t-16 -107l-265 -923h-4l-274 954
q-15 53 -13.5 90.5t35.5 60.5t107 33v48h-547v-48q88 -23 119.5 -45.5t48.5 -76.5z" />
    <glyph glyph-name="X" unicode="X" horiz-adv-x="1474" 
d="M332 1223l317 -545l-325 -469q-47 -68 -104.5 -102.5t-164.5 -61.5v-45h492v45q-60 10 -93 34t-36.5 57t9 69t40.5 76l229 327l185 -327q26 -46 37 -82t8 -69t-33.5 -55t-89.5 -30v-45h614v45q-47 17 -63.5 23.5t-48 21.5t-47 28.5t-36 36.5t-38.5 54l-340 579l295 435
q55 79 101.5 111.5t145.5 51.5v48h-471v-48q84 -8 119.5 -36t29 -70t-47.5 -102l-213 -318l-187 332q-22 39 -31.5 68.5t-7 57t28 45t74.5 23.5v48h-594v-48q98 -21 151 -55t95 -108z" />
    <glyph glyph-name="Y" unicode="Y" horiz-adv-x="1310" 
d="M158 1264l426 -783v-272q0 -86 -32 -117.5t-138 -46.5v-45h542v45q-106 15 -137 46.5t-31 117.5v362l328 693q28 59 66 82.5t118 39.5v48h-419v-48q70 -10 104.5 -37t33 -66.5t-23.5 -90.5l-266 -553h-4l-291 563q-18 34 -26.5 55.5t-11 45.5t8 38.5t37 26.5t70.5 18v48
h-502v-48q60 -24 91.5 -49t56.5 -73z" />
    <glyph glyph-name="Z" unicode="Z" 
d="M344 76l786 1296v62h-999l-10 -334h57q15 124 81 190t175 66h440l-798 -1301v-55h1054l21 332h-55q-15 -123 -86 -189.5t-181 -66.5h-485z" />
    <glyph glyph-name="bracketleft" unicode="[" horiz-adv-x="778" 
d="M686 -532v77h-317v2128h317v78h-491v-2283h491z" />
    <glyph glyph-name="backslash" unicode="\" horiz-adv-x="983" 
d="M199 1577h90l493 -1700h-92z" />
    <glyph glyph-name="bracketright" unicode="]" horiz-adv-x="778" 
d="M92 -532v77h318v2128h-318v78h492v-2283h-492z" />
    <glyph glyph-name="asciicircum" unicode="^" horiz-adv-x="1044" 
d="M522 1284l-276 -280h-51l297 471h61l297 -471h-51z" />
    <glyph glyph-name="underscore" unicode="_" horiz-adv-x="1249" 
d="M199 -96h850v-82h-850v82z" />
    <glyph glyph-name="grave" unicode="`" horiz-adv-x="755" 
d="M555 1149l-25 -23l-290 213q-58 43 -37 97q15 40 58 55q55 18 92 -30q3 -3 5 -7z" />
    <glyph glyph-name="a" unicode="a" horiz-adv-x="1024" 
d="M829 768l-10 -498q-2 -78 20 -111.5t64.5 -32.5t104.5 11v-35q-99 -70 -150.5 -96t-105.5 -26q-138 0 -138 163h-4q-96 -89 -161.5 -126t-151.5 -37q-92 0 -158.5 71t-66.5 174q0 181 266 228l283 49l4 205q3 120 -49 182.5t-146 62.5q-65 0 -107 -24.5t-54.5 -58.5
t-7.5 -67.5t26 -53.5q44 -41 -7 -85q-43 -37 -104 -42q-50 -4 -63 24q-10 28 -10 62.5t18 73t44 76t67.5 71.5t88.5 59.5t107.5 41t124.5 15.5q131 0 205 -73t71 -203zM614 201l4 241l-231 -55q-64 -15 -93 -56t-20 -102q7 -56 40 -85t77 -29q61 0 105.5 18.5t117.5 67.5z
" />
    <glyph glyph-name="b" unicode="b" horiz-adv-x="1187" 
d="M596 915q-130 0 -227 -86v-491q0 -68 15 -120.5t37.5 -83t53.5 -50t60 -26.5t59 -7q152 0 233.5 125.5t73.5 335.5q-7 192 -93 297.5t-212 105.5zM369 1577v-676h4q57 65 140 104t173 39q196 0 313 -149t117 -383q0 -96 -28.5 -181t-78.5 -148.5t-116 -109.5
t-142.5 -69.5t-156.5 -23.5q-169 0 -293 102l-86 -92h-51v1294q0 77 -29.5 108t-120.5 46v47l334 92h21z" />
    <glyph glyph-name="c" unicode="c" horiz-adv-x="1024" 
d="M573 973q-141 0 -221 -108.5t-80 -289.5q0 -213 99 -325.5t258 -112.5q174 0 323 84v-82q-80 -66 -132 -94q-119 -65 -257 -65q-114 0 -208 42.5t-155 115t-94.5 166.5t-33.5 198q0 126 44 230.5t116.5 171.5t163.5 103.5t188 36.5q166 0 266 -76t100 -180
q0 -53 -34 -82.5t-89 -29.5q-44 0 -70 21.5t-24 54.5q8 117 -26.5 169t-133.5 52z" />
    <glyph glyph-name="d" unicode="d" 
d="M590 106q128 0 229 87v493q0 68 -15 120.5t-37.5 83t-53.5 50t-60 26.5t-59 7q-152 0 -233.5 -125.5t-73.5 -335.5q7 -193 92.5 -299.5t210.5 -106.5zM819 983v301q0 78 -29 108.5t-120 45.5v47l334 92h20v-1296q0 -96 42 -126t146 -18v-55l-372 -102h-21v143h-4
q-58 -66 -140.5 -104.5t-172.5 -38.5q-196 0 -313 149t-117 383q0 96 28.5 181t78.5 148.5t116 109.5t142.5 69.5t156.5 23.5q137 0 225 -61z" />
    <glyph glyph-name="e" unicode="e" horiz-adv-x="1024" 
d="M573 973q-119 0 -195.5 -78.5t-98.5 -214.5h458q36 145 -14.5 219t-149.5 74zM563 -20q-114 0 -208 42.5t-155 115t-94.5 166.5t-33.5 198q0 126 44 230.5t116.5 171.5t163.5 103.5t188 36.5q65 0 121.5 -13.5t109.5 -45.5t85 -83.5t46 -127t-6 -176.5h-668
q-9 -208 91.5 -334.5t265.5 -126.5q184 0 323 84v-82q-80 -66 -132 -94q-119 -65 -257 -65z" />
    <glyph glyph-name="f" unicode="f" horiz-adv-x="696" 
d="M205 209v733h-133v72l133 10q10 92 47.5 180.5t88.5 154t109 116t111.5 76.5t93.5 26q85 0 106 -60q17 -46 -13 -87q-32 -43 -80 -27q-66 22 -111.5 26t-74.5 -8.5t-44.5 -41.5t-22 -73t-7 -102.5t0.5 -131.5q1 -32 1 -48h249v-82h-249v-733q0 -86 31 -117.5t137 -46.5
v-45h-523v45q96 17 123 47.5t27 116.5z" />
    <glyph glyph-name="g" unicode="g" horiz-adv-x="1105" 
d="M635 -92l-318 41q-54 -72 -73 -130.5t-19 -125.5q0 -83 68.5 -128.5t181.5 -45.5q61 0 126 15t124 44t97 77.5t38 108.5q0 67 -58 98.5t-167 45.5zM301 666q10 -142 70 -219.5t151 -77.5q105 0 151 83t38 222q-8 135 -63.5 217t-145.5 82q-102 0 -156.5 -82.5
t-44.5 -224.5zM836 901v-4q43 -51 64.5 -101.5t21.5 -119.5q0 -175 -113.5 -277t-296.5 -102q-77 0 -139 20q-3 -3 -17 -18.5t-17.5 -19.5t-13 -16.5t-12.5 -20t-6.5 -18.5t-3.5 -21q0 -32 29.5 -48t91.5 -22l321 -31q142 -14 226 -82t84 -174q0 -90 -60 -167.5t-155 -127
t-207.5 -77t-222.5 -27.5q-379 0 -379 205q0 86 60.5 158.5t178.5 152.5q-61 10 -104 50t-43 102q0 59 48 111.5t146 111.5q-103 42 -164 129t-61 203q0 165 118.5 269.5t301.5 104.5q49 0 99 -10t80.5 -20t76.5 -29l281 31v-115h-213z" />
    <glyph glyph-name="h" unicode="h" horiz-adv-x="1269" 
d="M55 0v45q106 15 138 46.5t32 117.5v1075q0 78 -29 108.5t-120 45.5v47l334 92h20v-737h4q195 204 367 204q284 0 284 -307v-528q0 -86 31 -117.5t137 -46.5v-45h-501v45q48 12 72.5 22t38 30t16 42t2.5 70v522q0 75 -38.5 122.5t-109.5 47.5q-73 0 -144 -29.5t-159 -99.5
v-563q0 -86 31 -117.5t137 -46.5v-45h-543z" />
    <glyph glyph-name="i" unicode="i" horiz-adv-x="614" 
d="M430 1044v-835q0 -86 31 -117.5t137 -46.5v-45h-543v45q106 15 138 46.5t32 117.5v543q0 77 -29 107.5t-120 45.5v47l334 92h20zM188 1374q0 59 41 100.5t99 41.5q57 0 98 -42t41 -100q0 -57 -41 -98t-98 -41q-58 0 -99 41t-41 98z" />
    <glyph glyph-name="j" unicode="j" horiz-adv-x="571" 
d="M428 1044v-952q0 -103 -24 -204t-63.5 -178.5t-88 -138t-99 -92.5t-94.5 -32q-86 0 -110 61q-18 46 8 87q29 42 76 26q46 -15 81 -19t57.5 4.5t36.5 24t20.5 44.5t8.5 59t0 74.5t-5 85t-6 96t-3 102.5v660q0 77 -29 107.5t-120 45.5v47l334 92h20zM186 1374
q0 59 41 100.5t99 41.5q57 0 98 -42t41 -100q0 -57 -41 -98t-98 -41q-58 0 -99 41t-41 98z" />
    <glyph glyph-name="k" unicode="k" 
d="M430 496v-287q0 -86 31 -117.5t137 -46.5v-45h-543v45q106 15 138 46.5t32 117.5v1075q0 78 -29 108.5t-120 45.5v47l334 92h20v-1004q82 0 124.5 14.5t80.5 57.5l133 154q38 44 47 79t-19.5 62t-99.5 37v47h451v-47q-87 -16 -140 -41t-96 -76l-223 -262l309 -381
q60 -73 110 -114.5t112 -57.5v-45h-471v45q44 5 58.5 21t1 49.5t-59.5 91.5l-175 217q-40 43 -67.5 57.5t-75.5 14.5z" />
    <glyph glyph-name="l" unicode="l" horiz-adv-x="614" 
d="M430 1577v-1368q0 -86 31 -117.5t137 -46.5v-45h-543v45q106 15 138 46.5t32 117.5v1075q0 78 -29 108.5t-120 45.5v47l334 92h20z" />
    <glyph glyph-name="m" unicode="m" horiz-adv-x="1884" 
d="M1065 762v-553q0 -86 31 -117.5t137 -46.5v-45h-502v45q48 12 72.5 22t38 30t16 42t2.5 70v522q0 83 -35.5 126.5t-105.5 43.5q-74 0 -139 -30t-150 -109v-553q0 -86 31 -117.5t137 -46.5v-45h-543v45q106 15 138 46.5t32 117.5v543q0 77 -29 107.5t-120 45.5v47l344 92
h16l-6 -215h4q87 107 174.5 161t194.5 54q97 0 166 -54.5t88 -170.5h6q168 225 375 225q54 0 99.5 -17t82.5 -52t58.5 -96t21.5 -142v-528q0 -86 31 -117.5t137 -46.5v-45h-502v45q48 12 72.5 22t38 30t16 42t2.5 70v522q0 83 -35.5 126.5t-105.5 43.5q-74 0 -139 -30
t-150 -109z" />
    <glyph glyph-name="n" unicode="n" horiz-adv-x="1269" 
d="M55 0v45q106 15 138 46.5t32 117.5v543q0 77 -29 107.5t-120 45.5v47l344 92h16l-6 -215h4q194 215 389 215q54 0 99.5 -17t82.5 -52t58.5 -96t21.5 -142v-528q0 -86 31 -117.5t137 -46.5v-45h-501v45q48 12 72.5 22t38 30t16 42t2.5 70v522q0 82 -38.5 126t-109.5 44
q-80 0 -142.5 -30.5t-160.5 -108.5v-553q0 -86 31 -117.5t137 -46.5v-45h-543z" />
    <glyph glyph-name="o" unicode="o" horiz-adv-x="1150" 
d="M74 512q2 146 67.5 267.5t182.5 193t260 71.5t257 -71.5t176 -193t60 -267.5q-3 -146 -69.5 -268t-183 -193t-259.5 -71t-257 71.5t-175 192.5t-59 268zM299 512q0 -228 71.5 -344.5t204.5 -116.5q132 0 204.5 117t72.5 344t-72.5 344t-204.5 117q-133 0 -204.5 -116.5
t-71.5 -344.5z" />
    <glyph glyph-name="p" unicode="p" 
d="M637 915q-130 0 -227 -86v-491q0 -68 15 -120.5t37.5 -83t53.5 -50t60 -26.5t59 -7q152 0 233.5 125.5t73.5 335.5q-7 192 -93 297.5t-212 105.5zM410 41v-363q0 -86 31 -117t137 -46v-47h-523v47q95 15 122.5 46t27.5 117v1074q0 77 -29.5 107.5t-120.5 45.5v47l344 92
h17l-6 -143h4q57 65 140 104t173 39q196 0 313 -149t117 -383q0 -96 -28.5 -181t-78.5 -148.5t-116 -109.5t-142.5 -69.5t-156.5 -23.5q-60 0 -122 16t-103 45z" />
    <glyph glyph-name="q" unicode="q" horiz-adv-x="1167" 
d="M590 106q128 0 229 87v493q0 68 -15 120.5t-37.5 83t-53.5 50t-60 26.5t-59 7q-152 0 -233.5 -125.5t-73.5 -335.5q7 -193 92.5 -299.5t210.5 -106.5zM819 -322v445h-4q-58 -66 -140.5 -104.5t-172.5 -38.5q-196 0 -313 149t-117 383q0 96 28.5 181t78.5 148.5t116 109.5
t142.5 69.5t156.5 23.5q167 0 291 -102l88 92h51v-1356q0 -86 26.5 -117t120.5 -46v-47h-522v47q106 15 138 46t32 117z" />
    <glyph glyph-name="r" unicode="r" horiz-adv-x="890" 
d="M430 209v532q150 160 318 93q54 -21 89 28q31 46 17 102q-15 65 -83 77q-14 3 -30 3q-157 0 -307 -235h-4l6 235h-16l-344 -92v-47q91 -15 120 -45.5t29 -107.5v-543q0 -86 -32 -117.5t-138 -46.5v-45h543v45q-106 15 -137 46.5t-31 117.5z" />
    <glyph glyph-name="s" unicode="s" horiz-adv-x="880" 
d="M752 717h-56q-23 120 -95 188t-167 68q-71 0 -122.5 -40.5t-51.5 -111.5q0 -35 13.5 -64t30 -46.5t50.5 -36t54.5 -26.5t62.5 -23q77 -30 129 -57t101 -66.5t73.5 -92t24.5 -118.5q0 -95 -52.5 -166.5t-137.5 -108t-189 -36.5q-77 0 -164.5 20t-149.5 51l-20 277h57
q9 -68 31.5 -119.5t50 -80.5t63 -47t65 -24t61.5 -6q83 0 133.5 49t50.5 129q0 41 -16 73t-51.5 58t-70 43t-91.5 41q-71 29 -118 55.5t-88 63.5t-61 86.5t-20 112.5q0 125 96 203.5t262 78.5q159 0 291 -63z" />
    <glyph glyph-name="t" unicode="t" horiz-adv-x="778" 
d="M389 942v-709q0 -41 12 -67t36 -37.5t47.5 -15.5t58.5 -4q50 0 194 28v-35q-74 -60 -161 -91t-166 -31q-226 0 -226 245v717h-129v72l129 30l154 287h51v-307h291v-82h-291z" />
    <glyph glyph-name="u" unicode="u" 
d="M819 260v563q0 80 -30.5 109.5t-139.5 44.5v47h375v-743q0 -96 42 -126t146 -18v-55l-372 -102h-21v215h-4q-90 -105 -178 -160t-193 -55q-113 0 -186.5 74.5t-73.5 232.5v536q0 79 -27.5 109t-121.5 45v47h354v-733q0 -75 37 -121.5t109 -46.5q70 0 129 28.5t155 108.5z
" />
    <glyph glyph-name="v" unicode="v" horiz-adv-x="1167" 
d="M158 854l379 -864h61l61 41l326 823q24 60 57 84t109 39v47h-420v-47q106 -15 138.5 -59.5t2.5 -124.5l-215 -570h-4l-239 570q-18 42 -22.5 70t4.5 52.5t40 39.5t86 22v47h-508v-47q67 -22 93.5 -46t50.5 -77z" />
    <glyph glyph-name="w" unicode="w" horiz-adv-x="1761" 
d="M817 854l29 -80l-230 -551h-4l-198 570q-16 44 -20 70.5t4 52t38.5 40t85.5 21.5v47h-508v-47q69 -23 96.5 -46.5t47.5 -76.5l327 -864h62l69 41l275 645l231 -686h64l67 41l326 823q24 60 57 84t109 39v47h-420v-47q106 -15 138.5 -59.5t2.5 -124.5l-215 -570h-4
l-180 570q-11 36 -15.5 58.5t-2.5 46t15.5 37.5t41.5 25t72 17v47h-508v-47q70 -24 99.5 -47.5t47.5 -75.5z" />
    <glyph glyph-name="x" unicode="x" horiz-adv-x="1146" 
d="M238 860l245 -383l-229 -313q-37 -53 -85 -78.5t-134 -40.5v-45h387v45q-35 5 -57 13.5t-30 22.5t-9 27.5t9 34.5t21.5 38.5t30.5 43.5l137 189l121 -189q25 -40 36.5 -65.5t12.5 -51t-21.5 -41t-68.5 -22.5v-45h506v45q-76 24 -112.5 46t-69.5 73l-269 420l209 276
q40 53 84 77.5t127 39.5v47h-389v-47q35 -5 57.5 -14.5t31.5 -23t10 -29t-7.5 -35.5t-20.5 -39t-30 -43l-115 -146l-98 152q-20 32 -32 53.5t-18 44t-0.5 37t24 26t51.5 17.5v47h-488v-47q73 -15 111 -39.5t72 -77.5z" />
    <glyph glyph-name="y" unicode="y" horiz-adv-x="1167" 
d="M549 -25l-391 879q-24 53 -50.5 77t-93.5 46v47h508v-47q-55 -7 -86 -22t-40 -39.5t-4.5 -52.5t22.5 -70l239 -570h4l215 570q30 80 -2.5 124.5t-138.5 59.5v47h420v-47q-76 -15 -109 -39t-57 -84l-346 -874q-56 -141 -128.5 -247.5t-144.5 -164.5t-134.5 -87t-118.5 -34
q-85 -7 -113 54q-20 45 3 89q24 44 69 32q2 0 4 -1q323 -94 473 354z" />
    <glyph glyph-name="z" unicode="z" horiz-adv-x="983" 
d="M289 72h401q84 0 126.5 56.5t57.5 182.5h52l-21 -311h-850v86l604 866h-337q-82 0 -120.5 -56t-54.5 -185h-51l10 313h789v-88z" />
    <glyph glyph-name="braceleft" unicode="{" horiz-adv-x="880" 
d="M782 1751v-57q-69 -2 -116 -10.5t-89.5 -32t-65 -69.5t-26.5 -116q-2 -32 16.5 -301.5t12.5 -316.5q-3 -26 -10.5 -49t-16 -41t-24.5 -36t-27 -29.5t-33.5 -25.5t-33.5 -21t-37.5 -18.5t-35 -15t-35.5 -13.5q-16 -6 -23 -9v-2q4 -2 39.5 -16t46 -19t42 -20.5t44 -26.5
t35.5 -31.5t34 -40.5t21.5 -48t13.5 -60q5 -45 -13 -304t-16 -292q3 -53 18 -89.5t36.5 -57t58.5 -32t70 -16t86 -8.5q18 -1 28 -2v-57q-74 0 -124.5 2t-105.5 9t-91 20t-70.5 35.5t-53.5 54.5t-30.5 77.5t-11.5 104.5q0 51 29 273t18 304q-5 47 -17.5 79t-29.5 53t-48 34.5
t-64 20.5t-87 14v74q57 11 87 18.5t63 22t49 34.5t29 52t18 79q11 82 -18 314t-29 282q0 82 22 141t60 94.5t102 56t134 27.5t169 7z" />
    <glyph glyph-name="bar" unicode="|" horiz-adv-x="481" 
d="M199 1679h82v-1884h-82v1884z" />
    <glyph glyph-name="braceright" unicode="}" horiz-adv-x="880" 
d="M96 -530v57q55 1 94.5 6.5t78.5 20t63.5 38.5t41 65t19.5 97q2 32 -16 302t-12 317q3 26 10.5 49t16 41t24.5 36t27 29.5t33.5 25.5t33.5 21t37.5 18.5t35 15t35.5 13.5q16 6 23 9v2q-4 2 -39.5 16t-46 19t-42 20.5t-44 26.5t-35.5 31.5t-34 40.5t-21.5 48t-13.5 60
q-6 45 12 304.5t16 291.5q-3 53 -18 89.5t-36.5 57t-58.5 32t-70 16t-86 8.5q-18 1 -28 2v57q74 0 124.5 -2t106 -9t91.5 -20t70 -35.5t53.5 -54.5t31 -77.5t11.5 -104.5q0 -51 -29 -273.5t-18 -304.5q7 -58 22 -94t47.5 -58t70.5 -32t105 -18v-74q-48 -9 -74 -15t-57 -17
t-46.5 -24t-31.5 -33.5t-23.5 -48.5t-12.5 -67q-11 -82 18 -314t29 -282q0 -69 -14.5 -121t-44.5 -87.5t-69 -58.5t-97.5 -35.5t-119.5 -17.5t-143 -5z" />
    <glyph glyph-name="asciitilde" unicode="~" horiz-adv-x="1126" 
d="M236 649l-41 27q115 235 215 235q41 0 164 -41t163 -41q56 0 88.5 15t65.5 61l41 -24q-21 -43 -38 -72t-44 -66t-58.5 -57t-64.5 -20q-48 0 -169 41t-169 41q-52 0 -82.5 -21.5t-70.5 -77.5z" />
    <glyph glyph-name="exclamdown" unicode="&#xa1;" horiz-adv-x="655" 
d="M197 995q0 -53 38.5 -91t92.5 -38q52 0 90.5 38t38.5 91q0 54 -38 92.5t-91 38.5q-54 0 -92.5 -38.5t-38.5 -92.5zM354 696h-51l-96 -1018q-5 -60 24 -104.5t99 -44.5q69 0 94 43.5t20 105.5z" />
    <glyph glyph-name="cent" unicode="&#xa2;" horiz-adv-x="1105" 
d="M567 -205v187q-106 7 -193 51t-143.5 115t-87 162t-30.5 192q0 117 37 215.5t100.5 165t144.5 107t172 50.5v189h82v-187q155 -6 248.5 -80.5t93.5 -173.5q0 -53 -34 -82.5t-89 -29.5q-44 0 -70 21.5t-24 54.5q0 37 -1.5 60t-8 55.5t-19 52t-37 34t-59.5 15.5v-832
q193 -3 344 84v-82q-31 -27 -53.5 -43t-68.5 -44.5t-102.5 -45.5t-119.5 -22v-189h-82zM313 575q0 -176 68 -283.5t186 -137.5v815q-119 -20 -186.5 -126t-67.5 -268z" />
    <glyph glyph-name="sterling" unicode="&#xa3;" horiz-adv-x="1304" 
d="M158 709h164q-4 30 -14.5 89t-16 95.5t-9.5 87.5t-1 94q11 162 137.5 270.5t324.5 108.5q165 0 264 -79.5t99 -184.5q0 -52 -37 -82.5t-90 -30.5q-44 0 -69.5 21.5t-22.5 54.5q9 118 -23 168.5t-135 50.5q-110 0 -175 -63.5t-69 -178.5q-3 -80 7.5 -230.5t11.5 -190.5
h299v-78h-299q-2 -155 -49.5 -283.5t-167.5 -243.5q0 -1 1 -2t1 -2q87 41 163 59.5t141 14t107.5 -14t102.5 -30t86 -27.5q38 -13 73.5 -11t65.5 18t56.5 60.5t45.5 117.5h56q-30 -112 -56 -166q-115 -240 -366 -197q-23 4 -76.5 25t-112.5 41.5t-129.5 36t-152 10.5
t-156.5 -37l-24 61q68 47 114.5 102t71 108t35 116.5t9.5 119t-9 124.5h-176v78z" />
    <glyph glyph-name="currency" unicode="&#xa4;" horiz-adv-x="1050" 
d="M205 510q0 -139 98 -234l-156 -176l19 -18l156 178q88 -72 204 -72q115 0 203 72l158 -178l18 18l-155 176q47 44 73.5 105t26.5 129q0 139 -102 235l159 183l-18 16l-160 -184q-90 74 -203 74q-114 0 -204 -74l-162 184l-17 -16l160 -185q-98 -95 -98 -233zM229 510
q0 122 88 210.5t209 88.5q122 0 210.5 -88.5t88.5 -210.5q0 -121 -88.5 -209t-210.5 -88t-209.5 87.5t-87.5 209.5z" />
    <glyph glyph-name="yen" unicode="&#xa5;" horiz-adv-x="1515" 
d="M907 567l312 697q26 58 65 82t119 40v48h-420v-48q70 -10 104 -37t33 -66.5t-22 -90.5l-250 -553h-4l-307 563q-18 33 -27 55t-11.5 45.5t8 38.5t37 27t70.5 18v48h-501v-48q59 -24 89.5 -49t57.5 -73l395 -697h-262v-82h293v-276q0 -86 -32 -117.5t-138 -46.5v-45h543
v45q-106 15 -137 46.5t-31 117.5v276h291v82h-275z" />
    <glyph glyph-name="brokenbar" unicode="&#xa6;" horiz-adv-x="481" 
d="M281 1679v-737h-82v737h82zM281 532v-737h-82v737h82z" />
    <glyph glyph-name="section" unicode="&#xa7;" horiz-adv-x="1157" 
d="M573 41q93 0 149 54.5t56 140.5q0 45 -16.5 79t-60 62.5t-66 39.5t-87.5 37q-5 3 -8.5 4.5t-7.5 2.5q-68 27 -113 51t-88 60t-64 84.5t-21 111.5q0 127 98 203q-98 79 -98 207q0 124 95 200t253 76q161 0 259.5 -76.5t98.5 -179.5q0 -50 -32.5 -76t-77.5 -26
q-36 0 -61.5 17t-24.5 48q8 122 -26 177t-146 55q-92 0 -143.5 -43.5t-51.5 -120.5q0 -24 4.5 -45t17 -39t22.5 -31t32.5 -27t34 -21.5t41.5 -19.5t40.5 -16t43.5 -16q67 -24 115 -48t98.5 -61.5t77 -90t26.5 -118.5q0 -129 -92 -211q92 -82 92 -198q0 -94 -54.5 -165.5
t-140 -106.5t-184.5 -35q-161 0 -259.5 76.5t-98.5 179.5q0 50 32.5 76t77.5 26q36 0 61.5 -17.5t24.5 -48.5q-8 -122 26 -176.5t146 -54.5zM532 870q-61 24 -112 50q-31 -42 -31 -101q0 -24 4.5 -45t17 -39t22.5 -31t32.5 -27t34 -21.5t41.5 -19.5t40.5 -16t43.5 -16
q92 -34 129 -55q24 43 24 96q0 45 -16.5 79t-60 62.5t-66 39.5t-87.5 37q-5 3 -8.5 4.5t-7.5 2.5z" />
    <glyph glyph-name="dieresis" unicode="&#xa8;" horiz-adv-x="1024" 
d="M199 1260q0 50 32 82t80 32q50 0 82.5 -31.5t32.5 -82.5q0 -50 -32.5 -81.5t-82.5 -31.5q-48 0 -80 31.5t-32 81.5zM596 1260q0 51 32.5 82.5t82.5 31.5q48 0 81 -32t33 -82t-33 -81.5t-81 -31.5q-50 0 -82.5 31.5t-32.5 81.5z" />
    <glyph glyph-name="copyright" unicode="&#xa9;" horiz-adv-x="1884" 
d="M205 717q0 150 58 286.5t157 235.5t235.5 157t286.5 58t286.5 -58t235.5 -157t157 -235.5t58 -286.5t-58 -286.5t-157 -235.5t-235.5 -157t-286.5 -58t-286.5 58t-235.5 157t-157 235.5t-58 286.5zM279 717q0 -181 88.5 -333.5t241.5 -241.5t333 -89q181 0 333.5 89
t241.5 241.5t89 333.5q0 180 -89 333t-241.5 241.5t-333.5 88.5q-135 0 -258 -52.5t-211.5 -141t-141 -211.5t-52.5 -258zM975 406q-33 0 -61 8t-55.5 28.5t-47 52.5t-31.5 84t-12 119q0 83 17.5 142.5t48.5 90.5t65.5 44.5t75.5 13.5q164 0 219 -196h31l-13 172
q-106 73 -239 73q-64 0 -121.5 -18t-107.5 -56t-79.5 -106.5t-29.5 -159.5t29.5 -159.5t79.5 -106.5t107.5 -56t121.5 -18q132 0 239 74l13 170h-31q-11 -38 -18 -58.5t-24 -51t-38 -46.5t-56.5 -28t-82.5 -12z" />
    <glyph glyph-name="ordfeminine" unicode="&#xaa;" horiz-adv-x="788" 
d="M561 1286l-8 -299q-1 -47 12 -66.5t38.5 -19t62.5 5.5v-20q-57 -42 -89.5 -58t-64.5 -16q-82 0 -82 98h-2q-59 -53 -98 -75.5t-90 -22.5q-54 0 -90.5 42.5t-36.5 105.5q0 109 151 137l170 30l2 121q1 71 -29.5 107.5t-87.5 36.5q-38 0 -63.5 -14t-33 -33.5t-5 -39.5
t15.5 -32q29 -28 -10 -56q-34 -26 -68 -21q-17 3 -22 15q-9 24 -5.5 54.5t27.5 63.5t56.5 60.5t81 45.5t100.5 18q78 0 123 -44.5t45 -123.5zM430 948l2 144l-139 -35q-37 -9 -54.5 -34t-11.5 -60q4 -32 24 -50t46 -18q61 0 133 53z" />
    <glyph glyph-name="guillemotleft" unicode="&#xab;" horiz-adv-x="1495" 
d="M442 551l340 311v96l-583 -387v-47l583 -385v94zM954 551l340 311v96l-583 -387v-47l583 -385v94z" />
    <glyph glyph-name="logicalnot" unicode="&#xac;" horiz-adv-x="1222" 
d="M1022 588v-414h-82v332h-741v82h823z" />
    <glyph glyph-name="uni00AD" unicode="&#xad;" horiz-adv-x="1146" 
d="M199 588h747v-82h-747v82z" />
    <glyph glyph-name="registered" unicode="&#xae;" horiz-adv-x="1884" 
d="M1229 840q0 -62 -49.5 -110t-141.5 -68l136 -168q45 -58 126 -99v-22h-174q-45 26 -86 84l-137 194h-57v-157q0 -51 18.5 -70t79.5 -29v-22h-319v22q64 10 82 28.5t18 70.5v407q0 51 -18 69.5t-82 28.5v25h323q141 0 211 -43.5t70 -140.5zM846 692h96q73 0 116.5 41.5
t43.5 106.5q0 69 -48.5 105t-133.5 36h-74v-289zM205 717q0 150 58 286.5t157 235.5t235.5 157t286.5 58t286.5 -58t235.5 -157t157 -235.5t58 -286.5t-58 -286.5t-157 -235.5t-235.5 -157t-286.5 -58t-286.5 58t-235.5 157t-157 235.5t-58 286.5zM279 717
q0 -181 88.5 -333.5t241.5 -241.5t333 -89q181 0 333.5 89t241.5 241.5t89 333.5q0 180 -89 333t-241.5 241.5t-333.5 88.5q-135 0 -258 -52.5t-211.5 -141t-141 -211.5t-52.5 -258z" />
    <glyph glyph-name="macron" unicode="&#xaf;" horiz-adv-x="1044" 
d="M199 1305h645v-82h-645v82z" />
    <glyph glyph-name="degree" unicode="&#xb0;" horiz-adv-x="768" 
d="M199 1378q0 77 53 131t131 54q76 0 130 -54t54 -131q0 -78 -53.5 -131t-130.5 -53q-78 0 -131 53t-53 131zM266 1378q0 -49 33.5 -82.5t83.5 -33.5t83.5 33.5t33.5 82.5q0 50 -34 83.5t-83 33.5t-83 -33.5t-34 -83.5z" />
    <glyph glyph-name="plusminus" unicode="&#xb1;" horiz-adv-x="1146" 
d="M199 240h331v266h-331v82h331v334h82v-334h334v-82h-334v-266h334v-82h-747v82z" />
    <glyph glyph-name="twosuperior" unicode="&#xb2;" horiz-adv-x="819" 
d="M410 1802q57 0 83.5 -50t26.5 -130q0 -40 -5.5 -74t-28 -87t-60.5 -105t-110 -121t-171 -141v-50h529v117h-375q120 83 199 156.5t113.5 133t45.5 100t11 85.5q0 88 -66 153.5t-180 65.5q-118 0 -181 -45t-63 -108q0 -33 20 -53.5t56 -20.5q32 0 48.5 16t14.5 37
q-4 67 17 94t76 27z" />
    <glyph glyph-name="threesuperior" unicode="&#xb3;" horiz-adv-x="819" 
d="M377 1075q143 0 143 191q0 78 -43 122t-117 44h-38v49h18q76 0 119 45.5t43 134.5q0 61 -33.5 97t-79.5 36q-53 0 -74.5 -28t-11.5 -93q3 -20 -14 -36.5t-49 -16.5q-28 0 -48.5 13t-23.5 40q-8 75 56.5 124.5t176.5 49.5q110 0 177 -50t67 -132q0 -73 -48 -128t-132 -75
v-2q92 -12 152.5 -60.5t60.5 -139.5q0 -115 -84.5 -175.5t-222.5 -60.5q-113 0 -175 47.5t-53 126.5q3 24 24 38.5t52 14.5t47.5 -15t16.5 -36q0 -68 21.5 -96.5t72.5 -28.5z" />
    <glyph glyph-name="acute" unicode="&#xb4;" horiz-adv-x="755" 
d="M199 1149l26 -23l289 213q57 42 37 97q-15 40 -58 55q-55 19 -92 -29l-6 -8z" />
    <glyph glyph-name="mu" unicode="&#xb5;" 
d="M819 260v563q0 80 -30.5 109.5t-139.5 44.5v47h375v-770q0 -58 22 -86t63.5 -31.5t102.5 0.5v-55l-372 -102h-21v215h-4q-46 -52 -78 -83.5t-75.5 -65.5t-88.5 -50t-94 -16q-40 0 -98 14q-13 -112 -52.5 -216t-91 -175t-109.5 -113.5t-108 -42.5q-86 0 -110 61
q-18 46 9 87q29 43 77 26q46 -15 80.5 -19t56.5 4.5t36.5 24t20.5 44.5t8 59t0 74.5t-5 85t-6 96t-3 102.5v731q0 79 -27.5 109t-121.5 45v47h354v-707q0 -85 34 -139.5t112 -54.5q70 0 129 28.5t155 108.5z" />
    <glyph glyph-name="paragraph" unicode="&#xb6;" horiz-adv-x="1372" 
d="M676 614v-409q0 -61 -12 -90t-50.5 -46.5t-121.5 -27.5v-41h286v1434h-184q-169 0 -279 -110.5t-110 -279.5q0 -80 28.5 -154.5t83.5 -137t148 -100.5t211 -38zM881 1434v-1434h286v41q-83 10 -121.5 27.5t-50.5 46.5t-12 90v1024q0 61 12 90t50.5 46.5t121.5 27.5v41
h-286z" />
    <glyph glyph-name="periodcentered" unicode="&#xb7;" horiz-adv-x="729" 
d="M195 508q0 69 50 118.5t120 49.5q69 0 118 -49.5t49 -118.5q0 -70 -49 -120t-118 -50q-71 0 -120.5 50t-49.5 120z" />
    <glyph glyph-name="cedilla" unicode="&#xb8;" horiz-adv-x="761" 
d="M287 0h61v-82q0 -15 11.5 -24.5t30.5 -15t41.5 -10.5t45 -14.5t41.5 -23.5t30 -40.5t11 -63.5q-1 -61 -56.5 -114t-130.5 -83t-153 -41l-20 61q5 2 35.5 11t45.5 14.5t42.5 18.5t42 26.5t26.5 34.5t12 45q0 25 -9.5 43t-24 27.5t-30.5 20.5t-30 21.5t-22 33t-6 53.5z" />
    <glyph glyph-name="onesuperior" unicode="&#xb9;" horiz-adv-x="819" 
d="M483 1855v-681q0 -52 26 -71t116 -28v-31h-430v31q90 9 115.5 28t25.5 71v503q0 50 -25 62t-116 12v31l276 73h12z" />
    <glyph glyph-name="ordmasculine" unicode="&#xba;" horiz-adv-x="833" 
d="M115 1130q3 137 87.5 230.5t213.5 93.5q131 0 214.5 -93.5t80.5 -230.5q-3 -132 -89.5 -224.5t-213.5 -92.5q-130 0 -214 92.5t-79 224.5zM248 1130q0 -134 43 -203t123 -69q78 0 121 69.5t43 202.5q0 136 -43 208.5t-121 72.5q-80 0 -123 -72t-43 -209z" />
    <glyph glyph-name="guillemotright" unicode="&#xbb;" horiz-adv-x="1495" 
d="M541 551l-342 311v96l583 -387v-47l-583 -385v94zM1053 551l-342 311v96l583 -387v-47l-583 -385v94z" />
    <glyph glyph-name="onequarter" unicode="&#xbc;" horiz-adv-x="1843" 
d="M391 1446v-682q0 -52 25.5 -70.5t115.5 -27.5v-31h-430v31q91 9 116.5 27.5t25.5 70.5v504q0 49 -25.5 61t-116.5 12v31l277 74h12zM1233 1454h-80l-494 -1474h82zM1485 270h-311l311 394v-394zM1741 172v98h-109v541h-96l-410 -520v-119h359v-172h147v172h109z" />
    <glyph glyph-name="onehalf" unicode="&#xbd;" horiz-adv-x="1843" 
d="M391 1446v-682q0 -52 25.5 -70.5t115.5 -27.5v-31h-430v31q91 9 116.5 27.5t25.5 70.5v504q0 49 -25.5 61t-116.5 12v31l277 74h12zM1202 1454h-80l-493 -1474h82zM1477 758q57 0 83.5 -50t26.5 -130q0 -40 -5.5 -74t-28 -87t-60.5 -105t-110 -121.5t-171 -141.5v-49h529
v117h-375q120 83 199 156.5t113.5 133t45.5 100t11 85.5q0 88 -66 153.5t-180 65.5q-117 0 -180.5 -45t-63.5 -109q0 -33 20 -53t56 -20q32 0 48.5 16t14.5 37q-4 67 17 94t76 27z" />
    <glyph glyph-name="threequarters" unicode="&#xbe;" horiz-adv-x="1843" 
d="M1243 1454h-80l-493 -1474h82zM338 666q143 0 143 190q0 78 -42.5 122t-116.5 44h-39v49h18q76 0 119 45.5t43 134.5q0 61 -33.5 97t-79.5 36q-53 0 -74.5 -27.5t-11.5 -92.5q3 -20 -14 -37t-49 -17q-28 0 -48.5 13.5t-23.5 40.5q-8 75 56.5 124.5t176.5 49.5
q110 0 177 -50.5t67 -132.5q0 -73 -48 -127.5t-132 -74.5v-2q92 -12 152.5 -61t60.5 -140q0 -115 -84.5 -175.5t-222.5 -60.5q-113 0 -175 47.5t-53 126.5q3 25 24 39.5t52 14.5t47.5 -15t16.5 -36q0 -68 21.5 -96.5t72.5 -28.5zM1485 270h-311l311 394v-394zM1741 172v98
h-109v541h-96l-410 -520v-119h359v-172h147v172h109z" />
    <glyph glyph-name="questiondown" unicode="&#xbf;" horiz-adv-x="919" 
d="M266 -20q0 -43 27.5 -78t75 -59.5t94.5 -42t103.5 -36.5t84.5 -32q70 -34 76 -98q5 -54 -39 -86q-59 -43 -147 1q-17 9 -35 21q-46 32 -93 74.5t-99.5 102.5t-85.5 132t-33 141q0 113 42 187t156 135q35 19 56.5 35.5t41 43.5t26 61.5t4.5 88t-15 125.5h61
q236 -386 -59 -512q-19 -8 -56 -22.5t-57.5 -23t-48.5 -25t-43 -33t-26 -42.5t-11 -58zM662 995q0 -52 -38.5 -90.5t-91.5 -38.5q-54 0 -92.5 38t-38.5 91q0 54 38.5 92.5t92.5 38.5q53 0 91.5 -38.5t38.5 -92.5z" />
    <glyph glyph-name="Agrave" unicode="&#xc0;" horiz-adv-x="1433" 
d="M700 1536l-290 213q-58 43 -37 97q15 40 58 55q55 18 92 -30q3 -3 5 -7l197 -305zM1249 168l-471 1276h-121l-438 -1276q-21 -62 -60 -85t-145 -38v-45h461v45q-80 10 -117 37.5t-37.5 71.5t19.5 106l76 227h485l92 -258q18 -52 16 -89.5t-37 -61t-108 -33.5v-45h553v45
q-86 23 -116.5 46t-51.5 77zM649 1192h4l219 -627h-430z" />
    <glyph glyph-name="Aacute" unicode="&#xc1;" horiz-adv-x="1433" 
d="M692 1559l27 -23l289 213q57 42 37 97q-15 40 -58 55q-55 19 -92 -29l-6 -8zM1249 168l-471 1276h-121l-438 -1276q-21 -62 -60 -85t-145 -38v-45h461v45q-80 10 -117 37.5t-37.5 71.5t19.5 106l76 227h485l92 -258q18 -52 16 -89.5t-37 -61t-108 -33.5v-45h553v45
q-86 23 -116.5 46t-51.5 77zM649 1192h4l219 -627h-430z" />
    <glyph glyph-name="Acircumflex" unicode="&#xc2;" horiz-adv-x="1433" 
d="M719 1720l-232 -184h-55l256 369h62l256 -369h-58zM1249 168l-471 1276h-121l-438 -1276q-21 -62 -60 -85t-145 -38v-45h461v45q-80 10 -117 37.5t-37.5 71.5t19.5 106l76 227h485l92 -258q18 -52 16 -89.5t-37 -61t-108 -33.5v-45h553v45q-86 23 -116.5 46t-51.5 77z
M649 1192h4l219 -627h-430z" />
    <glyph glyph-name="Atilde" unicode="&#xc3;" horiz-adv-x="1433" 
d="M389 1571l-41 26q115 236 215 236q41 0 164.5 -41t163.5 -41q56 0 88 15t65 61l41 -25q-22 -43 -38 -71.5t-43.5 -66.5t-58.5 -57.5t-64 -19.5q-48 0 -169 41t-169 41q-52 0 -83 -21.5t-71 -76.5zM1249 168l-471 1276h-121l-438 -1276q-21 -62 -60 -85t-145 -38v-45h461
v45q-80 10 -117 37.5t-37.5 71.5t19.5 106l76 227h485l92 -258q18 -52 16 -89.5t-37 -61t-108 -33.5v-45h553v45q-86 23 -116.5 46t-51.5 77zM649 1192h4l219 -627h-430z" />
    <glyph glyph-name="Adieresis" unicode="&#xc4;" horiz-adv-x="1433" 
d="M401 1669q0 50 32.5 82.5t80.5 32.5q50 0 82.5 -32t32.5 -83q0 -50 -32.5 -81.5t-82.5 -31.5q-48 0 -80.5 31.5t-32.5 81.5zM799 1669q0 51 32 83t82 32q48 0 81.5 -32.5t33.5 -82.5t-33.5 -81.5t-81.5 -31.5q-50 0 -82 31t-32 82zM1249 168l-471 1276h-121l-438 -1276
q-21 -62 -60 -85t-145 -38v-45h461v45q-80 10 -117 37.5t-37.5 71.5t19.5 106l76 227h485l92 -258q18 -52 16 -89.5t-37 -61t-108 -33.5v-45h553v45q-86 23 -116.5 46t-51.5 77zM649 1192h4l219 -627h-430z" />
    <glyph glyph-name="Aring" unicode="&#xc5;" horiz-adv-x="1433" 
d="M530 1602q0 77 53.5 130.5t131.5 53.5q77 0 130.5 -54t53.5 -130q0 -59 -32.5 -105t-84.5 -67l467 -1262q21 -54 51.5 -77t116.5 -46v-45h-553v45q73 10 108 33.5t37 61t-16 89.5l-90 256h-489l-74 -225q-20 -62 -19.5 -106t37.5 -71.5t117 -37.5v-45h-461v45
q106 15 145 38t60 85l432 1262q-54 17 -87.5 64t-33.5 108zM653 1192h-4l-207 -625h430zM598 1602q0 -50 34 -83.5t83 -33.5t82.5 33.5t33.5 83.5t-33.5 83t-82.5 33q-50 0 -83.5 -33.5t-33.5 -82.5z" />
    <glyph glyph-name="AE" unicode="&#xc6;" horiz-adv-x="1802" 
d="M944 1434l-696 -1266q-34 -61 -79.5 -84.5t-154.5 -38.5v-45h461v45q-47 6 -76.5 18.5t-42.5 29.5t-11.5 43.5t12.5 55t32 68.5l225 422h287v-473q0 -86 -32 -117.5t-138 -46.5v-45h973l20 332h-55q-15 -123 -86 -189.5t-180 -66.5h-297v606h102q102 0 155.5 -45
t66.5 -162h55v492h-55q-13 -117 -66.5 -162t-155.5 -45h-102v596h276q108 0 174.5 -66t81.5 -190h56l-11 334h-739zM897 1202h4v-442h-246z" />
    <glyph glyph-name="Ccedilla" unicode="&#xc7;" horiz-adv-x="1310" 
d="M778 57q-134 0 -239 83.5t-163.5 234t-58.5 342.5q0 291 129 474t332 183q88 0 162.5 -29t125 -78t83.5 -106.5t49 -122.5h55l-20 293q-77 48 -197 85.5t-258 37.5q-147 0 -274.5 -55t-218 -152t-142 -234t-51.5 -296q0 -306 175 -510t450 -223l-4 -86q-1 -31 7 -53.5
t22 -33t30.5 -21.5t30.5 -20.5t23.5 -27.5t9.5 -43q0 -24 -12 -45t-26.5 -34.5t-42 -26.5t-43 -18.5t-46 -14.5t-35.5 -11l20 -61q78 11 153 41t130.5 83t56.5 114q0 37 -11 63.5t-30 40.5t-41.5 23.5t-45 14.5t-41.5 10.5t-30.5 15t-11.5 24.5v62q138 1 258 38t195 84
l20 291h-55q-16 -65 -49 -122.5t-83.5 -106.5t-125 -78t-162.5 -29z" />
    <glyph glyph-name="Egrave" unicode="&#xc8;" 
d="M668 1536l-291 213q-57 42 -37 97q15 40 58 55q55 19 92 -29l6 -8l196 -305zM451 1356v-596h184q101 0 154.5 45t66.5 162h55v-492h-55q-13 117 -66.5 162t-154.5 45h-184v-606h378q109 0 180.5 66.5t86.5 189.5h55l-21 -332h-1054v45q106 15 138 46.5t32 117.5v1014
q0 86 -32 117t-138 46v48h1034l10 -334h-55q-15 124 -81.5 190t-174.5 66h-358z" />
    <glyph glyph-name="Eacute" unicode="&#xc9;" 
d="M606 1559l27 -23l289 213q57 42 37 97q-15 40 -58 55q-55 19 -92 -29l-6 -8zM451 1356v-596h184q101 0 154.5 45t66.5 162h55v-492h-55q-13 117 -66.5 162t-154.5 45h-184v-606h378q109 0 180.5 66.5t86.5 189.5h55l-21 -332h-1054v45q106 15 138 46.5t32 117.5v1014
q0 86 -32 117t-138 46v48h1034l10 -334h-55q-15 124 -81.5 190t-174.5 66h-358z" />
    <glyph glyph-name="Ecircumflex" unicode="&#xca;" 
d="M664 1720l-232 -184h-55l256 369h61l256 -369h-57zM451 1356v-596h184q101 0 154.5 45t66.5 162h55v-492h-55q-13 117 -66.5 162t-154.5 45h-184v-606h378q109 0 180.5 66.5t86.5 189.5h55l-21 -332h-1054v45q106 15 138 46.5t32 117.5v1014q0 86 -32 117t-138 46v48
h1034l10 -334h-55q-15 124 -81.5 190t-174.5 66h-358z" />
    <glyph glyph-name="Edieresis" unicode="&#xcb;" 
d="M367 1669q0 50 32 82.5t80 32.5q50 0 82.5 -32t32.5 -83q0 -50 -32.5 -81.5t-82.5 -31.5q-48 0 -80 31.5t-32 81.5zM764 1669q0 51 32.5 83t82.5 32q48 0 81 -32.5t33 -82.5t-33 -81.5t-81 -31.5q-50 0 -82.5 31.5t-32.5 81.5zM451 1356v-596h184q101 0 154.5 45
t66.5 162h55v-492h-55q-13 117 -66.5 162t-154.5 45h-184v-606h378q109 0 180.5 66.5t86.5 189.5h55l-21 -332h-1054v45q106 15 138 46.5t32 117.5v1014q0 86 -32 117t-138 46v48h1034l10 -334h-55q-15 124 -81.5 190t-174.5 66h-358z" />
    <glyph glyph-name="Igrave" unicode="&#xcc;" horiz-adv-x="696" 
d="M344 1536l-291 213q-57 42 -37 97q15 40 58 55q55 19 92 -29l6 -8l197 -305zM451 1223v-1014q0 -86 31 -117.5t136 -46.5v-45h-542v45q106 15 138 46.5t32 117.5v1014q0 86 -32 117t-138 46v48h542v-48q-106 -15 -136.5 -46t-30.5 -117z" />
    <glyph glyph-name="Iacute" unicode="&#xcd;" horiz-adv-x="696" 
d="M328 1559l26 -23l289 213q57 42 37 97q-15 40 -58 55q-55 19 -92 -29l-6 -8zM451 1223v-1014q0 -86 31 -117.5t136 -46.5v-45h-542v45q106 15 138 46.5t32 117.5v1014q0 86 -32 117t-138 46v48h542v-48q-106 -15 -136.5 -46t-30.5 -117z" />
    <glyph glyph-name="Icircumflex" unicode="&#xce;" horiz-adv-x="696" 
d="M348 1720l-231 -184h-56l256 369h62l256 -369h-57zM451 1223v-1014q0 -86 31 -117.5t136 -46.5v-45h-542v45q106 15 138 46.5t32 117.5v1014q0 86 -32 117t-138 46v48h542v-48q-106 -15 -136.5 -46t-30.5 -117z" />
    <glyph glyph-name="Idieresis" unicode="&#xcf;" horiz-adv-x="696" 
d="M35 1669q0 50 32 82.5t80 32.5q50 0 82.5 -32t32.5 -83q0 -50 -32.5 -81.5t-82.5 -31.5q-48 0 -80 31.5t-32 81.5zM432 1669q0 51 32.5 83t82.5 32q48 0 81.5 -32.5t33.5 -82.5t-33.5 -81.5t-81.5 -31.5q-50 0 -82.5 31.5t-32.5 81.5zM455 1223v-1014q0 -86 31 -117.5
t137 -46.5v-45h-543v45q106 15 138 46.5t32 117.5v1014q0 86 -32 117t-138 46v48h543v-48q-106 -15 -137 -46t-31 -117z" />
    <glyph glyph-name="Eth" unicode="&#xd0;" horiz-adv-x="1515" 
d="M76 760h170v463q0 86 -32 117t-138 46v48h620q333 0 530 -191t197 -526q0 -210 -89.5 -372.5t-255 -253.5t-382.5 -91h-620v45q106 15 138 46.5t32 117.5v473h-170v78zM451 76h245q102 0 187 35.5t142.5 96.5t97 143.5t57.5 174.5t18 191q0 145 -30.5 260.5t-93 201
t-163.5 131.5t-235 46h-225v-596h229v-78h-229v-606z" />
    <glyph glyph-name="Ntilde" unicode="&#xd1;" horiz-adv-x="1495" 
d="M496 1571l-41 26q115 236 215 236q41 0 164 -41t163 -41q56 0 88.5 15t65.5 61l41 -25q-21 -43 -38 -72t-44 -66t-58.5 -57t-64.5 -20q-48 0 -169 41t-169 41q-52 0 -82.5 -21t-70.5 -77zM1167 352v871q0 61 -12 89.5t-50.5 46t-121.5 27.5v48h455v-48
q-114 -15 -148.5 -46t-34.5 -117v-1223h-125l-782 1243v-1034q0 -61 12 -90t50.5 -46.5t121.5 -27.5v-45h-456v45q114 15 148 46.5t34 117.5v1014q0 86 -34 117t-148 46v48h420z" />
    <glyph glyph-name="Ograve" unicode="&#xd2;" horiz-adv-x="1597" 
d="M817 1536l-291 213q-57 42 -37 97q15 40 58 55q55 19 92 -29l6 -8l197 -305zM92 717q0 158 56.5 296t152.5 234t225.5 151.5t272.5 55.5t272.5 -55.5t225 -151.5t152 -234t56.5 -296t-56.5 -296t-152 -234t-225 -151.5t-272.5 -55.5t-272.5 55.5t-225.5 151.5t-152.5 234
t-56.5 296zM317 717q0 -291 135.5 -475.5t346.5 -184.5q138 0 247.5 83.5t171.5 234t62 342.5q0 290 -135.5 473.5t-345.5 183.5q-139 0 -249 -82.5t-171.5 -232.5t-61.5 -342z" />
    <glyph glyph-name="Oacute" unicode="&#xd3;" horiz-adv-x="1597" 
d="M713 1559l26 -23l289 213q57 42 37 97q-15 40 -58 55q-55 19 -92 -29l-6 -8zM92 717q0 158 56.5 296t152.5 234t225.5 151.5t272.5 55.5t272.5 -55.5t225 -151.5t152 -234t56.5 -296t-56.5 -296t-152 -234t-225 -151.5t-272.5 -55.5t-272.5 55.5t-225.5 151.5t-152.5 234
t-56.5 296zM317 717q0 -291 135.5 -475.5t346.5 -184.5q138 0 247.5 83.5t171.5 234t62 342.5q0 290 -135.5 473.5t-345.5 183.5q-139 0 -249 -82.5t-171.5 -232.5t-61.5 -342z" />
    <glyph glyph-name="Ocircumflex" unicode="&#xd4;" horiz-adv-x="1597" 
d="M799 1720l-232 -184h-55l256 369h61l256 -369h-57zM92 717q0 158 56.5 296t152.5 234t225.5 151.5t272.5 55.5t272.5 -55.5t225 -151.5t152 -234t56.5 -296t-56.5 -296t-152 -234t-225 -151.5t-272.5 -55.5t-272.5 55.5t-225.5 151.5t-152.5 234t-56.5 296zM317 717
q0 -291 135.5 -475.5t346.5 -184.5q138 0 247.5 83.5t171.5 234t62 342.5q0 290 -135.5 473.5t-345.5 183.5q-139 0 -249 -82.5t-171.5 -232.5t-61.5 -342z" />
    <glyph glyph-name="Otilde" unicode="&#xd5;" horiz-adv-x="1597" 
d="M479 1571l-41 26q115 236 215 236q41 0 164.5 -41t163.5 -41q56 0 88.5 15t65.5 61l41 -25q-21 -43 -38 -72t-44 -66t-58.5 -57t-64.5 -20q-48 0 -169 41t-169 41q-52 0 -83 -21.5t-71 -76.5zM92 717q0 158 56.5 296t152.5 234t225.5 151.5t272.5 55.5t272.5 -55.5
t225 -151.5t152 -234t56.5 -296t-56.5 -296t-152 -234t-225 -151.5t-272.5 -55.5t-272.5 55.5t-225.5 151.5t-152.5 234t-56.5 296zM317 717q0 -291 135.5 -475.5t346.5 -184.5q138 0 247.5 83.5t171.5 234t62 342.5q0 290 -135.5 473.5t-345.5 183.5q-139 0 -249 -82.5
t-171.5 -232.5t-61.5 -342z" />
    <glyph glyph-name="Odieresis" unicode="&#xd6;" horiz-adv-x="1597" 
d="M502 1669q0 50 32 82.5t80 32.5q50 0 82.5 -32t32.5 -83q0 -50 -32.5 -81.5t-82.5 -31.5q-48 0 -80 31.5t-32 81.5zM899 1669q0 51 32.5 83t82.5 32q48 0 81 -32.5t33 -82.5t-33 -81.5t-81 -31.5q-50 0 -82.5 31.5t-32.5 81.5zM92 717q0 158 56.5 296t152.5 234
t225.5 151.5t272.5 55.5t272.5 -55.5t225 -151.5t152 -234t56.5 -296t-56.5 -296t-152 -234t-225 -151.5t-272.5 -55.5t-272.5 55.5t-225.5 151.5t-152.5 234t-56.5 296zM317 717q0 -291 135.5 -475.5t346.5 -184.5q138 0 247.5 83.5t171.5 234t62 342.5q0 290 -135.5 473.5
t-345.5 183.5q-139 0 -249 -82.5t-171.5 -232.5t-61.5 -342z" />
    <glyph glyph-name="multiply" unicode="&#xd7;" horiz-adv-x="1126" 
d="M926 858l-310 -309l310 -309l-56 -56l-309 308l-307 -308l-55 58l307 307l-307 307l55 55l307 -307l309 307z" />
    <glyph glyph-name="Oslash" unicode="&#xd8;" horiz-adv-x="1597" 
d="M92 717q0 158 56.5 296t152.5 234t225.5 151.5t272.5 55.5q134 0 256.5 -49t218.5 -139l119 125l55 -62l-117 -123q174 -208 174 -489q0 -158 -56.5 -296t-152 -234t-225 -151.5t-272.5 -55.5q-269 0 -469 178l-123 -129l-60 63l123 127q-178 204 -178 498zM317 717
q0 -203 76 -371l774 807q-65 106 -159.5 163.5t-208.5 57.5q-139 0 -249 -82.5t-171.5 -232.5t-61.5 -342zM1280 717q0 194 -74 358l-772 -809q66 -100 159.5 -154.5t205.5 -54.5q138 0 247.5 83.5t171.5 234t62 342.5z" />
    <glyph glyph-name="Ugrave" unicode="&#xd9;" horiz-adv-x="1556" 
d="M831 1536l-290 213q-58 43 -37 97q15 40 58 55q55 18 92 -30q3 -3 5 -7l197 -305zM1225 573v650q0 46 -6 71t-26.5 45t-56 29.5t-98.5 17.5v48h461v-48q-117 -15 -150.5 -46t-33.5 -117v-670q0 -273 -146.5 -423t-400.5 -150q-272 0 -407.5 150t-135.5 423v670
q0 86 -32 117t-138 46v48h543v-48q-106 -15 -137 -46t-31 -117v-650q0 -501 383 -501q204 0 308 130t104 371z" />
    <glyph glyph-name="Uacute" unicode="&#xda;" horiz-adv-x="1556" 
d="M784 1559l27 -23l289 213q57 42 37 97q-15 40 -58 55q-55 19 -92 -29l-6 -8zM1225 573v650q0 46 -6 71t-26.5 45t-56 29.5t-98.5 17.5v48h461v-48q-117 -15 -150.5 -46t-33.5 -117v-670q0 -273 -146.5 -423t-400.5 -150q-272 0 -407.5 150t-135.5 423v670q0 86 -32 117
t-138 46v48h543v-48q-106 -15 -137 -46t-31 -117v-650q0 -501 383 -501q204 0 308 130t104 371z" />
    <glyph glyph-name="Ucircumflex" unicode="&#xdb;" horiz-adv-x="1556" 
d="M821 1720l-231 -184h-55l256 369h61l256 -369h-57zM1225 573v650q0 46 -6 71t-26.5 45t-56 29.5t-98.5 17.5v48h461v-48q-117 -15 -150.5 -46t-33.5 -117v-670q0 -273 -146.5 -423t-400.5 -150q-272 0 -407.5 150t-135.5 423v670q0 86 -32 117t-138 46v48h543v-48
q-106 -15 -137 -46t-31 -117v-650q0 -501 383 -501q204 0 308 130t104 371z" />
    <glyph glyph-name="Udieresis" unicode="&#xdc;" horiz-adv-x="1556" 
d="M512 1669q0 50 32.5 82.5t80.5 32.5q50 0 82 -32t32 -83t-32 -82t-82 -31q-48 0 -80.5 31.5t-32.5 81.5zM909 1669q0 51 32.5 83t82.5 32q48 0 81.5 -32.5t33.5 -82.5t-33.5 -81.5t-81.5 -31.5q-50 0 -82.5 31.5t-32.5 81.5zM1225 573v650q0 46 -6 71t-26.5 45t-56 29.5
t-98.5 17.5v48h461v-48q-117 -15 -150.5 -46t-33.5 -117v-670q0 -273 -146.5 -423t-400.5 -150q-272 0 -407.5 150t-135.5 423v670q0 86 -32 117t-138 46v48h543v-48q-106 -15 -137 -46t-31 -117v-650q0 -501 383 -501q204 0 308 130t104 371z" />
    <glyph glyph-name="Yacute" unicode="&#xdd;" horiz-adv-x="1310" 
d="M678 1559l27 -23l288 213q57 42 37 97q-15 40 -58 55q-55 19 -92 -29l-6 -8zM158 1264l426 -783v-272q0 -86 -32 -117.5t-138 -46.5v-45h542v45q-106 15 -137 46.5t-31 117.5v362l328 693q28 59 66 82.5t118 39.5v48h-419v-48q70 -10 104.5 -37t33 -66.5t-23.5 -90.5
l-266 -553h-4l-291 563q-18 34 -26.5 55.5t-11 45.5t8 38.5t37 26.5t70.5 18v48h-502v-48q60 -24 91.5 -49t56.5 -73z" />
    <glyph glyph-name="Thorn" unicode="&#xde;" horiz-adv-x="1249" 
d="M451 399h143q102 0 175.5 27t114.5 75t60 106.5t19 129.5q0 66 -15 122t-48.5 105t-96 77t-148.5 28h-204v-670zM246 209v1014q0 86 -32 117t-138 46v48h542v-48q-106 -15 -136.5 -46t-30.5 -117v-76h256q224 0 347.5 -107.5t123.5 -281.5q0 -53 -13 -103.5t-40 -100.5
t-73 -91t-107.5 -73t-149 -50t-191.5 -18h-153v-113q0 -86 31 -117.5t136 -46.5v-45h-542v45q106 15 138 46.5t32 117.5z" />
    <glyph glyph-name="germandbls" unicode="&#xdf;" horiz-adv-x="1269" 
d="M655 1577q166 0 250 -75.5t84 -190.5q0 -58 -17 -107t-42.5 -81.5t-55 -65t-55 -58t-42.5 -59t-17 -70.5q0 -67 84 -127l200 -145q75 -55 114 -124.5t39.5 -137t-27 -132.5t-77 -114.5t-119.5 -79.5t-147 -30q-117 0 -185.5 53t-68.5 147q0 72 59 103q48 25 89 4
q43 -22 27 -78q-25 -82 -5 -125t93 -43q86 0 133 52t49 138q2 113 -129 213l-170 129q-32 24 -53.5 49.5t-30.5 53t-12.5 51.5t4.5 55t15.5 53.5t26.5 56.5t31 54t35 55q37 59 56 146t13.5 169.5t-50.5 141t-125 58.5q-67 0 -110.5 -30t-67 -96t-32.5 -151t-9 -215v-1024
h-355v45q96 17 123 47.5t27 116.5v733h-133v72l133 10q0 124 32 223.5t80 159.5t110.5 100t119 55t108.5 15z" />
    <glyph glyph-name="agrave" unicode="&#xe0;" horiz-adv-x="1024" 
d="M829 768l-10 -498q-2 -78 20 -111.5t64.5 -32.5t104.5 11v-35q-99 -70 -150.5 -96t-105.5 -26q-138 0 -138 163h-4q-96 -89 -161.5 -126t-151.5 -37q-92 0 -158.5 71t-66.5 174q0 181 266 228l283 49l4 205q3 120 -49 182.5t-146 62.5q-65 0 -107 -24.5t-54.5 -58.5
t-7.5 -67.5t26 -53.5q44 -41 -7 -85q-43 -37 -104 -42q-50 -4 -63 24q-10 28 -10 62.5t18 73t44 76t67.5 71.5t88.5 59.5t107.5 41t124.5 15.5q131 0 205 -73t71 -203zM614 201l4 241l-231 -55q-64 -15 -93 -56t-20 -102q7 -56 40 -85t77 -29q61 0 105.5 18.5t117.5 67.5z
M545 1149l-25 -23l-290 213q-58 43 -37 97q15 40 58 55q55 18 92 -30q3 -3 5 -7z" />
    <glyph glyph-name="aacute" unicode="&#xe1;" horiz-adv-x="1024" 
d="M829 768l-10 -498q-2 -78 20 -111.5t64.5 -32.5t104.5 11v-35q-99 -70 -150.5 -96t-105.5 -26q-138 0 -138 163h-4q-96 -89 -161.5 -126t-151.5 -37q-92 0 -158.5 71t-66.5 174q0 181 266 228l283 49l4 205q3 120 -49 182.5t-146 62.5q-65 0 -107 -24.5t-54.5 -58.5
t-7.5 -67.5t26 -53.5q44 -41 -7 -85q-43 -37 -104 -42q-50 -4 -63 24q-10 28 -10 62.5t18 73t44 76t67.5 71.5t88.5 59.5t107.5 41t124.5 15.5q131 0 205 -73t71 -203zM614 201l4 241l-231 -55q-64 -15 -93 -56t-20 -102q7 -56 40 -85t77 -29q61 0 105.5 18.5t117.5 67.5z
M441 1149l26 -23l289 213q57 42 37 97q-15 40 -58 55q-55 19 -92 -29l-6 -8z" />
    <glyph glyph-name="acircumflex" unicode="&#xe2;" horiz-adv-x="1024" 
d="M829 768l-10 -498q-2 -78 20 -111.5t64.5 -32.5t104.5 11v-35q-99 -70 -150.5 -96t-105.5 -26q-138 0 -138 163h-4q-96 -89 -161.5 -126t-151.5 -37q-92 0 -158.5 71t-66.5 174q0 181 266 228l283 49l4 205q3 120 -49 182.5t-146 62.5q-65 0 -107 -24.5t-54.5 -58.5
t-7.5 -67.5t26 -53.5q44 -41 -7 -85q-43 -37 -104 -42q-50 -4 -63 24q-10 28 -10 62.5t18 73t44 76t67.5 71.5t88.5 59.5t107.5 41t124.5 15.5q131 0 205 -73t71 -203zM614 201l4 241l-231 -55q-64 -15 -93 -56t-20 -102q7 -56 40 -85t77 -29q61 0 105.5 18.5t117.5 67.5z
M493 1311l-231 -185h-55l256 369h61l256 -369h-57z" />
    <glyph glyph-name="atilde" unicode="&#xe3;" horiz-adv-x="1024" 
d="M829 768l-10 -498q-2 -78 20 -111.5t64.5 -32.5t104.5 11v-35q-99 -70 -150.5 -96t-105.5 -26q-138 0 -138 163h-4q-96 -89 -161.5 -126t-151.5 -37q-92 0 -158.5 71t-66.5 174q0 181 266 228l283 49l4 205q3 120 -49 182.5t-146 62.5q-65 0 -107 -24.5t-54.5 -58.5
t-7.5 -67.5t26 -53.5q44 -41 -7 -85q-43 -37 -104 -42q-50 -4 -63 24q-10 28 -10 62.5t18 73t44 76t67.5 71.5t88.5 59.5t107.5 41t124.5 15.5q131 0 205 -73t71 -203zM614 201l4 241l-231 -55q-64 -15 -93 -56t-20 -102q7 -56 40 -85t77 -29q61 0 105.5 18.5t117.5 67.5z
M166 1161l-41 27q115 235 215 235q41 0 164 -41t163 -41q56 0 88.5 15t65.5 61l41 -24q-21 -43 -38 -72t-44 -66t-58.5 -57t-64.5 -20q-48 0 -169 41t-169 41q-52 0 -82.5 -21.5t-70.5 -77.5z" />
    <glyph glyph-name="adieresis" unicode="&#xe4;" horiz-adv-x="1024" 
d="M829 768l-10 -498q-2 -78 20 -111.5t64.5 -32.5t104.5 11v-35q-99 -70 -150.5 -96t-105.5 -26q-138 0 -138 163h-4q-96 -89 -161.5 -126t-151.5 -37q-92 0 -158.5 71t-66.5 174q0 181 266 228l283 49l4 205q3 120 -49 182.5t-146 62.5q-65 0 -107 -24.5t-54.5 -58.5
t-7.5 -67.5t26 -53.5q44 -41 -7 -85q-43 -37 -104 -42q-50 -4 -63 24q-10 28 -10 62.5t18 73t44 76t67.5 71.5t88.5 59.5t107.5 41t124.5 15.5q131 0 205 -73t71 -203zM614 201l4 241l-231 -55q-64 -15 -93 -56t-20 -102q7 -56 40 -85t77 -29q61 0 105.5 18.5t117.5 67.5z
M187 1260q0 50 32 82t80 32q50 0 82.5 -31.5t32.5 -82.5q0 -50 -32.5 -81.5t-82.5 -31.5q-48 0 -80 31.5t-32 81.5zM584 1260q0 51 32.5 82.5t82.5 31.5q48 0 81 -32t33 -82t-33 -81.5t-81 -31.5q-50 0 -82.5 31.5t-32.5 81.5z" />
    <glyph glyph-name="aring" unicode="&#xe5;" horiz-adv-x="1024" 
d="M829 768l-10 -498q-2 -78 20 -111.5t64.5 -32.5t104.5 11v-35q-99 -70 -150.5 -96t-105.5 -26q-138 0 -138 163h-4q-96 -89 -161.5 -126t-151.5 -37q-92 0 -158.5 71t-66.5 174q0 181 266 228l283 49l4 205q3 120 -49 182.5t-146 62.5q-65 0 -107 -24.5t-54.5 -58.5
t-7.5 -67.5t26 -53.5q44 -41 -7 -85q-43 -37 -104 -42q-50 -4 -63 24q-10 28 -10 62.5t18 73t44 76t67.5 71.5t88.5 59.5t107.5 41t124.5 15.5q131 0 205 -73t71 -203zM614 201l4 241l-231 -55q-64 -15 -93 -56t-20 -102q7 -56 40 -85t77 -29q61 0 105.5 18.5t117.5 67.5z
M316 1305q0 77 53 130.5t131 53.5q77 0 130.5 -53.5t53.5 -130.5q0 -78 -53.5 -131.5t-130.5 -53.5q-78 0 -131 53.5t-53 131.5zM383 1305q0 -49 34 -83t83 -34t83 34t34 83t-33.5 82.5t-83.5 33.5t-83.5 -33.5t-33.5 -82.5z" />
    <glyph glyph-name="ae" unicode="&#xe6;" horiz-adv-x="1517" 
d="M1085 -20q-251 0 -374 188q-129 -108 -225 -148t-189 -40q-92 0 -158.5 71t-66.5 174q0 181 266 228l283 49l4 205q3 120 -49 182.5t-146 62.5q-65 0 -107 -24.5t-54.5 -58.5t-7.5 -67.5t26 -53.5q44 -41 -7 -85q-43 -37 -104 -42q-50 -4 -63 24q-10 28 -10 62.5t18 73
t44 76t67.5 71.5t88.5 59.5t107.5 41t124.5 15.5q172 0 240 -129q132 129 311 129q60 0 112.5 -13.5t102 -45.5t79 -83.5t42.5 -127t-6 -176.5h-607q-6 -216 81.5 -338.5t238.5 -122.5q163 0 299 84v-82q-72 -64 -117 -91q-113 -68 -244 -68zM1094 973q-109 0 -178.5 -78.5
t-84.5 -214.5h398q35 147 -5 220t-130 73zM391 115q143 0 289 108q-47 95 -53 217l-238 -53q-65 -15 -94.5 -56t-20.5 -102q7 -56 40 -85t77 -29z" />
    <glyph glyph-name="ccedilla" unicode="&#xe7;" horiz-adv-x="1024" 
d="M952 221v-82q-80 -66 -133 -95q-114 -61 -246 -64v-62q0 -15 11.5 -24.5t30.5 -15t41.5 -10.5t45 -14.5t41.5 -23.5t30 -40.5t11 -63.5q-1 -61 -56.5 -114t-130.5 -83t-153 -41l-20 61q5 2 35.5 11t46 14.5t43 18.5t42 26.5t26.5 34.5t12 45q0 30 -13.5 50t-33 31.5
t-38.5 24.5t-31.5 37.5t-10.5 61.5l4 80q-135 12 -235 87t-149.5 187t-49.5 244q0 126 44 230.5t116.5 171.5t163.5 103.5t188 36.5q166 0 266 -76t100 -180q0 -53 -34 -82.5t-89 -29.5q-44 0 -70 21.5t-24 54.5q8 117 -26.5 169t-133.5 52q-141 0 -221 -108.5t-80 -289.5
q0 -213 99 -325.5t258 -112.5q174 0 323 84z" />
    <glyph glyph-name="egrave" unicode="&#xe8;" horiz-adv-x="1024" 
d="M573 973q-119 0 -195.5 -78.5t-98.5 -214.5h458q36 145 -14.5 219t-149.5 74zM563 -20q-114 0 -208 42.5t-155 115t-94.5 166.5t-33.5 198q0 126 44 230.5t116.5 171.5t163.5 103.5t188 36.5q65 0 121.5 -13.5t109.5 -45.5t85 -83.5t46 -127t-6 -176.5h-668
q-9 -208 91.5 -334.5t265.5 -126.5q184 0 323 84v-82q-80 -66 -132 -94q-119 -65 -257 -65zM637 1149l-25 -23l-290 213q-58 43 -37 97q15 40 58 55q55 18 92 -30q3 -3 5 -7z" />
    <glyph glyph-name="eacute" unicode="&#xe9;" horiz-adv-x="1024" 
d="M573 973q-119 0 -195.5 -78.5t-98.5 -214.5h458q36 145 -14.5 219t-149.5 74zM563 -20q-114 0 -208 42.5t-155 115t-94.5 166.5t-33.5 198q0 126 44 230.5t116.5 171.5t163.5 103.5t188 36.5q65 0 121.5 -13.5t109.5 -45.5t85 -83.5t46 -127t-6 -176.5h-668
q-9 -208 91.5 -334.5t265.5 -126.5q184 0 323 84v-82q-80 -66 -132 -94q-119 -65 -257 -65zM512 1149l26 -23l289 213q57 42 37 97q-15 40 -58 55q-55 19 -92 -29l-6 -8z" />
    <glyph glyph-name="ecircumflex" unicode="&#xea;" horiz-adv-x="1024" 
d="M573 973q-119 0 -195.5 -78.5t-98.5 -214.5h458q36 145 -14.5 219t-149.5 74zM563 -20q-114 0 -208 42.5t-155 115t-94.5 166.5t-33.5 198q0 126 44 230.5t116.5 171.5t163.5 103.5t188 36.5q65 0 121.5 -13.5t109.5 -45.5t85 -83.5t46 -127t-6 -176.5h-668
q-9 -208 91.5 -334.5t265.5 -126.5q184 0 323 84v-82q-80 -66 -132 -94q-119 -65 -257 -65zM561 1311l-231 -185h-55l256 369h61l256 -369h-57z" />
    <glyph glyph-name="edieresis" unicode="&#xeb;" horiz-adv-x="1024" 
d="M573 973q-119 0 -195.5 -78.5t-98.5 -214.5h458q36 145 -14.5 219t-149.5 74zM563 -20q-114 0 -208 42.5t-155 115t-94.5 166.5t-33.5 198q0 126 44 230.5t116.5 171.5t163.5 103.5t188 36.5q65 0 121.5 -13.5t109.5 -45.5t85 -83.5t46 -127t-6 -176.5h-668
q-9 -208 91.5 -334.5t265.5 -126.5q184 0 323 84v-82q-80 -66 -132 -94q-119 -65 -257 -65zM256 1260q0 50 32 82t80 32q50 0 82.5 -31.5t32.5 -82.5q0 -50 -32.5 -81.5t-82.5 -31.5q-48 0 -80 31.5t-32 81.5zM653 1260q0 51 32.5 82.5t82.5 31.5q48 0 81 -32t33 -82
t-33 -81.5t-81 -31.5q-50 0 -82.5 31.5t-32.5 81.5z" />
    <glyph glyph-name="igrave" unicode="&#xec;" horiz-adv-x="614" 
d="M430 1044v-835q0 -86 31 -117.5t137 -46.5v-45h-543v45q106 15 138 46.5t32 117.5v543q0 77 -29 107.5t-120 45.5v47l334 92h20zM352 1149l-25 -23l-290 213q-58 43 -37 97q15 40 58 55q55 18 92 -30q3 -3 5 -7z" />
    <glyph glyph-name="iacute" unicode="&#xed;" horiz-adv-x="614" 
d="M430 1044v-835q0 -86 31 -117.5t137 -46.5v-45h-543v45q106 15 138 46.5t32 117.5v543q0 77 -29 107.5t-120 45.5v47l334 92h20zM279 1149l26 -23l289 213q57 42 37 97q-15 40 -58 55q-55 19 -92 -29l-6 -8z" />
    <glyph glyph-name="icircumflex" unicode="&#xee;" horiz-adv-x="614" 
d="M319 1311l-231 -185h-55l256 369h61l256 -369h-57zM430 1044v-835q0 -86 31 -117.5t137 -46.5v-45h-543v45q106 15 138 46.5t32 117.5v543q0 77 -29 107.5t-120 45.5v47l334 92h20z" />
    <glyph glyph-name="idieresis" unicode="&#xef;" horiz-adv-x="614" 
d="M430 1044v-835q0 -86 31 -117.5t137 -46.5v-45h-543v45q106 15 138 46.5t32 117.5v543q0 77 -29 107.5t-120 45.5v47l334 92h20zM15 1260q0 50 32 82t80 32q50 0 82.5 -31.5t32.5 -82.5q0 -50 -32.5 -81.5t-82.5 -31.5q-48 0 -80 31.5t-32 81.5zM412 1260q0 51 32.5 82.5
t82.5 31.5q48 0 81 -32t33 -82t-33 -81.5t-81 -31.5q-50 0 -82.5 31.5t-32.5 81.5z" />
    <glyph glyph-name="eth" unicode="&#xf0;" horiz-adv-x="1150" 
d="M336 1206l258 150q-71 142 -129 221h113q14 -19 55.5 -72.5t66.5 -87.5l279 162l39 -70l-270 -157q331 -461 331 -830q0 -122 -39.5 -224.5t-108.5 -171.5t-163 -107.5t-203 -38.5q-219 0 -357.5 145t-133.5 367q3 222 147 367t363 145q85 0 176 -33q-60 172 -131 313
l-254 -147zM299 492q0 -441 276 -441q277 0 277 441q0 440 -277 440q-276 0 -276 -440z" />
    <glyph glyph-name="ntilde" unicode="&#xf1;" horiz-adv-x="1269" 
d="M55 0v45q106 15 138 46.5t32 117.5v543q0 77 -29 107.5t-120 45.5v47l344 92h16l-6 -215h4q194 215 389 215q54 0 99.5 -17t82.5 -52t58.5 -96t21.5 -142v-528q0 -86 31 -117.5t137 -46.5v-45h-501v45q48 12 72.5 22t38 30t16 42t2.5 70v522q0 82 -38.5 126t-109.5 44
q-80 0 -142.5 -30.5t-160.5 -108.5v-553q0 -86 31 -117.5t137 -46.5v-45h-543zM334 1161l-41 27q115 235 215 235q41 0 164 -41t163 -41q56 0 88.5 15t65.5 61l41 -24q-21 -43 -38 -72t-44 -66t-58.5 -57t-64.5 -20q-48 0 -169 41t-169 41q-52 0 -82.5 -21.5t-70.5 -77.5z
" />
    <glyph glyph-name="ograve" unicode="&#xf2;" horiz-adv-x="1150" 
d="M74 512q2 146 67.5 267.5t182.5 193t260 71.5t257 -71.5t176 -193t60 -267.5q-3 -146 -69.5 -268t-183 -193t-259.5 -71t-257 71.5t-175 192.5t-59 268zM299 512q0 -228 71.5 -344.5t204.5 -116.5q132 0 204.5 117t72.5 344t-72.5 344t-204.5 117q-133 0 -204.5 -116.5
t-71.5 -344.5zM655 1149l-25 -23l-290 213q-58 43 -37 97q15 40 58 55q55 18 92 -30q3 -3 5 -7z" />
    <glyph glyph-name="oacute" unicode="&#xf3;" horiz-adv-x="1150" 
d="M74 512q2 146 67.5 267.5t182.5 193t260 71.5t257 -71.5t176 -193t60 -267.5q-3 -146 -69.5 -268t-183 -193t-259.5 -71t-257 71.5t-175 192.5t-59 268zM299 512q0 -228 71.5 -344.5t204.5 -116.5q132 0 204.5 117t72.5 344t-72.5 344t-204.5 117q-133 0 -204.5 -116.5
t-71.5 -344.5zM535 1149l26 -23l289 213q57 42 37 97q-15 40 -58 55q-55 19 -92 -29l-6 -8z" />
    <glyph glyph-name="ocircumflex" unicode="&#xf4;" horiz-adv-x="1150" 
d="M74 512q2 146 67.5 267.5t182.5 193t260 71.5t257 -71.5t176 -193t60 -267.5q-3 -146 -69.5 -268t-183 -193t-259.5 -71t-257 71.5t-175 192.5t-59 268zM299 512q0 -228 71.5 -344.5t204.5 -116.5q132 0 204.5 117t72.5 344t-72.5 344t-204.5 117q-133 0 -204.5 -116.5
t-71.5 -344.5zM594 1311l-231 -185h-55l256 369h61l256 -369h-57z" />
    <glyph glyph-name="otilde" unicode="&#xf5;" horiz-adv-x="1150" 
d="M74 512q2 146 67.5 267.5t182.5 193t260 71.5t257 -71.5t176 -193t60 -267.5q-3 -146 -69.5 -268t-183 -193t-259.5 -71t-257 71.5t-175 192.5t-59 268zM299 512q0 -228 71.5 -344.5t204.5 -116.5q132 0 204.5 117t72.5 344t-72.5 344t-204.5 117q-133 0 -204.5 -116.5
t-71.5 -344.5zM263 1161l-41 27q115 235 215 235q41 0 164 -41t163 -41q56 0 88.5 15t65.5 61l41 -24q-21 -43 -38 -72t-44 -66t-58.5 -57t-64.5 -20q-48 0 -169 41t-169 41q-52 0 -82.5 -21.5t-70.5 -77.5z" />
    <glyph glyph-name="odieresis" unicode="&#xf6;" horiz-adv-x="1150" 
d="M74 512q2 146 67.5 267.5t182.5 193t260 71.5t257 -71.5t176 -193t60 -267.5q-3 -146 -69.5 -268t-183 -193t-259.5 -71t-257 71.5t-175 192.5t-59 268zM299 512q0 -228 71.5 -344.5t204.5 -116.5q132 0 204.5 117t72.5 344t-72.5 344t-204.5 117q-133 0 -204.5 -116.5
t-71.5 -344.5zM275 1260q0 50 32 82t80 32q50 0 82.5 -31.5t32.5 -82.5q0 -50 -32.5 -81.5t-82.5 -31.5q-48 0 -80 31.5t-32 81.5zM672 1260q0 51 32.5 82.5t82.5 31.5q48 0 81 -32t33 -82t-33 -81.5t-81 -31.5q-50 0 -82.5 31.5t-32.5 81.5z" />
    <glyph glyph-name="divide" unicode="&#xf7;" horiz-adv-x="1146" 
d="M475 248q0 46 31.5 77t77.5 31q44 0 75 -31t31 -77q0 -44 -31 -75.5t-75 -31.5q-46 0 -77.5 31.5t-31.5 75.5zM475 844q0 46 31.5 77t77.5 31q44 0 75 -31t31 -77t-31 -76.5t-75 -30.5q-46 0 -77.5 30.5t-31.5 76.5zM199 588h747v-82h-747v82z" />
    <glyph glyph-name="oslash" unicode="&#xf8;" horiz-adv-x="1150" 
d="M1010 1044l57 -57l-111 -119q124 -149 121 -356q-3 -146 -69.5 -268t-183 -193t-259.5 -71q-189 0 -321 116l-107 -116l-61 55l112 121q-120 148 -114 356q2 146 67.5 267.5t182.5 193t260 71.5q184 0 315 -118zM852 512q0 113 -27 213l-475 -514q69 -160 225 -160
q132 0 204.5 117t72.5 344zM299 512q0 -132 25 -211l475 514q-71 158 -224 158q-133 0 -204.5 -116.5t-71.5 -344.5z" />
    <glyph glyph-name="ugrave" unicode="&#xf9;" 
d="M819 260v563q0 80 -30.5 109.5t-139.5 44.5v47h375v-743q0 -96 42 -126t146 -18v-55l-372 -102h-21v215h-4q-90 -105 -178 -160t-193 -55q-113 0 -186.5 74.5t-73.5 232.5v536q0 79 -27.5 109t-121.5 45v47h354v-733q0 -75 37 -121.5t109 -46.5q70 0 129 28.5t155 108.5z
M618 1149l-25 -23l-290 213q-58 43 -37 97q15 40 58 55q55 18 92 -30q3 -3 5 -7z" />
    <glyph glyph-name="uacute" unicode="&#xfa;" 
d="M819 260v563q0 80 -30.5 109.5t-139.5 44.5v47h375v-743q0 -96 42 -126t146 -18v-55l-372 -102h-21v215h-4q-90 -105 -178 -160t-193 -55q-113 0 -186.5 74.5t-73.5 232.5v536q0 79 -27.5 109t-121.5 45v47h354v-733q0 -75 37 -121.5t109 -46.5q70 0 129 28.5t155 108.5z
M549 1149l26 -23l289 213q57 42 37 97q-15 40 -58 55q-55 19 -92 -29l-6 -8z" />
    <glyph glyph-name="ucircumflex" unicode="&#xfb;" 
d="M819 260v563q0 80 -30.5 109.5t-139.5 44.5v47h375v-743q0 -96 42 -126t146 -18v-55l-372 -102h-21v215h-4q-90 -105 -178 -160t-193 -55q-113 0 -186.5 74.5t-73.5 232.5v536q0 79 -27.5 109t-121.5 45v47h354v-733q0 -75 37 -121.5t109 -46.5q70 0 129 28.5t155 108.5z
M598 1311l-231 -185h-55l256 369h61l256 -369h-57z" />
    <glyph glyph-name="udieresis" unicode="&#xfc;" 
d="M819 260v563q0 80 -30.5 109.5t-139.5 44.5v47h375v-743q0 -96 42 -126t146 -18v-55l-372 -102h-21v215h-4q-90 -105 -178 -160t-193 -55q-113 0 -186.5 74.5t-73.5 232.5v536q0 79 -27.5 109t-121.5 45v47h354v-733q0 -75 37 -121.5t109 -46.5q70 0 129 28.5t155 108.5z
M279 1260q0 50 32 82t80 32q50 0 82.5 -31.5t32.5 -82.5q0 -50 -32.5 -81.5t-82.5 -31.5q-48 0 -80 31.5t-32 81.5zM676 1260q0 51 32.5 82.5t82.5 31.5q48 0 81 -32t33 -82t-33 -81.5t-81 -31.5q-50 0 -82.5 31.5t-32.5 81.5z" />
    <glyph glyph-name="yacute" unicode="&#xfd;" horiz-adv-x="1167" 
d="M549 -25l-391 879q-24 53 -50.5 77t-93.5 46v47h508v-47q-55 -7 -86 -22t-40 -39.5t-4.5 -52.5t22.5 -70l239 -570h4l215 570q30 80 -2.5 124.5t-138.5 59.5v47h420v-47q-76 -15 -109 -39t-57 -84l-346 -874q-56 -141 -128.5 -247.5t-144.5 -164.5t-134.5 -87t-118.5 -34
q-85 -7 -113 54q-20 45 3 89q24 44 69 32q2 0 4 -1q323 -94 473 354zM627 1149l26 -23l289 213q57 42 37 97q-15 40 -58 55q-55 19 -92 -29l-6 -8z" />
    <glyph glyph-name="thorn" unicode="&#xfe;" 
d="M637 915q-130 0 -227 -86v-491q0 -68 15 -120.5t37.5 -83t53.5 -50t60 -26.5t59 -7q152 0 233.5 125.5t73.5 335.5q-7 192 -93 297.5t-212 105.5zM410 41v-363q0 -86 31 -117t137 -46v-47h-523v47q95 15 122.5 46t27.5 117v1606q0 77 -29.5 108t-120.5 46v47l338 92h17
v-676h4q57 65 140 104t173 39q196 0 313 -149t117 -383q0 -96 -28.5 -181t-78.5 -148.5t-116 -109.5t-142.5 -69.5t-156.5 -23.5q-60 0 -122 16t-103 45z" />
    <glyph glyph-name="ydieresis" unicode="&#xff;" horiz-adv-x="1167" 
d="M549 -25l-391 879q-24 53 -50.5 77t-93.5 46v47h508v-47q-55 -7 -86 -22t-40 -39.5t-4.5 -52.5t22.5 -70l239 -570h4l215 570q30 80 -2.5 124.5t-138.5 59.5v47h420v-47q-76 -15 -109 -39t-57 -84l-346 -874q-56 -141 -128.5 -247.5t-144.5 -164.5t-134.5 -87t-118.5 -34
q-85 -7 -113 54q-20 45 3 89q24 44 69 32q2 0 4 -1q323 -94 473 354zM314 1260q0 50 32 82t80 32q50 0 82.5 -31.5t32.5 -82.5q0 -50 -32.5 -81.5t-82.5 -31.5q-48 0 -80 31.5t-32 81.5zM711 1260q0 51 32.5 82.5t82.5 31.5q48 0 81 -32t33 -82t-33 -81.5t-81 -31.5
q-50 0 -82.5 31.5t-32.5 81.5z" />
    <glyph glyph-name="Amacron" unicode="&#x100;" horiz-adv-x="1433" 
d="M395 1714h645v-82h-645v82zM1249 168l-471 1276h-121l-438 -1276q-21 -62 -60 -85t-145 -38v-45h461v45q-80 10 -117 37.5t-37.5 71.5t19.5 106l76 227h485l92 -258q18 -52 16 -89.5t-37 -61t-108 -33.5v-45h553v45q-86 23 -116.5 46t-51.5 77zM649 1192h4l219 -627h-430
z" />
    <glyph glyph-name="amacron" unicode="&#x101;" horiz-adv-x="1024" 
d="M829 768l-10 -498q-2 -78 20 -111.5t64.5 -32.5t104.5 11v-35q-99 -70 -150.5 -96t-105.5 -26q-138 0 -138 163h-4q-96 -89 -161.5 -126t-151.5 -37q-92 0 -158.5 71t-66.5 174q0 181 266 228l283 49l4 205q3 120 -49 182.5t-146 62.5q-65 0 -107 -24.5t-54.5 -58.5
t-7.5 -67.5t26 -53.5q44 -41 -7 -85q-43 -37 -104 -42q-50 -4 -63 24q-10 28 -10 62.5t18 73t44 76t67.5 71.5t88.5 59.5t107.5 41t124.5 15.5q131 0 205 -73t71 -203zM614 201l4 241l-231 -55q-64 -15 -93 -56t-20 -102q7 -56 40 -85t77 -29q61 0 105.5 18.5t117.5 67.5z
M181 1305h645v-82h-645v82z" />
    <glyph glyph-name="Abreve" unicode="&#x102;" horiz-adv-x="1433" 
d="M715 1577q66 0 117.5 27t82 72t45.5 98.5t15 111.5h-51q-17 -75 -76 -117.5t-133 -42.5t-133 42.5t-76 117.5h-53q0 -58 15.5 -111.5t46 -98.5t82.5 -72t118 -27zM1249 168l-471 1276h-121l-438 -1276q-21 -62 -60 -85t-145 -38v-45h461v45q-80 10 -117 37.5t-37.5 71.5
t19.5 106l76 227h485l92 -258q18 -52 16 -89.5t-37 -61t-108 -33.5v-45h553v45q-86 23 -116.5 46t-51.5 77zM649 1192h4l219 -627h-430z" />
    <glyph glyph-name="abreve" unicode="&#x103;" horiz-adv-x="1024" 
d="M829 768l-10 -498q-2 -78 20 -111.5t64.5 -32.5t104.5 11v-35q-99 -70 -150.5 -96t-105.5 -26q-138 0 -138 163h-4q-96 -89 -161.5 -126t-151.5 -37q-92 0 -158.5 71t-66.5 174q0 181 266 228l283 49l4 205q3 120 -49 182.5t-146 62.5q-65 0 -107 -24.5t-54.5 -58.5
t-7.5 -67.5t26 -53.5q44 -41 -7 -85q-43 -37 -104 -42q-50 -4 -63 24q-10 28 -10 62.5t18 73t44 76t67.5 71.5t88.5 59.5t107.5 41t124.5 15.5q131 0 205 -73t71 -203zM614 201l4 241l-231 -55q-64 -15 -93 -56t-20 -102q7 -56 40 -85t77 -29q61 0 105.5 18.5t117.5 67.5z
M510 1167q66 0 117.5 27t82 72t45.5 99t15 112h-51q-17 -75 -76 -117.5t-133 -42.5t-133 42.5t-76 117.5h-53q0 -58 15.5 -112t46 -99t82.5 -72t118 -27z" />
    <glyph glyph-name="Aogonek" unicode="&#x104;" horiz-adv-x="1433" 
d="M1249 168l-471 1276h-121l-438 -1276q-21 -62 -60 -85t-145 -38v-45h461v45q-80 10 -117 37.5t-37.5 71.5t19.5 106l74 225h489l90 -256q18 -52 16 -89.5t-37 -61t-108 -33.5v-45h277q-58 -41 -99.5 -88t-61 -91t-26 -87t5 -78.5t33.5 -63t56.5 -42.5t76.5 -15
q45 0 92.5 23.5t75.5 58.5v41q-129 -53 -182 15q-44 56 -16 156q27 98 106 171h215v45q-86 23 -116.5 46t-51.5 77zM649 1192h4l219 -625h-430z" />
    <glyph glyph-name="aogonek" unicode="&#x105;" horiz-adv-x="1024" 
d="M819 270l10 498q3 130 -71 203t-205 73q-64 0 -124.5 -15.5t-107.5 -41t-88.5 -59.5t-67.5 -71.5t-44 -76t-18 -73t10 -62.5q16 -35 83 -21q63 12 95.5 51t-4.5 73q-21 20 -26 53.5t7.5 67.5t54.5 58.5t107 24.5q94 0 146 -62.5t49 -182.5l-4 -205l-283 -49
q-266 -47 -266 -228q0 -103 66.5 -174t158.5 -71q86 0 151.5 37t161.5 126h4q0 -66 22 -108t79 -53q-57 -39 -97 -84.5t-59 -89.5t-24.5 -87t6.5 -79t33.5 -64t56.5 -43.5t76 -15.5q45 0 92 23t75 59v41q-117 -48 -178 18q-49 52 -35 141q15 98 96 157q16 13 34 22
q14 7 54.5 26t76.5 40t86 56v35q-62 -10 -104.5 -11t-64.5 32.5t-20 111.5zM618 442l-4 -241q-71 -50 -117.5 -68t-105.5 -18q-44 0 -77 29t-40 85q-18 127 125 162z" />
    <glyph glyph-name="Cacute" unicode="&#x106;" horiz-adv-x="1310" 
d="M725 1559l27 -23l288 213q58 43 37 97q-15 40 -58 55q-55 18 -92 -30q-3 -3 -5 -7zM778 57q-134 0 -239 83.5t-163.5 234t-58.5 342.5q0 291 129 474t332 183q88 0 162.5 -29t125 -78t83.5 -106.5t49 -122.5h55l-20 293q-77 48 -197 85.5t-258 37.5q-147 0 -274.5 -55
t-218 -152t-142 -234t-51.5 -296t51.5 -296t142 -234t218 -152t274.5 -55q138 0 258 37t197 85l20 291h-55q-16 -65 -49 -122.5t-83.5 -106.5t-125 -78t-162.5 -29z" />
    <glyph glyph-name="cacute" unicode="&#x107;" horiz-adv-x="1024" 
d="M573 973q-141 0 -221 -108.5t-80 -289.5q0 -213 99 -325.5t258 -112.5q174 0 323 84v-82q-80 -66 -132 -94q-119 -65 -257 -65q-114 0 -208 42.5t-155 115t-94.5 166.5t-33.5 198q0 126 44 230.5t116.5 171.5t163.5 103.5t188 36.5q166 0 266 -76t100 -180
q0 -53 -34 -82.5t-89 -29.5q-44 0 -70 21.5t-24 54.5q8 117 -26.5 169t-133.5 52zM545 1149l26 -23l289 213q57 42 37 97q-15 40 -58 55q-55 19 -92 -29l-6 -8z" />
    <glyph glyph-name="Ccircumflex" unicode="&#x108;" horiz-adv-x="1310" 
d="M760 1720l-232 -184h-55l256 369h62l256 -369h-58zM778 57q-134 0 -239 83.5t-163.5 234t-58.5 342.5q0 291 129 474t332 183q88 0 162.5 -29t125 -78t83.5 -106.5t49 -122.5h55l-20 293q-77 48 -197 85.5t-258 37.5q-147 0 -274.5 -55t-218 -152t-142 -234t-51.5 -296
t51.5 -296t142 -234t218 -152t274.5 -55q138 0 258 37t197 85l20 291h-55q-16 -65 -49 -122.5t-83.5 -106.5t-125 -78t-162.5 -29z" />
    <glyph glyph-name="ccircumflex" unicode="&#x109;" horiz-adv-x="1024" 
d="M573 973q-141 0 -221 -108.5t-80 -289.5q0 -213 99 -325.5t258 -112.5q174 0 323 84v-82q-80 -66 -132 -94q-119 -65 -257 -65q-114 0 -208 42.5t-155 115t-94.5 166.5t-33.5 198q0 126 44 230.5t116.5 171.5t163.5 103.5t188 36.5q166 0 266 -76t100 -180
q0 -53 -34 -82.5t-89 -29.5q-44 0 -70 21.5t-24 54.5q8 117 -26.5 169t-133.5 52zM583 1311l-231 -185h-55l256 369h61l256 -369h-57z" />
    <glyph glyph-name="Cdotaccent" unicode="&#x10a;" horiz-adv-x="1310" 
d="M678 1694q0 51 35.5 87t87.5 36q51 0 87 -36t36 -87q0 -52 -36 -87.5t-87 -35.5q-53 0 -88 35.5t-35 87.5zM778 57q-134 0 -239 83.5t-163.5 234t-58.5 342.5q0 291 129 474t332 183q88 0 162.5 -29t125 -78t83.5 -106.5t49 -122.5h55l-20 293q-77 48 -197 85.5
t-258 37.5q-147 0 -274.5 -55t-218 -152t-142 -234t-51.5 -296t51.5 -296t142 -234t218 -152t274.5 -55q138 0 258 37t197 85l20 291h-55q-16 -65 -49 -122.5t-83.5 -106.5t-125 -78t-162.5 -29z" />
    <glyph glyph-name="cdotaccent" unicode="&#x10b;" horiz-adv-x="1024" 
d="M573 973q-141 0 -221 -108.5t-80 -289.5q0 -213 99 -325.5t258 -112.5q174 0 323 84v-82q-80 -66 -132 -94q-119 -65 -257 -65q-114 0 -208 42.5t-155 115t-94.5 166.5t-33.5 198q0 126 44 230.5t116.5 171.5t163.5 103.5t188 36.5q166 0 266 -76t100 -180
q0 -53 -34 -82.5t-89 -29.5q-44 0 -70 21.5t-24 54.5q8 117 -26.5 169t-133.5 52zM475 1284q0 51 35.5 87t87.5 36q51 0 86.5 -36t35.5 -87q0 -52 -35.5 -87.5t-86.5 -35.5q-52 0 -87.5 35.5t-35.5 87.5z" />
    <glyph glyph-name="Ccaron" unicode="&#x10c;" horiz-adv-x="1310" 
d="M776 1720l-231 185h-56l256 -369h62l256 369h-57zM778 57q-134 0 -239 83.5t-163.5 234t-58.5 342.5q0 291 129 474t332 183q88 0 162.5 -29t125 -78t83.5 -106.5t49 -122.5h55l-20 293q-77 48 -197 85.5t-258 37.5q-147 0 -274.5 -55t-218 -152t-142 -234t-51.5 -296
t51.5 -296t142 -234t218 -152t274.5 -55q138 0 258 37t197 85l20 291h-55q-16 -65 -49 -122.5t-83.5 -106.5t-125 -78t-162.5 -29z" />
    <glyph glyph-name="ccaron" unicode="&#x10d;" horiz-adv-x="1024" 
d="M573 973q-141 0 -221 -108.5t-80 -289.5q0 -213 99 -325.5t258 -112.5q174 0 323 84v-82q-80 -66 -132 -94q-119 -65 -257 -65q-114 0 -208 42.5t-155 115t-94.5 166.5t-33.5 198q0 126 44 230.5t116.5 171.5t163.5 103.5t188 36.5q166 0 266 -76t100 -180
q0 -53 -34 -82.5t-89 -29.5q-44 0 -70 21.5t-24 54.5q8 117 -26.5 169t-133.5 52zM598 1311l-231 184h-55l256 -369h61l256 369h-57z" />
    <glyph glyph-name="Dcaron" unicode="&#x10e;" horiz-adv-x="1515" 
d="M729 1720l-231 185h-56l256 -369h62l256 369h-58zM451 76h245q102 0 187 35.5t142.5 96.5t97 143.5t57.5 174.5t18 191q0 145 -30.5 260.5t-93 201t-163.5 131.5t-235 46h-225v-1280zM696 0h-620v45q106 15 138 46.5t32 117.5v1014q0 86 -32 117t-138 46v48h620
q333 0 530 -191t197 -526q0 -210 -89.5 -372.5t-255 -253.5t-382.5 -91z" />
    <glyph glyph-name="dcaron" unicode="&#x10f;" 
d="M590 106q128 0 229 87v493q0 68 -15 120.5t-37.5 83t-53.5 50t-60 26.5t-59 7q-152 0 -233.5 -125.5t-73.5 -335.5q7 -193 92.5 -299.5t210.5 -106.5zM819 983v301q0 78 -29 108.5t-120 45.5v47l334 92h20v-1296q0 -96 42 -126t146 -18v-55l-372 -102h-21v143h-4
q-58 -66 -140.5 -104.5t-172.5 -38.5q-196 0 -313 149t-117 383q0 96 28.5 181t78.5 148.5t116 109.5t142.5 69.5t156.5 23.5q137 0 225 -61zM1288 1585q50 0 85.5 -20.5t53 -54.5t24.5 -67t7 -69q0 -134 -82.5 -238t-181.5 -139l-27 47q104 48 152 140q39 72 17 116
q-15 26 -48 27q-53 0 -90 37.5t-37 93.5q0 51 38 89t89 38z" />
    <glyph glyph-name="Dcroat" unicode="&#x110;" horiz-adv-x="1515" 
d="M14 760h232v463q0 86 -32 117t-138 46v48h620q333 0 530 -191t197 -526q0 -210 -89.5 -372.5t-255 -253.5t-382.5 -91h-620v45q106 15 138 46.5t32 117.5v473h-232v78zM451 76h245q102 0 187 35.5t142.5 96.5t97 143.5t57.5 174.5t18 191q0 145 -30.5 260.5t-93 201
t-163.5 131.5t-235 46h-225v-596h229v-78h-229v-606z" />
    <glyph glyph-name="dcroat" unicode="&#x111;" 
d="M1171 1122h-147v-841q0 -53 10.5 -84t33.5 -45.5t58.5 -16.5t85.5 2v-55l-372 -102h-21v143h-4q-58 -66 -140.5 -104.5t-172.5 -38.5q-196 0 -313 149t-117 383q0 96 28.5 181t78.5 148.5t116 109.5t142.5 69.5t156.5 23.5q137 0 225 -61v139h-170v78h170v84
q0 73 -30.5 108t-118.5 46v47l334 92h20v-377h147v-78zM590 106q128 0 229 87v493q0 68 -15 120.5t-37.5 83t-53.5 50t-60 26.5t-59 7q-152 0 -233.5 -125.5t-73.5 -335.5q7 -193 92.5 -299.5t210.5 -106.5z" />
    <glyph glyph-name="Emacron" unicode="&#x112;" 
d="M342 1714h645v-82h-645v82zM451 1356v-596h184q101 0 154.5 45t66.5 162h55v-492h-55q-13 117 -66.5 162t-154.5 45h-184v-606h378q109 0 180.5 66.5t86.5 189.5h55l-21 -332h-1054v45q106 15 138 46.5t32 117.5v1014q0 86 -32 117t-138 46v48h1034l10 -334h-55
q-15 124 -81.5 190t-174.5 66h-358z" />
    <glyph glyph-name="emacron" unicode="&#x113;" horiz-adv-x="1024" 
d="M573 973q-119 0 -195.5 -78.5t-98.5 -214.5h458q36 145 -14.5 219t-149.5 74zM563 -20q-114 0 -208 42.5t-155 115t-94.5 166.5t-33.5 198q0 126 44 230.5t116.5 171.5t163.5 103.5t188 36.5q65 0 121.5 -13.5t109.5 -45.5t85 -83.5t46 -127t-6 -176.5h-668
q-9 -208 91.5 -334.5t265.5 -126.5q184 0 323 84v-82q-80 -66 -132 -94q-119 -65 -257 -65zM248 1305h645v-82h-645v82z" />
    <glyph glyph-name="Ebreve" unicode="&#x114;" 
d="M674 1577q66 0 117.5 27t82 72t45.5 98.5t15 111.5h-51q-17 -75 -76 -117.5t-133 -42.5t-133 42.5t-76 117.5h-53q0 -58 15.5 -111.5t46 -98.5t82.5 -72t118 -27zM451 1356v-596h184q101 0 154.5 45t66.5 162h55v-492h-55q-13 117 -66.5 162t-154.5 45h-184v-606h378
q109 0 180.5 66.5t86.5 189.5h55l-21 -332h-1054v45q106 15 138 46.5t32 117.5v1014q0 86 -32 117t-138 46v48h1034l10 -334h-55q-15 124 -81.5 190t-174.5 66h-358z" />
    <glyph glyph-name="ebreve" unicode="&#x115;" horiz-adv-x="1024" 
d="M573 973q-119 0 -195.5 -78.5t-98.5 -214.5h458q36 145 -14.5 219t-149.5 74zM563 -20q-114 0 -208 42.5t-155 115t-94.5 166.5t-33.5 198q0 126 44 230.5t116.5 171.5t163.5 103.5t188 36.5q65 0 121.5 -13.5t109.5 -45.5t85 -83.5t46 -127t-6 -176.5h-668
q-9 -208 91.5 -334.5t265.5 -126.5q184 0 323 84v-82q-80 -66 -132 -94q-119 -65 -257 -65zM578 1167q66 0 117.5 27t82 72t45.5 99t15 112h-51q-17 -75 -76 -117.5t-133 -42.5t-133 42.5t-76 117.5h-53q0 -58 15.5 -112t46 -99t82.5 -72t118 -27z" />
    <glyph glyph-name="Edotaccent" unicode="&#x116;" 
d="M541 1694q0 51 35.5 87t87.5 36q51 0 86.5 -36t35.5 -87q0 -52 -35.5 -87.5t-86.5 -35.5q-52 0 -87.5 35.5t-35.5 87.5zM451 1356v-596h184q101 0 154.5 45t66.5 162h55v-492h-55q-13 117 -66.5 162t-154.5 45h-184v-606h378q109 0 180.5 66.5t86.5 189.5h55l-21 -332
h-1054v45q106 15 138 46.5t32 117.5v1014q0 86 -32 117t-138 46v48h1034l10 -334h-55q-15 124 -81.5 190t-174.5 66h-358z" />
    <glyph glyph-name="edotaccent" unicode="&#x117;" horiz-adv-x="1024" 
d="M573 973q-119 0 -195.5 -78.5t-98.5 -214.5h458q36 145 -14.5 219t-149.5 74zM563 -20q-114 0 -208 42.5t-155 115t-94.5 166.5t-33.5 198q0 126 44 230.5t116.5 171.5t163.5 103.5t188 36.5q65 0 121.5 -13.5t109.5 -45.5t85 -83.5t46 -127t-6 -176.5h-668
q-9 -208 91.5 -334.5t265.5 -126.5q184 0 323 84v-82q-80 -66 -132 -94q-119 -65 -257 -65zM457 1284q0 51 35.5 87t87.5 36q51 0 86.5 -36t35.5 -87q0 -52 -35.5 -87.5t-86.5 -35.5q-52 0 -87.5 35.5t-35.5 87.5z" />
    <glyph glyph-name="Eogonek" unicode="&#x118;" 
d="M1223 -342v-41q-28 -35 -75.5 -58.5t-92.5 -23.5q-59 0 -102.5 29t-59.5 78t-8 108t55.5 126t128.5 124h-993v45q106 15 138 46.5t32 117.5v1014q0 86 -32 117t-138 46v48h1034l10 -334h-55q-15 124 -81.5 190t-174.5 66h-358v-596h184q101 0 154.5 45t66.5 162h55v-492
h-55q-13 117 -66.5 162t-154.5 45h-184v-606h378q109 0 180.5 66.5t86.5 189.5h55l-21 -332q-89 -82 -111 -191q-19 -99 31 -146q57 -52 173 -5z" />
    <glyph glyph-name="eogonek" unicode="&#x119;" horiz-adv-x="1024" 
d="M711 -358v-41q-28 -35 -75.5 -58.5t-92.5 -23.5q-41 0 -76 15t-56.5 42t-33.5 62.5t-6.5 78t24.5 86.5t59 91t97 88q-147 2 -258 75.5t-166 189.5t-55 255q0 126 44 230.5t116.5 171.5t163.5 103.5t188 36.5q65 0 121.5 -13.5t109.5 -45.5t85 -83.5t46 -127t-6 -176.5
h-668q-9 -208 91.5 -334.5t265.5 -126.5q174 0 323 84v-82q-1 -1 -20 -16.5t-24 -19.5t-25.5 -19.5t-32 -21.5t-34 -19t-42.5 -20t-45.5 -16t-54.5 -15t-60 -10q-87 -83 -107 -191q-19 -98 32 -144q58 -51 172 -5zM573 973q-119 0 -195.5 -78.5t-98.5 -214.5h458
q36 145 -14.5 219t-149.5 74z" />
    <glyph glyph-name="Ecaron" unicode="&#x11a;" 
d="M678 1720l-232 185h-55l256 -369h62l256 369h-58zM451 1356v-596h184q101 0 154.5 45t66.5 162h55v-492h-55q-13 117 -66.5 162t-154.5 45h-184v-606h378q109 0 180.5 66.5t86.5 189.5h55l-21 -332h-1054v45q106 15 138 46.5t32 117.5v1014q0 86 -32 117t-138 46v48h1034
l10 -334h-55q-15 124 -81.5 190t-174.5 66h-358z" />
    <glyph glyph-name="ecaron" unicode="&#x11b;" horiz-adv-x="1024" 
d="M573 973q-119 0 -195.5 -78.5t-98.5 -214.5h458q36 145 -14.5 219t-149.5 74zM563 -20q-114 0 -208 42.5t-155 115t-94.5 166.5t-33.5 198q0 126 44 230.5t116.5 171.5t163.5 103.5t188 36.5q65 0 121.5 -13.5t109.5 -45.5t85 -83.5t46 -127t-6 -176.5h-668
q-9 -208 91.5 -334.5t265.5 -126.5q184 0 323 84v-82q-80 -66 -132 -94q-119 -65 -257 -65zM575 1311l-231 184h-55l256 -369h61l256 369h-57z" />
    <glyph glyph-name="Gcircumflex" unicode="&#x11c;" horiz-adv-x="1433" 
d="M768 1720l-231 -184h-56l256 369h62l256 -369h-58zM1075 430v-258q-125 -115 -297 -115q-134 0 -239 83.5t-163.5 234t-58.5 342.5q0 291 129 474t332 183q88 0 162.5 -29t125 -78t83.5 -106.5t49 -122.5h55l-20 293q-77 48 -197 85.5t-258 37.5q-147 0 -274.5 -55
t-218 -152t-142 -234t-51.5 -296t51.5 -296t142 -234t218 -152t274.5 -55q139 0 282 53t220 110v287q0 88 24 118.5t113 45.5v45h-512v-45q58 -8 90 -18t51 -30t24 -45t5 -71z" />
    <glyph glyph-name="gcircumflex" unicode="&#x11d;" horiz-adv-x="1105" 
d="M635 -92l-318 41q-54 -72 -73 -130.5t-19 -125.5q0 -83 68.5 -128.5t181.5 -45.5q61 0 126 15t124 44t97 77.5t38 108.5q0 67 -58 98.5t-167 45.5zM301 666q10 -142 70 -219.5t151 -77.5q105 0 151 83t38 222q-8 135 -63.5 217t-145.5 82q-102 0 -156.5 -82.5
t-44.5 -224.5zM836 901v-4q43 -51 64.5 -101.5t21.5 -119.5q0 -175 -113.5 -277t-296.5 -102q-77 0 -139 20q-3 -3 -17 -18.5t-17.5 -19.5t-13 -16.5t-12.5 -20t-6.5 -18.5t-3.5 -21q0 -32 29.5 -48t91.5 -22l321 -31q142 -14 226 -82t84 -174q0 -90 -60 -167.5t-155 -127
t-207.5 -77t-222.5 -27.5q-379 0 -379 205q0 86 60.5 158.5t178.5 152.5q-61 10 -104 50t-43 102q0 59 48 111.5t146 111.5q-103 42 -164 129t-61 203q0 165 118.5 269.5t301.5 104.5q49 0 99 -10t80.5 -20t76.5 -29l281 31v-115h-213zM518 1311l-231 -185h-55l256 369h61
l256 -369h-57z" />
    <glyph glyph-name="Gbreve" unicode="&#x11e;" horiz-adv-x="1433" 
d="M772 1577q66 0 117.5 27t82 72t45.5 98.5t15 111.5h-51q-17 -75 -76 -117.5t-133 -42.5t-133 42.5t-76 117.5h-53q0 -58 15.5 -111.5t46 -98.5t82.5 -72t118 -27zM1075 430v-258q-125 -115 -297 -115q-134 0 -239 83.5t-163.5 234t-58.5 342.5q0 291 129 474t332 183
q88 0 162.5 -29t125 -78t83.5 -106.5t49 -122.5h55l-20 293q-77 48 -197 85.5t-258 37.5q-147 0 -274.5 -55t-218 -152t-142 -234t-51.5 -296t51.5 -296t142 -234t218 -152t274.5 -55q139 0 282 53t220 110v287q0 88 24 118.5t113 45.5v45h-512v-45q58 -8 90 -18t51 -30
t24 -45t5 -71z" />
    <glyph glyph-name="gbreve" unicode="&#x11f;" horiz-adv-x="1105" 
d="M635 -92l-318 41q-54 -72 -73 -130.5t-19 -125.5q0 -83 68.5 -128.5t181.5 -45.5q61 0 126 15t124 44t97 77.5t38 108.5q0 67 -58 98.5t-167 45.5zM301 666q10 -142 70 -219.5t151 -77.5q105 0 151 83t38 222q-8 135 -63.5 217t-145.5 82q-102 0 -156.5 -82.5
t-44.5 -224.5zM836 901v-4q43 -51 64.5 -101.5t21.5 -119.5q0 -175 -113.5 -277t-296.5 -102q-77 0 -139 20q-3 -3 -17 -18.5t-17.5 -19.5t-13 -16.5t-12.5 -20t-6.5 -18.5t-3.5 -21q0 -32 29.5 -48t91.5 -22l321 -31q142 -14 226 -82t84 -174q0 -90 -60 -167.5t-155 -127
t-207.5 -77t-222.5 -27.5q-379 0 -379 205q0 86 60.5 158.5t178.5 152.5q-61 10 -104 50t-43 102q0 59 48 111.5t146 111.5q-103 42 -164 129t-61 203q0 165 118.5 269.5t301.5 104.5q49 0 99 -10t80.5 -20t76.5 -29l281 31v-115h-213zM549 1167q66 0 117.5 27t82 72
t45.5 99t15 112h-51q-17 -75 -76 -117.5t-133 -42.5t-133 42.5t-76 117.5h-53q0 -58 15.5 -112t46 -99t82.5 -72t118 -27z" />
    <glyph glyph-name="Gdotaccent" unicode="&#x120;" horiz-adv-x="1433" 
d="M676 1694q0 51 35.5 87t87.5 36q51 0 87 -36t36 -87q0 -52 -36 -87.5t-87 -35.5q-53 0 -88 35.5t-35 87.5zM1075 430v-258q-125 -115 -297 -115q-134 0 -239 83.5t-163.5 234t-58.5 342.5q0 291 129 474t332 183q88 0 162.5 -29t125 -78t83.5 -106.5t49 -122.5h55
l-20 293q-77 48 -197 85.5t-258 37.5q-147 0 -274.5 -55t-218 -152t-142 -234t-51.5 -296t51.5 -296t142 -234t218 -152t274.5 -55q139 0 282 53t220 110v287q0 88 24 118.5t113 45.5v45h-512v-45q58 -8 90 -18t51 -30t24 -45t5 -71z" />
    <glyph glyph-name="gdotaccent" unicode="&#x121;" horiz-adv-x="1105" 
d="M635 -92l-318 41q-54 -72 -73 -130.5t-19 -125.5q0 -83 68.5 -128.5t181.5 -45.5q61 0 126 15t124 44t97 77.5t38 108.5q0 67 -58 98.5t-167 45.5zM301 666q10 -142 70 -219.5t151 -77.5q105 0 151 83t38 222q-8 135 -63.5 217t-145.5 82q-102 0 -156.5 -82.5
t-44.5 -224.5zM836 901v-4q43 -51 64.5 -101.5t21.5 -119.5q0 -175 -113.5 -277t-296.5 -102q-77 0 -139 20q-3 -3 -17 -18.5t-17.5 -19.5t-13 -16.5t-12.5 -20t-6.5 -18.5t-3.5 -21q0 -32 29.5 -48t91.5 -22l321 -31q142 -14 226 -82t84 -174q0 -90 -60 -167.5t-155 -127
t-207.5 -77t-222.5 -27.5q-379 0 -379 205q0 86 60.5 158.5t178.5 152.5q-61 10 -104 50t-43 102q0 59 48 111.5t146 111.5q-103 42 -164 129t-61 203q0 165 118.5 269.5t301.5 104.5q49 0 99 -10t80.5 -20t76.5 -29l281 31v-115h-213zM414 1284q0 51 35.5 87t87.5 36
q51 0 86.5 -36t35.5 -87q0 -52 -35.5 -87.5t-86.5 -35.5q-52 0 -87.5 35.5t-35.5 87.5z" />
    <glyph glyph-name="Gcommaaccent" unicode="&#x122;" horiz-adv-x="1433" 
d="M1075 430v-258q-125 -115 -297 -115q-134 0 -239 83.5t-163.5 234t-58.5 342.5q0 291 129 474t332 183q88 0 162.5 -29t125 -78t83.5 -106.5t49 -122.5h55l-20 293q-77 48 -197 85.5t-258 37.5q-147 0 -274.5 -55t-218 -152t-142 -234t-51.5 -296t51.5 -296t142 -234
t218 -152t274.5 -55q139 0 282 53t220 110v287q0 88 24 118.5t113 45.5v45h-512v-45q58 -8 90 -18t51 -30t24 -45t5 -71zM754 -94q50 0 85.5 -20.5t53 -54.5t24.5 -67t7 -69q0 -91 -43 -173t-101.5 -132t-120.5 -72l-26 47q104 48 152 140q39 72 17 116q-15 26 -48 27
q-53 0 -90 37.5t-37 93.5q0 51 38 89t89 38z" />
    <glyph glyph-name="gcommaaccent" unicode="&#x123;" horiz-adv-x="1105" 
d="M635 -92l-318 41q-54 -72 -73 -130.5t-19 -125.5q0 -83 68.5 -128.5t181.5 -45.5q61 0 126 15t124 44t97 77.5t38 108.5q0 67 -58 98.5t-167 45.5zM301 666q10 -142 70 -219.5t151 -77.5q105 0 151 83t38 222q-8 135 -63.5 217t-145.5 82q-102 0 -156.5 -82.5
t-44.5 -224.5zM836 901v-4q43 -51 64.5 -101.5t21.5 -119.5q0 -175 -113.5 -277t-296.5 -102q-77 0 -139 20q-3 -3 -17 -18.5t-17.5 -19.5t-13 -16.5t-12.5 -20t-6.5 -18.5t-3.5 -21q0 -32 29.5 -48t91.5 -22l321 -31q142 -14 226 -82t84 -174q0 -90 -60 -167.5t-155 -127
t-207.5 -77t-222.5 -27.5q-379 0 -379 205q0 86 60.5 158.5t178.5 152.5q-61 10 -104 50t-43 102q0 59 48 111.5t146 111.5q-103 42 -164 129t-61 203q0 165 118.5 269.5t301.5 104.5q49 0 99 -10t80.5 -20t76.5 -29l281 31v-115h-213zM545 1729q50 0 85.5 -20.5t53 -54.5
t24.5 -67t7 -69q0 -134 -82.5 -238t-181.5 -139l-27 47q104 49 153 140q38 72 16 116q-14 26 -48 26q-53 0 -90 38t-37 94q0 51 38 89t89 38z" />
    <glyph glyph-name="Hcircumflex" unicode="&#x124;" horiz-adv-x="1597" 
d="M807 1720l-232 -184h-55l256 369h62l256 -369h-58zM1352 1223v-1014q0 -86 31 -117.5t137 -46.5v-45h-543v45q106 15 138 46.5t32 117.5v483h-696v-483q0 -86 31 -117.5t136 -46.5v-45h-542v45q106 15 138 46.5t32 117.5v1014q0 86 -32 117t-138 46v48h542v-48
q-106 -15 -136.5 -46t-30.5 -117v-453h696v453q0 86 -32 117t-138 46v48h543v-48q-106 -15 -137 -46t-31 -117z" />
    <glyph glyph-name="hcircumflex" unicode="&#x125;" horiz-adv-x="1269" 
d="M55 0v45q106 15 138 46.5t32 117.5v1075q0 78 -29 108.5t-120 45.5v47l334 92h20v-737h4q195 204 367 204q284 0 284 -307v-528q0 -86 31 -117.5t137 -46.5v-45h-501v45q48 12 72.5 22t38 30t16 42t2.5 70v522q0 75 -38.5 122.5t-109.5 47.5q-73 0 -144 -29.5t-159 -99.5
v-563q0 -86 31 -117.5t137 -46.5v-45h-543zM327 1782l-231 -185h-55l256 369h61l256 -369h-57z" />
    <glyph glyph-name="Hbar" unicode="&#x126;" horiz-adv-x="1597" 
d="M76 1036h170v187q0 86 -32 117t-138 46v48h542v-48q-106 -15 -136.5 -46t-30.5 -117v-187h696v187q0 86 -32 117t-138 46v48h543v-48q-106 -15 -137 -46t-31 -117v-187h168v-78h-168v-749q0 -86 31 -117.5t137 -46.5v-45h-543v45q106 15 138 46.5t32 117.5v483h-696v-483
q0 -86 31 -117.5t136 -46.5v-45h-542v45q106 15 138 46.5t32 117.5v749h-170v78zM451 770h696v188h-696v-188z" />
    <glyph glyph-name="hbar" unicode="&#x127;" horiz-adv-x="1269" 
d="M76 1200h149v84q0 78 -29 108.5t-120 45.5v47l334 92h20v-377h168v-78h-168v-282h4q193 204 389 204q118 0 190 -76t72 -231v-528q0 -86 31 -117.5t137 -46.5v-45h-501v45q48 12 72.5 22t38 30t16 42t2.5 70v522q0 74 -38.5 122t-109.5 48q-76 0 -142 -29.5t-161 -99.5
v-563q0 -86 31 -117.5t137 -46.5v-45h-543v45q106 15 138 46.5t32 117.5v913h-149v78z" />
    <glyph glyph-name="Itilde" unicode="&#x128;" horiz-adv-x="696" 
d="M20 1571l-40 26q115 236 215 236q41 0 164 -41t163 -41q56 0 88.5 15t65.5 61l41 -25q-21 -43 -38 -72t-44 -66t-58.5 -57t-64.5 -20q-48 0 -169 41t-169 41q-52 0 -83 -21.5t-71 -76.5zM451 1223v-1014q0 -86 31 -117.5t136 -46.5v-45h-542v45q106 15 138 46.5t32 117.5
v1014q0 86 -32 117t-138 46v48h542v-48q-106 -15 -136.5 -46t-30.5 -117z" />
    <glyph glyph-name="itilde" unicode="&#x129;" horiz-adv-x="614" 
d="M422 1044v-835q0 -86 31 -117.5t137 -46.5v-45h-543v45q106 15 138 46.5t32 117.5v543q0 77 -29 107.5t-120 45.5v47l333 92h21zM-10 1161l-41 27q115 235 215 235q41 0 164.5 -41t163.5 -41q56 0 88 15t65 61l41 -24q-21 -43 -38 -72t-44 -66t-58.5 -57t-64.5 -20
q-48 0 -169 41t-169 41q-52 0 -82.5 -21.5t-70.5 -77.5z" />
    <glyph glyph-name="Imacron" unicode="&#x12a;" horiz-adv-x="696" 
d="M25 1714h645v-82h-645v82zM451 1223v-1014q0 -86 31 -117.5t136 -46.5v-45h-542v45q106 15 138 46.5t32 117.5v1014q0 86 -32 117t-138 46v48h542v-48q-106 -15 -136.5 -46t-30.5 -117z" />
    <glyph glyph-name="imacron" unicode="&#x12b;" horiz-adv-x="614" 
d="M422 1044v-835q0 -86 31 -117.5t137 -46.5v-45h-543v45q106 15 138 46.5t32 117.5v543q0 77 -29 107.5t-120 45.5v47l333 92h21zM-6 1305h645v-82h-645v82z" />
    <glyph glyph-name="Ibreve" unicode="&#x12c;" horiz-adv-x="696" 
d="M350 1577q66 0 117.5 27t82 72t45.5 98.5t15 111.5h-51q-17 -75 -76 -117.5t-133 -42.5t-133 42.5t-76 117.5h-53q0 -58 15.5 -111.5t46 -98.5t82.5 -72t118 -27zM451 1223v-1014q0 -86 31 -117.5t136 -46.5v-45h-542v45q106 15 138 46.5t32 117.5v1014q0 86 -32 117
t-138 46v48h542v-48q-106 -15 -136.5 -46t-30.5 -117z" />
    <glyph glyph-name="ibreve" unicode="&#x12d;" horiz-adv-x="614" 
d="M430 1044v-835q0 -86 31 -117.5t137 -46.5v-45h-543v45q106 15 138 46.5t32 117.5v543q0 77 -29 107.5t-120 45.5v47l334 92h20zM328 1167q66 0 117.5 27t82 72t45.5 99t15 112h-51q-17 -75 -76 -117.5t-133 -42.5t-133 42.5t-76 117.5h-53q0 -58 15.5 -112t46 -99
t82.5 -72t118 -27z" />
    <glyph glyph-name="Iogonek" unicode="&#x12e;" horiz-adv-x="696" 
d="M496 -342v-41q-28 -35 -75.5 -58.5t-92.5 -23.5q-59 0 -102.5 29t-59.5 78t-8 108t55.5 126t128.5 124h-266v45q106 15 138 46.5t32 117.5v1014q0 86 -32 117t-138 46v48h542v-48q-106 -15 -136.5 -46t-30.5 -117v-1014q0 -86 31 -117.5t136 -46.5v-45h-215
q-89 -82 -111 -191q-19 -99 31 -146q56 -53 173 -5z" />
    <glyph glyph-name="iogonek" unicode="&#x12f;" horiz-adv-x="614" 
d="M475 -342v-41q-28 -35 -75.5 -58.5t-92.5 -23.5q-42 0 -76.5 15t-56.5 42.5t-33.5 63t-5 78.5t26 87t61 91t99.5 88h-267v45q106 15 138 46.5t32 117.5v543q0 77 -29 107.5t-120 45.5v47l334 92h20v-835q0 -86 31 -117.5t137 -46.5v-45h-215q-89 -82 -111 -191
q-20 -98 30 -146q55 -53 173 -5zM188 1374q0 59 41 100.5t99 41.5q57 0 98 -42t41 -100q0 -57 -41 -98t-98 -41q-58 0 -99 41t-41 98z" />
    <glyph glyph-name="Idotaccent" unicode="&#x130;" horiz-adv-x="696" 
d="M221 1694q0 51 35.5 87t87.5 36q51 0 87 -36t36 -87q0 -52 -36 -87.5t-87 -35.5q-52 0 -87.5 35.5t-35.5 87.5zM451 1223v-1014q0 -86 31 -117.5t136 -46.5v-45h-542v45q106 15 138 46.5t32 117.5v1014q0 86 -32 117t-138 46v48h542v-48q-106 -15 -136.5 -46t-30.5 -117z
" />
    <glyph glyph-name="dotlessi" unicode="&#x131;" horiz-adv-x="614" 
d="M430 1044v-835q0 -86 31 -117.5t137 -46.5v-45h-543v45q106 15 138 46.5t32 117.5v543q0 77 -29 107.5t-120 45.5v47l334 92h20z" />
    <glyph glyph-name="IJ" unicode="&#x132;" horiz-adv-x="1515" 
d="M451 1223v-1014q0 -86 31 -117.5t136 -46.5v-45h-542v45q106 15 138 46.5t32 117.5v1014q0 86 -32 117t-138 46v48h542v-48q-106 -15 -136.5 -46t-30.5 -117zM1270 1223v-670q0 -260 -118 -416.5t-302 -156.5q-95 0 -123 59q-20 44 7 84q30 44 85 31q12 -3 25 -9
q57 -25 94.5 -36.5t63 -9.5t38.5 16.5t19 45t7 71.5t0 100q-1 54 -1 84v807q0 86 -32 117t-138 46v48h543v-48q-106 -15 -137 -46t-31 -117z" />
    <glyph glyph-name="ij" unicode="&#x133;" horiz-adv-x="1185" 
d="M430 1044v-835q0 -86 31 -117.5t137 -46.5v-45h-543v45q106 15 138 46.5t32 117.5v543q0 77 -29 107.5t-120 45.5v47l334 92h20zM188 1374q0 59 41 100.5t99 41.5q57 0 98 -42t41 -100q0 -57 -41 -98t-98 -41q-58 0 -99 41t-41 98zM1042 1044v-952q0 -128 -37 -250.5
t-92 -207t-119.5 -136t-119.5 -51.5q-87 0 -112 61q-18 46 8 87q29 42 77 26q46 -15 81 -19t57.5 4.5t37 24t21 44.5t8 59t-0.5 74.5t-4.5 85t-5.5 96t-3 102.5v660q0 77 -29.5 107.5t-120.5 45.5v47l334 92h20zM801 1374q0 59 40.5 100.5t98.5 41.5q57 0 98 -42t41 -100
q0 -57 -41 -98t-98 -41q-58 0 -98.5 41t-40.5 98z" />
    <glyph glyph-name="Jcircumflex" unicode="&#x134;" horiz-adv-x="819" 
d="M471 1720l-231 -184h-56l256 369h62l256 -369h-58zM573 1223v-670q0 -260 -117.5 -416.5t-301.5 -156.5q-96 0 -124 61q-19 44 8 83q30 44 85 30q12 -3 24 -9q58 -26 95.5 -37t63 -9.5t38.5 17t19 45.5t7 72.5t0 100.5q-1 53 -1 82v807q0 86 -32 117t-138 46v48h542v-48
q-106 -15 -137 -46t-31 -117z" />
    <glyph glyph-name="jcircumflex" unicode="&#x135;" horiz-adv-x="571" 
d="M428 1044v-952q0 -103 -24 -204t-63.5 -178.5t-88 -138t-99 -92.5t-94.5 -32q-86 0 -110 61q-18 46 8 87q29 42 76 26q46 -15 81 -19t57.5 4.5t36.5 24t20.5 44.5t8.5 59t0 74.5t-5 85t-6 96t-3 102.5v660q0 77 -29 107.5t-120 45.5v47l334 92h20zM326 1311l-232 -185
h-55l256 369h61l256 -369h-57z" />
    <glyph glyph-name="Kcommaaccent" unicode="&#x136;" horiz-adv-x="1503" 
d="M709 -80q50 0 85.5 -20.5t53 -54.5t24.5 -67t7 -69q0 -91 -43 -173t-101.5 -132t-120.5 -72l-26 47q104 48 152 140q39 72 17 116q-15 26 -48 27q-53 0 -90 37.5t-37 93.5q0 51 38 89t89 38zM668 860l250 311q27 34 41.5 66t14.5 64t-31.5 55t-94.5 30v48h522v-48
q-203 -29 -305 -157l-352 -445l448 -534q148 -172 291 -205v-45h-610v45q53 7 80.5 26t29 46t-13 57t-43.5 66l-297 358q-45 54 -70.5 68t-76.5 14v-471q0 -86 31 -117.5t136 -46.5v-45h-542v45q106 15 138 46.5t32 117.5v1014q0 86 -32 117t-138 46v48h542v-48
q-106 -15 -136.5 -46t-30.5 -117v-465q82 0 126 21.5t91 80.5z" />
    <glyph glyph-name="kcommaaccent" unicode="&#x137;" 
d="M430 496v-287q0 -86 31 -117.5t137 -46.5v-45h-543v45q106 15 138 46.5t32 117.5v1075q0 78 -29 108.5t-120 45.5v47l334 92h20v-1004q82 0 124.5 14.5t80.5 57.5l133 154q38 44 47 79t-19.5 62t-99.5 37v47h451v-47q-87 -16 -140 -41t-96 -76l-223 -262l309 -381
q60 -73 110 -114.5t112 -57.5v-45h-471v45q44 5 58.5 21t1 49.5t-59.5 91.5l-175 217q-40 43 -67.5 57.5t-75.5 14.5zM608 -94q50 0 85.5 -20.5t53 -54.5t24.5 -67t7 -69q0 -134 -82.5 -238t-181.5 -139l-27 47q104 48 152 140q39 72 17 116q-15 26 -48 27q-53 0 -90 37.5
t-37 93.5q0 51 38 89t89 38z" />
    <glyph glyph-name="kgreenlandic" unicode="&#x138;" 
d="M430 496v-287q0 -86 31 -117.5t137 -46.5v-45h-543v45q106 15 138 46.5t32 117.5v543q0 77 -29 107.5t-120 45.5v47l334 92h20v-471q82 0 124.5 14.5t80.5 57.5l133 154q38 44 47 79t-19.5 62t-99.5 37v47h451v-47q-87 -16 -140 -41t-96 -76l-223 -262l309 -381
q60 -73 110 -114.5t112 -57.5v-45h-471v45q44 5 58.5 21t1 49.5t-59.5 91.5l-175 217q-40 43 -67.5 57.5t-75.5 14.5z" />
    <glyph glyph-name="Lacute" unicode="&#x139;" horiz-adv-x="1187" 
d="M322 1559l26 -23l289 213q57 42 37 97q-15 40 -58 55q-55 19 -92 -29l-6 -8zM451 76h378q109 0 180.5 66.5t86.5 189.5h55l-21 -332h-1054v45q106 15 138 46.5t32 117.5v1014q0 86 -32 117t-138 46v48h542v-48q-106 -15 -136.5 -46t-30.5 -117v-1147z" />
    <glyph glyph-name="lacute" unicode="&#x13a;" horiz-adv-x="614" 
d="M430 1577v-1368q0 -86 31 -117.5t137 -46.5v-45h-543v45q106 15 138 46.5t32 117.5v1075q0 78 -29 108.5t-120 45.5v47l334 92h20zM271 1681l26 -23l289 213q57 42 37 97q-15 40 -58 55q-55 19 -92 -29l-6 -8z" />
    <glyph glyph-name="Lcommaaccent" unicode="&#x13b;" horiz-adv-x="1187" 
d="M614 -78q50 0 85.5 -20.5t53 -54.5t24.5 -67t7 -69q0 -134 -82.5 -238t-181.5 -139l-26 48q104 49 152 140q39 72 16 116q-14 26 -48 26q-53 0 -90 37.5t-37 93.5q0 51 38 89t89 38zM451 76h378q109 0 180.5 66.5t86.5 189.5h55l-21 -332h-1054v45q106 15 138 46.5
t32 117.5v1014q0 86 -32 117t-138 46v48h542v-48q-106 -15 -136.5 -46t-30.5 -117v-1147z" />
    <glyph glyph-name="lcommaaccent" unicode="&#x13c;" horiz-adv-x="614" 
d="M430 1577v-1368q0 -86 31 -117.5t137 -46.5v-45h-543v45q106 15 138 46.5t32 117.5v1075q0 78 -29 108.5t-120 45.5v47l334 92h20zM305 -94q50 0 85.5 -20.5t53 -54.5t24.5 -67t7 -69q0 -134 -82.5 -238t-181.5 -139l-27 47q104 48 152 140q39 72 17 116q-15 26 -48 27
q-53 0 -90 37.5t-37 93.5q0 51 38 89t89 38z" />
    <glyph glyph-name="Lcaron" unicode="&#x13d;" horiz-adv-x="1187" 
d="M868 1464q50 0 85.5 -20.5t53 -54.5t24.5 -67t7 -69q0 -69 -24.5 -133.5t-64 -112t-84.5 -81t-91 -49.5l-26 47q104 49 152 140q39 72 16 116q-14 26 -48 26q-53 0 -90 37.5t-37 93.5q0 51 38 89t89 38zM451 76h378q109 0 180.5 66.5t86.5 189.5h55l-21 -332h-1054v45
q106 15 138 46.5t32 117.5v1014q0 86 -32 117t-138 46v48h542v-48q-106 -15 -136.5 -46t-30.5 -117v-1147z" />
    <glyph glyph-name="lcaron" unicode="&#x13e;" horiz-adv-x="614" 
d="M430 1577v-1368q0 -86 31 -117.5t137 -46.5v-45h-543v45q106 15 138 46.5t32 117.5v1075q0 78 -29 108.5t-120 45.5v47l334 92h20zM694 1585q50 0 85.5 -20.5t53 -54.5t24.5 -67t7 -69q0 -134 -82.5 -238t-181.5 -139l-27 47q104 48 152 140q39 72 17 116q-15 26 -48 27
q-53 0 -90 37.5t-37 93.5q0 51 38 89t89 38z" />
    <glyph glyph-name="Ldot" unicode="&#x13f;" horiz-adv-x="1187" 
d="M637 743q0 51 32.5 83t82.5 32q48 0 80 -32.5t32 -82.5t-32 -81t-80 -31q-50 0 -82.5 31t-32.5 81zM451 76h378q109 0 180.5 66.5t86.5 189.5h55l-21 -332h-1054v45q106 15 138 46.5t32 117.5v1014q0 86 -32 117t-138 46v48h542v-48q-106 -15 -136.5 -46t-30.5 -117
v-1147z" />
    <glyph glyph-name="ldot" unicode="&#x140;" horiz-adv-x="749" 
d="M430 1577v-1368q0 -86 31 -117.5t137 -46.5v-45h-543v45q106 15 138 46.5t32 117.5v1075q0 78 -29 108.5t-120 45.5v47l334 92h20zM526 733q0 51 32.5 83t82.5 32q48 0 80.5 -32.5t32.5 -82.5t-32.5 -81t-80.5 -31q-50 0 -82.5 31t-32.5 81z" />
    <glyph glyph-name="Lslash" unicode="&#x141;" horiz-adv-x="1187" 
d="M76 760h170v463q0 86 -32 117t-138 46v48h542v-48q-106 -15 -136.5 -46t-30.5 -117v-463h229v-78h-229v-606h378q109 0 180.5 66.5t86.5 189.5h55l-21 -332h-1054v45q106 15 138 46.5t32 117.5v473h-170v78z" />
    <glyph glyph-name="lslash" unicode="&#x142;" horiz-adv-x="614" 
d="M578 682h-148v-473q0 -86 31 -117.5t137 -46.5v-45h-543v45q106 15 138 46.5t32 117.5v473h-149v78h149v524q0 78 -29 108.5t-120 45.5v47l334 92h20v-817h148v-78z" />
    <glyph glyph-name="Nacute" unicode="&#x143;" horiz-adv-x="1495" 
d="M725 1559l27 -23l288 213q58 43 37 97q-15 40 -58 55q-55 18 -92 -30q-3 -3 -5 -7zM1167 352v871q0 61 -12 89.5t-50.5 46t-121.5 27.5v48h455v-48q-114 -15 -148.5 -46t-34.5 -117v-1223h-125l-782 1243v-1034q0 -61 12 -90t50.5 -46.5t121.5 -27.5v-45h-456v45
q114 15 148 46.5t34 117.5v1014q0 86 -34 117t-148 46v48h420z" />
    <glyph glyph-name="nacute" unicode="&#x144;" horiz-adv-x="1269" 
d="M55 0v45q106 15 138 46.5t32 117.5v543q0 77 -29 107.5t-120 45.5v47l344 92h16l-6 -215h4q194 215 389 215q54 0 99.5 -17t82.5 -52t58.5 -96t21.5 -142v-528q0 -86 31 -117.5t137 -46.5v-45h-501v45q48 12 72.5 22t38 30t16 42t2.5 70v522q0 82 -38.5 126t-109.5 44
q-80 0 -142.5 -30.5t-160.5 -108.5v-553q0 -86 31 -117.5t137 -46.5v-45h-543zM613 1149l26 -23l289 213q57 42 37 97q-15 40 -58 55q-55 19 -92 -29l-6 -8z" />
    <glyph glyph-name="Ncommaaccent" unicode="&#x145;" horiz-adv-x="1495" 
d="M713 -94q50 0 85.5 -20.5t53 -54.5t24.5 -67t7 -69q0 -91 -43 -173t-101.5 -132t-120.5 -72l-26 47q104 48 152 140q39 72 17 116q-15 26 -48 27q-53 0 -90 37.5t-37 93.5q0 51 38 89t89 38zM1167 352v871q0 61 -12 89.5t-50.5 46t-121.5 27.5v48h455v-48
q-114 -15 -148.5 -46t-34.5 -117v-1223h-125l-782 1243v-1034q0 -61 12 -90t50.5 -46.5t121.5 -27.5v-45h-456v45q114 15 148 46.5t34 117.5v1014q0 86 -34 117t-148 46v48h420z" />
    <glyph glyph-name="ncommaaccent" unicode="&#x146;" horiz-adv-x="1269" 
d="M55 0v45q106 15 138 46.5t32 117.5v543q0 77 -29 107.5t-120 45.5v47l344 92h16l-6 -215h4q194 215 389 215q54 0 99.5 -17t82.5 -52t58.5 -96t21.5 -142v-528q0 -86 31 -117.5t137 -46.5v-45h-501v45q48 12 72.5 22t38 30t16 42t2.5 70v522q0 82 -38.5 126t-109.5 44
q-80 0 -142.5 -30.5t-160.5 -108.5v-553q0 -86 31 -117.5t137 -46.5v-45h-543zM645 -94q50 0 85.5 -20.5t53 -54.5t24.5 -67t7 -69q0 -134 -82.5 -238t-181.5 -139l-27 47q104 48 152 140q39 72 17 116q-15 26 -48 27q-53 0 -90 37.5t-37 93.5q0 51 38 89t89 38z" />
    <glyph glyph-name="Ncaron" unicode="&#x147;" horiz-adv-x="1495" 
d="M782 1720l-231 185h-55l256 -369h61l256 369h-57zM1167 352v871q0 61 -12 89.5t-50.5 46t-121.5 27.5v48h455v-48q-114 -15 -148.5 -46t-34.5 -117v-1223h-125l-782 1243v-1034q0 -61 12 -90t50.5 -46.5t121.5 -27.5v-45h-456v45q114 15 148 46.5t34 117.5v1014
q0 86 -34 117t-148 46v48h420z" />
    <glyph glyph-name="ncaron" unicode="&#x148;" horiz-adv-x="1269" 
d="M55 0v45q106 15 138 46.5t32 117.5v543q0 77 -29 107.5t-120 45.5v47l344 92h16l-6 -215h4q194 215 389 215q54 0 99.5 -17t82.5 -52t58.5 -96t21.5 -142v-528q0 -86 31 -117.5t137 -46.5v-45h-501v45q48 12 72.5 22t38 30t16 42t2.5 70v522q0 82 -38.5 126t-109.5 44
q-80 0 -142.5 -30.5t-160.5 -108.5v-553q0 -86 31 -117.5t137 -46.5v-45h-543zM663 1311l-231 184h-55l256 -369h61l256 369h-57z" />
    <glyph glyph-name="napostrophe" unicode="&#x149;" horiz-adv-x="1269" 
d="M55 0v45q106 15 138 46.5t32 117.5v543q0 77 -29 107.5t-120 45.5v47l344 92h16l-6 -215h4q194 215 389 215q54 0 99.5 -17t82.5 -52t58.5 -96t21.5 -142v-528q0 -86 31 -117.5t137 -46.5v-45h-501v45q48 12 72.5 22t38 30t16 42t2.5 70v522q0 82 -38.5 126t-109.5 44
q-80 0 -142.5 -30.5t-160.5 -108.5v-553q0 -86 31 -117.5t137 -46.5v-45h-543zM311 1729q50 0 85.5 -20.5t53 -54.5t24.5 -67t7 -69q0 -134 -82.5 -238t-181.5 -139l-27 47q104 49 153 140q38 72 16 116q-14 26 -48 26q-53 0 -90 38t-37 94q0 51 38 89t89 38z" />
    <glyph glyph-name="Eng" unicode="&#x14a;" horiz-adv-x="1495" 
d="M1167 -43v-80q0 -47 -6 -88.5t-20 -81.5t-40 -67t-62 -42.5t-89 -11.5t-119 29q-66 26 -106 -18q-32 -35 -17 -81q18 -56 96 -67q15 -2 32 -2q195 0 307 144t112 409v1223q0 86 34.5 117t148.5 46v48h-455v-48q83 -10 121.5 -27.5t50.5 -46t12 -89.5v-871l-671 1082h-420
v-48q114 -15 148 -46t34 -117v-1014q0 -86 -34 -117.5t-148 -46.5v-45h456v45q-83 10 -121.5 27.5t-50.5 46.5t-12 90v1034z" />
    <glyph glyph-name="eng" unicode="&#x14b;" 
d="M881 92v639q0 75 -38.5 122.5t-109.5 47.5q-80 0 -142.5 -30.5t-160.5 -108.5v-553q0 -86 31 -117.5t137 -46.5v-45h-543v45q106 15 138 46.5t32 117.5v543q0 77 -29 107.5t-120 45.5v47l344 92h16l-6 -215h4q194 215 389 215q54 0 99.5 -17t82.5 -52t58.5 -96t21.5 -142
v-645q0 -128 -37 -250.5t-92 -207t-119.5 -136t-119.5 -51.5q-87 0 -112 61q-18 46 8 87q29 42 77 26q46 -15 81 -19t57.5 4.5t37 24t21 44.5t8 59t-0.5 74.5t-4.5 85t-5.5 96t-3 102.5z" />
    <glyph glyph-name="Omacron" unicode="&#x14c;" horiz-adv-x="1597" 
d="M489 1714h646v-82h-646v82zM92 717q0 158 56.5 296t152.5 234t225.5 151.5t272.5 55.5t272.5 -55.5t225 -151.5t152 -234t56.5 -296t-56.5 -296t-152 -234t-225 -151.5t-272.5 -55.5t-272.5 55.5t-225.5 151.5t-152.5 234t-56.5 296zM317 717q0 -291 135.5 -475.5
t346.5 -184.5q138 0 247.5 83.5t171.5 234t62 342.5q0 290 -135.5 473.5t-345.5 183.5q-139 0 -249 -82.5t-171.5 -232.5t-61.5 -342z" />
    <glyph glyph-name="omacron" unicode="&#x14d;" horiz-adv-x="1150" 
d="M74 512q2 146 67.5 267.5t182.5 193t260 71.5t257 -71.5t176 -193t60 -267.5q-3 -146 -69.5 -268t-183 -193t-259.5 -71t-257 71.5t-175 192.5t-59 268zM299 512q0 -228 71.5 -344.5t204.5 -116.5q132 0 204.5 117t72.5 344t-72.5 344t-204.5 117q-133 0 -204.5 -116.5
t-71.5 -344.5zM285 1305h645v-82h-645v82z" />
    <glyph glyph-name="Obreve" unicode="&#x14e;" horiz-adv-x="1597" 
d="M827 1577q66 0 117.5 27t82 72t45.5 98.5t15 111.5h-51q-17 -75 -76 -117.5t-133 -42.5t-133 42.5t-76 117.5h-53q0 -58 15.5 -111.5t46 -98.5t82.5 -72t118 -27zM92 717q0 158 56.5 296t152.5 234t225.5 151.5t272.5 55.5t272.5 -55.5t225 -151.5t152 -234t56.5 -296
t-56.5 -296t-152 -234t-225 -151.5t-272.5 -55.5t-272.5 55.5t-225.5 151.5t-152.5 234t-56.5 296zM317 717q0 -291 135.5 -475.5t346.5 -184.5q138 0 247.5 83.5t171.5 234t62 342.5q0 290 -135.5 473.5t-345.5 183.5q-139 0 -249 -82.5t-171.5 -232.5t-61.5 -342z" />
    <glyph glyph-name="obreve" unicode="&#x14f;" horiz-adv-x="1150" 
d="M74 512q2 146 67.5 267.5t182.5 193t260 71.5t257 -71.5t176 -193t60 -267.5q-3 -146 -69.5 -268t-183 -193t-259.5 -71t-257 71.5t-175 192.5t-59 268zM299 512q0 -228 71.5 -344.5t204.5 -116.5q132 0 204.5 117t72.5 344t-72.5 344t-204.5 117q-133 0 -204.5 -116.5
t-71.5 -344.5zM588 1167q66 0 117.5 27t82 72t45.5 99t15 112h-51q-17 -75 -76 -117.5t-133 -42.5t-133 42.5t-76 117.5h-53q0 -58 15.5 -112t46 -99t82.5 -72t118 -27z" />
    <glyph glyph-name="Ohungarumlaut" unicode="&#x150;" horiz-adv-x="1597" 
d="M631 1536l207 297q40 57 -1 102q-32 36 -80 33q-54 -3 -70 -58q-1 -1 -1 -3l-90 -357zM958 1536l207 297q39 56 0 101q-31 37 -80 34q-54 -3 -70 -58l-1 -3l-90 -357zM92 717q0 158 56.5 296t152.5 234t225.5 151.5t272.5 55.5t272.5 -55.5t225 -151.5t152 -234
t56.5 -296t-56.5 -296t-152 -234t-225 -151.5t-272.5 -55.5t-272.5 55.5t-225.5 151.5t-152.5 234t-56.5 296zM317 717q0 -291 135.5 -475.5t346.5 -184.5q138 0 247.5 83.5t171.5 234t62 342.5q0 290 -135.5 473.5t-345.5 183.5q-139 0 -249 -82.5t-171.5 -232.5
t-61.5 -342z" />
    <glyph glyph-name="ohungarumlaut" unicode="&#x151;" horiz-adv-x="1150" 
d="M74 512q2 146 67.5 267.5t182.5 193t260 71.5t257 -71.5t176 -193t60 -267.5q-3 -146 -69.5 -268t-183 -193t-259.5 -71t-257 71.5t-175 192.5t-59 268zM299 512q0 -228 71.5 -344.5t204.5 -116.5q132 0 204.5 117t72.5 344t-72.5 344t-204.5 117q-133 0 -204.5 -116.5
t-71.5 -344.5zM377 1141l34 -15l207 297q39 56 0 101q-31 37 -80 34q-54 -3 -70 -58q-1 -1 -1 -3zM704 1141l35 -15l207 297q40 57 -1 102q-32 36 -80 33q-54 -3 -70 -58q-1 -1 -1 -3z" />
    <glyph glyph-name="OE" unicode="&#x152;" horiz-adv-x="1986" 
d="M1219 1356v-596h174q101 0 154.5 45t66.5 162h55v-492h-55q-13 117 -66.5 162t-154.5 45h-174v-606h368q109 0 180 66.5t86 189.5h56l-21 -332h-884q-72 -20 -205 -20q-143 0 -272.5 55.5t-225.5 151.5t-152.5 234t-56.5 296t56.5 296t152.5 234t225.5 151.5t272.5 55.5
q133 0 205 -20h864l10 -334h-55q-15 124 -81.5 190t-174.5 66h-348zM317 717q0 -291 135.5 -475.5t346.5 -184.5q215 0 215 244v825q0 112 -52 180t-163 68q-139 0 -249 -82.5t-171.5 -232.5t-61.5 -342z" />
    <glyph glyph-name="oe" unicode="&#x153;" horiz-adv-x="1769" 
d="M1309 -20q-252 0 -379 190q-65 -91 -163 -140.5t-218 -49.5q-143 0 -253.5 71.5t-167.5 192.5t-54 268q2 147 63.5 268t174.5 192.5t255 71.5q119 0 215.5 -51t159.5 -141q68 91 170.5 141.5t216.5 50.5q65 0 122 -13.5t110 -45.5t85 -83.5t46 -127t-6 -176.5h-637
q-9 -212 77 -336.5t248 -124.5q175 0 324 84v-82q-80 -66 -132 -94q-119 -65 -257 -65zM299 512q0 -461 260 -461q262 0 262 461t-262 461q-260 0 -260 -461zM1319 973q-116 0 -178.5 -75.5t-85.5 -217.5h428q36 145 -14.5 219t-149.5 74z" />
    <glyph glyph-name="Racute" unicode="&#x154;" horiz-adv-x="1372" 
d="M588 1559l26 -23l289 213q57 42 37 97q-15 40 -58 55q-55 19 -92 -29l-6 -8zM1157 1051q0 -66 -17 -124t-55 -112t-106.5 -96t-163.5 -66l301 -422q46 -65 105 -115.5t114 -70.5v-45h-297q-75 56 -164 195l-284 434h-139v-420q0 -86 31 -117.5t136 -46.5v-45h-542v45
q106 15 138 46.5t32 117.5v1014q0 86 -32 117t-138 46v48h610q225 0 348 -105t123 -278zM451 707h143q102 0 172.5 24.5t107.5 70.5t52.5 101t15.5 127q0 52 -8.5 97t-30.5 88t-56 73.5t-88 49t-124 18.5h-184v-649z" />
    <glyph glyph-name="racute" unicode="&#x155;" horiz-adv-x="890" 
d="M430 209v532q150 160 318 93q54 -21 89 28q31 46 17 102q-15 65 -83 77q-14 3 -30 3q-157 0 -307 -235h-4l6 235h-16l-344 -92v-47q91 -15 120 -45.5t29 -107.5v-543q0 -86 -32 -117.5t-138 -46.5v-45h543v45q-106 15 -137 46.5t-31 117.5zM473 1149l26 -23l289 213
q57 42 37 97q-15 40 -58 55q-55 19 -92 -29l-6 -8z" />
    <glyph glyph-name="Rcommaaccent" unicode="&#x156;" horiz-adv-x="1372" 
d="M711 -82q50 0 85.5 -20.5t53 -54.5t24.5 -67t7 -69q0 -91 -43 -173t-101.5 -132t-120.5 -72l-26 47q104 48 152 140q39 72 17 116q-15 26 -48 27q-53 0 -90 37.5t-37 93.5q0 51 38 89t89 38zM1157 1051q0 -66 -17 -124t-55 -112t-106.5 -96t-163.5 -66l301 -422
q46 -65 105 -115.5t114 -70.5v-45h-297q-75 56 -164 195l-284 434h-139v-420q0 -86 31 -117.5t136 -46.5v-45h-542v45q106 15 138 46.5t32 117.5v1014q0 86 -32 117t-138 46v48h610q225 0 348 -105t123 -278zM451 707h143q102 0 172.5 24.5t107.5 70.5t52.5 101t15.5 127
q0 52 -8.5 97t-30.5 88t-56 73.5t-88 49t-124 18.5h-184v-649z" />
    <glyph glyph-name="rcommaaccent" unicode="&#x157;" horiz-adv-x="890" 
d="M430 209v532q150 160 318 93q54 -21 89 28q31 46 17 102q-15 65 -83 77q-14 3 -30 3q-157 0 -307 -235h-4l6 235h-16l-344 -92v-47q91 -15 120 -45.5t29 -107.5v-543q0 -86 -32 -117.5t-138 -46.5v-45h543v45q-106 15 -137 46.5t-31 117.5zM305 -94q50 0 85.5 -20.5
t53 -54.5t24.5 -67t7 -69q0 -134 -82.5 -238t-181.5 -139l-27 47q104 48 152 140q39 72 17 116q-15 26 -48 27q-53 0 -90 37.5t-37 93.5q0 51 38 89t89 38z" />
    <glyph glyph-name="Rcaron" unicode="&#x158;" horiz-adv-x="1372" 
d="M645 1720l-231 185h-56l256 -369h62l256 369h-58zM1157 1051q0 -66 -17 -124t-55 -112t-106.5 -96t-163.5 -66l301 -422q46 -65 105 -115.5t114 -70.5v-45h-297q-75 56 -164 195l-284 434h-139v-420q0 -86 31 -117.5t136 -46.5v-45h-542v45q106 15 138 46.5t32 117.5
v1014q0 86 -32 117t-138 46v48h610q225 0 348 -105t123 -278zM451 707h143q102 0 172.5 24.5t107.5 70.5t52.5 101t15.5 127q0 52 -8.5 97t-30.5 88t-56 73.5t-88 49t-124 18.5h-184v-649z" />
    <glyph glyph-name="rcaron" unicode="&#x159;" horiz-adv-x="890" 
d="M430 209v532q150 160 318 93q54 -21 89 28q31 46 17 102q-15 65 -83 77q-14 3 -30 3q-157 0 -307 -235h-4l6 235h-16l-344 -92v-47q91 -15 120 -45.5t29 -107.5v-543q0 -86 -32 -117.5t-138 -46.5v-45h543v45q-106 15 -137 46.5t-31 117.5zM475 1311l-231 184h-55
l256 -369h61l256 369h-57z" />
    <glyph glyph-name="Sacute" unicode="&#x15a;" horiz-adv-x="1095" 
d="M510 1559l27 -23l288 213q58 43 37 97q-15 40 -58 55q-55 18 -92 -30q-3 -3 -5 -7zM590 850q414 -166 414 -451q0 -193 -131.5 -306t-340.5 -113q-109 0 -221 27.5t-198 74.5l-21 362h55q37 -383 375 -383q127 0 199 74t72 199q0 50 -18.5 93.5t-46 74.5t-72 61t-83 49.5
t-92.5 42.5q-85 36 -147 73t-116.5 87.5t-83 116.5t-28.5 145q0 166 122 271.5t329 105.5q209 0 379 -92l20 -344h-55q-59 354 -332 354q-114 0 -180.5 -56.5t-66.5 -168.5q0 -107 71.5 -177t196.5 -120z" />
    <glyph glyph-name="sacute" unicode="&#x15b;" horiz-adv-x="880" 
d="M752 717h-56q-23 120 -95 188t-167 68q-71 0 -122.5 -40.5t-51.5 -111.5q0 -35 13.5 -64t30 -46.5t50.5 -36t54.5 -26.5t62.5 -23q77 -30 129 -57t101 -66.5t73.5 -92t24.5 -118.5q0 -95 -52.5 -166.5t-137.5 -108t-189 -36.5q-77 0 -164.5 20t-149.5 51l-20 277h57
q9 -68 31.5 -119.5t50 -80.5t63 -47t65 -24t61.5 -6q83 0 133.5 49t50.5 129q0 41 -16 73t-51.5 58t-70 43t-91.5 41q-71 29 -118 55.5t-88 63.5t-61 86.5t-20 112.5q0 125 96 203.5t262 78.5q159 0 291 -63zM365 1149l26 -23l289 213q57 42 37 97q-15 40 -58 55
q-55 19 -92 -29l-6 -8z" />
    <glyph glyph-name="Scircumflex" unicode="&#x15c;" horiz-adv-x="1095" 
d="M557 1720l-231 -184h-56l256 369h62l256 -369h-58zM590 850q414 -166 414 -451q0 -193 -131.5 -306t-340.5 -113q-109 0 -221 27.5t-198 74.5l-21 362h55q37 -383 375 -383q127 0 199 74t72 199q0 50 -18.5 93.5t-46 74.5t-72 61t-83 49.5t-92.5 42.5q-85 36 -147 73
t-116.5 87.5t-83 116.5t-28.5 145q0 166 122 271.5t329 105.5q209 0 379 -92l20 -344h-55q-59 354 -332 354q-114 0 -180.5 -56.5t-66.5 -168.5q0 -107 71.5 -177t196.5 -120z" />
    <glyph glyph-name="scircumflex" unicode="&#x15d;" horiz-adv-x="880" 
d="M752 717h-56q-23 120 -95 188t-167 68q-71 0 -122.5 -40.5t-51.5 -111.5q0 -35 13.5 -64t30 -46.5t50.5 -36t54.5 -26.5t62.5 -23q77 -30 129 -57t101 -66.5t73.5 -92t24.5 -118.5q0 -95 -52.5 -166.5t-137.5 -108t-189 -36.5q-77 0 -164.5 20t-149.5 51l-20 277h57
q9 -68 31.5 -119.5t50 -80.5t63 -47t65 -24t61.5 -6q83 0 133.5 49t50.5 129q0 41 -16 73t-51.5 58t-70 43t-91.5 41q-71 29 -118 55.5t-88 63.5t-61 86.5t-20 112.5q0 125 96 203.5t262 78.5q159 0 291 -63zM430 1311l-231 -185h-55l256 369h61l256 -369h-57z" />
    <glyph glyph-name="Scedilla" unicode="&#x15e;" horiz-adv-x="1095" 
d="M956 1018h-55q-59 354 -332 354q-114 0 -180.5 -56.5t-66.5 -168.5q0 -107 71.5 -177t196.5 -120q414 -166 414 -451q0 -189 -124.5 -300.5t-326.5 -116.5v-64q0 -15 11.5 -24.5t30.5 -15t41.5 -10.5t45 -14.5t41.5 -23.5t30 -40.5t11 -63.5q-1 -61 -56.5 -114
t-130.5 -83t-153 -41l-21 61q5 2 35.5 11t46 14.5t43 18.5t42 26.5t26.5 34.5t12 45q0 25 -9.5 43t-23.5 27.5t-30.5 20.5t-30.5 21.5t-22 33t-7 53.5l4 84q-99 4 -198.5 31t-177.5 69l-21 362h55q37 -383 375 -383q127 0 199 74t72 199q0 50 -18.5 93.5t-46 74.5t-72 61
t-83 49.5t-92.5 42.5q-85 36 -147 73t-116.5 87.5t-83 116.5t-28.5 145q0 166 122 271.5t329 105.5q209 0 379 -92z" />
    <glyph glyph-name="scedilla" unicode="&#x15f;" horiz-adv-x="880" 
d="M752 717h-56q-23 120 -95 188t-167 68q-71 0 -122.5 -40.5t-51.5 -111.5q0 -35 13.5 -64t30 -46.5t50.5 -36t54.5 -26.5t62.5 -23q77 -30 129 -57t101 -66.5t73.5 -92t24.5 -118.5q0 -140 -106.5 -224t-262.5 -87v-62q0 -15 11.5 -24.5t30.5 -15t41.5 -10.5t45 -14.5
t41.5 -23.5t30 -40.5t11 -63.5q-1 -61 -56.5 -114t-130.5 -83t-153 -41l-20 61q5 2 35.5 11t45.5 14.5t42.5 18.5t42 26.5t26.5 34.5t12 45q0 25 -9.5 43t-23.5 27.5t-30.5 20.5t-30.5 21.5t-22 33t-7 53.5l5 86q-154 13 -261 67l-20 277h57q9 -68 31.5 -119.5t50 -80.5
t63 -47t65 -24t61.5 -6q83 0 133.5 49t50.5 129q0 41 -16 73t-51.5 58t-70 43t-91.5 41q-71 29 -118 55.5t-88 63.5t-61 86.5t-20 112.5q0 125 96 203.5t262 78.5q159 0 291 -63z" />
    <glyph glyph-name="Scaron" unicode="&#x160;" horiz-adv-x="1095" 
d="M567 1720l-231 185h-55l256 -369h61l256 369h-57zM590 850q414 -166 414 -451q0 -193 -131.5 -306t-340.5 -113q-109 0 -221 27.5t-198 74.5l-21 362h55q37 -383 375 -383q127 0 199 74t72 199q0 50 -18.5 93.5t-46 74.5t-72 61t-83 49.5t-92.5 42.5q-85 36 -147 73
t-116.5 87.5t-83 116.5t-28.5 145q0 166 122 271.5t329 105.5q209 0 379 -92l20 -344h-55q-59 354 -332 354q-114 0 -180.5 -56.5t-66.5 -168.5q0 -107 71.5 -177t196.5 -120z" />
    <glyph glyph-name="scaron" unicode="&#x161;" horiz-adv-x="880" 
d="M752 717h-56q-23 120 -95 188t-167 68q-71 0 -122.5 -40.5t-51.5 -111.5q0 -35 13.5 -64t30 -46.5t50.5 -36t54.5 -26.5t62.5 -23q77 -30 129 -57t101 -66.5t73.5 -92t24.5 -118.5q0 -95 -52.5 -166.5t-137.5 -108t-189 -36.5q-77 0 -164.5 20t-149.5 51l-20 277h57
q9 -68 31.5 -119.5t50 -80.5t63 -47t65 -24t61.5 -6q83 0 133.5 49t50.5 129q0 41 -16 73t-51.5 58t-70 43t-91.5 41q-71 29 -118 55.5t-88 63.5t-61 86.5t-20 112.5q0 125 96 203.5t262 78.5q159 0 291 -63zM415 1311l-231 184h-55l256 -369h61l256 369h-57z" />
    <glyph glyph-name="Tcommaaccent" unicode="&#x162;" 
d="M590 -94q50 0 85.5 -20.5t53 -54.5t24.5 -67t7 -69q0 -134 -82.5 -238t-181.5 -139l-27 47q104 48 152 140q39 72 17 116q-15 26 -48 27q-53 0 -90 37.5t-37 93.5q0 51 38 89t89 38zM1161 1434h-1095l-11 -334h58q15 124 81.5 190t174.5 66h143v-1147q0 -86 -32 -117.5
t-138 -46.5v-45h543v45q-106 15 -137 46.5t-31 117.5v1147h143q108 0 174.5 -66t81.5 -190h55z" />
    <glyph glyph-name="tcommaaccent" unicode="&#x163;" horiz-adv-x="778" 
d="M389 942v-709q0 -41 12 -67t36 -37.5t47.5 -15.5t58.5 -4q50 0 194 28v-35q-74 -60 -161 -91t-166 -31q-226 0 -226 245v717h-129v72l129 30l154 287h51v-307h291v-82h-291zM348 -94q50 0 85.5 -20.5t53 -54.5t24.5 -67t7 -69q0 -134 -82.5 -238t-181.5 -139l-27 47
q104 48 152 140q39 72 17 116q-15 26 -48 27q-53 0 -90 37.5t-37 93.5q0 51 38 89t89 38z" />
    <glyph glyph-name="Tcaron" unicode="&#x164;" 
d="M612 1720l-231 185h-55l256 -369h61l256 369h-57zM1161 1434h-1095l-11 -334h58q15 124 81.5 190t174.5 66h143v-1147q0 -86 -32 -117.5t-138 -46.5v-45h543v45q-106 15 -137 46.5t-31 117.5v1147h143q108 0 174.5 -66t81.5 -190h55z" />
    <glyph glyph-name="tcaron" unicode="&#x165;" horiz-adv-x="778" 
d="M389 942v-709q0 -41 12 -67t36 -37.5t47.5 -15.5t58.5 -4q50 0 194 28v-35q-74 -60 -161 -91t-166 -31q-226 0 -226 245v717h-129v72l129 30l154 287h51v-307h291v-82h-291zM643 1708q50 0 85.5 -20.5t53 -54.5t24.5 -67t7 -69q0 -134 -82.5 -238t-181.5 -139l-27 47
q104 48 152 140q39 72 17 116q-15 26 -48 27q-53 0 -90 37.5t-37 93.5q0 51 38 89t89 38z" />
    <glyph glyph-name="Tbar" unicode="&#x166;" 
d="M946 760h-229v596h143q108 0 174.5 -66t81.5 -190h55l-10 334h-1095l-11 -334h58q15 124 81.5 190t174.5 66h143v-596h-231v-78h231v-473q0 -86 -32 -117.5t-138 -46.5v-45h543v45q-106 15 -137 46.5t-31 117.5v473h229v78z" />
    <glyph glyph-name="tbar" unicode="&#x167;" horiz-adv-x="778" 
d="M55 688h129v254h-129v72l129 30l154 287h51v-307h291v-82h-291v-254h189v-78h-189v-350q0 -48 11 -79.5t33.5 -46.5t47.5 -20t62 -5q82 0 194 28v-35q-74 -60 -161 -91t-166 -31q-226 0 -226 245v385h-129v78z" />
    <glyph glyph-name="Utilde" unicode="&#x168;" horiz-adv-x="1556" 
d="M508 1571l-41 26q115 236 215 236q41 0 164.5 -41t163.5 -41q56 0 88 15t65 61l41 -25q-21 -43 -38 -72t-44 -66t-58.5 -57t-64.5 -20q-48 0 -168.5 41t-168.5 41q-52 0 -83 -21.5t-71 -76.5zM1225 573v650q0 46 -6 71t-26.5 45t-56 29.5t-98.5 17.5v48h461v-48
q-117 -15 -150.5 -46t-33.5 -117v-670q0 -273 -146.5 -423t-400.5 -150q-272 0 -407.5 150t-135.5 423v670q0 86 -32 117t-138 46v48h543v-48q-106 -15 -137 -46t-31 -117v-650q0 -501 383 -501q204 0 308 130t104 371z" />
    <glyph glyph-name="utilde" unicode="&#x169;" 
d="M819 260v563q0 80 -30.5 109.5t-139.5 44.5v47h375v-743q0 -96 42 -126t146 -18v-55l-372 -102h-21v215h-4q-90 -105 -178 -160t-193 -55q-113 0 -186.5 74.5t-73.5 232.5v536q0 79 -27.5 109t-121.5 45v47h354v-733q0 -75 37 -121.5t109 -46.5q70 0 129 28.5t155 108.5z
M252 1161l-41 27q115 235 215 235q41 0 164 -41t163 -41q56 0 88.5 15t65.5 61l41 -24q-21 -43 -38 -72t-44 -66t-58.5 -57t-64.5 -20q-48 0 -169 41t-169 41q-52 0 -82.5 -21.5t-70.5 -77.5z" />
    <glyph glyph-name="Umacron" unicode="&#x16a;" horiz-adv-x="1556" 
d="M494 1714h645v-82h-645v82zM1225 573v650q0 46 -6 71t-26.5 45t-56 29.5t-98.5 17.5v48h461v-48q-117 -15 -150.5 -46t-33.5 -117v-670q0 -273 -146.5 -423t-400.5 -150q-272 0 -407.5 150t-135.5 423v670q0 86 -32 117t-138 46v48h543v-48q-106 -15 -137 -46t-31 -117
v-650q0 -501 383 -501q204 0 308 130t104 371z" />
    <glyph glyph-name="umacron" unicode="&#x16b;" 
d="M819 260v563q0 80 -30.5 109.5t-139.5 44.5v47h375v-743q0 -96 42 -126t146 -18v-55l-372 -102h-21v215h-4q-90 -105 -178 -160t-193 -55q-113 0 -186.5 74.5t-73.5 232.5v536q0 79 -27.5 109t-121.5 45v47h354v-733q0 -75 37 -121.5t109 -46.5q70 0 129 28.5t155 108.5z
M281 1305h645v-82h-645v82z" />
    <glyph glyph-name="Ubreve" unicode="&#x16c;" horiz-adv-x="1556" 
d="M791 1577q66 0 117.5 27t82 72t45.5 98.5t15 111.5h-52q-17 -75 -75.5 -117.5t-132.5 -42.5t-133 42.5t-76 117.5h-54q0 -58 15.5 -112t46.5 -98.5t83 -71.5t118 -27zM1225 573v650q0 46 -6 71t-26.5 45t-56 29.5t-98.5 17.5v48h461v-48q-117 -15 -150.5 -46t-33.5 -117
v-670q0 -273 -146.5 -423t-400.5 -150q-272 0 -407.5 150t-135.5 423v670q0 86 -32 117t-138 46v48h543v-48q-106 -15 -137 -46t-31 -117v-650q0 -501 383 -501q204 0 308 130t104 371z" />
    <glyph glyph-name="ubreve" unicode="&#x16d;" 
d="M819 260v563q0 80 -30.5 109.5t-139.5 44.5v47h375v-743q0 -96 42 -126t146 -18v-55l-372 -102h-21v215h-4q-90 -105 -178 -160t-193 -55q-113 0 -186.5 74.5t-73.5 232.5v536q0 79 -27.5 109t-121.5 45v47h354v-733q0 -75 37 -121.5t109 -46.5q70 0 129 28.5t155 108.5z
M590 1167q66 0 117.5 27t82 72t45.5 99t15 112h-51q-17 -75 -76 -117.5t-133 -42.5t-133 42.5t-76 117.5h-53q0 -58 15.5 -112t46 -99t82.5 -72t118 -27z" />
    <glyph glyph-name="Uring" unicode="&#x16e;" horiz-adv-x="1556" 
d="M639 1714q0 77 53 130.5t131 53.5q77 0 131 -54t54 -130q0 -78 -54 -131t-131 -53q-78 0 -131 53t-53 131zM707 1714q0 -50 33.5 -83.5t82.5 -33.5t83 33.5t34 83.5t-34 83.5t-83 33.5t-82.5 -33.5t-33.5 -83.5zM1225 573v650q0 46 -6 71t-26.5 45t-56 29.5t-98.5 17.5
v48h461v-48q-117 -15 -150.5 -46t-33.5 -117v-670q0 -273 -146.5 -423t-400.5 -150q-272 0 -407.5 150t-135.5 423v670q0 86 -32 117t-138 46v48h543v-48q-106 -15 -137 -46t-31 -117v-650q0 -501 383 -501q204 0 308 130t104 371z" />
    <glyph glyph-name="uring" unicode="&#x16f;" 
d="M819 260v563q0 80 -30.5 109.5t-139.5 44.5v47h375v-743q0 -96 42 -126t146 -18v-55l-372 -102h-21v215h-4q-90 -105 -178 -160t-193 -55q-113 0 -186.5 74.5t-73.5 232.5v536q0 79 -27.5 109t-121.5 45v47h354v-733q0 -75 37 -121.5t109 -46.5q70 0 129 28.5t155 108.5z
M410 1305q0 77 53 130.5t131 53.5q77 0 130.5 -53.5t53.5 -130.5q0 -78 -53.5 -131.5t-130.5 -53.5q-78 0 -131 53.5t-53 131.5zM477 1305q0 -49 34 -83t83 -34t83 34t34 83t-33.5 82.5t-83.5 33.5t-83.5 -33.5t-33.5 -82.5z" />
    <glyph glyph-name="Uhungarumlaut" unicode="&#x170;" horiz-adv-x="1556" 
d="M639 1536l207 297q40 57 -1 102q-32 36 -80 33q-54 -3 -70 -58q-1 -1 -1 -3l-90 -357zM967 1536l207 297q40 57 -1 102q-32 36 -80 33q-54 -3 -70 -58q-1 -1 -1 -3l-90 -357zM1225 573v650q0 46 -6 71t-26.5 45t-56 29.5t-98.5 17.5v48h461v-48q-117 -15 -150.5 -46
t-33.5 -117v-670q0 -273 -146.5 -423t-400.5 -150q-272 0 -407.5 150t-135.5 423v670q0 86 -32 117t-138 46v48h543v-48q-106 -15 -137 -46t-31 -117v-650q0 -501 383 -501q204 0 308 130t104 371z" />
    <glyph glyph-name="uhungarumlaut" unicode="&#x171;" 
d="M819 260v563q0 80 -30.5 109.5t-139.5 44.5v47h375v-743q0 -96 42 -126t146 -18v-55l-372 -102h-21v215h-4q-90 -105 -178 -160t-193 -55q-113 0 -186.5 74.5t-73.5 232.5v536q0 79 -27.5 109t-121.5 45v47h354v-733q0 -75 37 -121.5t109 -46.5q70 0 129 28.5t155 108.5z
M353 1141l34 -15l207 297q39 56 0 101q-31 37 -80 34q-54 -3 -70 -58q-1 -1 -1 -3zM680 1141l35 -15l207 297q40 57 -1 102q-32 36 -80 33q-54 -3 -70 -58q-1 -1 -1 -3z" />
    <glyph glyph-name="Uogonek" unicode="&#x172;" horiz-adv-x="1556" 
d="M926 -342v-41q-28 -35 -75.5 -58.5t-92.5 -23.5q-57 0 -99.5 27t-59.5 74t-12 103t46 120.5t112 120.5q-261 6 -390.5 155t-129.5 418v670q0 86 -32 117t-138 46v48h543v-48q-106 -15 -137 -46t-31 -117v-650q0 -501 383 -501q204 0 308 130t104 371v650q0 46 -6 71
t-26.5 45t-56 29.5t-98.5 17.5v48h461v-48q-117 -15 -150.5 -46t-33.5 -117v-670q0 -260 -134 -408.5t-368 -162.5q-75 -80 -93.5 -176.5t36.5 -145.5t170 -2z" />
    <glyph glyph-name="uogonek" unicode="&#x173;" 
d="M979 -358v-41q-28 -35 -76 -58.5t-94 -23.5q-57 0 -100 28.5t-59.5 77.5t-9 107t53.5 124.5t125 123.5v215h-4q-90 -105 -178 -160t-193 -55q-113 0 -186.5 74.5t-73.5 232.5v536q0 79 -27.5 109t-121.5 45v47h354v-733q0 -75 37 -121.5t109 -46.5q70 0 129 28.5
t155 108.5v563q0 80 -30.5 109.5t-139.5 44.5v47h375v-743q0 -96 42 -126t146 -18v-55l-325 -96q-89 -83 -111 -192q-20 -99 30 -146q56 -54 173 -6z" />
    <glyph glyph-name="Wcircumflex" unicode="&#x174;" horiz-adv-x="2068" 
d="M1051 1720l-232 -184h-55l256 369h61l256 -369h-57zM936 1264l82 -271l-277 -745h-4l-309 954q-16 52 -13 89.5t39 61t109 33.5v48h-549v-48q87 -23 118 -46t48 -76l426 -1274h119l332 874l274 -874h137l379 1274q18 62 57.5 84t147.5 38v48h-461v-48q80 -10 116.5 -37
t37.5 -71t-16 -107l-265 -923h-4l-274 954q-15 53 -13.5 90.5t35.5 60.5t107 33v48h-547v-48q88 -23 119.5 -45.5t48.5 -76.5z" />
    <glyph glyph-name="wcircumflex" unicode="&#x175;" horiz-adv-x="1761" 
d="M817 854l29 -80l-230 -551h-4l-198 570q-16 44 -20 70.5t4 52t38.5 40t85.5 21.5v47h-508v-47q69 -23 96.5 -46.5t47.5 -76.5l327 -864h62l69 41l275 645l231 -686h64l67 41l326 823q24 60 57 84t109 39v47h-420v-47q106 -15 138.5 -59.5t2.5 -124.5l-215 -570h-4
l-180 570q-11 36 -15.5 58.5t-2.5 46t15.5 37.5t41.5 25t72 17v47h-508v-47q70 -24 99.5 -47.5t47.5 -75.5zM921 1311l-231 -185h-55l256 369h61l256 -369h-57z" />
    <glyph glyph-name="Ycircumflex" unicode="&#x176;" horiz-adv-x="1310" 
d="M709 1720l-232 -184h-55l256 369h61l256 -369h-57zM158 1264l426 -783v-272q0 -86 -32 -117.5t-138 -46.5v-45h542v45q-106 15 -137 46.5t-31 117.5v362l328 693q28 59 66 82.5t118 39.5v48h-419v-48q70 -10 104.5 -37t33 -66.5t-23.5 -90.5l-266 -553h-4l-291 563
q-18 34 -26.5 55.5t-11 45.5t8 38.5t37 26.5t70.5 18v48h-502v-48q60 -24 91.5 -49t56.5 -73z" />
    <glyph glyph-name="ycircumflex" unicode="&#x177;" horiz-adv-x="1167" 
d="M549 -25l-391 879q-24 53 -50.5 77t-93.5 46v47h508v-47q-55 -7 -86 -22t-40 -39.5t-4.5 -52.5t22.5 -70l239 -570h4l215 570q30 80 -2.5 124.5t-138.5 59.5v47h420v-47q-76 -15 -109 -39t-57 -84l-346 -874q-56 -141 -128.5 -247.5t-144.5 -164.5t-134.5 -87t-118.5 -34
q-85 -7 -113 54q-20 45 3 89q24 44 69 32q2 0 4 -1q323 -94 473 354zM633 1311l-231 -185h-55l256 369h61l256 -369h-57z" />
    <glyph glyph-name="Ydieresis" unicode="&#x178;" horiz-adv-x="1310" 
d="M393 1669q0 50 32.5 82.5t80.5 32.5q50 0 82.5 -32t32.5 -83q0 -50 -32.5 -81.5t-82.5 -31.5q-48 0 -80.5 31.5t-32.5 81.5zM791 1669q0 51 32 83t82 32q48 0 81.5 -32.5t33.5 -82.5t-33.5 -81.5t-81.5 -31.5q-50 0 -82 31t-32 82zM158 1264l426 -783v-272
q0 -86 -32 -117.5t-138 -46.5v-45h542v45q-106 15 -137 46.5t-31 117.5v362l328 693q28 59 66 82.5t118 39.5v48h-419v-48q70 -10 104.5 -37t33 -66.5t-23.5 -90.5l-266 -553h-4l-291 563q-18 34 -26.5 55.5t-11 45.5t8 38.5t37 26.5t70.5 18v48h-502v-48q60 -24 91.5 -49
t56.5 -73z" />
    <glyph glyph-name="Zacute" unicode="&#x179;" 
d="M592 1559l26 -23l289 213q57 42 37 97q-15 40 -58 55q-55 19 -92 -29l-6 -8zM344 76l786 1296v62h-999l-10 -334h57q15 124 81 190t175 66h440l-798 -1301v-55h1054l21 332h-55q-15 -123 -86 -189.5t-181 -66.5h-485z" />
    <glyph glyph-name="zacute" unicode="&#x17a;" horiz-adv-x="983" 
d="M289 72h401q84 0 126.5 56.5t57.5 182.5h52l-21 -311h-850v86l604 866h-337q-82 0 -120.5 -56t-54.5 -185h-51l10 313h789v-88zM435 1149l26 -23l289 213q57 42 37 97q-15 40 -58 55q-55 19 -92 -29l-6 -8z" />
    <glyph glyph-name="Zdotaccent" unicode="&#x17b;" 
d="M528 1694q0 51 35.5 87t87.5 36q51 0 87 -36t36 -87q0 -52 -36 -87.5t-87 -35.5q-53 0 -88 35.5t-35 87.5zM344 76l786 1296v62h-999l-10 -334h57q15 124 81 190t175 66h440l-798 -1301v-55h1054l21 332h-55q-15 -123 -86 -189.5t-181 -66.5h-485z" />
    <glyph glyph-name="zdotaccent" unicode="&#x17c;" horiz-adv-x="983" 
d="M289 72h401q84 0 126.5 56.5t57.5 182.5h52l-21 -311h-850v86l604 866h-337q-82 0 -120.5 -56t-54.5 -185h-51l10 313h789v-88zM385 1284q0 51 35.5 87t87.5 36q51 0 86.5 -36t35.5 -87q0 -52 -35.5 -87.5t-86.5 -35.5q-52 0 -87.5 35.5t-35.5 87.5z" />
    <glyph glyph-name="Zcaron" unicode="&#x17d;" 
d="M639 1720l-231 185h-56l256 -369h62l256 369h-58zM344 76l786 1296v62h-999l-10 -334h57q15 124 81 190t175 66h440l-798 -1301v-55h1054l21 332h-55q-15 -123 -86 -189.5t-181 -66.5h-485z" />
    <glyph glyph-name="zcaron" unicode="&#x17e;" horiz-adv-x="983" 
d="M289 72h401q84 0 126.5 56.5t57.5 182.5h52l-21 -311h-850v86l604 866h-337q-82 0 -120.5 -56t-54.5 -185h-51l10 313h789v-88zM524 1311l-231 184h-55l256 -369h61l256 369h-57z" />
    <glyph glyph-name="longs" unicode="&#x17f;" horiz-adv-x="634" 
d="M410 1024v-815q0 -86 31 -117.5t137 -46.5v-45h-523v45q96 17 123 47.5t27 116.5v733h-133v72l133 10q10 92 47.5 180.5t88.5 154t109 116t111.5 76.5t93.5 26q85 0 106 -60q17 -46 -13 -87q-32 -43 -80 -27q-66 22 -111.5 26t-74.5 -8.5t-44.5 -41.5t-22 -73t-7 -102.5
t0.5 -131.5q1 -32 1 -48z" />
    <glyph glyph-name="florin" unicode="&#x192;" horiz-adv-x="634" 
d="M293 942h-121v72l133 10q16 92 65.5 181t113.5 154t134.5 116t132 76.5t101.5 25.5q82 0 95 -56q10 -45 -25 -88q-37 -45 -83 -32q-3 1 -5 2q-61 22 -105.5 27t-75.5 -9.5t-51 -39t-35 -73t-25 -99.5t-23 -129q-6 -37 -9 -56h250v-82h-264l-168 -942q-16 -89 -65 -177
t-112.5 -153.5t-133.5 -117t-132 -78.5t-102 -27q-82 0 -95 56q-10 45 25 88q37 45 83 32q3 -1 5 -2q51 -18 90 -22.5t67 -3t50.5 26.5t35.5 43.5t26.5 71t20 86.5t20.5 110q8 44 12 67z" />
    <glyph glyph-name="AEacute" unicode="&#x1fc;" horiz-adv-x="1802" 
d="M1008 1559l26 -23l289 213q57 42 37 97q-15 40 -58 55q-55 19 -92 -29l-6 -8zM944 1434l-696 -1266q-34 -61 -79.5 -84.5t-154.5 -38.5v-45h461v45q-47 6 -76.5 18.5t-42.5 29.5t-11.5 43.5t12.5 55t32 68.5l225 422h287v-473q0 -86 -32 -117.5t-138 -46.5v-45h973
l20 332h-55q-15 -123 -86 -189.5t-180 -66.5h-297v606h102q102 0 155.5 -45t66.5 -162h55v492h-55q-13 -117 -66.5 -162t-155.5 -45h-102v596h276q108 0 174.5 -66t81.5 -190h56l-11 334h-739zM897 1202h4v-442h-246z" />
    <glyph glyph-name="aeacute" unicode="&#x1fd;" horiz-adv-x="1517" 
d="M797 1149l26 -23l289 213q57 42 37 97q-15 40 -58 55q-55 19 -92 -29l-6 -8zM1085 -20q-251 0 -374 188q-129 -108 -225 -148t-189 -40q-92 0 -158.5 71t-66.5 174q0 181 266 228l283 49l4 205q3 120 -49 182.5t-146 62.5q-65 0 -107 -24.5t-54.5 -58.5t-7.5 -67.5
t26 -53.5q44 -41 -7 -85q-43 -37 -104 -42q-50 -4 -63 24q-10 28 -10 62.5t18 73t44 76t67.5 71.5t88.5 59.5t107.5 41t124.5 15.5q172 0 240 -129q132 129 311 129q60 0 112.5 -13.5t102 -45.5t79 -83.5t42.5 -127t-6 -176.5h-607q-6 -216 81.5 -338.5t238.5 -122.5
q163 0 299 84v-82q-72 -64 -117 -91q-113 -68 -244 -68zM1094 973q-109 0 -178.5 -78.5t-84.5 -214.5h398q35 147 -5 220t-130 73zM391 115q143 0 289 108q-47 95 -53 217l-238 -53q-65 -15 -94.5 -56t-20.5 -102q7 -56 40 -85t77 -29z" />
    <glyph glyph-name="Oslashacute" unicode="&#x1fe;" horiz-adv-x="1597" 
d="M766 1559l27 -23l288 213q58 43 37 97q-15 40 -58 55q-55 18 -92 -30q-3 -3 -5 -7zM92 717q0 158 56.5 296t152.5 234t225.5 151.5t272.5 55.5q134 0 256.5 -49t218.5 -139l119 125l55 -62l-117 -123q174 -208 174 -489q0 -158 -56.5 -296t-152 -234t-225 -151.5
t-272.5 -55.5q-269 0 -469 178l-123 -129l-60 63l123 127q-178 204 -178 498zM317 717q0 -203 76 -371l774 807q-65 106 -159.5 163.5t-208.5 57.5q-139 0 -249 -82.5t-171.5 -232.5t-61.5 -342zM1280 717q0 194 -74 358l-772 -809q66 -100 159.5 -154.5t205.5 -54.5
q138 0 247.5 83.5t171.5 234t62 342.5z" />
    <glyph glyph-name="oslashacute" unicode="&#x1ff;" horiz-adv-x="1150" 
d="M520 1149l27 -23l289 213q57 42 37 97q-15 40 -58 55q-55 19 -92 -29l-6 -8zM1010 1044l57 -57l-111 -119q124 -149 121 -356q-3 -146 -69.5 -268t-183 -193t-259.5 -71q-189 0 -321 116l-107 -116l-61 55l112 121q-120 148 -114 356q2 146 67.5 267.5t182.5 193
t260 71.5q184 0 315 -118zM852 512q0 113 -27 213l-475 -514q69 -160 225 -160q132 0 204.5 117t72.5 344zM299 512q0 -132 25 -211l475 514q-71 158 -224 158q-133 0 -204.5 -116.5t-71.5 -344.5z" />
    <glyph glyph-name="Scommaaccent" unicode="&#x218;" horiz-adv-x="1095" 
d="M524 -94q50 0 85.5 -20.5t53 -54.5t24.5 -67t7 -69q0 -134 -82.5 -238t-181.5 -139l-27 47q104 48 152 140q39 72 17 116q-15 26 -48 27q-53 0 -90 37.5t-37 93.5q0 51 38 89t89 38zM590 850q414 -166 414 -451q0 -193 -131.5 -306t-340.5 -113q-109 0 -221 27.5
t-198 74.5l-21 362h55q37 -383 375 -383q127 0 199 74t72 199q0 50 -18.5 93.5t-46 74.5t-72 61t-83 49.5t-92.5 42.5q-85 36 -147 73t-116.5 87.5t-83 116.5t-28.5 145q0 166 122 271.5t329 105.5q209 0 379 -92l20 -344h-55q-59 354 -332 354q-114 0 -180.5 -56.5
t-66.5 -168.5q0 -107 71.5 -177t196.5 -120z" />
    <glyph glyph-name="scommaaccent" unicode="&#x219;" horiz-adv-x="880" 
d="M752 717h-56q-23 120 -95 188t-167 68q-71 0 -122.5 -40.5t-51.5 -111.5q0 -35 13.5 -64t30 -46.5t50.5 -36t54.5 -26.5t62.5 -23q77 -30 129 -57t101 -66.5t73.5 -92t24.5 -118.5q0 -95 -52.5 -166.5t-137.5 -108t-189 -36.5q-77 0 -164.5 20t-149.5 51l-20 277h57
q9 -68 31.5 -119.5t50 -80.5t63 -47t65 -24t61.5 -6q83 0 133.5 49t50.5 129q0 41 -16 73t-51.5 58t-70 43t-91.5 41q-71 29 -118 55.5t-88 63.5t-61 86.5t-20 112.5q0 125 96 203.5t262 78.5q159 0 291 -63zM401 -94q50 0 85.5 -20.5t53 -54.5t24.5 -67t7 -69
q0 -134 -82.5 -238t-181.5 -139l-26 47q104 48 152 140q38 72 16 116q-15 26 -48 27q-53 0 -90 37.5t-37 93.5q0 51 38 89t89 38z" />
    <glyph glyph-name="uni021A" unicode="&#x21a;" 
d="M592 -88q50 0 85.5 -20.5t53 -54.5t24.5 -67t7 -69q0 -134 -82.5 -238t-181.5 -139l-27 47q104 48 152 140q39 72 17 116q-15 26 -48 27q-53 0 -90 37.5t-37 93.5q0 51 38 89t89 38zM1161 1434h-1095l-11 -334h58q15 124 81.5 190t174.5 66h143v-1147q0 -86 -32 -117.5
t-138 -46.5v-45h543v45q-106 15 -137 46.5t-31 117.5v1147h143q108 0 174.5 -66t81.5 -190h55z" />
    <glyph glyph-name="uni021B" unicode="&#x21b;" horiz-adv-x="778" 
d="M389 942v-709q0 -41 12 -67t36 -37.5t47.5 -15.5t58.5 -4q50 0 194 28v-35q-74 -60 -161 -91t-166 -31q-226 0 -226 245v717h-129v72l129 30l154 287h51v-307h291v-82h-291zM348 -98q50 0 85.5 -20.5t53 -54.5t24.5 -67t7 -69q0 -134 -82.5 -238t-181.5 -139l-27 47
q104 48 152 140q39 72 17 116q-15 26 -48 27q-53 0 -90 37.5t-37 93.5q0 51 38 89t89 38z" />
    <glyph glyph-name="circumflex" unicode="&#x2c6;" horiz-adv-x="962" 
d="M481 1311l-231 -185h-55l256 369h61l256 -369h-57z" />
    <glyph glyph-name="caron" unicode="&#x2c7;" horiz-adv-x="962" 
d="M481 1311l-231 184h-55l256 -369h61l256 369h-57z" />
    <glyph glyph-name="uni02C9" unicode="&#x2c9;" horiz-adv-x="1044" 
d="M199 1305h645v-82h-645v82z" />
    <glyph glyph-name="breve" unicode="&#x2d8;" horiz-adv-x="921" 
d="M461 1167q66 0 117.5 27t82 72t45.5 99t15 112h-51q-17 -75 -76 -117.5t-133 -42.5t-133 42.5t-76 117.5h-53q0 -58 15.5 -112t46 -99t82.5 -72t118 -27z" />
    <glyph glyph-name="dotaccent" unicode="&#x2d9;" horiz-adv-x="643" 
d="M199 1284q0 51 35.5 87t87.5 36q51 0 86.5 -36t35.5 -87q0 -52 -35.5 -87.5t-86.5 -35.5q-52 0 -87.5 35.5t-35.5 87.5z" />
    <glyph glyph-name="ring" unicode="&#x2da;" horiz-adv-x="768" 
d="M199 1305q0 77 53 130.5t131 53.5q77 0 130.5 -53.5t53.5 -130.5q0 -78 -53.5 -131.5t-130.5 -53.5q-78 0 -131 53.5t-53 131.5zM266 1305q0 -49 34 -83t83 -34t83 34t34 83t-33.5 82.5t-83.5 33.5t-83.5 -33.5t-33.5 -82.5z" />
    <glyph glyph-name="ogonek" unicode="&#x2db;" horiz-adv-x="737" 
d="M537 -342v-41q-28 -35 -75.5 -58.5t-92.5 -23.5q-59 0 -102.5 29t-59.5 78t-8 108t55.5 126t128.5 124h61q-89 -82 -111 -191q-19 -99 31 -146q56 -53 173 -5z" />
    <glyph glyph-name="tilde" unicode="&#x2dc;" horiz-adv-x="1126" 
d="M236 1161l-41 27q115 235 215 235q41 0 164 -41t163 -41q56 0 88.5 15t65.5 61l41 -24q-21 -43 -38 -72t-44 -66t-58.5 -57t-64.5 -20q-48 0 -169 41t-169 41q-52 0 -82.5 -21.5t-70.5 -77.5z" />
    <glyph glyph-name="hungarumlaut" unicode="&#x2dd;" horiz-adv-x="983" 
d="M199 1141l34 -15l207 297q39 56 0 101q-31 37 -80 34q-54 -3 -70 -58q-1 -1 -1 -3zM526 1141l35 -15l207 297q40 57 -1 102q-32 36 -80 33q-54 -3 -70 -58q-1 -1 -1 -3z" />
    <glyph glyph-name="uni037E" unicode="&#x37e;" horiz-adv-x="731" 
d="M164 475q0 85 58 144t143 59t143.5 -59t58.5 -144t-58.5 -143t-143.5 -58t-143 58t-58 143z" />
    <glyph glyph-name="tonos" unicode="&#x384;" horiz-adv-x="655" 
d="M199 1049l34 -15l207 297q39 56 0 101q-31 37 -80 34q-54 -3 -70 -58q-1 -1 -1 -3z" />
    <glyph glyph-name="dieresistonos" unicode="&#x385;" horiz-adv-x="1187" 
d="M199 1260q0 50 32 82t80 32q50 0 82.5 -31.5t32.5 -82.5q0 -50 -32.5 -81.5t-82.5 -31.5q-48 0 -80 31.5t-32 81.5zM760 1260q0 51 32 82.5t82 31.5q48 0 81.5 -32t33.5 -82t-33.5 -81.5t-81.5 -31.5q-50 0 -82 31t-32 82zM571 1229l207 297q39 56 0 101q-31 36 -80 33
q-54 -3 -70 -58l-1 -3l-90 -356z" />
    <glyph glyph-name="anoteleia" unicode="&#x387;" horiz-adv-x="856" 
d="M129 768q0 49 31.5 80t77.5 31t77 -31t31 -80q0 -47 -31 -76.5t-77 -29.5t-77.5 29.5t-31.5 76.5zM510 768q0 49 31 80t77 31t77.5 -31t31.5 -80q0 -47 -31.5 -76.5t-77.5 -29.5t-77 29.5t-31 76.5z" />
    <glyph glyph-name="Delta" unicode="&#x394;" horiz-adv-x="1445" 
d="M1323 0l-573 1454l-627 -1454h1200zM1116 61h-889l471 1117z" />
    <glyph glyph-name="Delta" unicode="&#x2206;" horiz-adv-x="1445" 
d="M1323 0l-573 1454l-627 -1454h1200zM1116 61h-889l471 1117z" />
    <glyph glyph-name="Omega" unicode="&#x3a9;" horiz-adv-x="1638" 
d="M819 1374q209 0 325 -140.5t116 -393.5q0 -421 -328 -510v-330h573l21 332h-58q-6 -49 -21 -83.5t-36 -55t-55 -32t-68.5 -15t-85.5 -3.5h-198v115q219 48 350 201.5t131 380.5q0 181 -86 321.5t-237.5 216.5t-342.5 76q-291 0 -478 -170t-187 -444q0 -227 130.5 -380.5
t350.5 -201.5v-115h-201q-51 0 -85.5 3.5t-68.5 15t-55 32t-36 55t-21 83.5h-55l20 -332h574v330q-328 88 -328 510q0 254 115 394t325 140z" />
    <glyph glyph-name="Omega" unicode="&#x2126;" horiz-adv-x="1638" 
d="M819 1374q209 0 325 -140.5t116 -393.5q0 -421 -328 -510v-330h573l21 332h-58q-6 -49 -21 -83.5t-36 -55t-55 -32t-68.5 -15t-85.5 -3.5h-198v115q219 48 350 201.5t131 380.5q0 181 -86 321.5t-237.5 216.5t-342.5 76q-291 0 -478 -170t-187 -444q0 -227 130.5 -380.5
t350.5 -201.5v-115h-201q-51 0 -85.5 3.5t-68.5 15t-55 32t-36 55t-21 83.5h-55l20 -332h574v330q-328 88 -328 510q0 254 115 394t325 140z" />
    <glyph glyph-name="uni03BC" unicode="&#x3bc;" 
d="M819 260v563q0 80 -30.5 109.5t-139.5 44.5v47h375v-770q0 -58 22 -86t63.5 -31.5t102.5 0.5v-55l-372 -102h-21v215h-4q-46 -52 -78 -83.5t-75.5 -65.5t-88.5 -50t-94 -16q-40 0 -98 14q-13 -112 -52.5 -216t-91 -175t-109.5 -113.5t-108 -42.5q-86 0 -110 61
q-18 46 9 87q29 43 77 26q46 -15 80.5 -19t56.5 4.5t36.5 24t20.5 44.5t8 59t0 74.5t-5 85t-6 96t-3 102.5v731q0 79 -27.5 109t-121.5 45v47h354v-707q0 -85 34 -139.5t112 -54.5q70 0 129 28.5t155 108.5z" />
    <glyph glyph-name="pi" unicode="&#x3c0;" horiz-adv-x="1310" 
d="M711 0h542v45q-106 15 -137 46.5t-31 117.5v604q0 86 31 117.5t137 46.5v47h-1198v-47q106 -15 138 -46.5t32 -117.5v-604q0 -86 -32 -117.5t-138 -46.5v-45h543v45q-106 15 -137 46.5t-31 117.5v743h451v-743q0 -86 -32 -117.5t-138 -46.5v-45z" />
    <glyph glyph-name="uni03C2" unicode="&#x3c2;" horiz-adv-x="1404" 
d="M299 512q0 -228 71.5 -344.5t204.5 -116.5q132 0 204.5 117t72.5 344t-72.5 344t-204.5 117q-133 0 -204.5 -116.5t-71.5 -344.5zM911 973h-71q111 -70 174.5 -192t62.5 -269q-3 -146 -69.5 -268t-183 -193t-259.5 -71t-257.5 71.5t-175.5 193t-58 267.5
q2 146 67.5 267.5t182.5 193t260 71.5h327q230 0 277 203q13 54 67 57q50 2 88 -38q49 -51 14 -118l-11 -18q-53 -72 -173.5 -114.5t-261.5 -42.5z" />
    <glyph glyph-name="sigma" unicode="&#x3c3;" horiz-adv-x="1404" 
d="M299 512q0 -228 71.5 -344.5t204.5 -116.5q132 0 204.5 117t72.5 344t-72.5 344t-204.5 117q-133 0 -204.5 -116.5t-71.5 -344.5zM911 973h-71q111 -70 174.5 -192t62.5 -269q-3 -146 -69.5 -268t-183 -193t-259.5 -71t-257.5 71.5t-175.5 193t-58 267.5
q2 146 67.5 267.5t182.5 193t260 71.5h327q230 0 277 203q13 54 67 57q50 2 88 -38q49 -51 14 -118l-11 -18q-53 -72 -173.5 -114.5t-261.5 -42.5z" />
    <glyph glyph-name="Wgrave" unicode="&#x1e80;" horiz-adv-x="2068" 
d="M1059 1536l-291 213q-57 42 -37 97q15 40 58 55q55 19 92 -29l6 -8l196 -305zM936 1264l82 -271l-277 -745h-4l-309 954q-16 52 -13 89.5t39 61t109 33.5v48h-549v-48q87 -23 118 -46t48 -76l426 -1274h119l332 874l274 -874h137l379 1274q18 62 57.5 84t147.5 38v48
h-461v-48q80 -10 116.5 -37t37.5 -71t-16 -107l-265 -923h-4l-274 954q-15 53 -13.5 90.5t35.5 60.5t107 33v48h-547v-48q88 -23 119.5 -45.5t48.5 -76.5z" />
    <glyph glyph-name="wgrave" unicode="&#x1e81;" horiz-adv-x="1761" 
d="M817 854l29 -80l-230 -551h-4l-198 570q-16 44 -20 70.5t4 52t38.5 40t85.5 21.5v47h-508v-47q69 -23 96.5 -46.5t47.5 -76.5l327 -864h62l69 41l275 645l231 -686h64l67 41l326 823q24 60 57 84t109 39v47h-420v-47q106 -15 138.5 -59.5t2.5 -124.5l-215 -570h-4
l-180 570q-11 36 -15.5 58.5t-2.5 46t15.5 37.5t41.5 25t72 17v47h-508v-47q70 -24 99.5 -47.5t47.5 -75.5zM958 1149l-25 -23l-290 213q-58 43 -37 97q15 40 58 55q55 18 92 -30q3 -3 5 -7z" />
    <glyph glyph-name="Wacute" unicode="&#x1e82;" horiz-adv-x="2068" 
d="M1044 1559l27 -23l289 213q57 42 37 97q-15 40 -58 55q-55 19 -92 -29l-6 -8zM936 1264l82 -271l-277 -745h-4l-309 954q-16 52 -13 89.5t39 61t109 33.5v48h-549v-48q87 -23 118 -46t48 -76l426 -1274h119l332 874l274 -874h137l379 1274q18 62 57.5 84t147.5 38v48
h-461v-48q80 -10 116.5 -37t37.5 -71t-16 -107l-265 -923h-4l-274 954q-15 53 -13.5 90.5t35.5 60.5t107 33v48h-547v-48q88 -23 119.5 -45.5t48.5 -76.5z" />
    <glyph glyph-name="wacute" unicode="&#x1e83;" horiz-adv-x="1761" 
d="M817 854l29 -80l-230 -551h-4l-198 570q-16 44 -20 70.5t4 52t38.5 40t85.5 21.5v47h-508v-47q69 -23 96.5 -46.5t47.5 -76.5l327 -864h62l69 41l275 645l231 -686h64l67 41l326 823q24 60 57 84t109 39v47h-420v-47q106 -15 138.5 -59.5t2.5 -124.5l-215 -570h-4
l-180 570q-11 36 -15.5 58.5t-2.5 46t15.5 37.5t41.5 25t72 17v47h-508v-47q70 -24 99.5 -47.5t47.5 -75.5zM904 1149l26 -23l289 213q57 42 37 97q-15 40 -58 55q-55 19 -92 -29l-6 -8z" />
    <glyph glyph-name="Wdieresis" unicode="&#x1e84;" horiz-adv-x="2068" 
d="M741 1669q0 50 32.5 82.5t80.5 32.5q50 0 82.5 -32t32.5 -83q0 -50 -32.5 -81.5t-82.5 -31.5q-48 0 -80.5 31.5t-32.5 81.5zM1139 1669q0 51 32 83t82 32q48 0 81.5 -32.5t33.5 -82.5t-33.5 -81.5t-81.5 -31.5q-50 0 -82 31t-32 82zM936 1264l82 -271l-277 -745h-4
l-309 954q-16 52 -13 89.5t39 61t109 33.5v48h-549v-48q87 -23 118 -46t48 -76l426 -1274h119l332 874l274 -874h137l379 1274q18 62 57.5 84t147.5 38v48h-461v-48q80 -10 116.5 -37t37.5 -71t-16 -107l-265 -923h-4l-274 954q-15 53 -13.5 90.5t35.5 60.5t107 33v48h-547
v-48q88 -23 119.5 -45.5t48.5 -76.5z" />
    <glyph glyph-name="wdieresis" unicode="&#x1e85;" horiz-adv-x="1761" 
d="M817 854l29 -80l-230 -551h-4l-198 570q-16 44 -20 70.5t4 52t38.5 40t85.5 21.5v47h-508v-47q69 -23 96.5 -46.5t47.5 -76.5l327 -864h62l69 41l275 645l231 -686h64l67 41l326 823q24 60 57 84t109 39v47h-420v-47q106 -15 138.5 -59.5t2.5 -124.5l-215 -570h-4
l-180 570q-11 36 -15.5 58.5t-2.5 46t15.5 37.5t41.5 25t72 17v47h-508v-47q70 -24 99.5 -47.5t47.5 -75.5zM611 1260q0 50 32 82t80 32q50 0 82.5 -31.5t32.5 -82.5q0 -50 -32.5 -81.5t-82.5 -31.5q-48 0 -80 31.5t-32 81.5zM1008 1260q0 51 32.5 82.5t82.5 31.5
q48 0 81 -32t33 -82t-33 -81.5t-81 -31.5q-50 0 -82.5 31.5t-32.5 81.5z" />
    <glyph glyph-name="Ygrave" unicode="&#x1ef2;" horiz-adv-x="1310" 
d="M707 1536l-291 213q-57 42 -37 97q15 40 58 55q55 19 92 -29l6 -8l196 -305zM158 1264l426 -783v-272q0 -86 -32 -117.5t-138 -46.5v-45h542v45q-106 15 -137 46.5t-31 117.5v362l328 693q28 59 66 82.5t118 39.5v48h-419v-48q70 -10 104.5 -37t33 -66.5t-23.5 -90.5
l-266 -553h-4l-291 563q-18 34 -26.5 55.5t-11 45.5t8 38.5t37 26.5t70.5 18v48h-502v-48q60 -24 91.5 -49t56.5 -73z" />
    <glyph glyph-name="ygrave" unicode="&#x1ef3;" horiz-adv-x="1167" 
d="M549 -25l-391 879q-24 53 -50.5 77t-93.5 46v47h508v-47q-55 -7 -86 -22t-40 -39.5t-4.5 -52.5t22.5 -70l239 -570h4l215 570q30 80 -2.5 124.5t-138.5 59.5v47h420v-47q-76 -15 -109 -39t-57 -84l-346 -874q-56 -141 -128.5 -247.5t-144.5 -164.5t-134.5 -87t-118.5 -34
q-85 -7 -113 54q-20 45 3 89q24 44 69 32q2 0 4 -1q323 -94 473 354zM651 1149l-25 -23l-290 213q-58 43 -37 97q15 40 58 55q55 18 92 -30q3 -3 5 -7z" />
    <glyph glyph-name="figuredash" unicode="&#x2012;" horiz-adv-x="1249" 
d="M199 588h850v-82h-850v82z" />
    <glyph glyph-name="endash" unicode="&#x2013;" horiz-adv-x="1249" 
d="M199 588h850v-82h-850v82z" />
    <glyph glyph-name="emdash" unicode="&#x2014;" horiz-adv-x="1843" 
d="M199 588h1443v-82h-1443v82z" />
    <glyph glyph-name="quoteleft" unicode="&#x2018;" horiz-adv-x="696" 
d="M369 1018q-50 0 -85.5 20.5t-53 54.5t-24.5 67t-7 69q0 134 82.5 238t181.5 139l26 -47q-104 -48 -152 -140q-38 -72 -16 -116q15 -26 48 -27q53 0 90 -37.5t37 -93.5q0 -51 -38 -89t-89 -38z" />
    <glyph glyph-name="quoteright" unicode="&#x2019;" horiz-adv-x="696" 
d="M326 1581q50 0 85.5 -20t53 -53.5t24.5 -66.5t7 -69q0 -135 -82.5 -238.5t-182.5 -140.5l-26 47q104 48 152 141q39 73 17 117q-14 27 -48 27q-53 0 -90 36.5t-37 92.5q0 52 38 89.5t89 37.5z" />
    <glyph glyph-name="quotesinglbase" unicode="&#x201a;" horiz-adv-x="696" 
d="M326 252q50 0 85.5 -20t53 -53.5t24.5 -66.5t7 -69q0 -91 -43 -173t-101.5 -132t-120.5 -72l-26 47q104 48 152 140q39 72 17 116q-14 27 -48 27q-53 0 -90 36.5t-37 92.5q0 52 38 89.5t89 37.5z" />
    <glyph glyph-name="quotedblleft" unicode="&#x201c;" horiz-adv-x="1146" 
d="M817 1018q-49 0 -84.5 20.5t-52.5 54.5t-24 67t-7 69q0 134 82.5 238t181.5 139l25 -47q-103 -48 -151 -140q-38 -72 -16 -116q15 -26 48 -27q53 0 90 -37.5t37 -93.5q0 -51 -38.5 -89t-90.5 -38zM367 1018q-49 0 -84.5 20.5t-52.5 54.5t-24 67t-7 69q0 134 82.5 238
t181.5 139l24 -47q-103 -48 -150 -140q-38 -72 -16 -116q15 -26 48 -27q53 0 90 -37.5t37 -93.5q0 -51 -38.5 -89t-90.5 -38z" />
    <glyph glyph-name="quotedblright" unicode="&#x201d;" horiz-adv-x="1146" 
d="M326 1581q50 0 85.5 -20t53 -53.5t24.5 -66.5t7 -69q0 -135 -82.5 -238.5t-182.5 -140.5l-26 47q104 48 152 141q39 73 17 117q-14 27 -48 27q-53 0 -90 36.5t-37 92.5q0 52 38 89.5t89 37.5zM776 1581q50 0 85.5 -20t53 -53.5t24.5 -66.5t7 -69q0 -135 -82 -238.5
t-182 -140.5l-27 47q104 48 152 141q39 73 17 117q-14 27 -48 27q-53 0 -90 36.5t-37 92.5q0 52 38 89.5t89 37.5z" />
    <glyph glyph-name="quotedblbase" unicode="&#x201e;" horiz-adv-x="1146" 
d="M326 252q50 0 85.5 -20t53 -53.5t24.5 -66.5t7 -69q0 -91 -43 -173t-101.5 -132t-120.5 -72l-26 47q104 48 152 140q39 72 17 116q-14 27 -48 27q-53 0 -90 36.5t-37 92.5q0 52 38 89.5t89 37.5zM776 252q50 0 85.5 -20t53 -53.5t24.5 -66.5t7 -69q0 -134 -82.5 -238
t-181.5 -139l-27 47q104 48 152 140q39 72 17 116q-14 27 -48 27q-53 0 -90 36.5t-37 92.5q0 52 38 89.5t89 37.5z" />
    <glyph glyph-name="dagger" unicode="&#x2020;" horiz-adv-x="1320" 
d="M631 -532v768q0 116 -12.5 200.5t-25.5 128.5t-13 60q0 11 6 36t19 101t26 190q-122 -13 -202 -26t-105.5 -19t-36.5 -6q-34 0 -58 24t-24 58t24 58t58 24q11 0 37 -6t105.5 -19t201.5 -26q-13 128 -26 211t-19 109t-6 38q0 34 24 58t58 24t57.5 -24t23.5 -58
q0 -11 -6 -37.5t-19 -109.5t-26 -211q121 13 200 26t105 19t37 6q34 0 58 -24t24 -58t-24 -58t-58 -24q-12 0 -37.5 6t-104.5 19t-200 26q13 -115 26 -190.5t19 -100.5t6 -36q0 -16 -12.5 -60t-25.5 -128.5t-13 -200.5v-768h-61z" />
    <glyph glyph-name="daggerdbl" unicode="&#x2021;" horiz-adv-x="1320" 
d="M743 471q0 -46 -23.5 -210.5t-27.5 -311.5q121 13 200 26t104.5 19t37.5 6q34 0 58 -24t24 -58t-24 -58t-58 -24q-11 0 -37 6t-105 19t-200 26q13 -128 26 -211t19 -109.5t6 -37.5q0 -34 -23.5 -58t-57.5 -24t-58 24t-24 58q0 12 6 38t19 109t26 211q-122 -13 -201.5 -26
t-105.5 -19t-37 -6q-34 0 -58 24t-24 58t24 58t58 24q11 0 36.5 -6t105.5 -19t202 -26q-6 145 -28.5 309.5t-22.5 212.5q0 47 22.5 191t28.5 290q-122 -13 -202 -26t-105.5 -19t-36.5 -6q-34 0 -58 24t-24 58t24 58t58 24q11 0 37 -6t105.5 -19t201.5 -26q-13 128 -26 211
t-19 109t-6 38q0 34 24 58t58 24t57.5 -24t23.5 -58q0 -11 -6 -37.5t-19 -109.5t-26 -211q121 13 200 26t105 19t37 6q34 0 58 -24t24 -58t-24 -58t-58 -24q-12 0 -37.5 6t-104.5 19t-200 26q4 -147 27.5 -291.5t23.5 -189.5z" />
    <glyph glyph-name="bullet" unicode="&#x2022;" horiz-adv-x="813" 
d="M205 475q0 85 58 144t143 59t143.5 -59t58.5 -144t-58.5 -143t-143.5 -58t-143 58t-58 143z" />
    <glyph glyph-name="onedotenleader" unicode="&#x2024;" horiz-adv-x="655" 
d="M197 109q0 54 38.5 91.5t92.5 37.5q53 0 91 -37.5t38 -91.5t-38 -91.5t-91 -37.5q-54 0 -92.5 37.5t-38.5 91.5z" />
    <glyph glyph-name="twodotenleader" unicode="&#x2025;" horiz-adv-x="1126" 
d="M197 109q0 54 38.5 91.5t92.5 37.5q53 0 91 -37.5t38 -91.5t-38 -91.5t-91 -37.5q-54 0 -92.5 37.5t-38.5 91.5zM668 109q0 54 38.5 91.5t92.5 37.5q53 0 91 -37.5t38 -91.5t-38 -91.5t-91 -37.5q-54 0 -92.5 37.5t-38.5 91.5z" />
    <glyph glyph-name="ellipsis" unicode="&#x2026;" horiz-adv-x="1638" 
d="M197 109q0 54 38.5 91.5t92.5 37.5q53 0 91 -37.5t38 -91.5t-38 -91.5t-91 -37.5q-54 0 -92.5 37.5t-38.5 91.5zM688 109q0 54 38.5 91.5t92.5 37.5q53 0 91 -37.5t38 -91.5t-38 -91.5t-91 -37.5q-54 0 -92.5 37.5t-38.5 91.5zM1180 109q0 54 38.5 91.5t92.5 37.5
q53 0 91 -37.5t38 -91.5t-38 -91.5t-91 -37.5q-54 0 -92.5 37.5t-38.5 91.5z" />
    <glyph glyph-name="perthousand" unicode="&#x2030;" horiz-adv-x="2846" 
d="M1405 1577h-90l-699 -1700h93zM1204 297q2 134 89 225.5t220 91.5q127 0 210.5 -92t80.5 -225q-2 -134 -89 -225.5t-220 -91.5q-127 0 -210.5 92t-80.5 225zM1337 297q0 -137 44 -208t124 -71q79 0 122.5 71.5t43.5 207.5t-43.5 206t-122.5 70q-81 0 -124.5 -70
t-43.5 -206zM201 1137q2 134 89 225.5t220 91.5q127 0 210.5 -92t80.5 -225q-2 -134 -89 -226t-220 -92q-127 0 -210.5 92.5t-80.5 225.5zM334 1137q0 -137 44 -208t124 -71q79 0 122.5 71.5t43.5 207.5t-43.5 206t-122.5 70q-81 0 -124.5 -70t-43.5 -206zM2044 297
q2 134 89 225.5t220 91.5q127 0 210.5 -92t80.5 -225q-2 -134 -89 -225.5t-220 -91.5q-127 0 -210.5 92t-80.5 225zM2177 297q0 -137 44 -208t124 -71q79 0 122.5 71.5t43.5 207.5t-43.5 206t-122.5 70q-81 0 -124.5 -70t-43.5 -206z" />
    <glyph glyph-name="guilsinglleft" unicode="&#x2039;" horiz-adv-x="983" 
d="M442 551l340 311v96l-583 -387v-47l583 -385v94z" />
    <glyph glyph-name="guilsinglright" unicode="&#x203a;" horiz-adv-x="983" 
d="M541 551l-342 311v96l583 -387v-47l-583 -385v94z" />
    <glyph glyph-name="exclamdbl" unicode="&#x203c;" horiz-adv-x="1146" 
d="M197 109q0 54 38.5 91.5t92.5 37.5q53 0 91 -37.5t38 -91.5t-38 -91.5t-91 -37.5q-54 0 -92.5 37.5t-38.5 91.5zM354 410h-51l-96 1017q-5 60 24 105t99 45q69 0 94 -44t20 -106zM688 109q0 54 38.5 91.5t92.5 37.5q53 0 91 -37.5t38 -91.5t-38 -91.5t-91 -37.5
q-54 0 -92.5 37.5t-38.5 91.5zM846 410h-51l-97 1017q-5 60 24 105t99 45q69 0 94.5 -44t20.5 -106z" />
    <glyph glyph-name="fraction" unicode="&#x2044;" horiz-adv-x="983" 
d="M782 1577h-90l-493 -1700h92z" />
    <glyph glyph-name="zerosuperior" unicode="&#x2070;" horiz-adv-x="819" 
d="M102 1436q0 109 32.5 200t104 151t171.5 60q76 0 136 -34.5t96.5 -93t55.5 -131t19 -152.5q0 -109 -32 -200t-103.5 -151.5t-171.5 -60.5t-171.5 59t-104 150.5t-32.5 202.5zM262 1436q0 -85 7 -148t23 -112.5t45.5 -75t72.5 -25.5t72.5 25.5t45.5 75.5t22.5 112.5
t6.5 147.5t-6.5 147t-22.5 111.5t-45.5 74.5t-72.5 25t-72.5 -25t-45.5 -74t-23 -111.5t-7 -147.5z" />
    <glyph glyph-name="foursuperior" unicode="&#x2074;" horiz-adv-x="819" 
d="M461 1315h-311l311 393v-393zM717 1217v98h-109v540h-96l-410 -520v-118h359v-173h147v173h109z" />
    <glyph glyph-name="fivesuperior" unicode="&#x2075;" horiz-adv-x="819" 
d="M213 1473l12 362h422v-117h-371l-6 -186q94 11 168.5 -2t118 -41t72.5 -67t39 -75t10 -71q0 -112 -83 -182t-224 -70q-103 0 -167.5 46t-64.5 108q0 33 20.5 53t59.5 20q32 0 49 -15.5t15 -35.5q-11 -119 86 -119q71 0 113 46.5t42 136.5q0 93 -54.5 151t-172.5 58h-84z
" />
    <glyph glyph-name="sixsuperior" unicode="&#x2076;" horiz-adv-x="819" 
d="M535 1282q0 -102 -32.5 -154.5t-90.5 -52.5q-76 0 -111.5 105.5t-17.5 244.5q55 52 123 52q61 0 95 -51.5t34 -143.5zM694 1294q0 104 -64 177t-167 73q-105 0 -182 -65q10 55 27 100t49.5 93t89 85.5t133.5 59.5l-11 43q-197 -37 -321.5 -177.5t-124.5 -334.5
q0 -137 77 -230.5t210 -93.5q115 0 199.5 75.5t84.5 194.5z" />
    <glyph glyph-name="sevensuperior" unicode="&#x2077;" horiz-adv-x="819" 
d="M395 1044l279 750v49h-522l-7 -215h37q9 63 27 80.5t78 17.5h307l-371 -682h172z" />
    <glyph glyph-name="eightsuperior" unicode="&#x2078;" horiz-adv-x="819" 
d="M537 1661q0 -55 -19.5 -98.5t-54.5 -65.5q-166 65 -166 176q0 56 33.5 88.5t83.5 32.5q56 0 89.5 -33t33.5 -100zM549 1219q0 -64 -36 -104t-101 -40q-67 0 -106.5 45t-39.5 127q0 99 84 162q100 -39 149.5 -85t49.5 -105zM692 1253q0 73 -42.5 126.5t-145.5 97.5
q75 24 116.5 73t41.5 105q0 90 -71.5 141t-170.5 51q-106 0 -184 -57t-78 -152q0 -123 149 -206q-82 -26 -131 -78.5t-49 -116.5q0 -104 77.5 -158.5t196.5 -54.5q120 0 205.5 61t85.5 168z" />
    <glyph glyph-name="ninesuperior" unicode="&#x2079;" horiz-adv-x="819" 
d="M283 1581q0 102 32.5 153.5t90.5 51.5q51 0 85.5 -51t43.5 -128.5t0 -168.5q-57 -54 -123 -54q-61 0 -95 52t-34 145zM123 1569q0 -104 64 -177t167 -73q106 0 183 65q-11 -55 -28 -99.5t-49.5 -93t-88.5 -85.5t-133 -59l10 -43q197 37 321.5 177.5t124.5 334.5
q0 137 -76.5 230t-209.5 93q-115 0 -200 -75.5t-85 -194.5z" />
    <glyph glyph-name="parenleftsuperior" unicode="&#x207d;" horiz-adv-x="819" 
d="M401 1473q0 -177 38 -359t120 -326h-37q-136 143 -200 323t-64 362q0 187 63.5 366.5t200.5 323.5h37q-82 -142 -120 -324.5t-38 -365.5z" />
    <glyph glyph-name="parenrightsuperior" unicode="&#x207e;" horiz-adv-x="819" 
d="M418 1473q0 -178 -38.5 -360t-121.5 -325h35q138 143 202 323t64 362q0 187 -64 366.5t-202 323.5h-35q83 -142 121.5 -324.5t38.5 -365.5z" />
    <glyph glyph-name="nsuperior" unicode="&#x207f;" horiz-adv-x="917" 
d="M96 1044v25q65 14 84 32t19 70v322q0 47 -16 65t-66 29v29l198 53h9l-2 -127h2q116 127 233 127q68 0 113 -43.5t45 -138.5v-316q0 -52 17.5 -70t82.5 -32v-25h-301v25q53 17 64.5 33t11.5 69v312q0 44 -22.5 73t-65.5 29q-75 0 -180 -84v-330q0 -53 17 -71t81 -31v-25
h-324z" />
    <glyph glyph-name="zeroinferior" unicode="&#x2080;" horiz-adv-x="819" 
d="M102 -18q0 109 32.5 200t104 151t171.5 60q76 0 136 -34.5t96.5 -93t55.5 -131t19 -152.5q0 -109 -32 -200t-103.5 -151.5t-171.5 -60.5t-171.5 59t-104 150.5t-32.5 202.5zM262 -18q0 -85 7 -148t23 -112.5t45.5 -75t72.5 -25.5t72.5 25.5t45.5 75.5t22.5 112.5
t6.5 147.5t-6.5 147t-22.5 111.5t-45.5 74.5t-72.5 25t-72.5 -25t-45.5 -74t-23 -111.5t-7 -147.5z" />
    <glyph glyph-name="oneinferior" unicode="&#x2081;" horiz-adv-x="819" 
d="M483 401v-682q0 -52 25.5 -70.5t116.5 -27.5v-31h-430v31q90 9 115.5 27.5t25.5 70.5v504q0 50 -25 62t-116 12v31l276 73h12z" />
    <glyph glyph-name="twoinferior" unicode="&#x2082;" horiz-adv-x="819" 
d="M410 348q57 0 83.5 -50t26.5 -130q0 -40 -5.5 -74t-28 -87t-60.5 -105t-110 -121t-171 -141v-50h529v117h-375q120 83 199 156.5t113.5 133t45.5 100t11 85.5q0 88 -66 153.5t-180 65.5q-118 0 -181 -45t-63 -108q0 -33 20 -53.5t56 -20.5q32 0 48.5 16t14.5 37
q-4 67 17 94t76 27z" />
    <glyph glyph-name="threeinferior" unicode="&#x2083;" horiz-adv-x="819" 
d="M377 -379q143 0 143 191q0 77 -43 121t-117 44h-38v50h18q76 0 119 45.5t43 134.5q0 61 -33.5 97t-79.5 36q-53 0 -74.5 -28t-11.5 -93q3 -20 -14 -36.5t-49 -16.5q-28 0 -48.5 13t-23.5 40q-8 75 56.5 124.5t176.5 49.5q110 0 177 -50t67 -132q0 -73 -48 -128t-132 -75
v-2q92 -12 152.5 -61t60.5 -140q0 -114 -84.5 -174.5t-222.5 -60.5q-113 0 -175 47.5t-53 126.5q3 24 24 38.5t52 14.5t47.5 -15t16.5 -36q0 -68 21.5 -96.5t72.5 -28.5z" />
    <glyph glyph-name="fourinferior" unicode="&#x2084;" horiz-adv-x="819" 
d="M461 -139h-311l311 393v-393zM717 -238v99h-109v540h-96l-410 -520v-119h359v-172h147v172h109z" />
    <glyph glyph-name="fiveinferior" unicode="&#x2085;" horiz-adv-x="819" 
d="M213 18l12 363h422v-117h-371l-6 -186q94 11 168.5 -2t118 -41t72.5 -67t39 -75t10 -71q0 -112 -83 -182t-224 -70q-103 0 -167.5 46t-64.5 108q0 33 20.5 53t59.5 20q32 0 49 -15.5t15 -35.5q-11 -119 86 -119q71 0 113 46.5t42 136.5q0 93 -54.5 150.5t-172.5 57.5h-84
z" />
    <glyph glyph-name="sixinferior" unicode="&#x2086;" horiz-adv-x="819" 
d="M535 -172q0 -102 -32.5 -154.5t-90.5 -52.5q-76 0 -111.5 105.5t-17.5 244.5q55 52 123 52q61 0 95 -51.5t34 -143.5zM694 -160q0 104 -64 177t-167 73q-105 0 -182 -65q8 43 19.5 79t34 77t54 73.5t80.5 61t111 46.5l-11 44q-197 -37 -321.5 -177.5t-124.5 -334.5
q0 -137 77 -230.5t210 -93.5q115 0 199.5 75.5t84.5 194.5z" />
    <glyph glyph-name="seveninferior" unicode="&#x2087;" horiz-adv-x="819" 
d="M395 -410l279 750v49h-522l-7 -215h37q9 63 27 80.5t78 17.5h307l-371 -682h172z" />
    <glyph glyph-name="eightinferior" unicode="&#x2088;" horiz-adv-x="819" 
d="M537 207q0 -55 -19.5 -98.5t-54.5 -65.5q-166 65 -166 176q0 56 33.5 88.5t83.5 32.5q56 0 89.5 -33t33.5 -100zM549 -236q0 -64 -36 -103.5t-101 -39.5q-67 0 -106.5 45t-39.5 127q0 99 84 162q199 -77 199 -191zM692 -201q0 73 -42.5 126.5t-145.5 97.5q75 24 116.5 73
t41.5 105q0 90 -71.5 141t-170.5 51q-106 0 -184 -57t-78 -152q0 -124 149 -207q-83 -27 -131.5 -78.5t-48.5 -115.5q0 -104 77.5 -158.5t196.5 -54.5q120 0 205.5 61t85.5 168z" />
    <glyph glyph-name="nineinferior" unicode="&#x2089;" horiz-adv-x="819" 
d="M283 127q0 102 32.5 153.5t90.5 51.5q51 0 85.5 -51t43.5 -128.5t0 -168.5q-57 -54 -123 -54q-61 0 -95 52t-34 145zM123 115q0 -104 64 -177t167 -73q106 0 183 65q-11 -55 -28 -100t-49.5 -93.5t-88.5 -85.5t-133 -59l10 -43q197 37 321.5 177.5t124.5 334.5
q0 137 -76.5 230.5t-209.5 93.5q-115 0 -200 -75.5t-85 -194.5z" />
    <glyph glyph-name="parenleftinferior" unicode="&#x208d;" horiz-adv-x="819" 
d="M401 18q0 -177 38 -358.5t120 -325.5h-37q-136 144 -200 323t-64 361q0 187 63.5 367t200.5 324h37q-82 -142 -120 -325t-38 -366z" />
    <glyph glyph-name="parenrightinferior" unicode="&#x208e;" horiz-adv-x="819" 
d="M418 18q0 -178 -38.5 -359.5t-121.5 -324.5h35q138 143 202 322.5t64 361.5q0 188 -64 367.5t-202 323.5h-35q83 -142 121.5 -324.5t38.5 -366.5z" />
    <glyph glyph-name="colonmonetary" unicode="&#x20a1;" horiz-adv-x="1310" 
d="M977 -205v205q159 38 256 102l20 291h-55q-16 -65 -49 -122.5t-83.5 -106.5t-125 -78t-162.5 -29q-134 0 -239 83.5t-163.5 234t-58.5 342.5q0 291 129 474t332 183q88 0 162.5 -29t125 -78t83.5 -106.5t49 -122.5h55l-20 293q-116 68 -256 99v208h-82v-194
q-62 10 -117 10q-74 0 -149 -16v200h-82v-223q-208 -71 -331.5 -258t-123.5 -440q0 -254 123.5 -442t331.5 -259v-221h82v201q75 -16 149 -16q55 0 117 10v-195h82z" />
    <glyph glyph-name="franc" unicode="&#x20a3;" horiz-adv-x="1177" 
d="M76 381h170v842q0 86 -32 117t-138 46v48h1034l10 -334h-55q-15 124 -81.5 190t-174.5 66h-358v-627h184q101 0 154.5 45t66.5 162h55v-492h-55q-13 117 -66.5 162t-154.5 45h-184v-270h229v-78h-229v-94q0 -86 31 -117.5t136 -46.5v-45h-542v45q106 15 138 46.5
t32 117.5v94h-170v78z" />
    <glyph glyph-name="lira" unicode="&#x20a4;" horiz-adv-x="1304" 
d="M158 831h143q-28 157 -22 238q9 165 136.5 275t327.5 110q165 0 264 -79.5t99 -184.5q0 -52 -37 -82.5t-90 -30.5q-43 0 -68.5 21.5t-23.5 54.5q5 48 0.5 88.5t-18 69.5t-48.5 45t-92 16q-110 0 -175 -63.5t-69 -178.5q-4 -90 13 -299h305v-77h-303q7 -101 2 -168h301
v-78h-309q-27 -234 -207 -404q0 -1 1 -2t1 -2q87 41 163 59.5t141 14t107.5 -14t102.5 -30t86 -27.5q38 -13 73.5 -11t65.5 18t56.5 60.5t45.5 117.5h56q-30 -112 -56 -166q-115 -240 -366 -197q-23 4 -76.5 25t-112.5 41.5t-129.5 36t-152 10.5t-156.5 -37l-24 61
q131 91 181.5 201.5t47.5 245.5h-184v78h180q-3 44 -25 168h-155v77z" />
    <glyph glyph-name="peseta" unicode="&#x20a7;" horiz-adv-x="1515" 
d="M117 1067h170v156q0 86 -32 117t-138 46v48h631q215 0 338 -101t131 -266h180v-78h-183q-8 -60 -31 -113t-68 -103t-107.5 -86t-155.5 -57.5t-207 -21.5h-153v-399q0 -86 31 -117.5t136 -46.5v-45h-542v45q106 15 138 46.5t32 117.5v780h-170v78zM492 686h143
q155 0 264 85.5t102 217.5h-509v-303zM492 1356v-289h509q-4 59 -21.5 108t-52 91t-93.5 66t-138 24h-204z" />
    <glyph glyph-name="Euro" unicode="&#x20ac;" horiz-adv-x="1536" 
d="M117 874h151q47 261 231.5 420.5t442.5 159.5q138 0 258 -37.5t197 -85.5l20 -293h-55q-16 65 -49 122.5t-83.5 106.5t-125 78t-162.5 29q-174 0 -296 -136.5t-154 -363.5h372v-81h-383v-76q0 -61 2 -88h381v-82h-370q34 -223 155 -356.5t293 -133.5q88 0 162.5 29
t125 78t83.5 106.5t49 122.5h55l-20 -291q-77 -48 -197 -85t-258 -37q-256 0 -439 155.5t-233 411.5h-153v82h141q-2 27 -2 88q0 51 2 76h-141v81z" />
    <glyph glyph-name="litre" unicode="&#x2113;" horiz-adv-x="1001" 
d="M102 342l25 -23l168 170v-106q0 -151 22 -219q31 -85 101.5 -134.5t159.5 -49.5q108 0 182 71q95 88 139 260h-37q-47 -154 -110 -211q-59 -59 -131 -59q-78 0 -123 59q-47 62 -47 217v345q203 234 264 360q63 123 63 229q0 93 -53 148t-143 55q-120 0 -205 -102
q-82 -101 -82 -310v-497zM451 717v395q0 170 38 225q40 58 99 58t98 -49t39 -134q0 -177 -274 -495z" />
    <glyph glyph-name="afii61352" unicode="&#x2116;" horiz-adv-x="2211" 
d="M1167 352v871q0 61 -12 89.5t-50.5 46t-121.5 27.5v48h455v-48q-114 -15 -148.5 -46t-34.5 -117v-1223h-125l-782 1243v-1034q0 -61 12 -90t50.5 -46.5t121.5 -27.5v-45h-456v45q114 15 148 46.5t34 117.5v1014q0 86 -34 117t-148 46v48h420zM1532 1137q2 134 89 225.5
t220 91.5q127 0 210.5 -92t80.5 -225q-2 -134 -89 -226t-220 -92q-127 0 -210.5 92.5t-80.5 225.5zM1665 1137q0 -137 44 -208t124 -71q79 0 122.5 71.5t43.5 207.5t-43.5 206t-122.5 70q-81 0 -124.5 -70t-43.5 -206z" />
    <glyph glyph-name="trademark" unicode="&#x2122;" horiz-adv-x="1953" 
d="M778 1434h-575l-2 -177h30q9 73 40.5 101t95.5 28h65v-483q0 -51 -18.5 -70t-79.5 -28v-25h319v25q-63 9 -81.5 27.5t-18.5 70.5v483h63q64 0 96.5 -28.5t39.5 -100.5h32zM1118 1434l215 -506l203 506h215v-29q-61 -10 -79.5 -28t-18.5 -68v-406q0 -51 18.5 -70t79.5 -28
v-25h-319v25q64 9 83 27.5t19 70.5v391l-211 -520h-59l-226 547v-418q0 -52 19.5 -70.5t89.5 -27.5v-25h-273v25q71 9 90 27t19 71v406q0 51 -18.5 68.5t-90.5 27.5v29h244z" />
    <glyph glyph-name="estimated" unicode="&#x212e;" horiz-adv-x="1589" 
d="M406 715h1081q-12 361 -213 553q-201 186 -479 186q-306 0 -500 -209q-193 -208 -193 -530q0 -320 193 -525q186 -210 500 -210q207 0 344 88q134 87 266 274l-94 53q-182 -321 -516 -321q-223 0 -389 159v482zM1184 813h-778v387q161 158 387 158q222 0 391 -158v-387z
" />
    <glyph glyph-name="onethird" unicode="&#x2153;" horiz-adv-x="1843" 
d="M1440 31q143 0 143 190q0 78 -43 122t-117 44h-39v49h19q76 0 119 45.5t43 134.5q0 61 -33.5 97.5t-79.5 36.5q-53 0 -74.5 -28t-11.5 -93q3 -20 -14 -37t-49 -17q-28 0 -48.5 13.5t-23.5 40.5q-8 75 56.5 124.5t176.5 49.5q110 0 177 -50t67 -132q0 -73 -48 -128
t-132 -75v-2q92 -12 152.5 -61t60.5 -140q0 -114 -84.5 -174.5t-222.5 -60.5q-113 0 -175 47.5t-53 126.5q3 24 24 38.5t52 14.5t47.5 -15t16.5 -36q0 -68 21.5 -96.5t72.5 -28.5zM391 1446v-682q0 -52 25.5 -70.5t115.5 -27.5v-31h-430v31q91 9 116.5 27.5t25.5 70.5v504
q0 49 -25.5 61t-116.5 12v31l277 74h12zM1202 1454h-80l-493 -1474h82z" />
    <glyph glyph-name="twothirds" unicode="&#x2154;" horiz-adv-x="1843" 
d="M1440 31q143 0 143 190q0 78 -43 122t-117 44h-39v49h19q76 0 119 45.5t43 134.5q0 61 -33.5 97.5t-79.5 36.5q-53 0 -74.5 -28t-11.5 -93q3 -20 -14 -37t-49 -17q-28 0 -48.5 13.5t-23.5 40.5q-8 75 56.5 124.5t176.5 49.5q110 0 177 -50t67 -132q0 -73 -48 -128
t-132 -75v-2q92 -12 152.5 -61t60.5 -140q0 -114 -84.5 -174.5t-222.5 -60.5q-113 0 -175 47.5t-53 126.5q3 24 24 38.5t52 14.5t47.5 -15t16.5 -36q0 -68 21.5 -96.5t72.5 -28.5zM1243 1454h-80l-493 -1474h82zM367 1393q56 0 83 -50.5t27 -130.5q0 -40 -5.5 -74t-28 -87
t-60.5 -105t-110 -121t-171 -141v-49h529v117h-375q120 83 199 156.5t113.5 133t45.5 100t11 85.5q0 88 -66 153.5t-180 65.5q-117 0 -180.5 -45t-63.5 -109q0 -33 20 -53t56 -20q32 0 48.5 16t14.5 37q-4 67 17 94t76 27z" />
    <glyph glyph-name="oneeighth" unicode="&#x215b;" horiz-adv-x="1843" 
d="M391 1446v-682q0 -52 25.5 -70.5t115.5 -27.5v-31h-430v31q91 9 116.5 27.5t25.5 70.5v504q0 49 -25.5 61t-116.5 12v31l277 74h12zM1202 1454h-80l-493 -1474h82zM1585 616q0 -54 -19.5 -97.5t-54.5 -65.5q-165 65 -165 176q0 56 33.5 88.5t82.5 32.5q56 0 89.5 -33.5
t33.5 -100.5zM1597 174q0 -64 -36 -103.5t-101 -39.5q-67 0 -106 45t-39 127q0 99 84 162q100 -39 149 -85.5t49 -105.5zM1741 209q0 73 -43 125.5t-146 97.5q75 24 116.5 73t41.5 105q0 90 -71.5 141.5t-170.5 51.5q-106 0 -184 -57t-78 -152q0 -124 150 -207
q-83 -27 -131.5 -78.5t-48.5 -115.5q0 -104 77.5 -158.5t196.5 -54.5q120 0 205.5 61t85.5 168z" />
    <glyph glyph-name="threeeighths" unicode="&#x215c;" horiz-adv-x="1843" 
d="M1202 1454h-80l-493 -1474h82zM1585 616q0 -54 -19.5 -97.5t-54.5 -65.5q-165 65 -165 176q0 56 33.5 88.5t82.5 32.5q56 0 89.5 -33.5t33.5 -100.5zM1597 174q0 -64 -36 -103.5t-101 -39.5q-67 0 -106 45t-39 127q0 99 84 162q100 -39 149 -85.5t49 -105.5zM1741 209
q0 73 -43 125.5t-146 97.5q75 24 116.5 73t41.5 105q0 90 -71.5 141.5t-170.5 51.5q-106 0 -184 -57t-78 -152q0 -124 150 -207q-83 -27 -131.5 -78.5t-48.5 -115.5q0 -104 77.5 -158.5t196.5 -54.5q120 0 205.5 61t85.5 168zM338 666q143 0 143 190q0 78 -42.5 122
t-116.5 44h-39v49h18q76 0 119 45.5t43 134.5q0 61 -33.5 97t-79.5 36q-53 0 -74.5 -27.5t-11.5 -92.5q3 -20 -14 -37t-49 -17q-28 0 -48.5 13.5t-23.5 40.5q-8 75 56.5 124.5t176.5 49.5q110 0 177 -50.5t67 -132.5q0 -73 -48 -127.5t-132 -74.5v-2q92 -12 152.5 -61
t60.5 -140q0 -115 -84.5 -175.5t-222.5 -60.5q-113 0 -175 47.5t-53 126.5q3 25 24 39.5t52 14.5t47.5 -15t16.5 -36q0 -68 21.5 -96.5t72.5 -28.5z" />
    <glyph glyph-name="fiveeighths" unicode="&#x215d;" horiz-adv-x="1843" 
d="M1202 1454h-80l-493 -1474h82zM1585 616q0 -54 -19.5 -97.5t-54.5 -65.5q-165 65 -165 176q0 56 33.5 88.5t82.5 32.5q56 0 89.5 -33.5t33.5 -100.5zM1597 174q0 -64 -36 -103.5t-101 -39.5q-67 0 -106 45t-39 127q0 99 84 162q100 -39 149 -85.5t49 -105.5zM1741 209
q0 73 -43 125.5t-146 97.5q75 24 116.5 73t41.5 105q0 90 -71.5 141.5t-170.5 51.5q-106 0 -184 -57t-78 -152q0 -124 150 -207q-83 -27 -131.5 -78.5t-48.5 -115.5q0 -104 77.5 -158.5t196.5 -54.5q120 0 205.5 61t85.5 168zM176 1063l12 362h422v-116h-370l-7 -187
q94 11 168.5 -2t118 -41t72.5 -67t39 -75t10 -71q0 -112 -83 -182t-224 -70q-103 0 -167.5 46t-64.5 108q0 33 20.5 53.5t59.5 20.5q32 0 49 -15.5t15 -35.5q-11 -119 86 -119q71 0 113 46t42 136q0 93 -54.5 151t-172.5 58h-84z" />
    <glyph glyph-name="seveneighths" unicode="&#x215e;" horiz-adv-x="1843" 
d="M1120 1454h-80l-493 -1474h82zM1585 616q0 -54 -19.5 -97.5t-54.5 -65.5q-165 65 -165 176q0 56 33.5 88.5t82.5 32.5q56 0 89.5 -33.5t33.5 -100.5zM1597 174q0 -64 -36 -103.5t-101 -39.5q-67 0 -106 45t-39 127q0 99 84 162q100 -39 149 -85.5t49 -105.5zM1741 209
q0 73 -43 125.5t-146 97.5q75 24 116.5 73t41.5 105q0 90 -71.5 141.5t-170.5 51.5q-106 0 -184 -57t-78 -152q0 -124 150 -207q-83 -27 -131.5 -78.5t-48.5 -115.5q0 -104 77.5 -158.5t196.5 -54.5q120 0 205.5 61t85.5 168zM352 635l279 749v50h-522l-7 -215h37
q9 63 27 80.5t78 17.5h307l-371 -682h172z" />
    <glyph glyph-name="partialdiff" unicode="&#x2202;" horiz-adv-x="1185" 
d="M309 492q76 440 355 440q274 0 198 -440q-79 -441 -354 -441q-278 0 -199 441zM684 1004q-144 0 -272 -66t-214.5 -183t-113.5 -263q-43 -222 69.5 -367t331.5 -145q146 0 274 67t218 195t119 295q27 171 13 325t-68 285t-129.5 226.5t-171 149.5t-193.5 54
q-73 0 -106 -62q-27 -50 -7 -95q22 -50 83 -35q11 3 24 8q65 27 119.5 27.5t93.5 -22t69.5 -63.5t49.5 -92.5t30.5 -114t15 -124t1.5 -125.5q-39 66 -105 95.5t-131 29.5z" />
    <glyph glyph-name="product" unicode="&#x220f;" horiz-adv-x="1515" 
d="M895 -532h543v47q-106 15 -137 46t-31 117v1545q0 86 31 117t137 46v48h-1362v-48q106 -15 138 -46t32 -117v-1545q0 -86 -32 -117t-138 -46v-47h542v47q-106 15 -136.5 46t-30.5 117v1684h614v-1684q0 -86 -32 -117t-138 -46v-47z" />
    <glyph glyph-name="summation" unicode="&#x2211;" horiz-adv-x="1204" 
d="M348 1356l391 -641l-391 -639h451q109 0 175 66t81 190h57l-10 -332h-1010v61l397 656l-397 655v62h959l10 -334h-57q-15 124 -81 190t-175 66h-400z" />
    <glyph glyph-name="minus" unicode="&#x2212;" horiz-adv-x="1146" 
d="M199 588h747v-82h-747v82z" />
    <glyph glyph-name="uni2215" unicode="&#x2215;" horiz-adv-x="983" 
d="M782 1577h-90l-493 -1700h92z" />
    <glyph glyph-name="uni2219" unicode="&#x2219;" horiz-adv-x="729" 
d="M195 508q0 69 50 118.5t120 49.5q69 0 118 -49.5t49 -118.5q0 -70 -49 -120t-118 -50q-71 0 -120.5 50t-49.5 120z" />
    <glyph glyph-name="radical" unicode="&#x221a;" horiz-adv-x="1607" 
d="M1423 1454h62l-574 -1454h-71l-324 788h-393v72h541l258 -655z" />
    <glyph glyph-name="infinity" unicode="&#x221e;" horiz-adv-x="1943" 
d="M549 266q67 0 132.5 26.5t114.5 67t84.5 82.5t53.5 80q-42 96 -152.5 166t-228.5 70q-162 0 -245 -67.5t-83 -168.5q0 -48 18.5 -91.5t55.5 -81.5t101.5 -60.5t148.5 -22.5zM1395 758q-67 0 -132.5 -26.5t-114.5 -67t-84.5 -82.5t-53.5 -80q42 -96 152.5 -166t228.5 -70
q162 0 244.5 67.5t82.5 168.5q0 48 -18.5 91.5t-55 81.5t-101 60.5t-148.5 22.5zM553 819q142 0 254.5 -75.5t169.5 -180.5q171 256 434 256q166 0 267.5 -90.5t101.5 -226.5q0 -133 -104.5 -215t-284.5 -82q-142 0 -256.5 75t-169.5 177q-168 -252 -433 -252
q-166 0 -267 90.5t-101 226.5q0 133 104.5 215t284.5 82z" />
    <glyph glyph-name="integral" unicode="&#x222b;" horiz-adv-x="634" 
d="M510 1024l-182 -1024q-16 -92 -65.5 -181t-113.5 -154t-134 -116t-131 -76.5t-101 -25.5q-82 0 -95 56q-10 45 25 88q37 45 83 32q3 -1 5 -2q52 -18 91 -23.5t68 -0.5t50 25.5t35.5 46t26.5 71t21 90t20 111.5q6 39 10 59l182 1024q16 92 66 181t114 154t134 116
t131.5 76.5t101.5 25.5q82 0 95 -56q10 -45 -25 -88q-37 -45 -83 -32q-3 1 -5 2q-61 21 -104.5 28t-75 -11.5t-50 -35t-35.5 -74t-24.5 -94.5t-23.5 -129q-2 -13 -3.5 -20.5t-3.5 -20t-4 -22.5z" />
    <glyph glyph-name="approxequal" unicode="&#x2248;" horiz-adv-x="1126" 
d="M236 608l-41 27q115 235 215 235q41 0 164 -64.5t163 -64.5q31 0 59 17t44 36.5t42 56.5q1 2 2 3t2.5 3t2.5 3.5t2 3.5l41 -24q-21 -43 -38 -72t-44 -66t-58.5 -57t-64.5 -20q-48 0 -169 63.5t-169 63.5q-26 0 -49.5 -15t-35 -29t-35.5 -51t-33 -49zM236 301l-41 27
q115 235 215 235q41 0 164 -64.5t163 -64.5q31 0 59 17t44 36.5t42 56.5q1 2 2 3t2.5 3t2.5 3.5t2 3.5l41 -25q-21 -43 -38 -72t-44 -66t-58.5 -57t-64.5 -20q-48 0 -169 63.5t-169 63.5q-21 0 -39 -7.5t-33.5 -24t-26 -31t-27.5 -40.5t-27 -40z" />
    <glyph glyph-name="notequal" unicode="&#x2260;" horiz-adv-x="1146" 
d="M199 444h295l59 205h-354v82h379l106 365h90l-106 -365h278v-82h-303l-59 -205h362v-82h-387l-104 -362h-93l107 362h-270v82z" />
    <glyph glyph-name="lessequal" unicode="&#x2264;" horiz-adv-x="1146" 
d="M946 233l-637 318l637 311v96l-747 -387v-47l669 -346h-669v-82h747v137z" />
    <glyph glyph-name="greaterequal" unicode="&#x2265;" horiz-adv-x="1146" 
d="M199 233l639 318l-639 311v96l747 -387v-47l-670 -346h670v-82h-747v137z" />
    <glyph glyph-name="lozenge" unicode="&#x25ca;" horiz-adv-x="1253" 
d="M627 80l-324 625l324 622l321 -622zM205 705l399 -766h45l400 766l-400 765h-45z" />
    <glyph glyph-name="undercommaaccent" unicode="&#xf005;" horiz-adv-x="696" 
d="M326 -94q50 0 85.5 -20.5t53 -54.5t24.5 -67t7 -69q0 -91 -43 -173t-101.5 -132t-120.5 -72l-26 47q104 48 152 140q39 72 17 116q-15 26 -48 27q-53 0 -90 37.5t-37 93.5q0 51 38 89t89 38z" />
    <glyph glyph-name="Abreve.small" unicode="&#xf66d;" horiz-adv-x="1208" 
d="M580 1270q66 0 117.5 27t82 72t45.5 98.5t15 111.5h-52q-17 -75 -75.5 -117.5t-132.5 -42.5t-133 42.5t-76 117.5h-54q0 -58 15.5 -112t46.5 -98.5t83 -71.5t118 -27zM1049 168l-400 948h-108l-361 -948q-23 -60 -56 -84t-110 -39v-45h420v45q-106 15 -138.5 59.5
t-2.5 124.5l43 115h409l48 -115q17 -42 21.5 -69.5t-4.5 -52.5t-39.5 -40t-84.5 -22v-45h506v45q-67 23 -93.5 46.5t-49.5 76.5zM530 874h5l180 -452h-353z" />
    <glyph glyph-name="Amacron.small" unicode="&#xf66e;" horiz-adv-x="1208" 
d="M268 1407h645v-82h-645v82zM1049 168l-400 948h-108l-361 -948q-23 -60 -56 -84t-110 -39v-45h420v45q-106 15 -138.5 59.5t-2.5 124.5l43 115h409l48 -115q17 -42 21.5 -69.5t-4.5 -52.5t-39.5 -40t-84.5 -22v-45h506v45q-67 23 -93.5 46.5t-49.5 76.5zM530 874h5
l180 -452h-353z" />
    <glyph glyph-name="AEacute.small" unicode="&#xf670;" horiz-adv-x="1536" 
d="M922 596v432h194q114 0 178 -48t78 -167h55l-10 293h-659l-547 -938q-33 -58 -75 -82.5t-122 -40.5v-45h416v45q-102 14 -122 60.5t28 123.5l153 265h228v-285q0 -86 -32 -117.5t-138 -46.5v-45h891l20 291h-55q-14 -118 -82 -166.5t-184 -48.5h-215v442h41
q48 0 76.5 -5.5t55.5 -24t43 -56.5t25 -100h56v450h-56q-7 -60 -22.5 -98t-43 -57t-57.5 -25t-77 -6h-41zM713 877h4v-308h-185zM821 1251l27 -22l289 213q57 42 37 96q-15 40 -58 55q-55 19 -92 -29l-6 -8z" />
    <glyph glyph-name="Cacute.small" unicode="&#xf671;" horiz-adv-x="1146" 
d="M666 57q-54 0 -102 14t-94 49t-79 90t-53.5 142.5t-20.5 200.5t20.5 200.5t53.5 142t79 89.5t94 48.5t102 13.5q82 0 147.5 -28.5t108 -79t69 -106t43.5 -122.5h56l-21 293q-55 34 -99 56t-130 44t-181 22q-85 0 -163 -18t-153 -60.5t-129.5 -106.5t-88 -164t-33.5 -224
t33.5 -224t88 -164t129.5 -106.5t153 -60.5t163 -18q95 0 181 22t130 44t99 56l21 291h-56q-10 -42 -19 -71t-24.5 -67t-33.5 -63.5t-46 -53t-61.5 -44t-80.5 -27t-103 -10.5zM612 1251l27 -22l289 213q57 42 37 96q-15 40 -58 55q-55 19 -92 -29l-6 -8z" />
    <glyph glyph-name="Ccaron.small" unicode="&#xf672;" horiz-adv-x="1146" 
d="M666 57q-54 0 -102 14t-94 49t-79 90t-53.5 142.5t-20.5 200.5t20.5 200.5t53.5 142t79 89.5t94 48.5t102 13.5q82 0 147.5 -28.5t108 -79t69 -106t43.5 -122.5h56l-21 293q-55 34 -99 56t-130 44t-181 22q-85 0 -163 -18t-153 -60.5t-129.5 -106.5t-88 -164t-33.5 -224
t33.5 -224t88 -164t129.5 -106.5t153 -60.5t163 -18q95 0 181 22t130 44t99 56l21 291h-56q-10 -42 -19 -71t-24.5 -67t-33.5 -63.5t-46 -53t-61.5 -44t-80.5 -27t-103 -10.5zM670 1413l-232 184h-55l256 -368h61l256 368h-57z" />
    <glyph glyph-name="Ccircumflex.small" unicode="&#xf673;" horiz-adv-x="1146" 
d="M666 57q-54 0 -102 14t-94 49t-79 90t-53.5 142.5t-20.5 200.5t20.5 200.5t53.5 142t79 89.5t94 48.5t102 13.5q82 0 147.5 -28.5t108 -79t69 -106t43.5 -122.5h56l-21 293q-55 34 -99 56t-130 44t-181 22q-85 0 -163 -18t-153 -60.5t-129.5 -106.5t-88 -164t-33.5 -224
t33.5 -224t88 -164t129.5 -106.5t153 -60.5t163 -18q95 0 181 22t130 44t99 56l21 291h-56q-10 -42 -19 -71t-24.5 -67t-33.5 -63.5t-46 -53t-61.5 -44t-80.5 -27t-103 -10.5zM649 1413l-231 -184h-56l256 368h62l256 -368h-57z" />
    <glyph glyph-name="Cdotaccent.small" unicode="&#xf674;" horiz-adv-x="1146" 
d="M666 57q-54 0 -102 14t-94 49t-79 90t-53.5 142.5t-20.5 200.5t20.5 200.5t53.5 142t79 89.5t94 48.5t102 13.5q82 0 147.5 -28.5t108 -79t69 -106t43.5 -122.5h56l-21 293q-55 34 -99 56t-130 44t-181 22q-85 0 -163 -18t-153 -60.5t-129.5 -106.5t-88 -164t-33.5 -224
t33.5 -224t88 -164t129.5 -106.5t153 -60.5t163 -18q95 0 181 22t130 44t99 56l21 291h-56q-10 -42 -19 -71t-24.5 -67t-33.5 -63.5t-46 -53t-61.5 -44t-80.5 -27t-103 -10.5zM549 1386q0 51 35.5 87t87.5 36q51 0 87 -36t36 -87q0 -52 -36 -87t-87 -35q-53 0 -88 35t-35 87
z" />
    <glyph glyph-name="Dcaron.small" unicode="&#xf675;" horiz-adv-x="1351" 
d="M451 76h153q102 0 179.5 26.5t124.5 69.5t76 106.5t39.5 129t10.5 145.5q0 95 -11.5 165.5t-41.5 131t-80.5 98.5t-129.5 59t-187 21h-133v-952zM604 0h-528v45q106 15 138 46.5t32 117.5v686q0 86 -32 117.5t-138 46.5v47h528q327 0 491.5 -141t164.5 -412
q0 -255 -167.5 -404t-488.5 -149zM657 1413l-231 184h-55l256 -368h61l256 368h-57z" />
    <glyph glyph-name="Ebreve.small" unicode="&#xf677;" horiz-adv-x="1146" 
d="M451 1028v-432h102q53 0 86.5 6t64 25t47 57t23.5 98h55v-450h-55q-7 60 -23.5 98t-47 57t-64 25t-86.5 6h-102v-442h297q116 0 184 48.5t82 166.5h55l-20 -291h-973v45q106 15 138 46.5t32 117.5v686q0 86 -32 117.5t-138 46.5v47h952l10 -293h-55q-14 119 -78 167
t-178 48h-276zM641 1270q66 0 117.5 27t82 72t45.5 98.5t15 111.5h-51q-17 -75 -76 -117.5t-133 -42.5t-133 42.5t-76 117.5h-53q0 -58 15.5 -111.5t46 -98.5t82.5 -72t118 -27z" />
    <glyph glyph-name="Ecaron.small" unicode="&#xf678;" horiz-adv-x="1146" 
d="M451 1028v-432h102q53 0 86.5 6t64 25t47 57t23.5 98h55v-450h-55q-7 60 -23.5 98t-47 57t-64 25t-86.5 6h-102v-442h297q116 0 184 48.5t82 166.5h55l-20 -291h-973v45q106 15 138 46.5t32 117.5v686q0 86 -32 117.5t-138 46.5v47h952l10 -293h-55q-14 119 -78 167
t-178 48h-276zM659 1413l-231 184h-55l256 -368h61l256 368h-57z" />
    <glyph glyph-name="Edotaccent.small" unicode="&#xf679;" horiz-adv-x="1146" 
d="M451 1028v-432h102q53 0 86.5 6t64 25t47 57t23.5 98h55v-450h-55q-7 60 -23.5 98t-47 57t-64 25t-86.5 6h-102v-442h297q116 0 184 48.5t82 166.5h55l-20 -291h-973v45q106 15 138 46.5t32 117.5v686q0 86 -32 117.5t-138 46.5v47h952l10 -293h-55q-14 119 -78 167
t-178 48h-276zM528 1386q0 51 35.5 87t87.5 36q51 0 87 -36t36 -87q0 -52 -36 -87t-87 -35q-53 0 -88 35t-35 87z" />
    <glyph glyph-name="Emacron.small" unicode="&#xf67a;" horiz-adv-x="1146" 
d="M451 1028v-432h102q53 0 86.5 6t64 25t47 57t23.5 98h55v-450h-55q-7 60 -23.5 98t-47 57t-64 25t-86.5 6h-102v-442h297q116 0 184 48.5t82 166.5h55l-20 -291h-973v45q106 15 138 46.5t32 117.5v686q0 86 -32 117.5t-138 46.5v47h952l10 -293h-55q-14 119 -78 167
t-178 48h-276zM299 1407h645v-82h-645v82z" />
    <glyph glyph-name="Gbreve.small" unicode="&#xf67d;" horiz-adv-x="1290" 
d="M666 57q-54 0 -102 14t-94 49t-79 90t-53.5 142.5t-20.5 200.5t20.5 200.5t53.5 142t79 89.5t94 48.5t102 13.5q82 0 147.5 -28.5t108 -79t69 -106t43.5 -122.5h56l-21 293q-55 34 -99 56t-130 44t-181 22q-85 0 -163 -18t-153 -60.5t-129.5 -106.5t-88 -164t-33.5 -224
t33.5 -224t88 -164t129.5 -106.5t153 -60.5t163 -18q136 0 256.5 50.5t204.5 112.5v144q0 88 24 118.5t113 45.5v45h-512v-45q58 -8 90 -18t51 -30t24 -45t5 -71v-133q-106 -97 -249 -97zM657 1270q66 0 118 27t82 72t45.5 98.5t15.5 111.5h-52q-17 -75 -76 -117.5
t-133 -42.5t-132.5 42.5t-75.5 117.5h-54q0 -58 15.5 -111.5t46 -98.5t82.5 -72t118 -27z" />
    <glyph glyph-name="Gcircumflex.small" unicode="&#xf67e;" horiz-adv-x="1290" 
d="M666 57q-54 0 -102 14t-94 49t-79 90t-53.5 142.5t-20.5 200.5t20.5 200.5t53.5 142t79 89.5t94 48.5t102 13.5q82 0 147.5 -28.5t108 -79t69 -106t43.5 -122.5h56l-21 293q-55 34 -99 56t-130 44t-181 22q-85 0 -163 -18t-153 -60.5t-129.5 -106.5t-88 -164t-33.5 -224
t33.5 -224t88 -164t129.5 -106.5t153 -60.5t163 -18q136 0 256.5 50.5t204.5 112.5v144q0 88 24 118.5t113 45.5v45h-512v-45q58 -8 90 -18t51 -30t24 -45t5 -71v-133q-106 -97 -249 -97zM659 1413l-231 -184h-55l256 368h61l256 -368h-57z" />
    <glyph glyph-name="Gcommaaccent.small" unicode="&#xf67f;" horiz-adv-x="1290" 
d="M666 57q-54 0 -102 14t-94 49t-79 90t-53.5 142.5t-20.5 200.5t20.5 200.5t53.5 142t79 89.5t94 48.5t102 13.5q82 0 147.5 -28.5t108 -79t69 -106t43.5 -122.5h56l-21 293q-55 34 -99 56t-130 44t-181 22q-85 0 -163 -18t-153 -60.5t-129.5 -106.5t-88 -164t-33.5 -224
t33.5 -224t88 -164t129.5 -106.5t153 -60.5t163 -18q136 0 256.5 50.5t204.5 112.5v144q0 88 24 118.5t113 45.5v45h-512v-45q58 -8 90 -18t51 -30t24 -45t5 -71v-133q-106 -97 -249 -97zM645 -94q50 0 85.5 -20.5t53 -54.5t24.5 -67t7 -69q0 -134 -82.5 -238t-181.5 -139
l-27 47q104 48 152 140q39 72 17 116q-15 26 -48 27q-53 0 -90 37.5t-37 93.5q0 51 38 89t89 38z" />
    <glyph glyph-name="Gdotaccent.small" unicode="&#xf680;" horiz-adv-x="1290" 
d="M666 57q-54 0 -102 14t-94 49t-79 90t-53.5 142.5t-20.5 200.5t20.5 200.5t53.5 142t79 89.5t94 48.5t102 13.5q82 0 147.5 -28.5t108 -79t69 -106t43.5 -122.5h56l-21 293q-55 34 -99 56t-130 44t-181 22q-85 0 -163 -18t-153 -60.5t-129.5 -106.5t-88 -164t-33.5 -224
t33.5 -224t88 -164t129.5 -106.5t153 -60.5t163 -18q136 0 256.5 50.5t204.5 112.5v144q0 88 24 118.5t113 45.5v45h-512v-45q58 -8 90 -18t51 -30t24 -45t5 -71v-133q-106 -97 -249 -97zM551 1386q0 51 35.5 87t87.5 36q51 0 87 -36t36 -87q0 -52 -36 -87t-87 -35
q-53 0 -88 35t-35 87z" />
    <glyph glyph-name="Hcircumflex.small" unicode="&#xf682;" horiz-adv-x="1454" 
d="M1208 895v-686q0 -86 31 -117.5t137 -46.5v-45h-542v45q106 15 138 46.5t32 117.5v319h-553v-319q0 -86 31 -117.5t136 -46.5v-45h-542v45q106 15 138 46.5t32 117.5v686q0 86 -32 117.5t-138 46.5v47h542v-47q-105 -15 -136 -46.5t-31 -117.5v-289h553v289
q0 86 -32 117.5t-138 46.5v47h542v-47q-106 -15 -137 -46.5t-31 -117.5zM735 1413l-231 -184h-55l256 368h61l256 -368h-57z" />
    <glyph glyph-name="Ibreve.small" unicode="&#xf683;" horiz-adv-x="696" 
d="M451 895v-686q0 -86 31 -117.5t136 -46.5v-45h-542v45q106 15 138 46.5t32 117.5v686q0 86 -32 117.5t-138 46.5v47h542v-47q-105 -15 -136 -46.5t-31 -117.5zM344 1270q66 0 117.5 27t82 72t45.5 98.5t15 111.5h-51q-17 -75 -76 -117.5t-133 -42.5t-133 42.5t-76 117.5
h-53q0 -58 15.5 -111.5t46 -98.5t82.5 -72t118 -27z" />
    <glyph glyph-name="Imacron.small" unicode="&#xf685;" horiz-adv-x="696" 
d="M453 895v-686q0 -86 31 -117.5t137 -46.5v-45h-543v45q106 15 138 46.5t32 117.5v686q0 86 -32 117.5t-138 46.5v47h543v-47q-106 -15 -137 -46.5t-31 -117.5zM25 1407h645v-82h-645v82z" />
    <glyph glyph-name="Itilde.small" unicode="&#xf687;" horiz-adv-x="696" 
d="M453 895v-686q0 -86 31 -117.5t137 -46.5v-45h-543v45q106 15 138 46.5t32 117.5v686q0 86 -32 117.5t-138 46.5v47h543v-47q-106 -15 -137 -46.5t-31 -117.5zM20 1264l-40 26q115 236 215 236q41 0 164 -41t163 -41q56 0 88.5 15t65.5 61l41 -25q-21 -43 -38 -72
t-44 -66t-58.5 -57t-64.5 -20q-48 0 -169 41t-169 41q-52 0 -83 -21.5t-71 -76.5z" />
    <glyph glyph-name="Jcircumflex.small" unicode="&#xf688;" horiz-adv-x="819" 
d="M573 895v-373q0 -251 -119.5 -396.5t-299.5 -145.5q-96 0 -123 60q-21 44 7 83q32 44 89 29q10 -3 20 -7q42 -19 71.5 -29.5t55 -14t42 1t29 20t18.5 38.5t9 61.5t2 83.5t-5 110v479q0 86 -32 117.5t-138 46.5v47h542v-47q-106 -15 -137 -46.5t-31 -117.5zM471 1413
l-231 -184h-56l256 368h62l256 -368h-58z" />
    <glyph glyph-name="Kcommaaccent.small" unicode="&#xf689;" horiz-adv-x="1310" 
d="M451 594v301q0 86 31 117.5t136 46.5v47h-542v-47q106 -15 138 -46.5t32 -117.5v-686q0 -86 -32 -117.5t-138 -46.5v-45h542v45q-105 15 -136 46.5t-31 117.5v307q49 0 79 -16t66 -60l192 -233q46 -57 60 -90.5t-1 -50t-59 -21.5v-45h472v45q-62 16 -112 57.5t-110 114.5
l-329 401l284 324q43 50 96.5 76t139.5 41v47h-451v-47q71 -10 100 -37.5t20 -63t-48 -77.5l-195 -215q-40 -43 -81 -57.5t-123 -14.5zM666 -94q50 0 85.5 -20.5t53 -54.5t24.5 -67t7 -69q0 -91 -43 -173t-101.5 -132t-120.5 -72l-26 47q104 48 152 140q39 72 17 116
q-15 26 -48 27q-53 0 -90 37.5t-37 93.5q0 51 38 89t89 38z" />
    <glyph glyph-name="Lacute.small" unicode="&#xf68a;" horiz-adv-x="1105" 
d="M246 209v686q0 86 -32 117.5t-138 46.5v47h542v-47q-105 -15 -136 -46.5t-31 -117.5v-819h297q116 0 184 48.5t82 166.5h55l-20 -291h-973v45q106 15 138 46.5t32 117.5zM332 1251l26 -22l289 213q57 42 37 96q-15 40 -58 55q-55 19 -92 -29l-6 -8z" />
    <glyph glyph-name="Lcaron.small" unicode="&#xf68b;" horiz-adv-x="1105" 
d="M246 209v686q0 86 -32 117.5t-138 46.5v47h542v-47q-105 -15 -136 -46.5t-31 -117.5v-819h297q116 0 184 48.5t82 166.5h55l-20 -291h-973v45q106 15 138 46.5t32 117.5zM879 1135q50 0 85.5 -20.5t53 -54.5t24.5 -67t7 -69q0 -91 -43 -173t-101.5 -132t-120.5 -72
l-26 47q104 48 152 140q39 72 17 116q-14 27 -48 27q-53 0 -90 37.5t-37 93.5q0 51 38 89t89 38z" />
    <glyph glyph-name="Lcommaaccent.small" unicode="&#xf68c;" horiz-adv-x="1105" 
d="M246 209v686q0 86 -32 117.5t-138 46.5v47h542v-47q-105 -15 -136 -46.5t-31 -117.5v-819h297q116 0 184 48.5t82 166.5h55l-20 -291h-973v45q106 15 138 46.5t32 117.5zM598 -94q50 0 85.5 -20.5t53 -54.5t24.5 -67t7 -69q0 -134 -82.5 -238t-181.5 -139l-27 47
q104 48 152 140q39 72 17 116q-15 26 -48 27q-53 0 -90 37.5t-37 93.5q0 51 38 89t89 38z" />
    <glyph glyph-name="Ldot.small" unicode="&#xf68d;" horiz-adv-x="1105" 
d="M246 209v686q0 86 -32 117.5t-138 46.5v47h542v-47q-105 -15 -136 -46.5t-31 -117.5v-819h297q116 0 184 48.5t82 166.5h55l-20 -291h-973v45q106 15 138 46.5t32 117.5zM657 592q0 51 35.5 87t87.5 36q51 0 87 -36t36 -87q0 -52 -36 -87.5t-87 -35.5q-52 0 -87.5 35.5
t-35.5 87.5z" />
    <glyph glyph-name="Nacute.small" unicode="&#xf68e;" horiz-adv-x="1372" 
d="M1044 313v582q0 61 -12 90t-50.5 46.5t-121.5 27.5v47h455v-47q-114 -15 -148 -46.5t-34 -117.5v-895h-125l-660 915v-706q0 -61 12 -90t50.5 -46.5t121.5 -27.5v-45h-456v45q114 15 148 46.5t34 117.5v686q0 86 -34 117.5t-148 46.5v47h387zM686 1251l27 -22l288 213
q58 43 37 97q-15 40 -58 54q-55 18 -92 -30q-3 -3 -5 -7z" />
    <glyph glyph-name="Ncaron.small" unicode="&#xf68f;" horiz-adv-x="1372" 
d="M1044 313v582q0 61 -12 90t-50.5 46.5t-121.5 27.5v47h455v-47q-114 -15 -148 -46.5t-34 -117.5v-895h-125l-660 915v-706q0 -61 12 -90t50.5 -46.5t121.5 -27.5v-45h-456v45q114 15 148 46.5t34 117.5v686q0 86 -34 117.5t-148 46.5v47h387zM715 1413l-232 184h-55
l256 -368h61l256 368h-57z" />
    <glyph glyph-name="Ncommaaccent.small" unicode="&#xf690;" horiz-adv-x="1372" 
d="M1044 313v582q0 61 -12 90t-50.5 46.5t-121.5 27.5v47h455v-47q-114 -15 -148 -46.5t-34 -117.5v-895h-125l-660 915v-706q0 -61 12 -90t50.5 -46.5t121.5 -27.5v-45h-456v45q114 15 148 46.5t34 117.5v686q0 86 -34 117.5t-148 46.5v47h387zM670 -94q50 0 85.5 -20.5
t53 -54.5t24.5 -67t7 -69q0 -91 -43 -173t-101.5 -132t-120.5 -72l-26 47q104 48 152 140q39 72 17 116q-15 26 -48 27q-53 0 -90 37.5t-37 93.5q0 51 38 89t89 38z" />
    <glyph glyph-name="Obreve.small" unicode="&#xf691;" horiz-adv-x="1351" 
d="M92 553q0 112 32.5 206.5t88.5 161t131 113.5t159 69.5t173 22.5t173 -22.5t159 -69.5t131 -113.5t88.5 -161t32.5 -206.5t-32.5 -207t-88.5 -161.5t-131 -113.5t-159 -69t-173 -22t-173 22t-159 69t-131 113.5t-88.5 161.5t-32.5 207zM317 553q0 -113 21 -200.5
t55.5 -142.5t82 -90t96.5 -49t104 -14t103.5 14t96.5 49t82 90t55 142.5t21 200.5t-21 200.5t-55 142t-82 89.5t-96.5 48.5t-103.5 13.5t-104 -13.5t-96.5 -48.5t-82 -89.5t-55.5 -142t-21 -200.5zM678 1270q66 0 117.5 27t82 72t45.5 98.5t15 111.5h-51q-17 -75 -76 -117.5
t-133 -42.5t-133 42.5t-76 117.5h-53q0 -58 15.5 -111.5t46 -98.5t82.5 -72t118 -27z" />
    <glyph glyph-name="Ohungarumlaut.small" unicode="&#xf692;" horiz-adv-x="1351" 
d="M92 553q0 112 32.5 206.5t88.5 161t131 113.5t159 69.5t173 22.5t173 -22.5t159 -69.5t131 -113.5t88.5 -161t32.5 -206.5t-32.5 -207t-88.5 -161.5t-131 -113.5t-159 -69t-173 -22t-173 22t-159 69t-131 113.5t-88.5 161.5t-32.5 207zM317 553q0 -113 21 -200.5
t55.5 -142.5t82 -90t96.5 -49t104 -14t103.5 14t96.5 49t82 90t55 142.5t21 200.5t-21 200.5t-55 142t-82 89.5t-96.5 48.5t-103.5 13.5t-104 -13.5t-96.5 -48.5t-82 -89.5t-55.5 -142t-21 -200.5zM475 1243l35 -14l207 297q40 57 -1 102q-32 35 -80 32q-54 -3 -70 -58
q-1 -1 -1 -3zM803 1243l35 -14l206 297q39 56 0 101q-31 36 -80 33q-54 -3 -70 -58l-1 -3z" />
    <glyph glyph-name="Omacron.small" unicode="&#xf693;" horiz-adv-x="1351" 
d="M92 553q0 112 32.5 206.5t88.5 161t131 113.5t159 69.5t173 22.5t173 -22.5t159 -69.5t131 -113.5t88.5 -161t32.5 -206.5t-32.5 -207t-88.5 -161.5t-131 -113.5t-159 -69t-173 -22t-173 22t-159 69t-131 113.5t-88.5 161.5t-32.5 207zM317 553q0 -113 21 -200.5
t55.5 -142.5t82 -90t96.5 -49t104 -14t103.5 14t96.5 49t82 90t55 142.5t21 200.5t-21 200.5t-55 142t-82 89.5t-96.5 48.5t-103.5 13.5t-104 -13.5t-96.5 -48.5t-82 -89.5t-55.5 -142t-21 -200.5zM340 1407h645v-82h-645v82z" />
    <glyph glyph-name="Oslashacute.small" unicode="&#xf694;" horiz-adv-x="1351" 
d="M653 1251l27 -22l289 213q57 42 37 96q-15 40 -58 55q-55 19 -92 -29l-6 -8zM207 -23l-60 54l107 108q-162 156 -162 414q0 112 32.5 206.5t88.5 161t131 113.5t159 69.5t173 22.5q229 0 391 -137l113 119l55 -64l-109 -112q134 -154 134 -379q0 -112 -32.5 -207
t-88.5 -161.5t-131 -113.5t-159 -69t-173 -22q-212 0 -361 108zM317 553q0 -180 54 -291l592 619q-93 166 -287 166q-55 0 -104 -13.5t-96.5 -48.5t-82 -89.5t-55.5 -142t-21 -200.5zM1034 553q0 132 -39 244l-585 -611q94 -129 266 -129q55 0 103.5 14t96.5 49t82 90
t55 142.5t21 200.5z" />
    <glyph glyph-name="Racute.small" unicode="&#xf695;" horiz-adv-x="1249" 
d="M557 1251l27 -22l288 213q58 43 37 97q-15 40 -58 54q-55 18 -92 -30q-3 -3 -5 -7zM1096 788q0 -102 -83 -182.5t-239 -113.5l240 -295q48 -59 95.5 -93t109.5 -59v-45h-295q-87 59 -146 143l-231 328h-96v-262q0 -86 31 -117.5t136 -46.5v-45h-542v45q106 15 138 46.5
t32 117.5v686q0 86 -32 117.5t-138 46.5v47h549q235 0 353 -76.5t118 -241.5zM451 547h71q359 0 359 241q0 125 -71 182.5t-237 57.5h-122v-481z" />
    <glyph glyph-name="Rcaron.small" unicode="&#xf696;" horiz-adv-x="1249" 
d="M600 1413l-231 184h-56l256 -368h62l256 368h-58zM1096 788q0 -102 -83 -182.5t-239 -113.5l240 -295q48 -59 95.5 -93t109.5 -59v-45h-295q-87 59 -146 143l-231 328h-96v-262q0 -86 31 -117.5t136 -46.5v-45h-542v45q106 15 138 46.5t32 117.5v686q0 86 -32 117.5
t-138 46.5v47h549q235 0 353 -76.5t118 -241.5zM451 547h71q359 0 359 241q0 125 -71 182.5t-237 57.5h-122v-481z" />
    <glyph glyph-name="Rcommaaccent.small" unicode="&#xf697;" horiz-adv-x="1249" 
d="M672 -94q50 0 85.5 -20.5t53 -54.5t24.5 -67t7 -69q0 -134 -82.5 -238t-181.5 -139l-27 47q104 48 152 140q39 72 17 116q-15 26 -48 27q-53 0 -90 37.5t-37 93.5q0 51 38 89t89 38zM1096 788q0 -102 -83 -182.5t-239 -113.5l240 -295q48 -59 95.5 -93t109.5 -59v-45
h-295q-87 59 -146 143l-231 328h-96v-262q0 -86 31 -117.5t136 -46.5v-45h-542v45q106 15 138 46.5t32 117.5v686q0 86 -32 117.5t-138 46.5v47h549q235 0 353 -76.5t118 -241.5zM451 547h71q359 0 359 241q0 125 -71 182.5t-237 57.5h-122v-481z" />
    <glyph glyph-name="Sacute.small" unicode="&#xf698;" horiz-adv-x="972" 
d="M829 768h-63q-24 131 -104 205t-185 74q-79 0 -132.5 -36.5t-53.5 -111.5q0 -91 59.5 -142t169.5 -89q67 -25 113 -45.5t96 -52t79.5 -65.5t49 -83t19.5 -107q0 -102 -57.5 -179.5t-151 -116.5t-207.5 -39q-87 0 -181.5 21.5t-162.5 57.5l-21 299h66q9 -73 33.5 -129
t54 -88t68 -51.5t71 -26t66.5 -6.5q95 0 154 52.5t59 142.5q0 35 -15 65.5t-35 51.5t-60 44t-68.5 36t-81.5 36q-79 32 -130 59.5t-97 67.5t-67.5 93t-21.5 122q0 135 104.5 217t288.5 82q79 0 166.5 -19.5t153.5 -51.5zM428 1251l27 -22l288 213q58 43 37 97q-15 40 -58 54
q-55 18 -92 -30q-3 -3 -5 -7z" />
    <glyph glyph-name="Scircumflex.small" unicode="&#xf69a;" horiz-adv-x="972" 
d="M829 768h-63q-24 131 -104 205t-185 74q-79 0 -132.5 -36.5t-53.5 -111.5q0 -91 59.5 -142t169.5 -89q67 -25 113 -45.5t96 -52t79.5 -65.5t49 -83t19.5 -107q0 -102 -57.5 -179.5t-151 -116.5t-207.5 -39q-87 0 -181.5 21.5t-162.5 57.5l-21 299h66q9 -73 33.5 -129
t54 -88t68 -51.5t71 -26t66.5 -6.5q95 0 154 52.5t59 142.5q0 35 -15 65.5t-35 51.5t-60 44t-68.5 36t-81.5 36q-79 32 -130 59.5t-97 67.5t-67.5 93t-21.5 122q0 135 104.5 217t288.5 82q79 0 166.5 -19.5t153.5 -51.5zM467 1413l-231 -184h-56l256 368h62l256 -368h-58z
" />
    </font>
</defs>
</svg>
